G04 ================== begin FILE IDENTIFICATION RECORD ==================*
G04 Layout Name:  C:/tmp/20_037158b_bck/worklib/02_037158b_top/physical/08_037158b.brd*
G04 Film Name:    l2_gnd*
G04 File Format:  Gerber RS274X*
G04 File Origin:  Cadence Allegro 16.5-S031*
G04 Origin Date:  Thu Dec 19 14:20:58 2013*
G04 *
G04 Layer:  VIA CLASS/L2_GND*
G04 Layer:  PIN/L2_GND*
G04 Layer:  ETCH/L2_GND*
G04 Layer:  BOARD GEOMETRY/TOOLING_CORNERS*
G04 Layer:  BOARD GEOMETRY/LYR_2*
G04 Layer:  BOARD GEOMETRY/ROOT_NUMBER*
G04 *
G04 Offset:    (0.0 0.0)*
G04 Mirror:    No*
G04 Mode:      Positive*
G04 Rotation:  0*
G04 FullContactRelief:  No*
G04 UndefLineWidth:     8.0*
G04 ================== end FILE IDENTIFICATION RECORD ====================*
%FSLAX55Y55*MOIN*%
%IR0*IPPOS*OFA0.00000B0.00000*MIA0B0*SFA1.00000B1.00000*%
%ADD13C,.04*%
%ADD11C,.07*%
%ADD10C,.025*%
%ADD12C,.065*%
%ADD14C,.012*%
%ADD15C,.008*%
%ADD16C,.05*%
%ADD23C,.1004*%
%ADD20C,.0604*%
%ADD22C,.0904*%
%ADD17C,.0454*%
%ADD18C,.0854*%
%ADD19C,.0954*%
%ADD21C,.0884*%
G75*
%LPD*%
G75*
G36*
G01X101500Y2000D02*
X102490Y1010D01*
Y-147010D01*
X101500Y-148000D01*
X83000D01*
X82000Y-149000D01*
Y-156500D01*
X83000Y-157500D01*
X119000D01*
X120000Y-158500D01*
Y-216000D01*
X119000Y-217000D01*
X-12190D01*
G02X-12430Y-216280I1J400D01*
G03X-24170Y-188580I-9571J12281D01*
G02X-24520Y-187910I-58J396D01*
G03X-29650Y-189620I-4140J3870D01*
G02X-29520Y-190370I-62J-397D01*
G03X-31570Y-216280I7522J-13631D01*
G02X-31810Y-217000I-241J-320D01*
G01X-38500D01*
X-39000Y-216500D01*
Y1000D01*
X-38000Y2000D01*
X-34890D01*
G02X-34540Y1410I-2J-400D01*
G03X-9000I12770J-6910D01*
G02X-8650Y2000I352J190D01*
G01X101500D01*
G37*
G36*
G01X199000Y-30500D02*
X198000Y-29500D01*
X182990D01*
G02X182470Y-29790I-390J88D01*
G03Y-35510I-970J-2860D01*
G02X183000Y-35890I130J-378D01*
G01Y-42000D01*
X184500Y-43500D01*
X203500D01*
X204500Y-44500D01*
Y-55000D01*
X203500Y-56000D01*
X184000D01*
X183000Y-57000D01*
Y-69500D01*
X184000Y-70500D01*
X199000D01*
Y-65500D01*
X200000Y-64500D01*
X203500D01*
X204500Y-65500D01*
Y-216000D01*
X203500Y-217000D01*
X133000D01*
X132000Y-216000D01*
Y-149000D01*
X131000Y-148000D01*
X105000D01*
X104000Y-147000D01*
Y1000D01*
X105000Y2000D01*
X203500D01*
X204500Y1000D01*
Y-7000D01*
X204000Y-7500D01*
X170000D01*
X169000Y-8500D01*
X168960Y-8520D01*
G03X168500Y-16270I1542J-3980D01*
G01Y-22500D01*
X169500Y-23500D01*
X197500D01*
X199000Y-22000D01*
Y-16500D01*
X199500Y-16000D01*
X204000D01*
X204500Y-16500D01*
Y-32500D01*
X204000Y-33000D01*
X199500D01*
X199000Y-32500D01*
Y-30500D01*
G37*
G36*
G01X232000Y-7000D02*
X231000Y-6000D01*
X208000D01*
X207500Y-5500D01*
Y1000D01*
X208500Y2000D01*
X335500D01*
X336500Y1000D01*
Y-216000D01*
X335500Y-217000D01*
X208500D01*
X207500Y-216000D01*
Y-65500D01*
X208500Y-64500D01*
X211500D01*
X212500Y-65500D01*
Y-69500D01*
X213500Y-70500D01*
X231500D01*
X232500Y-69500D01*
Y-57500D01*
X231000Y-56000D01*
X208500D01*
X207500Y-55000D01*
Y-43500D01*
X208500Y-42500D01*
X232500D01*
Y-31500D01*
X231000Y-30000D01*
X215000D01*
X214000Y-31000D01*
Y-33500D01*
X213000Y-34500D01*
X208500D01*
X207500Y-33500D01*
Y-16000D01*
X208000Y-15500D01*
X213000D01*
X213500Y-16000D01*
Y-24000D01*
X214500Y-25000D01*
X226500D01*
X227500Y-24000D01*
Y-19500D01*
X228500Y-18500D01*
X231000D01*
X232000Y-17500D01*
Y-7000D01*
G37*
%LPC*%
G75*
G36*
G01X41020Y-8940D02*
G02X43340Y-11340I3987J1532D01*
G01X41610Y-13070D01*
Y-13810D01*
G03X42270Y-14120I401J-5D01*
G02Y-20680I2730J-3280D01*
G03X41610Y-20990I-259J-305D01*
G01Y-27170D01*
X8610Y-60170D01*
Y-71320D01*
G03X9160Y-71690I400J0D01*
G02Y-75910I840J-2110D01*
G03X8610Y-76280I-150J-370D01*
G01Y-85330D01*
X9010Y-85730D01*
X9080D01*
G02X10300Y-89860I-80J-2269D01*
G03X10250Y-90470I231J-326D01*
G01X25170Y-105390D01*
X35520D01*
G03X35890Y-104840I0J400D01*
G02X40180Y-104630I2109J840D01*
G03X40300Y-104880I192J-62D01*
G02X37900Y-108610I-798J-2124D01*
G01X23830D01*
X11860Y-96630D01*
G03X11200Y-96790I-280J-286D01*
G02X8310Y-93900I-2150J740D01*
G03X8470Y-93240I-126J380D01*
G01X8330Y-93110D01*
X8100D01*
X8040Y-93160D01*
G02X6470Y-89230I-1544J1662D01*
G03X6840Y-88710I-9J398D01*
G02X6730Y-88080I2161J702D01*
G01Y-88010D01*
X5390Y-86670D01*
Y-58830D01*
X38390Y-25830D01*
Y-20990D01*
G03X37730Y-20680I-401J5D01*
G02Y-14120I-2730J3280D01*
G03X38390Y-13810I259J305D01*
G01Y-11730D01*
X41060Y-9060D01*
X41020Y-8940D01*
G37*
G36*
G01X63750Y-111400D02*
G03X63230Y-111470I-220J-332D01*
G02X62750Y-108100I-1729J1473D01*
G03X63270Y-108030I220J332D01*
G02X63750Y-111400I1729J-1473D01*
G37*
G36*
G01X111500Y-208500D02*
X49630D01*
G02X40370I-4630J1930D01*
G01X29090D01*
G02X20910I-4090J1930D01*
G01X15500D01*
X14500Y-207500D01*
Y-167500D01*
X15500Y-166500D01*
X111000D01*
X112500Y-168000D01*
Y-207500D01*
X111500Y-208500D01*
G37*
G36*
G01X56860Y-67550D02*
G02X59600Y-67900I1143J-1950D01*
G01X74760Y-83060D01*
Y-91500D01*
G02X70240I-2260J0D01*
G01Y-84940D01*
X56940Y-71640D01*
G03X56260Y-71920I-281J-284D01*
G01Y-73060D01*
X66260Y-83060D01*
Y-97500D01*
G02X61740I-2260J0D01*
G01Y-84940D01*
X51740Y-74940D01*
Y-65130D01*
X56740Y-60130D01*
Y-41940D01*
X56170Y-41370D01*
G02X59370Y-38170I1600J1600D01*
G01X61260Y-40060D01*
Y-62010D01*
X56260Y-67010D01*
Y-67200D01*
G03X56860Y-67550I400J-3D01*
G37*
G54D23*
X326580Y-42500D03*
Y-161000D03*
G54D20*
X51300Y-88300D03*
X67010Y-115000D03*
X29500Y-137500D03*
X12000Y-160500D03*
X-26100Y-174600D03*
X169500Y-37000D03*
X261750Y-97500D03*
X232000Y-113500D03*
G54D22*
X326580Y-62500D03*
Y-181000D03*
G54D17*
X32500Y-156500D03*
X72000Y-108840D03*
X72500Y-103720D03*
X47650Y-121350D03*
X21750Y-95250D03*
X28000Y-101500D03*
X40000Y-112000D03*
X12800Y-114700D03*
X-27170Y-44670D03*
X5170Y-49450D03*
X119000Y-98000D03*
X130300Y-126300D03*
X143000Y-97500D03*
Y-105500D03*
X142500Y-113000D03*
X141550Y-56050D03*
X130000D03*
X264890Y-117110D03*
X272980Y-131520D03*
X266500Y-154500D03*
X274000Y-168000D03*
X266550Y-167050D03*
X272950Y-47500D03*
G54D18*
X25000Y-30500D03*
X15000D03*
Y-7400D03*
X55000D03*
X65000D03*
X15000Y-17400D03*
X55000D03*
X65000D03*
X73700Y-154500D03*
X35000Y-7400D03*
X149500Y-77000D03*
X294100Y-135000D03*
Y-125000D03*
X287900Y-93600D03*
X246500Y-8500D03*
X246000Y-59500D03*
X225000Y-144500D03*
Y-133500D03*
Y-168500D03*
Y-157000D03*
X265000Y-43500D03*
G54D19*
X25000Y-7400D03*
Y-17400D03*
X268500Y-27500D03*
G54D21*
X-28660Y-25780D03*
%LPD*%
G75*
G54D10*
G01X41120Y-210450D02*
X45000Y-206570D01*
G01X21290Y-21110D02*
X25000Y-17400D01*
G01D02*
X28710Y-13690D01*
G01X21290D02*
X25000Y-17400D01*
G01D02*
X28710Y-21110D01*
G01X21290Y-11110D02*
X25000Y-7400D01*
G01D02*
X28710Y-3690D01*
G01X21290D02*
X25000Y-7400D01*
G01D02*
X28710Y-11110D01*
G01X45000Y-206570D02*
X48880Y-210450D01*
G01X64000Y-97500D02*
Y-84000D01*
X54000Y-74000D01*
Y-66070D01*
X59000Y-61070D01*
Y-41000D01*
X57770Y-39770D01*
G01X58000Y-69500D02*
X72500Y-84000D01*
Y-91500D01*
G01X264790Y-31210D02*
X268500Y-27500D01*
G01D02*
X272210Y-23790D01*
G01X264790D02*
X268500Y-27500D01*
G01D02*
X272210Y-31210D01*
G01X326580Y-161000D02*
X330460Y-157120D01*
G01X322700Y-164880D02*
X326580Y-161000D01*
G01X322700Y-157120D02*
X326580Y-161000D01*
G01D02*
X330460Y-164880D01*
G01X322700Y-46380D02*
X326580Y-42500D01*
G01D02*
X330460Y-38620D01*
G01X322700D02*
X326580Y-42500D01*
G01D02*
X330460Y-46380D01*
X-37000Y-214000D03*
Y-182000D03*
Y-25500D03*
X-9500Y-214500D03*
X-35500Y-193000D03*
X-16000Y-169000D03*
X-15780Y-162780D03*
X-27500Y-168500D03*
X-27720Y-162780D03*
X-27000Y-150970D03*
X-15500Y-148610D03*
Y-136800D03*
X-16000Y-122630D03*
X-27000Y-136800D03*
X-27630Y-122630D03*
X-16000Y-110820D03*
X-27500D03*
X-15780Y-94280D03*
X-16000Y-82500D03*
Y-68300D03*
X-27500Y-91920D03*
X-27530Y-82470D03*
X-27500Y-68300D03*
X-16000Y-54120D03*
X-27500D03*
X-35500Y-15000D03*
X-27000Y-39950D03*
X-16000D03*
X4500Y-214500D03*
X12000Y-182500D03*
X8200Y-152200D03*
X6000Y-173500D03*
X16550Y-115000D03*
X6500Y-91500D03*
X9000Y-88000D03*
X6150Y-56150D03*
X10500Y-60300D03*
X14500Y-41300D03*
X-5000Y-2500D03*
X14000Y-2000D03*
X20500Y-214500D03*
X36500D03*
X25690Y-147000D03*
X27180Y-114180D03*
X39500Y-107000D03*
X19500Y-76610D03*
X22460Y-73800D03*
X24960Y-57140D03*
X26010Y-65800D03*
X30000Y-2000D03*
X52500Y-214500D03*
X68500D03*
X65500Y-149000D03*
X56300Y-124160D03*
X70900Y-123900D03*
X67500Y-120000D03*
X60350Y-121350D03*
X64000Y-97500D03*
X56300Y-88990D03*
X69500Y-93500D03*
X60000Y-92000D03*
X58000Y-69500D03*
X61950Y-64060D03*
X49000Y-52020D03*
X55700Y-59700D03*
X57770Y-39770D03*
X46000Y-2000D03*
X62000D03*
X84500Y-214500D03*
X95000Y-161000D03*
X79000D03*
X78000Y-146000D03*
Y-130000D03*
Y-121000D03*
Y-82000D03*
X72500Y-91500D03*
X78000Y-66000D03*
Y-50000D03*
Y-34000D03*
Y-18000D03*
Y-2000D03*
X100500Y-214500D03*
X116500D03*
X112470Y-209500D03*
X118500Y-198400D03*
X116500Y-184500D03*
X113500Y-185500D03*
X119000Y-176930D03*
X113500Y-193000D03*
X119000Y-200950D03*
X116500Y-168500D03*
X111000Y-161000D03*
X113500Y-169000D03*
X124000Y-144000D03*
X108000D03*
Y-128000D03*
X112500Y-95800D03*
X108000Y-82000D03*
Y-66000D03*
Y-50000D03*
Y-34000D03*
Y-18000D03*
X124000Y-2000D03*
X108000D03*
X152000Y-213000D03*
X136000D03*
Y-197000D03*
Y-181000D03*
Y-165000D03*
Y-149000D03*
X135300Y-128500D03*
X139000Y-122700D03*
X147500Y-120500D03*
X152500Y-101500D03*
X151500Y-109000D03*
X151000Y-117000D03*
X126500Y-88500D03*
X140000Y-2000D03*
X168000Y-213000D03*
X169000Y-48000D03*
Y-57500D03*
X172000Y-2000D03*
X156000D03*
X200000Y-213000D03*
X184000D03*
X200500Y-194000D03*
Y-178000D03*
Y-162000D03*
Y-146000D03*
Y-130000D03*
Y-114000D03*
Y-98000D03*
X199500Y-83000D03*
X200500Y-44500D03*
Y-66000D03*
Y-54500D03*
X201000Y-32000D03*
X200500Y-17000D03*
Y-2000D03*
X188000D03*
X227000Y-213000D03*
X211000Y-209500D03*
Y-193500D03*
Y-177500D03*
Y-161500D03*
Y-145500D03*
Y-129500D03*
Y-113500D03*
Y-97500D03*
X212500Y-83000D03*
X232000Y-91500D03*
X226750Y-86750D03*
X211000Y-44500D03*
Y-65500D03*
Y-54000D03*
Y-33500D03*
Y-17000D03*
X227000Y-500D03*
X211000D03*
X259000Y-213000D03*
X243000D03*
X259200Y-164300D03*
X242500Y-129550D03*
X256500Y-148750D03*
X251110Y-147890D03*
X234750Y-105750D03*
X240000Y-101000D03*
X248000Y-104500D03*
X254500Y-104000D03*
X239900Y-91000D03*
X259000Y-500D03*
X243000D03*
X275000Y-213000D03*
X263350Y-159850D03*
X271500Y-155500D03*
X275500Y-151000D03*
X281700Y-165800D03*
X274000Y-138500D03*
X283250Y-107000D03*
X269250Y-97750D03*
X260950Y-117100D03*
X270500Y-117500D03*
X274500Y-103000D03*
X279500Y-74000D03*
X281500Y-36000D03*
X275650Y-40650D03*
X307000Y-213000D03*
X291000D03*
X294400Y-157900D03*
X288000Y-112500D03*
X291000Y-80500D03*
X294500Y-33000D03*
X307000Y-500D03*
X291000D03*
X323000Y-213000D03*
X332500Y-201000D03*
X332000Y-185000D03*
Y-169000D03*
X332500Y-153000D03*
Y-137000D03*
Y-121000D03*
Y-105000D03*
Y-89000D03*
Y-73000D03*
X332000Y-57000D03*
X332500Y-41000D03*
Y-25000D03*
Y-9000D03*
X325000Y-500D03*
G54D11*
X45000Y-206570D03*
X326580Y-161000D03*
Y-42500D03*
G54D12*
X25000Y-17400D03*
Y-7400D03*
X45000D03*
X268500Y-27500D03*
G54D13*
X47500Y-137500D03*
X179500Y-24500D03*
X181500Y-59650D03*
X182500Y-49500D03*
X182000Y-39350D03*
X188250Y-26250D03*
X231500Y-50000D03*
X228500Y-22000D03*
X242500Y-66750D03*
Y-16000D03*
X248500Y-25000D03*
G54D14*
G01X39500Y-107000D02*
X24500D01*
X9000Y-91500D01*
X6500D01*
G01X45000Y-7400D02*
X40000Y-12400D01*
Y-26500D01*
X7000Y-59500D01*
Y-86000D01*
X9000Y-88000D01*
G54D15*
G01X82500Y145000D02*
X81500Y144670D01*
X80750Y143830D01*
X80250Y142830D01*
X79870Y141500D01*
X79750Y140000D01*
X79870Y138500D01*
X80250Y137170D01*
X80750Y136170D01*
X81500Y135330D01*
X82500Y135000D01*
X83500Y135330D01*
X84250Y136170D01*
X84750Y137170D01*
X85130Y138500D01*
X85250Y140000D01*
X85130Y141500D01*
X84750Y142830D01*
X84250Y143830D01*
X83500Y144670D01*
X82500Y145000D01*
G01X92500Y135000D02*
X93370Y135170D01*
X94370Y135670D01*
X95000Y136500D01*
X95250Y137670D01*
X95000Y138830D01*
X94250Y139830D01*
X93120Y140330D01*
X91880D01*
X91120Y140670D01*
X90500Y141500D01*
X90250Y142670D01*
X90630Y143830D01*
X91500Y144670D01*
X92500Y145000D01*
X93500Y144670D01*
X94370Y143830D01*
X94750Y142670D01*
X94500Y141500D01*
X93880Y140670D01*
X93120Y140330D01*
X91880D01*
X90750Y139830D01*
X90000Y138830D01*
X89750Y137670D01*
X90000Y136500D01*
X90630Y135670D01*
X91630Y135170D01*
X92500Y135000D01*
G01X100880Y138330D02*
X104120D01*
G01X170880D02*
X174120D01*
G01X182500Y145000D02*
X181500Y144670D01*
X180750Y143830D01*
X180250Y142830D01*
X179870Y141500D01*
X179750Y140000D01*
X179870Y138500D01*
X180250Y137170D01*
X180750Y136170D01*
X181500Y135330D01*
X182500Y135000D01*
X183500Y135330D01*
X184250Y136170D01*
X184750Y137170D01*
X185130Y138500D01*
X185250Y140000D01*
X185130Y141500D01*
X184750Y142830D01*
X184250Y143830D01*
X183500Y144670D01*
X182500Y145000D01*
G01X192250Y135000D02*
X192500Y137170D01*
X192880Y139000D01*
X193370Y140670D01*
X194000Y142500D01*
X195000Y145000D01*
X190000D01*
G01X115000Y115000D02*
Y125000D01*
X118120D01*
X119120Y124500D01*
X119750Y123830D01*
X120000Y122500D01*
X119750Y121170D01*
X119000Y120330D01*
X118120Y119830D01*
X115000D01*
G01X118120D02*
X120000Y115000D01*
G01X130000D02*
X125000D01*
Y125000D01*
X130000D01*
G01X128000Y120170D02*
X125000D01*
G01X134370Y125000D02*
X137500Y115000D01*
X140630Y125000D01*
G01X158500Y120330D02*
X159000Y120830D01*
X159370Y121670D01*
X159630Y122830D01*
X159370Y123830D01*
X158880Y124500D01*
X158000Y125000D01*
X154630D01*
Y115000D01*
X158750D01*
X159630Y115670D01*
X160130Y116670D01*
X160370Y117830D01*
X160130Y119000D01*
X159370Y120000D01*
X158500Y120330D01*
X154630D01*
G01X112500Y145000D02*
X111500Y144670D01*
X110750Y143830D01*
X110250Y142830D01*
X109870Y141500D01*
X109750Y140000D01*
X109870Y138500D01*
X110250Y137170D01*
X110750Y136170D01*
X111500Y135330D01*
X112500Y135000D01*
X113500Y135330D01*
X114250Y136170D01*
X114750Y137170D01*
X115130Y138500D01*
X115250Y140000D01*
X115130Y141500D01*
X114750Y142830D01*
X114250Y143830D01*
X113500Y144670D01*
X112500Y145000D01*
G01X119750Y137000D02*
X120500Y135830D01*
X121500Y135170D01*
X122630Y135000D01*
X123630Y135170D01*
X124630Y136000D01*
X125250Y137000D01*
X125370Y138000D01*
X125130Y139170D01*
X124250Y140000D01*
X123370Y140330D01*
X122250D01*
G01X123370D02*
X124120Y140830D01*
X124750Y141670D01*
X125000Y142670D01*
X124750Y143670D01*
X124120Y144500D01*
X123000Y145000D01*
X121880Y144830D01*
X120750Y144170D01*
G01X132250Y135000D02*
X132500Y137170D01*
X132880Y139000D01*
X133370Y140670D01*
X134000Y142500D01*
X135000Y145000D01*
X130000D01*
G01X142500Y135000D02*
Y145000D01*
X141000Y143000D01*
G01Y135000D02*
X144000D01*
G01X149750Y136500D02*
X150500Y135670D01*
X151370Y135170D01*
X152500Y135000D01*
X153630Y135330D01*
X154500Y136000D01*
X155130Y137170D01*
X155250Y138500D01*
X155000Y139830D01*
X154370Y140670D01*
X153500Y141330D01*
X152630Y141500D01*
X151750Y141330D01*
X150630Y140670D01*
X151000Y145000D01*
X154370D01*
G01X162500Y135000D02*
X163370Y135170D01*
X164370Y135670D01*
X165000Y136500D01*
X165250Y137670D01*
X165000Y138830D01*
X164250Y139830D01*
X163120Y140330D01*
X161880D01*
X161120Y140670D01*
X160500Y141500D01*
X160250Y142670D01*
X160630Y143830D01*
X161500Y144670D01*
X162500Y145000D01*
X163500Y144670D01*
X164370Y143830D01*
X164750Y142670D01*
X164500Y141500D01*
X163880Y140670D01*
X163120Y140330D01*
X161880D01*
X160750Y139830D01*
X160000Y138830D01*
X159750Y137670D01*
X160000Y136500D01*
X160630Y135670D01*
X161630Y135170D01*
X162500Y135000D01*
G01X110000Y165000D02*
Y155000D01*
X115000D01*
G01X120120Y163330D02*
X120880Y164330D01*
X121750Y164830D01*
X122750Y165000D01*
X124000Y164670D01*
X124880Y163830D01*
X125130Y162830D01*
X125000Y161830D01*
X124500Y161000D01*
X122000Y159330D01*
X120880Y158170D01*
X120120Y156500D01*
X119870Y155000D01*
X125130D01*
G01X143250Y160000D02*
X145750D01*
Y157000D01*
X145000Y156000D01*
X144120Y155330D01*
X142880Y155000D01*
X141630Y155330D01*
X140750Y156000D01*
X140000Y157000D01*
X139500Y158170D01*
X139250Y159500D01*
Y160670D01*
X139500Y161670D01*
X140000Y162830D01*
X140750Y163830D01*
X141500Y164500D01*
X142500Y165000D01*
X143370D01*
X144370Y164670D01*
X145130Y164000D01*
G01X149630Y155000D02*
Y165000D01*
X155370Y155000D01*
Y165000D01*
G01X159750Y155000D02*
Y165000D01*
X162250D01*
X163250Y164500D01*
X164000Y163830D01*
X164630Y162830D01*
X165130Y161670D01*
X165250Y160000D01*
X165130Y158330D01*
X164630Y157170D01*
X164000Y156170D01*
X163250Y155500D01*
X162250Y155000D01*
X159750D01*
G54D16*
G01X-47500Y-235000D02*
Y-200000D01*
G01X-57500Y-225000D02*
X-22500D01*
G01X-47500Y20000D02*
Y-15000D01*
G01X-57500Y10000D02*
X-22500D01*
G01X355000Y-225000D02*
X320000D01*
G01X355000Y10000D02*
X320000D01*
G01X345000Y-235000D02*
Y-200000D01*
G01Y20000D02*
Y-15000D01*
M02*
