G04 ================== begin FILE IDENTIFICATION RECORD ==================*
G04 Layout Name:  C:/tmp/20_037158b_bck/worklib/02_037158b_top/physical/08_037158b.brd*
G04 Film Name:    l4_secondary*
G04 File Format:  Gerber RS274X*
G04 File Origin:  Cadence Allegro 16.5-S031*
G04 Origin Date:  Thu Dec 19 14:20:58 2013*
G04 *
G04 Layer:  VIA CLASS/BOTTOM*
G04 Layer:  PIN/BOTTOM*
G04 Layer:  ETCH/BOTTOM*
G04 Layer:  BOARD GEOMETRY/TOOLING_CORNERS*
G04 Layer:  BOARD GEOMETRY/LYR_BOTTOM*
G04 Layer:  BOARD GEOMETRY/ROOT_NUMBER*
G04 *
G04 Offset:    (0.0 0.0)*
G04 Mirror:    No*
G04 Mode:      Positive*
G04 Rotation:  0*
G04 FullContactRelief:  No*
G04 UndefLineWidth:     8.0*
G04 ================== end FILE IDENTIFICATION RECORD ====================*
%FSLAX55Y55*MOIN*%
%IR0*IPPOS*OFA0.00000B0.00000*MIA0B0*SFA1.00000B1.00000*%
%AMMACRO13*
4,1,36,0.0,.01,
.001736,.009848,
.00342,.009397,
.005,.00866,
.006428,.00766,
.00766,.006428,
.00866,.005,
.009397,.00342,
.009848,.001736,
.01,0.0,
.009848,-.001736,
.009397,-.00342,
.00866,-.005,
.00766,-.006428,
.006428,-.00766,
.005,-.00866,
.00342,-.009397,
.001736,-.009848,
0.0,-.01,
-.001736,-.009848,
-.00342,-.009397,
-.005,-.00866,
-.006428,-.00766,
-.00766,-.006428,
-.00866,-.005,
-.009397,-.00342,
-.009848,-.001736,
-.01,0.0,
-.009848,.001736,
-.009397,.00342,
-.00866,.005,
-.00766,.006428,
-.006428,.00766,
-.005,.00866,
-.00342,.009397,
-.001736,.009848,
0.0,.01,
90.*
%
%ADD13MACRO13*%
%AMMACRO11*
4,1,36,0.0,-.02,
.003473,-.019696,
.00684,-.018794,
.01,-.017321,
.012856,-.015321,
.015321,-.012856,
.017321,-.01,
.018794,-.00684,
.019696,-.003473,
.02,0.0,
.019696,.003473,
.018794,.00684,
.017321,.01,
.015321,.012856,
.012856,.015321,
.01,.017321,
.00684,.018794,
.003473,.019696,
0.0,.02,
-.003473,.019696,
-.00684,.018794,
-.01,.017321,
-.012856,.015321,
-.015321,.012856,
-.017321,.01,
-.018794,.00684,
-.019696,.003473,
-.02,0.0,
-.019696,-.003473,
-.018794,-.00684,
-.017321,-.01,
-.015321,-.012856,
-.012856,-.015321,
-.01,-.017321,
-.00684,-.018794,
-.003473,-.019696,
0.0,-.02,
90.*
%
%ADD11MACRO11*%
%AMMACRO18*
4,1,36,0.0,-.02,
.003473,-.019696,
.00684,-.018794,
.01,-.017321,
.012856,-.015321,
.015321,-.012856,
.017321,-.01,
.018794,-.00684,
.019696,-.003473,
.02,0.0,
.019696,.003473,
.018794,.00684,
.017321,.01,
.015321,.012856,
.012856,.015321,
.01,.017321,
.00684,.018794,
.003473,.019696,
0.0,.02,
-.003473,.019696,
-.00684,.018794,
-.01,.017321,
-.012856,.015321,
-.015321,.012856,
-.017321,.01,
-.018794,.00684,
-.019696,.003473,
-.02,0.0,
-.019696,-.003473,
-.018794,-.00684,
-.017321,-.01,
-.015321,-.012856,
-.012856,-.015321,
-.01,-.017321,
-.00684,-.018794,
-.003473,-.019696,
0.0,-.02,
0.0*
%
%ADD18MACRO18*%
%ADD12C,.04*%
%ADD16C,.07*%
%ADD10C,.025*%
%ADD15C,.065*%
%ADD17R,.07X.07*%
%ADD14R,.065X.065*%
%ADD19C,.007*%
%ADD20C,.01*%
%ADD21C,.02*%
%ADD22C,.012*%
%ADD23C,.008*%
%ADD24C,.05*%
%ADD34C,.1004*%
%ADD27C,.1134*%
%ADD32O,.1607X.0452*%
%ADD35R,.7792X.0938*%
%ADD29C,.0604*%
%ADD30C,.0454*%
%ADD33R,.0902X.0902*%
%ADD25C,.0854*%
%ADD31C,.0954*%
%ADD28C,.0884*%
%ADD26R,.0852X.0852*%
G75*
%LPD*%
G75*
G36*
G01X81000Y2000D02*
X82000Y1000D01*
Y-156500D01*
X83000Y-157500D01*
X119000D01*
X120000Y-158500D01*
Y-216000D01*
X119000Y-217000D01*
X-13300D01*
G02X-13520Y-216270I4J399D01*
G03X-30020I-8250J11950D01*
G02X-30240Y-217000I-224J-331D01*
G01X-38500D01*
X-39000Y-216500D01*
Y1000D01*
X-38000Y2000D01*
X-34890D01*
G02X-34540Y1410I-2J-400D01*
G03X-9000I12770J-6910D01*
G02X-8650Y2000I352J190D01*
G01X-3020D01*
G02X-2670Y1410I-2J-400D01*
G03X2670I2670J-1410D01*
G02X3020Y2000I352J190D01*
G01X81000D01*
G37*
G36*
G01X130430Y-123890D02*
X130290Y-124030D01*
X130220D01*
G03X132420Y-127110I80J-2269D01*
G01X164330D01*
X195080Y-157860D01*
X199080D01*
X204500Y-163280D01*
Y-216000D01*
X203500Y-217000D01*
X133000D01*
X132000Y-216000D01*
Y-149000D01*
X131000Y-148000D01*
X105000D01*
X104000Y-147000D01*
Y1000D01*
X105000Y2000D01*
X203500D01*
X204500Y1000D01*
Y-6500D01*
X203500Y-7500D01*
X170000D01*
X169000Y-8500D01*
X168960Y-8520D01*
G03X166880Y-10240I1540J-3980D01*
G01X148060D01*
X116740Y-41560D01*
Y-98000D01*
G03X121260I2260J0D01*
G01Y-43440D01*
X149940Y-14760D01*
X166880D01*
G03X169000Y-16500I3625J2256D01*
G01Y-22500D01*
X170000Y-23500D01*
X198000D01*
X198500Y-23000D01*
Y-17000D01*
X199500Y-16000D01*
X203500D01*
X204500Y-17000D01*
Y-33500D01*
X204000Y-34000D01*
X198500D01*
X198000Y-33500D01*
Y-30000D01*
X197500Y-29500D01*
X183500D01*
Y-30000D01*
X182950D01*
X182910Y-29980D01*
G03X182470Y-35510I-1410J-2670D01*
G02X183000Y-35890I130J-378D01*
G01Y-43000D01*
X183500Y-43500D01*
X204000D01*
X204500Y-44000D01*
Y-55000D01*
X204000Y-55500D01*
X184000D01*
X183500Y-56000D01*
Y-67500D01*
X184000Y-68000D01*
X198000D01*
X199000Y-67000D01*
Y-64000D01*
X199500Y-63500D01*
X204000D01*
X204500Y-64000D01*
Y-126760D01*
G02X203820Y-127040I-399J4D01*
G01X172670Y-95890D01*
X144600D01*
G03Y-99110I-1600J-1610D01*
G01X171330D01*
X204500Y-132280D01*
Y-140260D01*
G02X203820Y-140540I-399J4D01*
G01X167170Y-103890D01*
X144600D01*
G03Y-107110I-1600J-1610D01*
G01X165830D01*
X204500Y-145780D01*
Y-151260D01*
G02X203820Y-151540I-399J4D01*
G01X163670Y-111390D01*
X144100D01*
G03Y-114610I-1600J-1610D01*
G01X162330D01*
X204500Y-156780D01*
Y-157760D01*
G02X203820Y-158040I-399J4D01*
G01X200420Y-154640D01*
X196420D01*
X165670Y-123890D01*
X130430D01*
G37*
G36*
G01X211330Y-170110D02*
X221050D01*
G03Y-166890I3950J1610D01*
G01X212670D01*
X207500Y-161720D01*
Y-158610D01*
X221050D01*
G03Y-155390I3950J1610D01*
G01X207670D01*
X207500Y-155220D01*
Y-149740D01*
G02X208180Y-149460I399J-4D01*
G01X209330Y-150610D01*
X221170D01*
X223340Y-148440D01*
X223460Y-148480D01*
G03X221060Y-146160I1532J3987D01*
G01X219830Y-147390D01*
X210670D01*
X207500Y-144220D01*
Y-135110D01*
X221050D01*
G03Y-131890I3950J1610D01*
G01X208670D01*
X207500Y-130720D01*
Y-64000D01*
X208000Y-63500D01*
X212000D01*
X212500Y-64000D01*
Y-69500D01*
X213500Y-70500D01*
X231500D01*
X232500Y-69500D01*
Y-57000D01*
X231500Y-56000D01*
X208000D01*
X207500Y-55500D01*
Y-44000D01*
X208000Y-43500D01*
X231500D01*
X232500Y-42500D01*
Y-30500D01*
X231500Y-29500D01*
X214500D01*
X213500Y-30500D01*
Y-33500D01*
X213000Y-34000D01*
X208000D01*
X207500Y-33500D01*
Y-16000D01*
X208000Y-15500D01*
X213000D01*
X213500Y-16000D01*
Y-24500D01*
X214500Y-25500D01*
X225500D01*
X226500Y-24500D01*
Y-19500D01*
X227000Y-19000D01*
X231500D01*
X232000Y-18500D01*
Y-8000D01*
X231500Y-7500D01*
X208500D01*
X207500Y-6500D01*
Y1000D01*
X208500Y2000D01*
X335500D01*
X336500Y1000D01*
Y-216000D01*
X335500Y-217000D01*
X208500D01*
X207500Y-216000D01*
Y-167240D01*
G02X208180Y-166960I399J-4D01*
G01X211330Y-170110D01*
G37*
%LPC*%
G75*
G36*
G01X20670Y-109110D02*
X15070Y-114710D01*
Y-114780D01*
G02X12720Y-112430I-2270J80D01*
G01X12790D01*
X19330Y-105890D01*
X33830D01*
X35730Y-103990D01*
Y-103920D01*
G02X40150Y-103260I2270J-75D01*
G03X40810Y-103420I380J126D01*
G01X40890Y-103330D01*
Y-68350D01*
G03X40210Y-68070I-399J-4D01*
G01X23360Y-84920D01*
Y-93650D01*
G02X24020Y-95170I-1609J-1602D01*
G01Y-95240D01*
X28010Y-99230D01*
X28080D01*
G02X25730Y-101580I-80J-2270D01*
G01Y-101510D01*
X21740Y-97520D01*
X21670D01*
G02X20140Y-93650I80J2269D01*
G01Y-83580D01*
X38390Y-65330D01*
Y-20990D01*
G03X37730Y-20680I-401J5D01*
G02Y-14120I-2730J3280D01*
G03X38390Y-13810I259J305D01*
G01Y-13070D01*
X36660Y-11340D01*
X36540Y-11380D01*
G02X38980Y-8940I-1540J3980D01*
G01X38940Y-9060D01*
X41610Y-11730D01*
Y-13810D01*
G03X42270Y-14120I401J-5D01*
G02X47730I2730J-3280D01*
G03X48390Y-13810I259J305D01*
G01Y-11730D01*
X51060Y-9060D01*
X51020Y-8940D01*
G02X53340Y-11340I3987J1532D01*
G01X51610Y-13070D01*
Y-13810D01*
G03X52270Y-14120I401J-5D01*
G02X57730I2730J-3280D01*
G03X58390Y-13810I259J305D01*
G01Y-11730D01*
X60740Y-9380D01*
Y-3140D01*
X69260D01*
Y-11660D01*
X63020D01*
X61610Y-13070D01*
Y-13810D01*
G03X62270Y-14120I401J-5D01*
G02Y-20680I2730J-3280D01*
G03X61610Y-20990I-259J-305D01*
G01Y-21670D01*
X47610Y-35670D01*
Y-106670D01*
X42270Y-112010D01*
Y-112080D01*
G02X39920Y-109730I-2270J80D01*
G01X39990D01*
X40310Y-109410D01*
X40090Y-109190D01*
X39980Y-109220D01*
G02X37350Y-107740I-482J2220D01*
G03X36690Y-107580I-380J-126D01*
G01X35170Y-109110D01*
X20670D01*
G37*
G36*
G01X111000Y-208500D02*
X49630D01*
G02X40370I-4630J1930D01*
G01X29510D01*
Y-211080D01*
X20490D01*
Y-208500D01*
X16000D01*
X14500Y-207000D01*
Y-167500D01*
X15500Y-166500D01*
X111500D01*
X112500Y-167500D01*
Y-207000D01*
X111000Y-208500D01*
G37*
G36*
G01X9030Y-90270D02*
G03X8660Y-90790I9J-398D01*
G02X6470Y-89230I-2157J-711D01*
G03X6840Y-88710I-9J398D01*
G02X9030Y-90270I2157J711D01*
G37*
G36*
G01X63750Y-111400D02*
G03X63230Y-111470I-220J-332D01*
G02X60260Y-108100I-1730J1469D01*
G01X60280Y-108090D01*
X66150Y-102210D01*
X70810D01*
G02Y-105230I1690J-1510D01*
G01X67410D01*
X65990Y-106650D01*
G03X66270Y-107330I283J-281D01*
G01X70310D01*
G02Y-110350I1690J-1510D01*
G01X67100D01*
G02X63750Y-111400I-2105J848D01*
G37*
G36*
G01X67260Y-118010D02*
X67190Y-118020D01*
X66460Y-118750D01*
Y-141260D01*
X75960Y-150760D01*
Y-150880D01*
X76050Y-150940D01*
G02X70370Y-151820I-2356J-3561D01*
G01X70490Y-151680D01*
X61940Y-143140D01*
Y-116870D01*
X63990Y-114820D01*
X64000Y-114750D01*
G02X67260Y-118010I3010J-250D01*
G37*
G36*
G01X-25570Y-43060D02*
X1060D01*
X5180Y-47180D01*
X5250D01*
G02X2900Y-49530I-80J-2270D01*
G01Y-49460D01*
X-280Y-46280D01*
X-25570D01*
G02Y-43060I-1600J1610D01*
G37*
G36*
G01X-23970Y-176730D02*
G02X-28230Y-172470I-2130J2130D01*
G01X-24010Y-168250D01*
Y-159250D01*
X13250Y-121990D01*
X34250D01*
X48290Y-107950D01*
Y-88300D01*
G02X54310I3010J0D01*
G01Y-110450D01*
X36750Y-128010D01*
X15750D01*
X-17990Y-161750D01*
Y-170750D01*
X-23970Y-176730D01*
G37*
G36*
G01X30490Y-141330D02*
X29670Y-140520D01*
X29590D01*
G02X32520Y-137590I-90J3020D01*
G01Y-137670D01*
X34510Y-139670D01*
Y-155450D01*
G02X30490I-2010J-1050D01*
G01Y-141330D01*
G37*
G36*
G01X299390Y-138830D02*
Y-117170D01*
X286290Y-104070D01*
Y-97550D01*
G02X289510I1610J3950D01*
G01Y-102730D01*
X302610Y-115830D01*
Y-140170D01*
X295170Y-147610D01*
X275670D01*
X268770Y-154510D01*
Y-154580D01*
G02X267150Y-156680I-2271J77D01*
G03X266980Y-157340I113J-381D01*
G01X275510Y-165870D01*
Y-166300D01*
X275570Y-166360D01*
G02X272110Y-166740I-1571J-1640D01*
G01X261990Y-156630D01*
Y-140370D01*
X270710Y-131650D01*
Y-131570D01*
G02X272930Y-133790I2270J50D01*
G01X272850D01*
X265010Y-141630D01*
Y-152060D01*
G03X265570Y-152430I400J-3D01*
G02X266420Y-152230I935J-2069D01*
G01X266490D01*
X274330Y-144390D01*
X293830D01*
X299390Y-138830D01*
G37*
G36*
G01X267040Y-116380D02*
X267050Y-116420D01*
X273610Y-122990D01*
X290330D01*
G02Y-127010I3770J-2010D01*
G01X271950D01*
X264200Y-119270D01*
X264160Y-119260D01*
G02X262880Y-116060I731J2148D01*
G01Y-106280D01*
X270940Y-98220D01*
Y-48550D01*
G02X274960I2010J1050D01*
G01Y-99880D01*
X266900Y-107940D01*
Y-116060D01*
G02X267040Y-116380I-2003J-1067D01*
G37*
G54D34*
X326580Y-42500D03*
Y-161000D03*
G54D27*
X-28660Y-184040D03*
G54D32*
X135775Y-56050D03*
G54D35*
X295500Y-16500D03*
G54D29*
X12000Y-160500D03*
X169500Y-37000D03*
X261750Y-97500D03*
X232000Y-113500D03*
G54D30*
X9050Y-96050D03*
X47650Y-121350D03*
X64000Y-97500D03*
X58000Y-69500D03*
X57770Y-39770D03*
X72500Y-91500D03*
X10000Y-73800D03*
X266550Y-167050D03*
G54D33*
X326580Y-62500D03*
Y-181000D03*
G54D25*
X45000Y-7400D03*
X25000Y-30500D03*
X15000Y-17400D03*
Y-7400D03*
X149500Y-77000D03*
X246500Y-8500D03*
X246000Y-59500D03*
X265000Y-43500D03*
G54D31*
X25000Y-17400D03*
Y-7400D03*
X268500Y-27500D03*
G54D28*
X-28660Y-25780D03*
G54D26*
X15000Y-30500D03*
X294100Y-135000D03*
%LPD*%
G75*
G54D10*
G01X21290Y-21110D02*
X25000Y-17400D01*
G01D02*
X28710Y-13690D01*
G01X21290D02*
X25000Y-17400D01*
G01D02*
X28710Y-21110D01*
G01X21290Y-11110D02*
X25000Y-7400D01*
G01D02*
X28710Y-3690D01*
G01X21290D02*
X25000Y-7400D01*
G01D02*
X28710Y-11110D01*
G01X67010Y-115000D02*
X64200Y-117810D01*
Y-142200D01*
X73700Y-151700D01*
Y-154500D01*
G01X170500Y-12500D02*
X149000D01*
X119000Y-42500D01*
Y-98000D01*
G01X130000Y-56050D02*
X141550D01*
G01X264790Y-31210D02*
X268500Y-27500D01*
G01D02*
X272210Y-23790D01*
G01X264790D02*
X268500Y-27500D01*
G01D02*
X272210Y-31210D01*
G01X322700Y-164880D02*
X326580Y-161000D01*
G01D02*
X330460Y-157120D01*
G01X322700D02*
X326580Y-161000D01*
G01D02*
X330460Y-164880D01*
G01X322700Y-46380D02*
X326580Y-42500D01*
G01D02*
X330460Y-38620D01*
G01X322700D02*
X326580Y-42500D01*
G01D02*
X330460Y-46380D01*
X-37000Y-214000D03*
Y-182000D03*
Y-25500D03*
X-9500Y-214500D03*
X-35500Y-193000D03*
X-16000Y-169000D03*
X-15780Y-162780D03*
X-27500Y-168500D03*
X-27720Y-162780D03*
X-27000Y-150970D03*
X-15500Y-148610D03*
Y-136800D03*
X-16000Y-122630D03*
X-27000Y-136800D03*
X-27630Y-122630D03*
X-16000Y-110820D03*
X-27500D03*
X-15780Y-94280D03*
X-16000Y-82500D03*
Y-68300D03*
X-27500Y-91920D03*
X-27530Y-82470D03*
X-27500Y-68300D03*
X-16000Y-54120D03*
X-27500D03*
X-27170Y-44670D03*
X-35500Y-15000D03*
X-27000Y-39950D03*
X-16000D03*
X4500Y-214500D03*
X12000Y-182500D03*
X8200Y-152200D03*
X6000Y-173500D03*
X16550Y-115000D03*
X9050Y-96050D03*
X12800Y-114700D03*
X10000Y-73800D03*
X6500Y-91500D03*
X9000Y-88000D03*
X6150Y-56150D03*
X10500Y-60300D03*
X14500Y-41300D03*
X5170Y-49450D03*
X-5000Y-2500D03*
X14000Y-2000D03*
X20500Y-214500D03*
X36500D03*
X32500Y-156500D03*
X25690Y-147000D03*
X27180Y-114180D03*
X40000Y-112000D03*
X28000Y-101500D03*
X21750Y-95250D03*
X39500Y-107000D03*
X38000Y-104000D03*
X19500Y-76610D03*
X22460Y-73800D03*
X24960Y-57140D03*
X26010Y-65800D03*
X30000Y-2000D03*
X52500Y-214500D03*
X68500D03*
X65500Y-149000D03*
X56300Y-124160D03*
X70900Y-123900D03*
X67500Y-120000D03*
X60350Y-121350D03*
X47650D03*
X61500Y-110000D03*
X65000Y-109500D03*
X64000Y-97500D03*
X56300Y-88990D03*
X69500Y-93500D03*
X60000Y-92000D03*
X58000Y-69500D03*
X61950Y-64060D03*
X49000Y-52020D03*
X55700Y-59700D03*
X57770Y-39770D03*
X46000Y-2000D03*
X62000D03*
X84500Y-214500D03*
X95000Y-161000D03*
X79000D03*
X78000Y-146000D03*
Y-130000D03*
Y-121000D03*
X72500Y-103720D03*
X72000Y-108840D03*
X78000Y-82000D03*
X72500Y-91500D03*
X78000Y-66000D03*
Y-50000D03*
Y-34000D03*
Y-18000D03*
Y-2000D03*
X100500Y-214500D03*
X116500D03*
X112470Y-209500D03*
X118500Y-198400D03*
X116500Y-184500D03*
X113500Y-185500D03*
X119000Y-176930D03*
X113500Y-193000D03*
X119000Y-200950D03*
X116500Y-168500D03*
X111000Y-161000D03*
X113500Y-169000D03*
X124000Y-144000D03*
X108000D03*
Y-128000D03*
X112500Y-95800D03*
X119000Y-98000D03*
X108000Y-82000D03*
Y-66000D03*
Y-50000D03*
Y-34000D03*
Y-18000D03*
X124000Y-2000D03*
X108000D03*
X152000Y-213000D03*
X136000D03*
Y-197000D03*
Y-181000D03*
Y-165000D03*
Y-149000D03*
X135300Y-128500D03*
X139000Y-122700D03*
X130300Y-126300D03*
X147500Y-120500D03*
X152500Y-101500D03*
X151500Y-109000D03*
X151000Y-117000D03*
X143000Y-97500D03*
Y-105500D03*
X142500Y-113000D03*
X126500Y-88500D03*
X141550Y-56050D03*
X130000D03*
X140000Y-2000D03*
X168000Y-213000D03*
X169000Y-48000D03*
Y-57500D03*
X172000Y-2000D03*
X156000D03*
X200000Y-213000D03*
X184000D03*
X200500Y-194000D03*
Y-178000D03*
Y-162000D03*
Y-146000D03*
Y-130000D03*
Y-114000D03*
Y-98000D03*
X199500Y-83000D03*
X200500Y-44500D03*
Y-66000D03*
Y-54500D03*
X201000Y-32000D03*
X200500Y-17000D03*
Y-2000D03*
X188000D03*
X227000Y-213000D03*
X211000Y-209500D03*
Y-193500D03*
Y-177500D03*
Y-161500D03*
Y-145500D03*
Y-129500D03*
Y-113500D03*
Y-97500D03*
X212500Y-83000D03*
X232000Y-91500D03*
X226750Y-86750D03*
X211000Y-44500D03*
Y-65500D03*
Y-54000D03*
Y-33500D03*
Y-17000D03*
X227000Y-500D03*
X211000D03*
X259000Y-213000D03*
X243000D03*
X259200Y-164300D03*
X242500Y-129550D03*
X256500Y-148750D03*
X251110Y-147890D03*
X234750Y-105750D03*
X240000Y-101000D03*
X248000Y-104500D03*
X254500Y-104000D03*
X239900Y-91000D03*
X259000Y-500D03*
X243000D03*
X275000Y-213000D03*
X266550Y-167050D03*
X263350Y-159850D03*
X271500Y-155500D03*
X275500Y-151000D03*
X281700Y-165800D03*
X274000Y-168000D03*
X266500Y-154500D03*
X274000Y-138500D03*
X272980Y-131520D03*
X283250Y-107000D03*
X269250Y-97750D03*
X260950Y-117100D03*
X270500Y-117500D03*
X274500Y-103000D03*
X264890Y-117110D03*
X279500Y-74000D03*
X272950Y-47500D03*
X281500Y-36000D03*
X275650Y-40650D03*
X307000Y-213000D03*
X291000D03*
X294400Y-157900D03*
X288000Y-112500D03*
X291000Y-80500D03*
X294500Y-33000D03*
X307000Y-500D03*
X291000D03*
X323000Y-213000D03*
X332500Y-201000D03*
X332000Y-185000D03*
Y-169000D03*
X332500Y-153000D03*
Y-137000D03*
Y-121000D03*
Y-105000D03*
Y-89000D03*
Y-73000D03*
X332000Y-57000D03*
X332500Y-41000D03*
Y-25000D03*
Y-9000D03*
X325000Y-500D03*
G54D20*
G01X72500Y-103720D02*
X66780D01*
X61500Y-109000D01*
Y-110000D01*
G01X65000Y-109500D02*
X65660Y-108840D01*
X72000D01*
G01X272980Y-131520D02*
X263500Y-141000D01*
Y-156000D01*
X274000Y-166500D01*
Y-168000D01*
G54D11*
X-21770Y-204320D03*
X-28660Y-184040D03*
X-21770Y-5500D03*
G54D21*
G01X32500Y-156500D02*
Y-140500D01*
X29500Y-137500D01*
G01X294100Y-125000D02*
X272780D01*
X264890Y-117110D01*
G01D02*
Y-107110D01*
X272950Y-99050D01*
Y-47500D01*
G54D12*
G01X-26100Y-174600D02*
X-21000Y-169500D01*
Y-160500D01*
X14500Y-125000D01*
X35500D01*
X51300Y-109200D01*
Y-88300D01*
G01X45000Y-206570D02*
X41120Y-210450D01*
G01X45000Y-206570D02*
X48880Y-210450D01*
X-26100Y-174600D03*
X12000Y-160500D03*
X0Y0D03*
X29500Y-137500D03*
X47500D03*
X67010Y-115000D03*
X51300Y-88300D03*
X179500Y-24500D03*
X169500Y-37000D03*
X181500Y-59650D03*
X182500Y-49500D03*
X182000Y-39350D03*
X188250Y-26250D03*
X181500Y-32650D03*
X232000Y-113500D03*
X231500Y-50000D03*
X228500Y-22000D03*
X242500Y-66750D03*
Y-16000D03*
X248500Y-25000D03*
X261750Y-97500D03*
G54D22*
G01X-27170Y-44670D02*
X390D01*
X5170Y-49450D01*
G01X38000Y-104000D02*
X34500Y-107500D01*
X20000D01*
X12800Y-114700D01*
G01X65000Y-7400D02*
X60000Y-12400D01*
Y-21000D01*
X46000Y-35000D01*
Y-106000D01*
X40000Y-112000D01*
G01X21750Y-95250D02*
X28000Y-101500D01*
G01X39500Y-107000D02*
X42500Y-104000D01*
Y-32500D01*
X50000Y-25000D01*
Y-12400D01*
X55000Y-7400D01*
G01X21750Y-95250D02*
Y-84250D01*
X40000Y-66000D01*
Y-12400D01*
X35000Y-7400D01*
G01X225000Y-168500D02*
X212000D01*
X199750Y-156250D01*
X195750D01*
X165000Y-125500D01*
X131100D01*
X130300Y-126300D01*
G01X135000Y-122000D02*
Y-120000D01*
G01X225000Y-133500D02*
X208000D01*
X172000Y-97500D01*
X143000D01*
G01X225000Y-144500D02*
X220500Y-149000D01*
X210000D01*
X166500Y-105500D01*
X143000D01*
G01X142500Y-113000D02*
X163000D01*
X207000Y-157000D01*
X225000D01*
G01X287900Y-93600D02*
Y-103400D01*
X301000Y-116500D01*
Y-139500D01*
X294500Y-146000D01*
X275000D01*
X266500Y-154500D01*
G54D13*
X-28660Y-25780D03*
G54D23*
G01X82500Y145000D02*
X81500Y144670D01*
X80750Y143830D01*
X80250Y142830D01*
X79870Y141500D01*
X79750Y140000D01*
X79870Y138500D01*
X80250Y137170D01*
X80750Y136170D01*
X81500Y135330D01*
X82500Y135000D01*
X83500Y135330D01*
X84250Y136170D01*
X84750Y137170D01*
X85130Y138500D01*
X85250Y140000D01*
X85130Y141500D01*
X84750Y142830D01*
X84250Y143830D01*
X83500Y144670D01*
X82500Y145000D01*
G01X92500Y135000D02*
X93370Y135170D01*
X94370Y135670D01*
X95000Y136500D01*
X95250Y137670D01*
X95000Y138830D01*
X94250Y139830D01*
X93120Y140330D01*
X91880D01*
X91120Y140670D01*
X90500Y141500D01*
X90250Y142670D01*
X90630Y143830D01*
X91500Y144670D01*
X92500Y145000D01*
X93500Y144670D01*
X94370Y143830D01*
X94750Y142670D01*
X94500Y141500D01*
X93880Y140670D01*
X93120Y140330D01*
X91880D01*
X90750Y139830D01*
X90000Y138830D01*
X89750Y137670D01*
X90000Y136500D01*
X90630Y135670D01*
X91630Y135170D01*
X92500Y135000D01*
G01X100880Y138330D02*
X104120D01*
G01X170880D02*
X174120D01*
G01X182500Y145000D02*
X181500Y144670D01*
X180750Y143830D01*
X180250Y142830D01*
X179870Y141500D01*
X179750Y140000D01*
X179870Y138500D01*
X180250Y137170D01*
X180750Y136170D01*
X181500Y135330D01*
X182500Y135000D01*
X183500Y135330D01*
X184250Y136170D01*
X184750Y137170D01*
X185130Y138500D01*
X185250Y140000D01*
X185130Y141500D01*
X184750Y142830D01*
X184250Y143830D01*
X183500Y144670D01*
X182500Y145000D01*
G01X190120Y143330D02*
X190880Y144330D01*
X191750Y144830D01*
X192750Y145000D01*
X194000Y144670D01*
X194880Y143830D01*
X195130Y142830D01*
X195000Y141830D01*
X194500Y141000D01*
X192000Y139330D01*
X190880Y138170D01*
X190120Y136500D01*
X189870Y135000D01*
X195130D01*
G01X80000Y165000D02*
Y155000D01*
X85000D01*
G01X94000D02*
Y165000D01*
X89370Y157830D01*
X95630D01*
G01X109870Y156330D02*
X110880Y155500D01*
X112000Y155000D01*
X113000D01*
X114000Y155500D01*
X114750Y156330D01*
X115130Y157500D01*
X114880Y158670D01*
X114250Y159670D01*
X113120Y160330D01*
X111630Y160670D01*
X110750Y161330D01*
X110370Y162500D01*
X110630Y163670D01*
X111250Y164500D01*
X112120Y165000D01*
X113000D01*
X113880Y164670D01*
X114630Y163830D01*
G01X125000Y155000D02*
X120000D01*
Y165000D01*
X125000D01*
G01X123000Y160170D02*
X120000D01*
G01X135250Y164170D02*
X134500Y164670D01*
X133630Y165000D01*
X132630D01*
X131500Y164500D01*
X130630Y163670D01*
X130000Y162670D01*
X129500Y161000D01*
X129370Y159500D01*
X129630Y158000D01*
X130000Y157000D01*
X130750Y156000D01*
X131630Y155330D01*
X132500Y155000D01*
X133370D01*
X134250Y155330D01*
X135000Y155830D01*
X135630Y156500D01*
G01X142500Y155000D02*
X141500Y155170D01*
X140630Y155830D01*
X139870Y156830D01*
X139370Y158000D01*
X139120Y159330D01*
Y160670D01*
X139370Y162000D01*
X139870Y163170D01*
X140630Y164170D01*
X141500Y164830D01*
X142500Y165000D01*
X143500Y164830D01*
X144370Y164170D01*
X145130Y163170D01*
X145630Y162000D01*
X145880Y160670D01*
Y159330D01*
X145630Y158000D01*
X145130Y156830D01*
X144370Y155830D01*
X143500Y155170D01*
X142500Y155000D01*
G01X149630D02*
Y165000D01*
X155370Y155000D01*
Y165000D01*
G01X159750Y155000D02*
Y165000D01*
X162250D01*
X163250Y164500D01*
X164000Y163830D01*
X164630Y162830D01*
X165130Y161670D01*
X165250Y160000D01*
X165130Y158330D01*
X164630Y157170D01*
X164000Y156170D01*
X163250Y155500D01*
X162250Y155000D01*
X159750D01*
G01X169370D02*
X172500Y165000D01*
X175630Y155000D01*
G01X174500Y158500D02*
X170500D01*
G01X180000Y155000D02*
Y165000D01*
X183120D01*
X184120Y164500D01*
X184750Y163830D01*
X185000Y162500D01*
X184750Y161170D01*
X184000Y160330D01*
X183120Y159830D01*
X180000D01*
G01X183120D02*
X185000Y155000D01*
G01X192500D02*
Y159500D01*
X190000Y165000D01*
G01X195000D02*
X192500Y159500D01*
G01X115000Y115000D02*
Y125000D01*
X118120D01*
X119120Y124500D01*
X119750Y123830D01*
X120000Y122500D01*
X119750Y121170D01*
X119000Y120330D01*
X118120Y119830D01*
X115000D01*
G01X118120D02*
X120000Y115000D01*
G01X130000D02*
X125000D01*
Y125000D01*
X130000D01*
G01X128000Y120170D02*
X125000D01*
G01X134370Y125000D02*
X137500Y115000D01*
X140630Y125000D01*
G01X158500Y120330D02*
X159000Y120830D01*
X159370Y121670D01*
X159630Y122830D01*
X159370Y123830D01*
X158880Y124500D01*
X158000Y125000D01*
X154630D01*
Y115000D01*
X158750D01*
X159630Y115670D01*
X160130Y116670D01*
X160370Y117830D01*
X160130Y119000D01*
X159370Y120000D01*
X158500Y120330D01*
X154630D01*
G01X112500Y145000D02*
X111500Y144670D01*
X110750Y143830D01*
X110250Y142830D01*
X109870Y141500D01*
X109750Y140000D01*
X109870Y138500D01*
X110250Y137170D01*
X110750Y136170D01*
X111500Y135330D01*
X112500Y135000D01*
X113500Y135330D01*
X114250Y136170D01*
X114750Y137170D01*
X115130Y138500D01*
X115250Y140000D01*
X115130Y141500D01*
X114750Y142830D01*
X114250Y143830D01*
X113500Y144670D01*
X112500Y145000D01*
G01X119750Y137000D02*
X120500Y135830D01*
X121500Y135170D01*
X122630Y135000D01*
X123630Y135170D01*
X124630Y136000D01*
X125250Y137000D01*
X125370Y138000D01*
X125130Y139170D01*
X124250Y140000D01*
X123370Y140330D01*
X122250D01*
G01X123370D02*
X124120Y140830D01*
X124750Y141670D01*
X125000Y142670D01*
X124750Y143670D01*
X124120Y144500D01*
X123000Y145000D01*
X121880Y144830D01*
X120750Y144170D01*
G01X132250Y135000D02*
X132500Y137170D01*
X132880Y139000D01*
X133370Y140670D01*
X134000Y142500D01*
X135000Y145000D01*
X130000D01*
G01X142500Y135000D02*
Y145000D01*
X141000Y143000D01*
G01Y135000D02*
X144000D01*
G01X149750Y136500D02*
X150500Y135670D01*
X151370Y135170D01*
X152500Y135000D01*
X153630Y135330D01*
X154500Y136000D01*
X155130Y137170D01*
X155250Y138500D01*
X155000Y139830D01*
X154370Y140670D01*
X153500Y141330D01*
X152630Y141500D01*
X151750Y141330D01*
X150630Y140670D01*
X151000Y145000D01*
X154370D01*
G01X162500Y135000D02*
X163370Y135170D01*
X164370Y135670D01*
X165000Y136500D01*
X165250Y137670D01*
X165000Y138830D01*
X164250Y139830D01*
X163120Y140330D01*
X161880D01*
X161120Y140670D01*
X160500Y141500D01*
X160250Y142670D01*
X160630Y143830D01*
X161500Y144670D01*
X162500Y145000D01*
X163500Y144670D01*
X164370Y143830D01*
X164750Y142670D01*
X164500Y141500D01*
X163880Y140670D01*
X163120Y140330D01*
X161880D01*
X160750Y139830D01*
X160000Y138830D01*
X159750Y137670D01*
X160000Y136500D01*
X160630Y135670D01*
X161630Y135170D01*
X162500Y135000D01*
G54D14*
X15000Y-30500D03*
X65000Y-7400D03*
X294100Y-135000D03*
G54D24*
G01X-47500Y-235000D02*
Y-200000D01*
G01X-57500Y-225000D02*
X-22500D01*
G01X-47500Y20000D02*
Y-15000D01*
G01X-57500Y10000D02*
X-22500D01*
G01X355000Y-225000D02*
X320000D01*
G01X355000Y10000D02*
X320000D01*
G01X345000Y-235000D02*
Y-200000D01*
G01Y20000D02*
Y-15000D01*
G54D15*
X15000Y-17400D03*
Y-7400D03*
X25000Y-30500D03*
Y-17400D03*
X35000D03*
X45000D03*
X25000Y-7400D03*
X35000D03*
X45000D03*
X53500Y-177000D03*
X73700Y-154500D03*
X55000Y-17400D03*
X65000D03*
X55000Y-7400D03*
X149500Y-77000D03*
X170500Y-12500D03*
X225000Y-157000D03*
Y-168500D03*
Y-133500D03*
Y-144500D03*
X246000Y-59500D03*
X246500Y-8500D03*
X287900Y-93600D03*
X265000Y-43500D03*
X268500Y-27500D03*
X294100Y-125000D03*
G54D16*
X45000Y-206570D03*
X326580Y-161000D03*
Y-42500D03*
G54D17*
X25000Y-206570D03*
X326580Y-181000D03*
Y-62500D03*
G54D18*
X90000Y-200950D03*
Y-183230D03*
G54D19*
G01X331200Y-13170D02*
X331710Y-13340D01*
X332090Y-13750D01*
X332340Y-14250D01*
X332530Y-14920D01*
X332590Y-15670D01*
X332530Y-16420D01*
X332340Y-17090D01*
X332090Y-17590D01*
X331710Y-18000D01*
X331200Y-18170D01*
X330690Y-18000D01*
X330310Y-17590D01*
X330060Y-17090D01*
X329870Y-16420D01*
X329810Y-15670D01*
X329870Y-14920D01*
X330060Y-14250D01*
X330310Y-13750D01*
X330690Y-13340D01*
X331200Y-13170D01*
G01X326100Y-18170D02*
X325660Y-18090D01*
X325150Y-17840D01*
X324830Y-17420D01*
X324710Y-16840D01*
X324830Y-16250D01*
X325210Y-15750D01*
X325780Y-15500D01*
X326420D01*
X326800Y-15340D01*
X327110Y-14920D01*
X327240Y-14340D01*
X327050Y-13750D01*
X326610Y-13340D01*
X326100Y-13170D01*
X325590Y-13340D01*
X325150Y-13750D01*
X324960Y-14340D01*
X325090Y-14920D01*
X325400Y-15340D01*
X325780Y-15500D01*
X326420D01*
X326990Y-15750D01*
X327370Y-16250D01*
X327490Y-16840D01*
X327370Y-17420D01*
X327050Y-17840D01*
X326540Y-18090D01*
X326100Y-18170D01*
G01X321820Y-16500D02*
X320180D01*
G01X315900Y-13170D02*
X316410Y-13340D01*
X316790Y-13750D01*
X317040Y-14250D01*
X317230Y-14920D01*
X317290Y-15670D01*
X317230Y-16420D01*
X317040Y-17090D01*
X316790Y-17590D01*
X316410Y-18000D01*
X315900Y-18170D01*
X315390Y-18000D01*
X315010Y-17590D01*
X314760Y-17090D01*
X314570Y-16420D01*
X314510Y-15670D01*
X314570Y-14920D01*
X314760Y-14250D01*
X315010Y-13750D01*
X315390Y-13340D01*
X315900Y-13170D01*
G01X312190Y-17170D02*
X311810Y-17750D01*
X311310Y-18090D01*
X310740Y-18170D01*
X310230Y-18090D01*
X309720Y-17670D01*
X309410Y-17170D01*
X309340Y-16670D01*
X309470Y-16090D01*
X309910Y-15670D01*
X310360Y-15500D01*
X310930D01*
G01X310360D02*
X309980Y-15250D01*
X309660Y-14840D01*
X309530Y-14340D01*
X309660Y-13840D01*
X309980Y-13420D01*
X310550Y-13170D01*
X311120Y-13250D01*
X311690Y-13590D01*
G01X305830Y-18170D02*
X305700Y-17090D01*
X305510Y-16170D01*
X305260Y-15340D01*
X304940Y-14420D01*
X304430Y-13170D01*
X306970D01*
G01X300600Y-18170D02*
Y-13170D01*
X301360Y-14170D01*
G01Y-18170D02*
X299840D01*
G01X296890Y-17420D02*
X296510Y-17840D01*
X296070Y-18090D01*
X295500Y-18170D01*
X294930Y-18000D01*
X294490Y-17670D01*
X294170Y-17090D01*
X294110Y-16420D01*
X294230Y-15750D01*
X294550Y-15340D01*
X294990Y-15000D01*
X295440Y-14920D01*
X295880Y-15000D01*
X296450Y-15340D01*
X296260Y-13170D01*
X294550D01*
G01X290400Y-18170D02*
X289960Y-18090D01*
X289450Y-17840D01*
X289130Y-17420D01*
X289010Y-16840D01*
X289130Y-16250D01*
X289510Y-15750D01*
X290080Y-15500D01*
X290720D01*
X291100Y-15340D01*
X291410Y-14920D01*
X291540Y-14340D01*
X291350Y-13750D01*
X290910Y-13340D01*
X290400Y-13170D01*
X289890Y-13340D01*
X289450Y-13750D01*
X289260Y-14340D01*
X289390Y-14920D01*
X289700Y-15340D01*
X290080Y-15500D01*
X290720D01*
X291290Y-15750D01*
X291670Y-16250D01*
X291790Y-16840D01*
X291670Y-17420D01*
X291350Y-17840D01*
X290840Y-18090D01*
X290400Y-18170D01*
G01X281470D02*
Y-13170D01*
X279880D01*
X279380Y-13420D01*
X279060Y-13750D01*
X278930Y-14420D01*
X279060Y-15090D01*
X279440Y-15500D01*
X279880Y-15750D01*
X281470D01*
G01X279880D02*
X278930Y-18170D01*
G01X273830D02*
X276370D01*
Y-13170D01*
X273830D01*
G01X274850Y-15590D02*
X276370D01*
G01X271580Y-13170D02*
X270000Y-18170D01*
X268420Y-13170D01*
G01X259290Y-15500D02*
X259040Y-15250D01*
X258850Y-14840D01*
X258720Y-14250D01*
X258850Y-13750D01*
X259100Y-13420D01*
X259550Y-13170D01*
X261260D01*
Y-18170D01*
X259170D01*
X258720Y-17840D01*
X258470Y-17340D01*
X258340Y-16750D01*
X258470Y-16170D01*
X258850Y-15670D01*
X259290Y-15500D01*
X261260D01*
M02*
