G04 ================== begin FILE IDENTIFICATION RECORD ==================*
G04 Layout Name:  C:/tmp/20_037158b_bck/worklib/02_037158b_top/physical/08_037158b.brd*
G04 Film Name:    mask_sec*
G04 File Format:  Gerber RS274X*
G04 File Origin:  Cadence Allegro 16.5-S031*
G04 Origin Date:  Thu Dec 19 14:20:58 2013*
G04 *
G04 Layer:  VIA CLASS/SOLDERMASK_BOTTOM*
G04 Layer:  PIN/SOLDERMASK_BOTTOM*
G04 Layer:  PACKAGE GEOMETRY/SOLDERMASK_BOTTOM*
G04 Layer:  BOARD GEOMETRY/TOOLING_CORNERS*
G04 Layer:  BOARD GEOMETRY/SOLDERMASK_BOTTOM*
G04 Layer:  BOARD GEOMETRY/ROOT_NUMBER*
G04 *
G04 Offset:    (0.0 0.0)*
G04 Mirror:    No*
G04 Mode:      Positive*
G04 Rotation:  0*
G04 FullContactRelief:  No*
G04 UndefLineWidth:     8.0*
G04 ================== end FILE IDENTIFICATION RECORD ====================*
%FSLAX55Y55*MOIN*%
%IR0*IPPOS*OFA0.00000B0.00000*MIA0B0*SFA1.00000B1.00000*%
%ADD10C,.27*%
%ADD14C,.07*%
%ADD15C,.08*%
%ADD12C,.053*%
%ADD19C,.09*%
%ADD11C,.063*%
%ADD18C,.083*%
%ADD16C,.075*%
%ADD13R,.07X.07*%
%ADD17R,.075X.075*%
%ADD20C,.008*%
%ADD21C,.05*%
G75*
%LPD*%
G75*
G54D10*
X-21770Y-204320D03*
Y-5500D03*
G54D20*
G01X39870Y156330D02*
X40880Y155500D01*
X42000Y155000D01*
X43000D01*
X44000Y155500D01*
X44750Y156330D01*
X45130Y157500D01*
X44880Y158670D01*
X44250Y159670D01*
X43120Y160330D01*
X41630Y160670D01*
X40750Y161330D01*
X40370Y162500D01*
X40630Y163670D01*
X41250Y164500D01*
X42120Y165000D01*
X43000D01*
X43880Y164670D01*
X44630Y163830D01*
G01X52500Y155000D02*
X51500Y155170D01*
X50630Y155830D01*
X49870Y156830D01*
X49370Y158000D01*
X49120Y159330D01*
Y160670D01*
X49370Y162000D01*
X49870Y163170D01*
X50630Y164170D01*
X51500Y164830D01*
X52500Y165000D01*
X53500Y164830D01*
X54370Y164170D01*
X55130Y163170D01*
X55630Y162000D01*
X55880Y160670D01*
Y159330D01*
X55630Y158000D01*
X55130Y156830D01*
X54370Y155830D01*
X53500Y155170D01*
X52500Y155000D01*
G01X60000Y165000D02*
Y155000D01*
X65000D01*
G01X69750D02*
Y165000D01*
X72250D01*
X73250Y164500D01*
X74000Y163830D01*
X74630Y162830D01*
X75130Y161670D01*
X75250Y160000D01*
X75130Y158330D01*
X74630Y157170D01*
X74000Y156170D01*
X73250Y155500D01*
X72250Y155000D01*
X69750D01*
G01X85000D02*
X80000D01*
Y165000D01*
X85000D01*
G01X83000Y160170D02*
X80000D01*
G01X90000Y155000D02*
Y165000D01*
X93120D01*
X94120Y164500D01*
X94750Y163830D01*
X95000Y162500D01*
X94750Y161170D01*
X94000Y160330D01*
X93120Y159830D01*
X90000D01*
G01X93120D02*
X95000Y155000D01*
G01X99250D02*
Y165000D01*
X102500Y156670D01*
X105750Y165000D01*
Y155000D01*
G01X109370D02*
X112500Y165000D01*
X115630Y155000D01*
G01X114500Y158500D02*
X110500D01*
G01X119870Y156330D02*
X120880Y155500D01*
X122000Y155000D01*
X123000D01*
X124000Y155500D01*
X124750Y156330D01*
X125130Y157500D01*
X124880Y158670D01*
X124250Y159670D01*
X123120Y160330D01*
X121630Y160670D01*
X120750Y161330D01*
X120370Y162500D01*
X120630Y163670D01*
X121250Y164500D01*
X122120Y165000D01*
X123000D01*
X123880Y164670D01*
X124630Y163830D01*
G01X129750Y155000D02*
Y165000D01*
G01X134500D02*
X129750Y158830D01*
G01X135250Y155000D02*
X131880Y161670D01*
G01X149870Y156330D02*
X150880Y155500D01*
X152000Y155000D01*
X153000D01*
X154000Y155500D01*
X154750Y156330D01*
X155130Y157500D01*
X154880Y158670D01*
X154250Y159670D01*
X153120Y160330D01*
X151630Y160670D01*
X150750Y161330D01*
X150370Y162500D01*
X150630Y163670D01*
X151250Y164500D01*
X152120Y165000D01*
X153000D01*
X153880Y164670D01*
X154630Y163830D01*
G01X165000Y155000D02*
X160000D01*
Y165000D01*
X165000D01*
G01X163000Y160170D02*
X160000D01*
G01X175250Y164170D02*
X174500Y164670D01*
X173630Y165000D01*
X172630D01*
X171500Y164500D01*
X170630Y163670D01*
X170000Y162670D01*
X169500Y161000D01*
X169370Y159500D01*
X169630Y158000D01*
X170000Y157000D01*
X170750Y156000D01*
X171630Y155330D01*
X172500Y155000D01*
X173370D01*
X174250Y155330D01*
X175000Y155830D01*
X175630Y156500D01*
G01X182500Y155000D02*
X181500Y155170D01*
X180630Y155830D01*
X179870Y156830D01*
X179370Y158000D01*
X179120Y159330D01*
Y160670D01*
X179370Y162000D01*
X179870Y163170D01*
X180630Y164170D01*
X181500Y164830D01*
X182500Y165000D01*
X183500Y164830D01*
X184370Y164170D01*
X185130Y163170D01*
X185630Y162000D01*
X185880Y160670D01*
Y159330D01*
X185630Y158000D01*
X185130Y156830D01*
X184370Y155830D01*
X183500Y155170D01*
X182500Y155000D01*
G01X189630D02*
Y165000D01*
X195370Y155000D01*
Y165000D01*
G01X199750Y155000D02*
Y165000D01*
X202250D01*
X203250Y164500D01*
X204000Y163830D01*
X204630Y162830D01*
X205130Y161670D01*
X205250Y160000D01*
X205130Y158330D01*
X204630Y157170D01*
X204000Y156170D01*
X203250Y155500D01*
X202250Y155000D01*
X199750D01*
G01X209370D02*
X212500Y165000D01*
X215630Y155000D01*
G01X214500Y158500D02*
X210500D01*
G01X220000Y155000D02*
Y165000D01*
X223120D01*
X224120Y164500D01*
X224750Y163830D01*
X225000Y162500D01*
X224750Y161170D01*
X224000Y160330D01*
X223120Y159830D01*
X220000D01*
G01X223120D02*
X225000Y155000D01*
G01X232500D02*
Y159500D01*
X230000Y165000D01*
G01X235000D02*
X232500Y159500D01*
G01X82500Y145000D02*
X81500Y144670D01*
X80750Y143830D01*
X80250Y142830D01*
X79870Y141500D01*
X79750Y140000D01*
X79870Y138500D01*
X80250Y137170D01*
X80750Y136170D01*
X81500Y135330D01*
X82500Y135000D01*
X83500Y135330D01*
X84250Y136170D01*
X84750Y137170D01*
X85130Y138500D01*
X85250Y140000D01*
X85130Y141500D01*
X84750Y142830D01*
X84250Y143830D01*
X83500Y144670D01*
X82500Y145000D01*
G01X92500Y135000D02*
X93370Y135170D01*
X94370Y135670D01*
X95000Y136500D01*
X95250Y137670D01*
X95000Y138830D01*
X94250Y139830D01*
X93120Y140330D01*
X91880D01*
X91120Y140670D01*
X90500Y141500D01*
X90250Y142670D01*
X90630Y143830D01*
X91500Y144670D01*
X92500Y145000D01*
X93500Y144670D01*
X94370Y143830D01*
X94750Y142670D01*
X94500Y141500D01*
X93880Y140670D01*
X93120Y140330D01*
X91880D01*
X90750Y139830D01*
X90000Y138830D01*
X89750Y137670D01*
X90000Y136500D01*
X90630Y135670D01*
X91630Y135170D01*
X92500Y135000D01*
G01X100880Y138330D02*
X104120D01*
G01X170880D02*
X174120D01*
G01X182500Y145000D02*
X181500Y144670D01*
X180750Y143830D01*
X180250Y142830D01*
X179870Y141500D01*
X179750Y140000D01*
X179870Y138500D01*
X180250Y137170D01*
X180750Y136170D01*
X181500Y135330D01*
X182500Y135000D01*
X183500Y135330D01*
X184250Y136170D01*
X184750Y137170D01*
X185130Y138500D01*
X185250Y140000D01*
X185130Y141500D01*
X184750Y142830D01*
X184250Y143830D01*
X183500Y144670D01*
X182500Y145000D01*
G01X190120Y139170D02*
X191000Y140330D01*
X191750Y141000D01*
X192750Y141330D01*
X193630Y141000D01*
X194250Y140330D01*
X194750Y139330D01*
X194880Y138170D01*
X194750Y137170D01*
X194250Y136170D01*
X193500Y135330D01*
X192630Y135000D01*
X191630Y135330D01*
X190750Y136330D01*
X190250Y137830D01*
X190120Y139500D01*
X190370Y141670D01*
X190750Y142830D01*
X191370Y144000D01*
X192250Y144830D01*
X193120Y145000D01*
X194000Y144670D01*
X194630Y143830D01*
G01X115000Y115000D02*
Y125000D01*
X118120D01*
X119120Y124500D01*
X119750Y123830D01*
X120000Y122500D01*
X119750Y121170D01*
X119000Y120330D01*
X118120Y119830D01*
X115000D01*
G01X118120D02*
X120000Y115000D01*
G01X130000D02*
X125000D01*
Y125000D01*
X130000D01*
G01X128000Y120170D02*
X125000D01*
G01X134370Y125000D02*
X137500Y115000D01*
X140630Y125000D01*
G01X158500Y120330D02*
X159000Y120830D01*
X159370Y121670D01*
X159630Y122830D01*
X159370Y123830D01*
X158880Y124500D01*
X158000Y125000D01*
X154630D01*
Y115000D01*
X158750D01*
X159630Y115670D01*
X160130Y116670D01*
X160370Y117830D01*
X160130Y119000D01*
X159370Y120000D01*
X158500Y120330D01*
X154630D01*
G01X112500Y145000D02*
X111500Y144670D01*
X110750Y143830D01*
X110250Y142830D01*
X109870Y141500D01*
X109750Y140000D01*
X109870Y138500D01*
X110250Y137170D01*
X110750Y136170D01*
X111500Y135330D01*
X112500Y135000D01*
X113500Y135330D01*
X114250Y136170D01*
X114750Y137170D01*
X115130Y138500D01*
X115250Y140000D01*
X115130Y141500D01*
X114750Y142830D01*
X114250Y143830D01*
X113500Y144670D01*
X112500Y145000D01*
G01X119750Y137000D02*
X120500Y135830D01*
X121500Y135170D01*
X122630Y135000D01*
X123630Y135170D01*
X124630Y136000D01*
X125250Y137000D01*
X125370Y138000D01*
X125130Y139170D01*
X124250Y140000D01*
X123370Y140330D01*
X122250D01*
G01X123370D02*
X124120Y140830D01*
X124750Y141670D01*
X125000Y142670D01*
X124750Y143670D01*
X124120Y144500D01*
X123000Y145000D01*
X121880Y144830D01*
X120750Y144170D01*
G01X132250Y135000D02*
X132500Y137170D01*
X132880Y139000D01*
X133370Y140670D01*
X134000Y142500D01*
X135000Y145000D01*
X130000D01*
G01X142500Y135000D02*
Y145000D01*
X141000Y143000D01*
G01Y135000D02*
X144000D01*
G01X149750Y136500D02*
X150500Y135670D01*
X151370Y135170D01*
X152500Y135000D01*
X153630Y135330D01*
X154500Y136000D01*
X155130Y137170D01*
X155250Y138500D01*
X155000Y139830D01*
X154370Y140670D01*
X153500Y141330D01*
X152630Y141500D01*
X151750Y141330D01*
X150630Y140670D01*
X151000Y145000D01*
X154370D01*
G01X162500Y135000D02*
X163370Y135170D01*
X164370Y135670D01*
X165000Y136500D01*
X165250Y137670D01*
X165000Y138830D01*
X164250Y139830D01*
X163120Y140330D01*
X161880D01*
X161120Y140670D01*
X160500Y141500D01*
X160250Y142670D01*
X160630Y143830D01*
X161500Y144670D01*
X162500Y145000D01*
X163500Y144670D01*
X164370Y143830D01*
X164750Y142670D01*
X164500Y141500D01*
X163880Y140670D01*
X163120Y140330D01*
X161880D01*
X160750Y139830D01*
X160000Y138830D01*
X159750Y137670D01*
X160000Y136500D01*
X160630Y135670D01*
X161630Y135170D01*
X162500Y135000D01*
G54D11*
X-28660Y-184040D03*
G54D21*
G01X-47500Y-235000D02*
Y-200000D01*
G01X-57500Y-225000D02*
X-22500D01*
G01X-47500Y20000D02*
Y-15000D01*
G01X-57500Y10000D02*
X-22500D01*
G01X355000Y-225000D02*
X320000D01*
G01X355000Y10000D02*
X320000D01*
G01X345000Y-235000D02*
Y-200000D01*
G01Y20000D02*
Y-15000D01*
G54D12*
X-28660Y-25780D03*
G54D13*
X15000Y-30500D03*
X65000Y-7400D03*
X294100Y-135000D03*
G54D14*
X15000Y-17400D03*
Y-7400D03*
X25000Y-30500D03*
Y-17400D03*
X35000D03*
X45000D03*
X25000Y-7400D03*
X35000D03*
X45000D03*
X53500Y-177000D03*
X73700Y-154500D03*
X55000Y-17400D03*
X65000D03*
X55000Y-7400D03*
X149500Y-77000D03*
X170500Y-12500D03*
X225000Y-157000D03*
Y-168500D03*
Y-133500D03*
Y-144500D03*
X246000Y-59500D03*
X246500Y-8500D03*
X287900Y-93600D03*
X265000Y-43500D03*
X268500Y-27500D03*
X294100Y-125000D03*
G54D15*
X0Y0D03*
G54D16*
X45000Y-206570D03*
X326580Y-161000D03*
Y-42500D03*
G54D17*
X25000Y-206570D03*
X326580Y-181000D03*
Y-62500D03*
G54D18*
X90000Y-200950D03*
G54D19*
Y-183230D03*
M02*
