G04 ================== begin FILE IDENTIFICATION RECORD ==================*
G04 Layout Name:  C:/tmp/20_037158b_bck/worklib/02_037158b_top/physical/08_037158b.brd*
G04 Film Name:    l1_primary*
G04 File Format:  Gerber RS274X*
G04 File Origin:  Cadence Allegro 16.5-S031*
G04 Origin Date:  Thu Dec 19 14:20:58 2013*
G04 *
G04 Layer:  VIA CLASS/TOP*
G04 Layer:  PIN/TOP*
G04 Layer:  PACKAGE GEOMETRY/ETCH_TOP*
G04 Layer:  ETCH/TOP*
G04 Layer:  BOARD GEOMETRY/TOOLING_CORNERS*
G04 Layer:  BOARD GEOMETRY/LYR_TOP*
G04 Layer:  BOARD GEOMETRY/ROOT_NUMBER*
G04 *
G04 Offset:    (0.0 0.0)*
G04 Mirror:    No*
G04 Mode:      Positive*
G04 Rotation:  0*
G04 FullContactRelief:  No*
G04 UndefLineWidth:     8.0*
G04 ================== end FILE IDENTIFICATION RECORD ====================*
%FSLAX55Y55*MOIN*%
%IR0*IPPOS*OFA0.00000B0.00000*MIA0B0*SFA1.00000B1.00000*%
%ADD43R,.126X.061*%
%ADD35R,.095X.11*%
%ADD29R,.095X.122*%
%ADD49R,.161X.161*%
%AMMACRO14*
4,1,36,0.0,.01,
.001736,.009848,
.00342,.009397,
.005,.00866,
.006428,.00766,
.00766,.006428,
.00866,.005,
.009397,.00342,
.009848,.001736,
.01,0.0,
.009848,-.001736,
.009397,-.00342,
.00866,-.005,
.00766,-.006428,
.006428,-.00766,
.005,-.00866,
.00342,-.009397,
.001736,-.009848,
0.0,-.01,
-.001736,-.009848,
-.00342,-.009397,
-.005,-.00866,
-.006428,-.00766,
-.00766,-.006428,
-.00866,-.005,
-.009397,-.00342,
-.009848,-.001736,
-.01,0.0,
-.009848,.001736,
-.009397,.00342,
-.00866,.005,
-.00766,.006428,
-.006428,.00766,
-.005,.00866,
-.00342,.009397,
-.001736,.009848,
0.0,.01,
90.*
%
%ADD14MACRO14*%
%AMMACRO11*
4,1,36,0.0,-.02,
.003473,-.019696,
.00684,-.018794,
.01,-.017321,
.012856,-.015321,
.015321,-.012856,
.017321,-.01,
.018794,-.00684,
.019696,-.003473,
.02,0.0,
.019696,.003473,
.018794,.00684,
.017321,.01,
.015321,.012856,
.012856,.015321,
.01,.017321,
.00684,.018794,
.003473,.019696,
0.0,.02,
-.003473,.019696,
-.00684,.018794,
-.01,.017321,
-.012856,.015321,
-.015321,.012856,
-.017321,.01,
-.018794,.00684,
-.019696,.003473,
-.02,0.0,
-.019696,-.003473,
-.018794,-.00684,
-.017321,-.01,
-.015321,-.012856,
-.012856,-.015321,
-.01,-.017321,
-.00684,-.018794,
-.003473,-.019696,
0.0,-.02,
90.*
%
%ADD11MACRO11*%
%AMMACRO39*
4,1,36,0.0,-.02,
.003473,-.019696,
.00684,-.018794,
.01,-.017321,
.012856,-.015321,
.015321,-.012856,
.017321,-.01,
.018794,-.00684,
.019696,-.003473,
.02,0.0,
.019696,.003473,
.018794,.00684,
.017321,.01,
.015321,.012856,
.012856,.015321,
.01,.017321,
.00684,.018794,
.003473,.019696,
0.0,.02,
-.003473,.019696,
-.00684,.018794,
-.01,.017321,
-.012856,.015321,
-.015321,.012856,
-.017321,.01,
-.018794,.00684,
-.019696,.003473,
-.02,0.0,
-.019696,-.003473,
-.018794,-.00684,
-.017321,-.01,
-.015321,-.012856,
-.012856,-.015321,
-.01,-.017321,
-.00684,-.018794,
-.003473,-.019696,
0.0,-.02,
0.0*
%
%ADD39MACRO39*%
%ADD51O,.037X.012*%
%ADD50O,.012X.037*%
%ADD41R,.07X.013*%
%ADD31R,.032X.024*%
%ADD53R,.035X.031*%
%ADD47R,.024X.032*%
%ADD30R,.06X.025*%
%ADD16R,.032X.035*%
%ADD13C,.04*%
%ADD44R,.05X.045*%
%ADD40R,.03X.038*%
%ADD20R,.035X.032*%
%ADD48R,.063X.051*%
%ADD45R,.045X.05*%
%ADD36R,.055X.051*%
%ADD34R,.065X.013*%
%ADD33R,.07X.017*%
%ADD26C,.07*%
%ADD23R,.051X.063*%
%ADD19R,.028X.05*%
%ADD10C,.025*%
%ADD21R,.047X.043*%
%ADD18R,.055X.035*%
%ADD17R,.075X.024*%
%ADD12R,.067X.014*%
%ADD46R,.024X.075*%
%ADD22R,.043X.047*%
%ADD52R,.086X.024*%
%ADD25C,.065*%
%ADD42R,.048X.036*%
%ADD15R,.07X.085*%
%ADD37R,.067X.063*%
%ADD27R,.07X.07*%
%ADD38R,.079X.063*%
%ADD32R,.055X.087*%
%ADD24R,.065X.065*%
%ADD28R,.098X.039*%
%ADD54R,.087X.098*%
%ADD55C,.01*%
%ADD56C,.02*%
%ADD57C,.03*%
%ADD58C,.012*%
%ADD59C,.013*%
%ADD60C,.008*%
%ADD61C,.05*%
%ADD62C,.024*%
%ADD63C,.015*%
%ADD64C,.035*%
%ADD65C,.045*%
%ADD67R,.0802X.0452*%
%ADD66C,.0854*%
G75*
%LPD*%
G75*
G36*
G01X-32000Y-188620D02*
Y-194020D01*
G03X-30020Y-216270I10231J-10303D01*
G02X-30240Y-217000I-224J-331D01*
G01X-38500D01*
X-39000Y-216500D01*
Y1000D01*
X-38000Y2000D01*
X-34890D01*
G02X-34540Y1410I-2J-400D01*
G03X-32000Y-15800I12770J-6908D01*
G01Y-22890D01*
G03Y-28670I3340J-2890D01*
G01Y-33500D01*
X-37160D01*
Y-176320D01*
X-32000D01*
Y-179460D01*
G03Y-188620I3340J-4580D01*
G37*
G36*
G01X74010Y-127010D02*
Y-115630D01*
X74070Y-115570D01*
X74480D01*
Y-118190D01*
X82000D01*
Y-156500D01*
X83000Y-157500D01*
X119000D01*
X120000Y-158500D01*
Y-216000D01*
X119000Y-217000D01*
X-13300D01*
G02X-13520Y-216270I4J399D01*
G03X-8210Y-209500I-8256J11943D01*
G01X20490D01*
Y-211080D01*
X29510D01*
Y-209500D01*
X41560D01*
G03X48440I3440J2930D01*
G01X111500D01*
X112500Y-208500D01*
Y-207460D01*
X118230D01*
Y-194440D01*
X112500D01*
Y-183440D01*
X118230D01*
Y-170420D01*
X112500D01*
Y-166500D01*
X75000D01*
X74000Y-165500D01*
Y-158760D01*
X74180Y-158740D01*
G03X75010Y-150440I-485J4240D01*
G01Y-149060D01*
X75510D01*
Y-143240D01*
X74000D01*
Y-142760D01*
X75510D01*
Y-136940D01*
X74000D01*
Y-127010D01*
X74010D01*
G37*
G36*
G01X-7220Y-208000D02*
G02X-7610Y-207510I2J401D01*
G03X-29880Y-192270I-14165J3193D01*
G02X-30500Y-191940I-222J330D01*
G01Y-189940D01*
G02X-30010Y-189550I399J2D01*
G03Y-178530I1350J5510D01*
G02X-30500Y-178140I-91J388D01*
G01Y-176320D01*
X-28420D01*
Y-171480D01*
X-28200D01*
X-27490Y-170770D01*
X-27420D01*
G03Y-166230I-80J2270D01*
G01X-27490D01*
X-27820Y-165900D01*
X-28420D01*
Y-165430D01*
G02X-27980Y-165040I398J-6D01*
G03Y-160520I260J2260D01*
G02X-28420Y-160130I-42J396D01*
G01Y-153440D01*
G02X-27870Y-153070I399J1D01*
G03Y-148870I870J2100D01*
G02X-28420Y-148500I-151J369D01*
G01Y-139270D01*
G02X-27870Y-138900I399J1D01*
G03Y-134700I870J2100D01*
G02X-28420Y-134330I-151J369D01*
G01Y-125270D01*
G02X-27960Y-124880I398J-4D01*
G03Y-120380I330J2250D01*
G02X-28420Y-119990I-62J394D01*
G01Y-113440D01*
G02X-27940Y-113050I399J0D01*
G03Y-108590I440J2230D01*
G02X-28420Y-108200I-81J390D01*
G01Y-94540D01*
G02X-27940Y-94150I399J0D01*
G03Y-89690I440J2230D01*
G02X-28420Y-89300I-81J390D01*
G01Y-85090D01*
G02X-27950Y-84700I400J-4D01*
G03Y-80240I420J2230D01*
G02X-28420Y-79850I-70J394D01*
G01Y-70920D01*
G02X-27940Y-70530I399J0D01*
G03Y-66070I440J2230D01*
G02X-28420Y-65680I-81J390D01*
G01Y-56740D01*
G02X-27940Y-56350I399J0D01*
G03Y-51890I440J2230D01*
G02X-28420Y-51500I-81J390D01*
G01Y-47200D01*
G02X-27890Y-46820I401J1D01*
G03X-26040Y-42700I718J2153D01*
G02X-26010Y-41990I199J347D01*
G03X-27870Y-37850I-988J2044D01*
G02X-28420Y-37480I-151J369D01*
G01Y-33500D01*
X-30500D01*
Y-30380D01*
G02X-29980Y-30000I399J0D01*
G03Y-21560I1320J4220D01*
G02X-30500Y-21180I-121J380D01*
G01Y-17880D01*
G02X-29880Y-17550I398J0D01*
G03X-7350Y-7180I8106J12047D01*
G01X-7330Y-7000D01*
X10330D01*
G02X10730Y-7400I0J-400D01*
G03X12490Y-10850I4261J0D01*
G01Y-13950D01*
G03Y-20850I2510J-3450D01*
G01Y-26240D01*
X10740D01*
Y-34760D01*
X19260D01*
Y-26240D01*
X17510D01*
Y-20850D01*
G03Y-13950I-2510J3450D01*
G01Y-10850D01*
G03X19270Y-7400I-2501J3450D01*
G02X19670Y-7000I400J0D01*
G01X20330D01*
G02X20730Y-7400I0J-400D01*
G03X29270I4270J0D01*
G02X29670Y-7000I400J0D01*
G01X30330D01*
G02X30730Y-7400I0J-400D01*
G03X39270I4270J0D01*
G02X39670Y-7000I400J0D01*
G01X40330D01*
G02X40730Y-7400I0J-400D01*
G03X49270I4270J0D01*
G02X49670Y-7000I400J0D01*
G01X50330D01*
G02X50730Y-7400I0J-400D01*
G03X59270I4270J0D01*
G02X59670Y-7000I400J0D01*
G01X60740D01*
Y-11660D01*
X69260D01*
Y-7000D01*
X72000D01*
X72500Y-7500D01*
Y-25490D01*
X55490D01*
Y-34510D01*
X59050D01*
G03X59330Y-34530I301J2240D01*
G02X59530Y-34730I0J-200D01*
G01Y-37510D01*
X57770D01*
G03Y-42030I0J-2260D01*
G01X59530D01*
Y-43340D01*
X67070D01*
Y-43000D01*
G02X67750Y-42720I399J-3D01*
G01X68240Y-43210D01*
X68320D01*
Y-62630D01*
X67590Y-63360D01*
G02X66910Y-63080I-281J284D01*
G01Y-57500D01*
X67000D01*
Y-52000D01*
X66910D01*
Y-44540D01*
X56990D01*
Y-52000D01*
X56000D01*
Y-57440D01*
X55700D01*
G03Y-61960I0J-2260D01*
G01X56990D01*
Y-63860D01*
X59490D01*
G02X59690Y-64060I0J-200D01*
G03X59770Y-64660I2261J-4D01*
G02X59430Y-65160I-387J-102D01*
G01Y-67240D01*
X58000D01*
G03Y-71760I0J-2260D01*
G01X59430D01*
Y-73770D01*
G02X59230Y-73970I-200J0D01*
G03X58950Y-73990I21J-2260D01*
G01X55490D01*
Y-83010D01*
X72500D01*
Y-89230D01*
G03X70300Y-90960I0J-2264D01*
G02X69850Y-91260I-390J98D01*
G03X69420Y-95770I-354J-2242D01*
G01X69490D01*
X71370Y-97650D01*
X72500D01*
Y-99460D01*
X70730D01*
X70640Y-99550D01*
X68330D01*
X66270Y-97490D01*
Y-97420D01*
G03X62470Y-99170I-2267J-77D01*
G02X62200Y-99870I-269J-298D01*
G01X60520D01*
Y-96950D01*
X51480D01*
Y-112520D01*
X49690Y-114310D01*
Y-118730D01*
X48530D01*
G02X48060Y-119120I-401J5D01*
G03Y-123580I-410J-2230D01*
G02X48530Y-123970I69J-395D01*
G01X54040D01*
Y-124170D01*
G03X58560I2260J10D01*
G01Y-123970D01*
X59070D01*
Y-123610D01*
X60350D01*
G03Y-119090I0J2260D01*
G01X59070D01*
Y-118730D01*
X52910D01*
Y-116050D01*
X60520D01*
Y-112610D01*
G02X61010Y-112220I399J2D01*
G03X63230Y-111470I487J2218D01*
G02X63750Y-111400I300J-262D01*
G03X67060Y-110460I1249J1898D01*
G02X67700Y-110340I362J-165D01*
G01X68910Y-111550D01*
G02X68630Y-112230I-283J-281D01*
G01X68280D01*
Y-117740D01*
X67500D01*
G03Y-122260I0J-2260D01*
G01X68280D01*
Y-122770D01*
X68640D01*
Y-123900D01*
G03X70900Y-126160I2260J0D01*
G01X72500D01*
Y-136940D01*
X70490D01*
Y-137000D01*
X68500D01*
Y-137230D01*
X63880D01*
Y-140500D01*
X50510D01*
Y-137500D01*
G03X44490I-3010J0D01*
G01Y-143390D01*
X41740D01*
Y-143500D01*
X41010D01*
Y-140740D01*
X39010D01*
Y-128490D01*
X9990D01*
Y-142510D01*
X14500D01*
Y-143990D01*
X11490D01*
Y-153490D01*
X10820D01*
Y-152730D01*
X10460D01*
Y-152200D01*
G03X5940I-2260J0D01*
G01Y-152730D01*
X5580D01*
Y-158890D01*
X2330D01*
X-2320Y-163540D01*
X-5980D01*
Y-93530D01*
X-3750D01*
X2390Y-99670D01*
Y-108170D01*
X6330Y-112110D01*
X6630D01*
Y-114020D01*
X10150D01*
G02X10540Y-114460I-7J-399D01*
G03X14270Y-116430I2258J-241D01*
G02X14830Y-116470I260J-303D01*
G03X18810Y-115000I1719J1470D01*
G01Y-114020D01*
X18970D01*
Y-108110D01*
X19830D01*
X21330Y-109610D01*
X21380D01*
Y-110770D01*
X26620D01*
Y-110670D01*
X28480D01*
Y-111670D01*
G02X27950Y-112040I-398J6D01*
G03X28470Y-116050I-768J-2138D01*
G01X37520D01*
Y-113670D01*
G02X38230Y-113420I400J-3D01*
G03X40080Y-109730I1770J1421D01*
G01X40010D01*
X39700Y-109420D01*
X39880Y-109240D01*
X39940Y-109230D01*
G03X40300Y-104880I-441J2226D01*
G02X40180Y-104630I72J188D01*
G03X37930Y-101730I-2181J631D01*
G02X37520Y-101330I-11J399D01*
G01Y-96950D01*
X28480D01*
Y-97210D01*
X25330D01*
X22310Y-100230D01*
X21380D01*
Y-101390D01*
X21000D01*
X19500Y-102890D01*
X18960D01*
Y-96990D01*
X18160D01*
Y-94880D01*
X11270Y-87990D01*
Y-87920D01*
G03X11040Y-87010I-2268J-89D01*
G02X11400Y-86440I363J169D01*
G01X14160D01*
X20140Y-92420D01*
Y-93650D01*
G03X23360I1610J-1600D01*
G01Y-91080D01*
X17070Y-84790D01*
G02X17350Y-84110I284J281D01*
G01X23470D01*
X33110Y-74470D01*
Y-63970D01*
X38330Y-58750D01*
X39230D01*
Y-58810D01*
X47770D01*
Y-54560D01*
G02X48290Y-54180I398J1D01*
G03X50490Y-50300I717J2157D01*
G02X50460Y-49730I259J299D01*
G03X51010Y-48340I-1463J1383D01*
G01Y-42670D01*
X47630Y-39290D01*
X43520D01*
Y-37930D01*
X42610D01*
Y-33860D01*
X36990Y-28240D01*
X28620D01*
G03Y-32760I-3620J-2260D01*
G01X35110D01*
X38090Y-35740D01*
Y-37930D01*
X30480D01*
Y-39790D01*
X28520D01*
Y-37930D01*
X15480D01*
Y-39040D01*
X14500D01*
G03Y-43560I0J-2260D01*
G01X15480D01*
Y-44670D01*
X23840D01*
Y-47790D01*
X16230D01*
Y-47850D01*
X13870D01*
Y-46280D01*
X7130D01*
Y-47840D01*
X6770D01*
X6710Y-47790D01*
G03Y-51110I-1540J-1660D01*
G01X6770Y-51060D01*
X7130D01*
Y-53540D01*
G02X6640Y-53930I-399J-2D01*
G03Y-58370I-490J-2220D01*
G02X7130Y-58760I91J-388D01*
G01Y-59320D01*
X7890D01*
G02X8280Y-59810I2J-399D01*
G03X9090Y-62080I2218J-488D01*
G02X8840Y-62790I-252J-310D01*
G01X6490D01*
Y-78890D01*
X2130D01*
X-630Y-76130D01*
X-5980D01*
Y-33500D01*
X-14720D01*
Y-37430D01*
G02X-15250Y-37810I-400J-1D01*
G03Y-42090I-750J-2140D01*
G02X-14720Y-42470I130J-379D01*
G01Y-51600D01*
G02X-15250Y-51980I-400J-1D01*
G03Y-56260I-750J-2140D01*
G02X-14720Y-56640I130J-379D01*
G01Y-65780D01*
G02X-15250Y-66160I-400J-1D01*
G03Y-70440I-750J-2140D01*
G02X-14720Y-70820I130J-379D01*
G01Y-79980D01*
G02X-15250Y-80360I-400J-1D01*
G03Y-84640I-750J-2140D01*
G02X-14720Y-85020I130J-379D01*
G01Y-91690D01*
G02X-15220Y-92080I-400J-3D01*
G03Y-96480I-560J-2200D01*
G02X-14720Y-96870I100J-387D01*
G01Y-108300D01*
G02X-15250Y-108680I-400J-1D01*
G03Y-112960I-750J-2140D01*
G02X-14720Y-113340I130J-379D01*
G01Y-120110D01*
G02X-15250Y-120490I-400J-1D01*
G03Y-124770I-750J-2140D01*
G02X-14720Y-125150I130J-379D01*
G01Y-134160D01*
G02X-15180Y-134550I-399J4D01*
G03Y-139050I-320J-2250D01*
G02X-14720Y-139440I61J-394D01*
G01Y-145970D01*
G02X-15180Y-146360I-399J4D01*
G03Y-150860I-320J-2250D01*
G02X-14720Y-151250I61J-394D01*
G01Y-160190D01*
G02X-15220Y-160580I-400J-3D01*
G03Y-164980I-560J-2200D01*
G02X-14720Y-165370I100J-387D01*
G01Y-165900D01*
X-15180D01*
X-16010Y-166730D01*
X-16080D01*
G03Y-171270I80J-2270D01*
G01X-16010D01*
X-15800Y-171480D01*
X-14720D01*
Y-176320D01*
X-5980D01*
Y-166760D01*
X-980D01*
X3670Y-162110D01*
X5580D01*
Y-163270D01*
X10800D01*
G03X14920Y-159710I1204J2771D01*
G02X15300Y-159210I385J102D01*
G01X16090D01*
Y-163170D01*
X16440D01*
Y-166500D01*
X14500D01*
Y-168240D01*
X7490D01*
Y-171240D01*
X6000D01*
G03Y-175760I0J-2260D01*
G01X7490D01*
Y-178760D01*
X9740D01*
Y-182500D01*
G03X13780Y-183890I2259J0D01*
G02X14500Y-184130I320J-241D01*
G01Y-207000D01*
X13500Y-208000D01*
X-7220D01*
G37*
G36*
G01X13840Y-154000D02*
X13330Y-153490D01*
X12500D01*
Y-145000D01*
X15740D01*
Y-149580D01*
X23000D01*
Y-154000D01*
X21310D01*
Y-150830D01*
X16090D01*
Y-154000D01*
X13840D01*
G37*
G36*
G01X25890Y-144500D02*
X24000D01*
Y-141500D01*
X23260D01*
Y-131420D01*
X15740D01*
Y-141500D01*
X11000D01*
Y-129500D01*
X38000D01*
Y-140740D01*
X32990D01*
Y-144500D01*
X31110D01*
Y-139040D01*
X25890D01*
Y-144500D01*
G37*
G36*
G01X7500Y-78300D02*
Y-63800D01*
X11190D01*
Y-69960D01*
X16000D01*
Y-71190D01*
X11740D01*
Y-76410D01*
X16000D01*
Y-78300D01*
X7500D01*
G37*
G36*
G01X81000Y2000D02*
X82000Y1000D01*
Y-91810D01*
X75090D01*
X74770Y-91490D01*
Y-91410D01*
G03X74010Y-89810I-2267J-96D01*
G01Y-88490D01*
X74000D01*
Y-84010D01*
X74010D01*
Y-80020D01*
X78880D01*
Y-74780D01*
X74010D01*
Y-68820D01*
X77060D01*
Y-36780D01*
X74010D01*
Y-31020D01*
X78880D01*
Y-25780D01*
X74010D01*
Y-24990D01*
X74000D01*
Y-6000D01*
X73500Y-5500D01*
X69260D01*
Y-3140D01*
X60740D01*
Y-5500D01*
X58820D01*
G03X51180I-3820J-1900D01*
G01X48820D01*
G03X41180I-3820J-1900D01*
G01X38820D01*
G03X31180I-3820J-1900D01*
G01X28820D01*
G03X21180I-3820J-1900D01*
G01X18820D01*
G03X11180I-3820J-1900D01*
G01X-7250D01*
Y-5300D01*
G03X-9000Y1410I-14519J-203D01*
G02X-8650Y2000I352J190D01*
G01X-3020D01*
G02X-2670Y1410I-2J-400D01*
G03X2670I2670J-1410D01*
G02X3020Y2000I352J190D01*
G01X81000D01*
G37*
G36*
G01X61770Y-203500D02*
X49500D01*
X48000Y-202000D01*
X21000D01*
X20500Y-201500D01*
Y-191000D01*
X21500Y-190000D01*
X38500D01*
Y-182360D01*
X45910D01*
Y-178000D01*
X48000D01*
Y-170000D01*
X49000Y-169000D01*
X78500D01*
X79500Y-170000D01*
Y-203000D01*
X79000Y-203500D01*
X73290D01*
Y-194440D01*
X61770D01*
Y-203500D01*
G37*
G36*
G01X32960Y-165340D02*
X31800Y-166500D01*
X21200D01*
X20960Y-166260D01*
Y-163170D01*
X21310D01*
Y-159210D01*
X23460D01*
Y-159000D01*
X24830D01*
Y-163620D01*
X31570D01*
Y-159380D01*
G02X32250Y-159100I398J-1D01*
G01X32990Y-159830D01*
Y-160260D01*
X41010D01*
Y-157000D01*
X41740D01*
Y-157610D01*
X53260D01*
Y-152000D01*
X53990D01*
Y-155260D01*
X62010D01*
Y-152000D01*
X63080D01*
Y-160970D01*
X68320D01*
Y-150430D01*
X67960D01*
Y-149740D01*
X68760Y-148940D01*
Y-148000D01*
X70490D01*
Y-149060D01*
X72500D01*
Y-150400D01*
G03Y-158600I1200J-4100D01*
G01Y-165500D01*
X71500Y-166500D01*
X45910D01*
Y-164640D01*
X34090D01*
Y-165340D01*
X32960D01*
G37*
G36*
G01X56500Y-82000D02*
Y-75000D01*
X59440D01*
Y-79790D01*
X66960D01*
Y-75000D01*
X68350D01*
Y-80010D01*
X72500D01*
Y-82000D01*
X56500D01*
G37*
G36*
G01Y-33500D02*
Y-26500D01*
X68350D01*
Y-31010D01*
X73000D01*
Y-33500D01*
X67060D01*
Y-28710D01*
X59540D01*
Y-33500D01*
X56500D01*
G37*
G36*
G01X133000Y-217000D02*
X132000Y-216000D01*
Y-149000D01*
X131000Y-148000D01*
X105000D01*
X104000Y-147000D01*
Y-118190D01*
X111500D01*
Y-139500D01*
X112500Y-140500D01*
X138500D01*
X139500Y-141500D01*
Y-208500D01*
X140500Y-209500D01*
X196000D01*
X197000Y-208500D01*
Y-71260D01*
G03X197260Y-70210I-1990J1050D01*
G02X197460Y-70010I200J0D01*
G01X198510D01*
Y-64000D01*
X203790D01*
Y-65760D01*
X204500D01*
Y-80390D01*
X200340D01*
Y-85610D01*
X204500D01*
Y-216000D01*
X203500Y-217000D01*
X133000D01*
G37*
G36*
G01X141500Y-208000D02*
X141000Y-207500D01*
Y-140000D01*
X140000Y-139000D01*
X114000D01*
X113000Y-138000D01*
Y-125520D01*
X119370D01*
Y-114110D01*
G02X120050Y-113830I399J-4D01*
G01X120880Y-114660D01*
Y-123770D01*
X126120D01*
Y-122610D01*
X127530D01*
Y-125320D01*
X127690D01*
G02X128080Y-125810I2J-399D01*
G03X132520I2220J-490D01*
G02X132910Y-125320I388J91D01*
G01X133540D01*
Y-127070D01*
G03X137060I1760J-1430D01*
G01Y-125320D01*
X138070D01*
G02X138550Y-124920I401J6D01*
G03Y-120480I450J2220D01*
G02X138070Y-120080I-79J394D01*
G01X129870D01*
X129140Y-119390D01*
X126120D01*
Y-114860D01*
G02X126800Y-114580I399J-4D01*
G01X127730Y-115510D01*
Y-118620D01*
X138270D01*
Y-117610D01*
X138830D01*
X139730Y-118510D01*
Y-119620D01*
X145240D01*
Y-120500D01*
G03X149760I2260J0D01*
G01Y-119620D01*
X150270D01*
Y-119260D01*
X151000D01*
G03Y-114740I0J2260D01*
G01X150270D01*
Y-114380D01*
X144980D01*
G02X144610Y-113830I2J401D01*
G03Y-112170I-2110J830D01*
G02X144980Y-111620I372J149D01*
G01X150770D01*
Y-111260D01*
X151500D01*
G03Y-106740I0J2260D01*
G01X150770D01*
Y-106380D01*
X145630D01*
G02X145230Y-105910I-5J401D01*
G03X145110Y-104670I-2230J410D01*
G02X145480Y-104120I372J149D01*
G01X150770D01*
Y-103760D01*
X152500D01*
G03Y-99240I0J2260D01*
G01X150770D01*
Y-98880D01*
X145480D01*
G02X145110Y-98330I2J401D01*
G03X140890I-2110J830D01*
G02X140520Y-98880I-372J-149D01*
G01X140230D01*
Y-100390D01*
X138770D01*
Y-99380D01*
X130210D01*
G02X129930Y-98700I4J399D01*
G01X130610Y-98020D01*
X134870D01*
Y-84980D01*
X130610D01*
X129520Y-83890D01*
X125520D01*
Y-82130D01*
X113000D01*
Y-68820D01*
X117980D01*
X120170Y-71010D01*
X121590D01*
Y-71760D01*
X128410D01*
Y-70960D01*
X132590D01*
Y-71760D01*
X139410D01*
Y-67500D01*
X139500D01*
Y-58140D01*
G02X140150Y-57820I401J6D01*
G03X141260Y-58290I1404J1769D01*
G01X141320Y-58300D01*
X142190Y-59170D01*
Y-61840D01*
X142500D01*
Y-63160D01*
X142190D01*
Y-71280D01*
X156810D01*
Y-63160D01*
X156500D01*
Y-61840D01*
X156810D01*
Y-53720D01*
X142190D01*
Y-53790D01*
X141550D01*
G03X140150Y-54280I5J-2258D01*
G02X139500Y-53960I-249J314D01*
G01Y-51500D01*
X139410D01*
Y-50960D01*
X142190D01*
Y-51280D01*
X156810D01*
Y-43160D01*
X156500D01*
Y-41840D01*
X156810D01*
Y-40290D01*
X158040D01*
Y-41160D01*
X158500D01*
Y-43840D01*
X158040D01*
Y-52160D01*
X167960D01*
Y-50260D01*
X169000D01*
G03Y-45740I0J2260D01*
G01X168000D01*
Y-40240D01*
G02X168530Y-39860I400J2D01*
G03X168490Y-34150I968J2862D01*
G02X167960Y-33780I-131J376D01*
G01Y-32840D01*
X158040D01*
Y-34490D01*
X156810D01*
Y-33720D01*
X142190D01*
Y-41840D01*
X142500D01*
Y-43160D01*
X142190D01*
Y-46940D01*
X139410D01*
Y-46140D01*
X139000D01*
Y-38860D01*
X139410D01*
Y-33240D01*
X132590D01*
Y-34040D01*
X128410D01*
Y-33240D01*
X121590D01*
Y-36620D01*
X120240Y-37960D01*
G02X119560Y-37680I-282J281D01*
G01Y-36780D01*
X113000D01*
Y-8000D01*
X114000Y-7000D01*
X163000D01*
X164000Y-8000D01*
Y-17500D01*
X165000Y-18500D01*
X176140D01*
Y-23010D01*
X176490D01*
Y-24500D01*
G03X182510I3010J0D01*
G01Y-24440D01*
G02X183190Y-24160I399J-4D01*
G01X183500Y-24470D01*
Y-29480D01*
X183130D01*
G02X182590Y-29830I-398J23D01*
G03Y-35470I-1090J-2820D01*
G02X183130Y-35840I141J-373D01*
G01Y-36340D01*
X182000D01*
G03Y-42360I0J-3010D01*
G01X183130D01*
Y-42520D01*
X183500D01*
Y-46490D01*
X182500D01*
G03Y-52510I0J-3010D01*
G01X183500D01*
Y-56480D01*
X183130D01*
Y-56640D01*
X181500D01*
G03Y-62660I0J-3010D01*
G01X183130D01*
Y-69520D01*
X189870D01*
Y-64000D01*
X191490D01*
Y-70010D01*
X195500D01*
Y-207000D01*
X194500Y-208000D01*
X141500D01*
G37*
G36*
G01X197000Y-6500D02*
X196000Y-5500D01*
X191500D01*
X190500Y-4500D01*
X189430D01*
X189420Y-4490D01*
X165580D01*
X165570Y-4500D01*
X164500D01*
X163500Y-5500D01*
X112500D01*
X111500Y-6500D01*
Y-36780D01*
X110820D01*
Y-68820D01*
X111500D01*
Y-87370D01*
X110390Y-88480D01*
Y-91810D01*
X104000D01*
Y1000D01*
X105000Y2000D01*
X203500D01*
X204500Y1000D01*
Y-7240D01*
X204290D01*
Y-9390D01*
X200330D01*
Y-9990D01*
X199160D01*
G02X198510Y-9680I-251J310D01*
G01Y-8990D01*
X197000D01*
Y-6500D01*
G37*
G36*
G01X165500Y-6000D02*
X166000Y-5500D01*
X189000D01*
X189500Y-6000D01*
Y-8990D01*
X184490D01*
Y-14500D01*
X182860D01*
Y-9990D01*
X176140D01*
Y-14500D01*
X176000D01*
Y-17000D01*
X175510Y-17490D01*
X165990D01*
X165500Y-17000D01*
Y-6000D01*
G37*
G36*
G01X202270Y-58390D02*
X201120Y-57240D01*
X198510D01*
Y-55990D01*
X197000D01*
Y-53010D01*
X198010D01*
Y-52760D01*
X203790D01*
Y-58390D01*
X202270D01*
G37*
G36*
G01X198010Y-46240D02*
Y-45990D01*
X197000D01*
Y-43010D01*
X198510D01*
Y-41760D01*
X201120D01*
X202270Y-40610D01*
X203790D01*
Y-46240D01*
X198010D01*
G37*
G36*
G01X198510Y-37740D02*
Y-36490D01*
X197000D01*
Y-35510D01*
X198510D01*
Y-28990D01*
X197000D01*
Y-25010D01*
X199010D01*
Y-24760D01*
X204500D01*
Y-33240D01*
X203790D01*
Y-35390D01*
X199830D01*
Y-37370D01*
X199460Y-37740D01*
X198510D01*
G37*
G36*
G01X199010Y-18240D02*
Y-17990D01*
X197000D01*
Y-16010D01*
X198510D01*
Y-14510D01*
X200330D01*
Y-14610D01*
X204290D01*
Y-18240D01*
X199010D01*
G37*
G36*
G01X238510Y-146630D02*
X242960Y-142180D01*
G02X243570Y-142240I280J-283D01*
G03X244920Y-142970I1350J883D01*
G01X247530D01*
Y-145580D01*
G03X248750Y-147140I1607J0D01*
G02X248900Y-147380I-46J-196D01*
G03X250710Y-150120I2210J-508D01*
G02X250920Y-150800I-71J-394D01*
G01X250640Y-151080D01*
Y-165920D01*
X258230Y-173510D01*
X263790D01*
Y-174460D01*
X264500D01*
Y-176740D01*
X263790D01*
Y-181860D01*
X269310D01*
Y-181500D01*
X278330D01*
Y-181920D01*
X282030D01*
X285870Y-185760D01*
X289040D01*
Y-189660D01*
X299760D01*
Y-185760D01*
X307480D01*
X310230Y-183010D01*
X322070D01*
Y-185510D01*
X327500D01*
Y-207000D01*
X326500Y-208000D01*
X217500D01*
X216500Y-207000D01*
Y-71500D01*
X217500Y-70500D01*
X241000D01*
Y-69760D01*
X242500D01*
G03Y-63740I0J3010D01*
G01X240670D01*
Y-55680D01*
X232330D01*
Y-60500D01*
X229110D01*
Y-56830D01*
X223890D01*
Y-60500D01*
X220510D01*
Y-55990D01*
X216500D01*
Y-53510D01*
X222510D01*
Y-53500D01*
X223490D01*
Y-53510D01*
X230010D01*
Y-53010D01*
X231500D01*
G03X233880Y-48160I0J3009D01*
G02X234190Y-47510I313J249D01*
G01X253010D01*
Y-45210D01*
X261090D01*
G03X262740Y-47120I3911J1711D01*
G01Y-49500D01*
X262500D01*
Y-49740D01*
X262290D01*
Y-54860D01*
X262500D01*
Y-55000D01*
X268000D01*
Y-49500D01*
X267260D01*
Y-47120D01*
G03X261790Y-40690I-2254J3624D01*
G01X253010D01*
Y-39490D01*
X252000D01*
Y-32000D01*
X251910D01*
Y-27240D01*
X251260D01*
Y-26230D01*
X251280Y-26190D01*
G03X245720I-2780J1190D01*
G01X245740Y-26230D01*
Y-27240D01*
X245090D01*
Y-27290D01*
X243060D01*
X241350Y-29000D01*
X220510D01*
Y-28990D01*
X216500D01*
Y-26000D01*
X216990Y-25510D01*
X220510D01*
Y-25500D01*
X221490D01*
Y-25510D01*
X228010D01*
Y-25010D01*
X228500D01*
G03Y-18990I0J3010D01*
G01X228010D01*
Y-18490D01*
X222500D01*
Y-16000D01*
X224390D01*
Y-16170D01*
X229610D01*
Y-16000D01*
X232800D01*
X232840Y-16040D01*
Y-18810D01*
X236300D01*
X236500Y-19010D01*
X242500D01*
G03X245500Y-16190I0J3006D01*
G01X245520Y-16000D01*
X253000D01*
Y-7000D01*
X326500D01*
X327500Y-8000D01*
Y-37610D01*
G02X327060Y-38010I-401J-1D01*
G03Y-46990I-480J-4490D01*
G02X327500Y-47390I39J-399D01*
G01Y-57990D01*
X322070D01*
Y-60490D01*
X311830D01*
X308580Y-57240D01*
X299860D01*
Y-53340D01*
X299500D01*
Y-46660D01*
X299860D01*
Y-34840D01*
X296760D01*
Y-33000D01*
G03X292240I-2260J0D01*
G01Y-34840D01*
X289140D01*
Y-38490D01*
X284870D01*
Y-37480D01*
X283760D01*
Y-36000D01*
G03X279240I-2260J0D01*
G01Y-37480D01*
X278130D01*
Y-38390D01*
X275650D01*
G03Y-42910I0J-2260D01*
G01X278130D01*
Y-50520D01*
X279490D01*
Y-51170D01*
X278990Y-51670D01*
Y-52180D01*
X277230D01*
Y-53500D01*
X276500D01*
Y-60000D01*
X277230D01*
Y-60990D01*
X276690D01*
X275210Y-59510D01*
Y-58560D01*
X275710D01*
Y-53440D01*
X275210D01*
Y-47500D01*
G03X270690I-2260J0D01*
G01Y-48500D01*
X270000D01*
Y-57000D01*
X267000D01*
Y-57140D01*
X262290D01*
Y-62260D01*
X267000D01*
Y-63500D01*
X271000D01*
Y-62660D01*
G02X271680Y-62380I399J-3D01*
G01X274810Y-65510D01*
X277230D01*
Y-66820D01*
X284770D01*
Y-62000D01*
X285000D01*
Y-57760D01*
X285920D01*
X289140Y-60980D01*
Y-65160D01*
X299860D01*
Y-61260D01*
X306920D01*
X310170Y-64510D01*
X322070D01*
Y-67010D01*
X327500D01*
Y-156110D01*
G02X327060Y-156510I-401J-1D01*
G03Y-165490I-480J-4490D01*
G02X327500Y-165890I39J-399D01*
G01Y-176490D01*
X322070D01*
Y-178990D01*
X308570D01*
X305820Y-181740D01*
X299760D01*
Y-179000D01*
X300000D01*
Y-170500D01*
X299760D01*
Y-159340D01*
X296660D01*
Y-157900D01*
G03X292140I-2260J0D01*
G01Y-159340D01*
X289040D01*
Y-162990D01*
X281310D01*
X280100Y-164200D01*
G03X279440Y-165800I1609J-1600D01*
G01Y-168880D01*
X278330D01*
Y-169500D01*
X276430D01*
G02X276070Y-168940I4J399D01*
G03X271930I-2070J940D01*
G02X271570Y-169500I-364J-161D01*
G01X269310D01*
Y-169340D01*
X268160D01*
Y-168650D01*
X268210Y-168590D01*
G03X264890I-1660J1540D01*
G01X264940Y-168650D01*
Y-169340D01*
X263790D01*
Y-170290D01*
X259570D01*
X253860Y-164580D01*
Y-152420D01*
X255090Y-151190D01*
G03X255300Y-150940I-1124J1157D01*
G01X255330Y-150900D01*
X255510Y-150790D01*
X255600Y-150830D01*
G03X255700Y-150870I891J2083D01*
G01X255830Y-150920D01*
Y-163020D01*
X256940D01*
Y-164300D01*
G03X261460I2260J0D01*
G01Y-163020D01*
X262570D01*
Y-162110D01*
X263350D01*
G03Y-157590I0J2260D01*
G01X262570D01*
Y-149980D01*
X260710D01*
Y-147580D01*
G02X261080Y-147190I398J-7D01*
G03X261140Y-147180I-233J1581D01*
G01X261160Y-147170D01*
X261410D01*
Y-148050D01*
X263730Y-150370D01*
Y-153620D01*
X263870D01*
G02X264270Y-154090I5J-401D01*
G03X268680Y-153880I2230J-415D01*
G02X268870Y-153620I191J60D01*
G01X269240D01*
Y-155500D01*
G03X273760I2260J0D01*
G01Y-153620D01*
X274270D01*
Y-153260D01*
X275500D01*
G03Y-148740I0J2260D01*
G01X274270D01*
Y-148380D01*
X266020D01*
X265360Y-147730D01*
G02X265490Y-147070I282J287D01*
G03X265880Y-146850I-587J1497D01*
G03X268470Y-145580I984J1270D01*
G01Y-142970D01*
X271080D01*
G03X272660Y-141070I0J1607D01*
G02X273200Y-140620I395J74D01*
G03X275590Y-140120I803J2122D01*
G01X285770D01*
Y-139110D01*
X289840D01*
Y-139260D01*
X298360D01*
Y-130740D01*
X289840D01*
Y-135890D01*
X285770D01*
Y-134880D01*
X277520D01*
X276580Y-133940D01*
X274060D01*
X273980Y-133560D01*
X274110Y-133490D01*
G03X274300Y-133370I-1116J1978D01*
G01X287020D01*
Y-126630D01*
X275920D01*
X275340Y-126050D01*
X275920Y-125470D01*
X287020D01*
Y-118730D01*
X273980D01*
Y-122500D01*
X272220D01*
G03X271080Y-122030I-1140J-1148D01*
G01X268470D01*
Y-119420D01*
G03X268450Y-119160I-1611J7D01*
G01X268430Y-119060D01*
X268650Y-118850D01*
X268900Y-119100D01*
G03X272730Y-117130I1600J1598D01*
G02X273130Y-116670I395J60D01*
G01X286820D01*
Y-114760D01*
X288000D01*
G03Y-110240I0J2260D01*
G01X286820D01*
Y-108330D01*
X285510D01*
Y-107000D01*
G03X280990I-2260J0D01*
G01Y-108330D01*
X272180D01*
Y-115020D01*
G02X271500Y-115300I-399J3D01*
G01X270770Y-114570D01*
Y-110880D01*
X260930D01*
G02X260650Y-110200I1J398D01*
G01X263670Y-107170D01*
X272820D01*
Y-105260D01*
X274500D01*
G03Y-100740I0J2260D01*
G01X272820D01*
Y-98830D01*
X271510D01*
Y-97750D01*
G03X266990I-2260J0D01*
G01Y-98830D01*
X265040D01*
G02X264660Y-98320I3J399D01*
G03X258840I-2910J820D01*
G02X258460Y-98830I-383J-111D01*
G01X258180D01*
Y-106980D01*
X257800Y-107350D01*
G02X257120Y-107070I-282J281D01*
G01Y-104730D01*
X256760D01*
Y-104000D01*
G03X252240I-2260J0D01*
G01Y-104730D01*
X251880D01*
Y-114280D01*
G02X251200Y-114560I-399J3D01*
G01X250620Y-113980D01*
Y-105730D01*
X250260D01*
Y-104500D01*
G03X245740I-2260J0D01*
G01Y-105730D01*
X245380D01*
Y-110990D01*
X244170D01*
Y-102180D01*
X242260D01*
Y-101000D01*
G03X237740I-2260J0D01*
G01Y-102180D01*
X235830D01*
Y-103490D01*
X234750D01*
G03Y-108010I0J-2260D01*
G01X235830D01*
Y-111240D01*
X234000D01*
G03X229490Y-115180I-1999J-2263D01*
G01Y-120860D01*
X229500D01*
Y-121340D01*
X229490D01*
Y-127160D01*
X232630D01*
X235880Y-130410D01*
Y-131970D01*
X228990D01*
G03X229000Y-134990I-3990J-1523D01*
G01X231410D01*
G02X231690Y-135670I-3J-399D01*
G01X226760Y-140610D01*
X226630Y-140560D01*
G03X228940Y-142870I-1630J-3940D01*
G01X228890Y-142740D01*
X234680Y-136960D01*
X238020D01*
G02X238300Y-137640I-3J-399D01*
G01X230780Y-145160D01*
Y-149080D01*
X226760Y-153110D01*
X226630Y-153060D01*
G03X228940Y-155370I-1630J-3940D01*
G01X228890Y-155240D01*
X233800Y-150340D01*
Y-146420D01*
X235470Y-144750D01*
G02X235760I145J-138D01*
G01X235930Y-144930D01*
X235490Y-145370D01*
Y-155870D01*
X226760Y-164610D01*
X226630Y-164560D01*
G03X228940Y-166870I-1630J-3940D01*
G01X228890Y-166740D01*
X238510Y-157130D01*
Y-146630D01*
G37*
G36*
G01X208500Y-217000D02*
X207500Y-216000D01*
Y-85610D01*
X211660D01*
Y-80390D01*
X207500D01*
Y-65760D01*
X208210D01*
Y-63610D01*
X212170D01*
Y-63010D01*
X215000D01*
Y-63490D01*
X213490D01*
Y-70010D01*
X215000D01*
Y-208500D01*
X216000Y-209500D01*
X328000D01*
X329000Y-208500D01*
Y-185510D01*
X331090D01*
Y-176490D01*
X329000D01*
Y-164820D01*
G03Y-157180I-2420J3820D01*
G01Y-67010D01*
X331090D01*
Y-57990D01*
X329000D01*
Y-46320D01*
G03Y-38680I-2420J3820D01*
G01Y-6500D01*
X328000Y-5500D01*
X253010D01*
Y-1990D01*
X237190D01*
G03X236810I-190J-2000D01*
G01X221490D01*
Y-2000D01*
X214500D01*
X213500Y-3000D01*
Y-4500D01*
X207500D01*
Y1000D01*
X208500Y2000D01*
X330400D01*
G02X330780Y1470I1J-401D01*
G03X336010Y-4350I4220J-1467D01*
G02X336500Y-4740I89J-391D01*
G01Y-209610D01*
G02X335980Y-209990I-398J-1D01*
G03X330170Y-216440I-1483J-4506D01*
G02X329810Y-217000I-365J-161D01*
G01X208500D01*
G37*
G36*
G01X231500Y-46500D02*
Y-44000D01*
X221500D01*
Y-39500D01*
X223890D01*
Y-42670D01*
X229110D01*
Y-39500D01*
X232000D01*
Y-38760D01*
X232440D01*
X232500Y-38700D01*
G02X232840Y-38840I140J-142D01*
G01Y-44310D01*
X241160D01*
Y-38500D01*
X242000D01*
Y-40500D01*
X245090D01*
Y-45760D01*
X252000D01*
Y-46500D01*
X231500D01*
G37*
G36*
G01X212170Y-58990D02*
Y-58390D01*
X208210D01*
Y-52760D01*
X215000D01*
Y-55990D01*
X213490D01*
Y-58990D01*
X212170D01*
G37*
G36*
G01X208210Y-46240D02*
Y-40610D01*
X212170D01*
Y-40010D01*
X213490D01*
Y-43010D01*
X215000D01*
Y-46240D01*
X208210D01*
G37*
G36*
G01X212170Y-35990D02*
Y-35390D01*
X208210D01*
Y-33240D01*
X207500D01*
Y-24760D01*
X213990D01*
Y-25510D01*
X215000D01*
Y-28990D01*
X213490D01*
Y-35510D01*
X215000D01*
Y-35990D01*
X212170D01*
G37*
G36*
G01X212670Y-10170D02*
X213310Y-9540D01*
G02X213990Y-9820I282J-282D01*
G01Y-10010D01*
X215000D01*
Y-10990D01*
X213990D01*
Y-17510D01*
X215000D01*
Y-18240D01*
X208710D01*
Y-14610D01*
X212670D01*
Y-10170D01*
G37*
G36*
G01X244180Y-13500D02*
G03X242500Y-12990I-1680J-2512D01*
G01X241500D01*
Y-9000D01*
X241160D01*
Y-4190D01*
X232840D01*
Y-7000D01*
X229610D01*
Y-3830D01*
X224390D01*
Y-7000D01*
X222500D01*
Y-3000D01*
X252000D01*
Y-5990D01*
X251990D01*
Y-13500D01*
X244180D01*
G37*
G36*
G01X258000Y-118140D02*
G03X256970Y-117810I-978J-1280D01*
G02X256560Y-117410I-10J400D01*
G01Y-115270D01*
X257120D01*
Y-113720D01*
X259550Y-111300D01*
G02X260230Y-111580I282J-281D01*
G01Y-114940D01*
X260100Y-114990D01*
G03X258740Y-117620I851J-2106D01*
G02X258590Y-117860I-196J-45D01*
G03X258000Y-118140I381J-1564D01*
G37*
%LPC*%
G75*
G36*
G01X59550Y-94220D02*
G03X59120Y-94420I-78J-394D01*
G01X48530D01*
Y-89180D01*
X54030D01*
Y-88980D01*
G02X58570I2270J-10D01*
G01Y-89180D01*
X59070D01*
Y-89790D01*
X59480D01*
X59500Y-89780D01*
G02X60500I500J-2220D01*
G01X60520Y-89790D01*
X60630D01*
X60680Y-89830D01*
X60720Y-89850D01*
G02X59550Y-94220I-720J-2149D01*
G37*
G36*
G01X167960Y-64340D02*
Y-72660D01*
X158040D01*
Y-64340D01*
X158500D01*
Y-61660D01*
X158040D01*
Y-53340D01*
X167960D01*
Y-55240D01*
X169000D01*
G02Y-59760I0J-2260D01*
G01X167960D01*
Y-61660D01*
X167500D01*
Y-64340D01*
X167960D01*
G37*
G36*
G01X289510Y-88270D02*
Y-89650D01*
G02X285490Y-90080I-1610J-3952D01*
G01Y-88270D01*
X284880D01*
Y-88260D01*
X283670D01*
Y-89820D01*
X275330D01*
Y-88010D01*
X274150D01*
Y-88210D01*
X274000D01*
Y-88790D01*
X274150D01*
Y-93210D01*
X263530D01*
Y-92500D01*
X263500D01*
Y-74000D01*
X263530D01*
Y-73790D01*
X274150D01*
Y-78210D01*
X274000D01*
Y-78790D01*
X274150D01*
Y-83210D01*
X274000D01*
Y-83790D01*
X274150D01*
Y-83990D01*
X275330D01*
Y-75180D01*
X277240D01*
Y-74000D01*
G02X281760I2260J0D01*
G01Y-75180D01*
X283670D01*
Y-76490D01*
X286690D01*
X287930Y-77730D01*
X290120D01*
Y-78240D01*
X291000D01*
G02Y-82760I0J-2260D01*
G01X290120D01*
Y-88270D01*
X289510D01*
G37*
G36*
G01X234260Y-90320D02*
Y-91500D01*
G02X229740I-2260J0D01*
G01Y-90320D01*
X227830D01*
Y-89010D01*
X226750D01*
G02Y-84490I0J2260D01*
G01X227830D01*
Y-75680D01*
X236170D01*
Y-84240D01*
X237280D01*
Y-78730D01*
X242520D01*
Y-83000D01*
X243530D01*
Y-78790D01*
X244000D01*
Y-78210D01*
X243530D01*
Y-73790D01*
X254150D01*
Y-78210D01*
X254000D01*
Y-78790D01*
X254150D01*
Y-83210D01*
X254000D01*
Y-83790D01*
X254150D01*
Y-88210D01*
X254000D01*
Y-88790D01*
X254150D01*
Y-93210D01*
X249290D01*
G02X248840Y-93260I-473J2207D01*
G01X239900D01*
G02X237640Y-91000I0J2260D01*
G01Y-89270D01*
X237280D01*
Y-88760D01*
X236170D01*
Y-90320D01*
X234260D01*
G37*
G54D67*
X58000Y-158000D03*
G54D66*
X45000Y-17400D03*
X35000D03*
X25000D03*
X65000D03*
X55000D03*
X53500Y-177000D03*
X149500Y-77000D03*
X170500Y-12500D03*
X294100Y-125000D03*
X268500Y-27500D03*
X246000Y-59500D03*
X246500Y-8500D03*
%LPD*%
G75*
G54D10*
G01X12000Y-173500D02*
Y-182500D01*
G01X8200Y-155500D02*
Y-152200D01*
G01X12000Y-173500D02*
X6000D01*
G01X16550Y-110500D02*
Y-115000D01*
G01X14500Y-73800D02*
Y-76610D01*
G01Y-73800D02*
Y-70990D01*
G01X14750Y-65800D02*
Y-70160D01*
G01X14500Y-73800D02*
X10000D01*
G01X14750Y-65800D02*
X10990D01*
G01X18650Y-41300D02*
X14500D01*
G01X40000Y-179400D02*
Y-182560D01*
G01Y-179400D02*
X46110D01*
G01X18700Y-160960D02*
Y-167200D01*
X25000Y-173500D01*
X28000D01*
G01X40000Y-167600D02*
X33900D01*
X28000Y-173500D01*
G01X37000Y-148000D02*
X45000D01*
X47500Y-150500D01*
G01X25690Y-147000D02*
X28500Y-146800D01*
G01D02*
X29500Y-148000D01*
X37000D01*
G01X19500Y-73800D02*
X22460D01*
G01X19500D02*
Y-76610D01*
G01X25000Y-30500D02*
X36050D01*
X40350Y-34800D01*
Y-41300D01*
G01X67530Y-200950D02*
X61050D01*
G01X53500Y-177000D02*
X50150Y-173650D01*
G01X53500Y-177000D02*
X56850Y-173650D01*
G01X53500Y-177000D02*
X56850Y-180350D01*
G01X53500Y-177000D02*
X50150Y-180350D01*
G01X67530Y-200950D02*
Y-193530D01*
G01X58000Y-148000D02*
X50000D01*
X47500Y-150500D01*
G01X65500Y-149000D02*
X65700Y-149200D01*
Y-153200D01*
G01X58000Y-158000D02*
Y-160460D01*
G01X65700Y-158200D02*
Y-161160D01*
G01X58000Y-153000D02*
Y-158000D01*
G01X66500Y-145000D02*
Y-148000D01*
X65500Y-149000D01*
G01D02*
X63000D01*
X62000Y-148000D01*
X58000D01*
G01X70900Y-120000D02*
Y-123900D01*
G01X56300Y-121350D02*
Y-124160D01*
G01X70900Y-123900D02*
X76100D01*
G01X70900Y-120000D02*
X67500D01*
G01X56300Y-121350D02*
X60350D01*
G01X70900Y-115000D02*
X67010D01*
G01X58000Y-69500D02*
X62430D01*
X63200Y-68730D01*
G01D02*
X65420D01*
X69500Y-64650D01*
X72690D01*
G01X71110Y-77400D02*
X68150D01*
G01X63200Y-76230D02*
X67160D01*
G01X63200D02*
X59240D01*
G01X63200D02*
Y-79990D01*
G01X61950Y-59700D02*
X55700D01*
G01X61950D02*
Y-64060D01*
G01Y-48700D02*
X56790D01*
G01X61950D02*
X67110D01*
G01X67260Y-48850D02*
X72690D01*
G01X67110Y-48700D02*
X67260Y-48850D01*
G01X63300Y-39770D02*
X57770D01*
G01X63300D02*
X68000D01*
X69180Y-40950D01*
X72690D01*
G01X71110Y-28400D02*
X68100D01*
G01X63300Y-32270D02*
X67260D01*
G01X63300D02*
Y-28510D01*
G01Y-32270D02*
X59340D01*
G01X76110Y-77400D02*
Y-80210D01*
G01Y-77400D02*
X79070D01*
G01X76110D02*
Y-74590D01*
G01X71110Y-77400D02*
Y-80210D01*
G01X76110Y-28400D02*
Y-31210D01*
G01Y-28400D02*
X79070D01*
G01X76110D02*
Y-25590D01*
G01X71110Y-28400D02*
Y-31210D01*
G01X112470Y-209500D02*
Y-200950D01*
G01Y-176930D02*
X119000D01*
G01Y-200950D02*
X112470D01*
G01Y-176930D02*
Y-170030D01*
X113500Y-169000D01*
G01X112470Y-176930D02*
Y-184470D01*
X113500Y-185500D01*
G01X112470Y-200950D02*
Y-194030D01*
X113500Y-193000D01*
G01X123500Y-93150D02*
X116250D01*
X116100Y-93000D01*
G01X126500Y-88500D02*
Y-90150D01*
X123500Y-93150D01*
G01X115650Y-80350D02*
Y-85500D01*
G01X115190Y-48850D02*
X110630D01*
G01X115190Y-56750D02*
X110630D01*
G01X148000Y-101500D02*
X152500D01*
G01X148000Y-109000D02*
X151500D01*
G01X147500Y-117000D02*
X151000D01*
G01X147500D02*
Y-120500D01*
G01X149500Y-77000D02*
Y-67220D01*
G01Y-77000D02*
X152850Y-80350D01*
G01X149500Y-77000D02*
X146150Y-73650D01*
G01X152430Y-74070D02*
X149500Y-77000D01*
G01D02*
X146000Y-80500D01*
G01X125000Y-48950D02*
Y-56050D01*
G01D02*
X130000D01*
G01X141550D02*
X142270D01*
X144000Y-57780D01*
X149500D01*
G01X163000Y-68500D02*
Y-72860D01*
G01Y-48000D02*
X169000D01*
G01X163000Y-57500D02*
X169000D01*
G01X163000Y-68500D02*
X168160D01*
G01X199500Y-83000D02*
X203100D01*
G01X186500Y-66350D02*
Y-69710D01*
G01X195000Y-66750D02*
Y-70210D01*
G01X186500Y-66350D02*
X186900Y-66750D01*
X195000D01*
G01X186500Y-66350D02*
X182940D01*
G01X186500D02*
X190060D01*
G01X195000Y-32250D02*
X186900D01*
X186500Y-32650D01*
G01X232000Y-113500D02*
Y-117950D01*
G01Y-113500D02*
X239750D01*
X240000Y-113250D01*
G01X232000Y-79250D02*
Y-74500D01*
G01Y-79250D02*
X236360D01*
G01X232000Y-86750D02*
X226750D01*
G01X232000D02*
Y-91500D01*
G01X239900Y-86500D02*
X232250D01*
X232000Y-86750D01*
G01X212500Y-83000D02*
X208900D01*
G01D02*
Y-80190D01*
G01Y-83000D02*
Y-85810D01*
G01X236500Y-59250D02*
X232140D01*
G01X226500Y-59040D02*
X229310D01*
G01X226500D02*
X223690D01*
G01X226500D02*
Y-56630D01*
G01Y-36500D02*
X231500D01*
X234750Y-33250D01*
X237000D01*
G01X227000Y-10000D02*
X230000D01*
X235250Y-15250D01*
X237000D01*
G01X259200Y-159850D02*
Y-164300D01*
G01Y-159850D02*
X263350D01*
G01X240000Y-113250D02*
X247750D01*
X248000Y-113500D01*
G01X240000Y-105750D02*
Y-101000D01*
G01Y-105750D02*
X234750D01*
G01X248000Y-108500D02*
Y-104500D01*
G01X254500Y-107500D02*
Y-104000D01*
G01X239900Y-81500D02*
Y-78540D01*
G01Y-86500D02*
Y-91000D01*
G01D02*
X248840D01*
G01X246000Y-59500D02*
X242650Y-56150D01*
G01X246000Y-59500D02*
X249350Y-56150D01*
G01X246000Y-59500D02*
X249350Y-62850D01*
G01X236500Y-59250D02*
Y-55490D01*
G01Y-59250D02*
X240860D01*
G01X248500Y-42950D02*
X264450D01*
X265000Y-43500D01*
G01X246500Y-8500D02*
X243150Y-11850D01*
G01X246500Y-8500D02*
X249850Y-11850D01*
G01X246500Y-8500D02*
X249850Y-5150D01*
G01X246500Y-8500D02*
X243150Y-5150D01*
G01X266550Y-179300D02*
X262700D01*
G01X266550D02*
Y-183050D01*
G01X271500Y-151000D02*
X275500D01*
G01X271500D02*
Y-155500D01*
G01X281700Y-172050D02*
Y-165800D01*
G01X294400Y-165250D02*
X282250D01*
X281700Y-165800D01*
G01X283850Y-130000D02*
Y-122100D01*
G01Y-130000D02*
X287210D01*
G01X283850D02*
Y-133560D01*
G01X263000Y-113500D02*
X260000D01*
G01X263000D02*
Y-110500D01*
G01X275750Y-112500D02*
Y-108140D01*
G01Y-112500D02*
X271990D01*
G01X275750Y-116750D02*
Y-112500D01*
G01X283850Y-122100D02*
Y-118650D01*
G01X261750Y-103000D02*
Y-97500D01*
G01X268000Y-113500D02*
Y-115000D01*
X270500Y-117500D01*
G01X269250Y-103000D02*
X274500D01*
G01X269250D02*
Y-97750D01*
G01X283250Y-112500D02*
X288000D01*
G01X283250D02*
Y-107000D01*
G01X279500Y-78750D02*
X285750D01*
X287500Y-80500D01*
G01X279500Y-78750D02*
Y-74000D01*
G01X265050Y-59700D02*
X261200D01*
G01X265050D02*
Y-62460D01*
G01Y-59700D02*
Y-56950D01*
G01X265000Y-43500D02*
Y-52250D01*
X265050Y-52300D01*
G01X272950Y-56000D02*
Y-47500D01*
G01Y-56000D02*
Y-60450D01*
X275750Y-63250D01*
X281000D01*
G01X281500Y-40650D02*
X275650D01*
G01X281500D02*
Y-36000D01*
G01X294500Y-40750D02*
X281600D01*
X281500Y-40650D01*
G01X294400Y-165250D02*
Y-157900D01*
G01X287500Y-80500D02*
X291000D01*
G01X294500Y-40750D02*
Y-33000D01*
X-37000Y-214000D03*
Y-182000D03*
Y-25500D03*
X-9500Y-214500D03*
X-35500Y-193000D03*
X-16000Y-169000D03*
X-15780Y-162780D03*
X-27500Y-168500D03*
X-27720Y-162780D03*
X-27000Y-150970D03*
X-15500Y-148610D03*
Y-136800D03*
X-16000Y-122630D03*
X-27000Y-136800D03*
X-27630Y-122630D03*
X-16000Y-110820D03*
X-27500D03*
X-15780Y-94280D03*
X-16000Y-82500D03*
Y-68300D03*
X-27500Y-91920D03*
X-27530Y-82470D03*
X-27500Y-68300D03*
X-16000Y-54120D03*
X-27500D03*
X-27170Y-44670D03*
X-35500Y-15000D03*
X-27000Y-39950D03*
X-16000D03*
X4500Y-214500D03*
X12000Y-182500D03*
X8200Y-152200D03*
X6000Y-173500D03*
X16550Y-115000D03*
X9050Y-96050D03*
X12800Y-114700D03*
X10000Y-73800D03*
X6500Y-91500D03*
X9000Y-88000D03*
X6150Y-56150D03*
X10500Y-60300D03*
X14500Y-41300D03*
X5170Y-49450D03*
X-5000Y-2500D03*
X14000Y-2000D03*
X20500Y-214500D03*
X36500D03*
X32500Y-156500D03*
X25690Y-147000D03*
X27180Y-114180D03*
X40000Y-112000D03*
X28000Y-101500D03*
X21750Y-95250D03*
X39500Y-107000D03*
X38000Y-104000D03*
X19500Y-76610D03*
X22460Y-73800D03*
X24960Y-57140D03*
X26010Y-65800D03*
X30000Y-2000D03*
X52500Y-214500D03*
X68500D03*
X65500Y-149000D03*
X56300Y-124160D03*
X70900Y-123900D03*
X67500Y-120000D03*
X60350Y-121350D03*
X47650D03*
X61500Y-110000D03*
X65000Y-109500D03*
X64000Y-97500D03*
X56300Y-88990D03*
X69500Y-93500D03*
X60000Y-92000D03*
X58000Y-69500D03*
X61950Y-64060D03*
X49000Y-52020D03*
X55700Y-59700D03*
X57770Y-39770D03*
X46000Y-2000D03*
X62000D03*
X84500Y-214500D03*
X95000Y-161000D03*
X79000D03*
X78000Y-146000D03*
Y-130000D03*
Y-121000D03*
X72500Y-103720D03*
X72000Y-108840D03*
X78000Y-82000D03*
X72500Y-91500D03*
X78000Y-66000D03*
Y-50000D03*
Y-34000D03*
Y-18000D03*
Y-2000D03*
X100500Y-214500D03*
X116500D03*
X112470Y-209500D03*
X118500Y-198400D03*
X116500Y-184500D03*
X113500Y-185500D03*
X119000Y-176930D03*
X113500Y-193000D03*
X119000Y-200950D03*
X116500Y-168500D03*
X111000Y-161000D03*
X113500Y-169000D03*
X124000Y-144000D03*
X108000D03*
Y-128000D03*
X112500Y-95800D03*
X119000Y-98000D03*
X108000Y-82000D03*
Y-66000D03*
Y-50000D03*
Y-34000D03*
Y-18000D03*
X124000Y-2000D03*
X108000D03*
X152000Y-213000D03*
X136000D03*
Y-197000D03*
Y-181000D03*
Y-165000D03*
Y-149000D03*
X135300Y-128500D03*
X139000Y-122700D03*
X130300Y-126300D03*
X147500Y-120500D03*
X152500Y-101500D03*
X151500Y-109000D03*
X151000Y-117000D03*
X143000Y-97500D03*
Y-105500D03*
X142500Y-113000D03*
X126500Y-88500D03*
X141550Y-56050D03*
X130000D03*
X140000Y-2000D03*
X168000Y-213000D03*
X169000Y-48000D03*
Y-57500D03*
X172000Y-2000D03*
X156000D03*
X200000Y-213000D03*
X184000D03*
X200500Y-194000D03*
Y-178000D03*
Y-162000D03*
Y-146000D03*
Y-130000D03*
Y-114000D03*
Y-98000D03*
X199500Y-83000D03*
X200500Y-44500D03*
Y-66000D03*
Y-54500D03*
X201000Y-32000D03*
X200500Y-17000D03*
Y-2000D03*
X188000D03*
X227000Y-213000D03*
X211000Y-209500D03*
Y-193500D03*
Y-177500D03*
Y-161500D03*
Y-145500D03*
Y-129500D03*
Y-113500D03*
Y-97500D03*
X212500Y-83000D03*
X232000Y-91500D03*
X226750Y-86750D03*
X211000Y-44500D03*
Y-65500D03*
Y-54000D03*
Y-33500D03*
Y-17000D03*
X227000Y-500D03*
X211000D03*
X259000Y-213000D03*
X243000D03*
X259200Y-164300D03*
X242500Y-129550D03*
X256500Y-148750D03*
X251110Y-147890D03*
X234750Y-105750D03*
X240000Y-101000D03*
X248000Y-104500D03*
X254500Y-104000D03*
X239900Y-91000D03*
X259000Y-500D03*
X243000D03*
X275000Y-213000D03*
X266550Y-167050D03*
X263350Y-159850D03*
X271500Y-155500D03*
X275500Y-151000D03*
X281700Y-165800D03*
X274000Y-168000D03*
X266500Y-154500D03*
X274000Y-138500D03*
X272980Y-131520D03*
X283250Y-107000D03*
X269250Y-97750D03*
X260950Y-117100D03*
X270500Y-117500D03*
X274500Y-103000D03*
X264890Y-117110D03*
X279500Y-74000D03*
X272950Y-47500D03*
X281500Y-36000D03*
X275650Y-40650D03*
X307000Y-213000D03*
X291000D03*
X294400Y-157900D03*
X288000Y-112500D03*
X291000Y-80500D03*
X294500Y-33000D03*
X307000Y-500D03*
X291000D03*
X323000Y-213000D03*
X332500Y-201000D03*
X332000Y-185000D03*
Y-169000D03*
X332500Y-153000D03*
Y-137000D03*
Y-121000D03*
Y-105000D03*
Y-89000D03*
Y-73000D03*
X332000Y-57000D03*
X332500Y-41000D03*
Y-25000D03*
Y-9000D03*
X325000Y-500D03*
G54D20*
X14500Y-73800D03*
X19500D03*
X51300Y-121350D03*
X56300D03*
X71110Y-77400D03*
X51300Y-91800D03*
X56300D03*
X71110Y-28400D03*
X76110Y-77400D03*
Y-28400D03*
X130300Y-122700D03*
X135300D03*
X143000Y-109000D03*
X148000D03*
X142500Y-117000D03*
X147500D03*
X143000Y-101500D03*
X148000D03*
X136000Y-102000D03*
X131000D03*
X136000Y-109000D03*
X131000D03*
X135500Y-116000D03*
X130500D03*
X203100Y-83000D03*
X208900D03*
X266500Y-151000D03*
X271500D03*
X278000Y-137500D03*
X283000D03*
X263000Y-113500D03*
X268000D03*
G54D11*
X-21770Y-204320D03*
X-28660Y-184040D03*
X-21770Y-5500D03*
G54D12*
X-32790Y-150970D03*
Y-153340D03*
Y-155700D03*
Y-158060D03*
Y-160420D03*
Y-162780D03*
Y-165150D03*
Y-167510D03*
Y-169870D03*
Y-172230D03*
Y-174600D03*
X-10350Y-150970D03*
Y-153340D03*
Y-155700D03*
Y-158060D03*
Y-160420D03*
Y-162780D03*
Y-165150D03*
Y-167510D03*
Y-169870D03*
Y-172230D03*
Y-174600D03*
X-32790Y-122630D03*
Y-124990D03*
Y-127350D03*
Y-129710D03*
Y-132080D03*
Y-134440D03*
Y-136800D03*
Y-139160D03*
Y-141520D03*
Y-143890D03*
Y-146250D03*
Y-148610D03*
X-10350Y-122630D03*
Y-124990D03*
Y-127350D03*
Y-129710D03*
Y-132080D03*
Y-134440D03*
Y-136800D03*
Y-139160D03*
Y-141520D03*
Y-143890D03*
Y-146250D03*
Y-148610D03*
X-32790Y-96640D03*
Y-99000D03*
Y-101370D03*
Y-103730D03*
Y-106090D03*
Y-108450D03*
Y-110820D03*
Y-113180D03*
Y-115540D03*
Y-117900D03*
Y-120260D03*
X-10350Y-96640D03*
Y-99000D03*
Y-101370D03*
Y-103730D03*
Y-106090D03*
Y-108450D03*
Y-110820D03*
Y-113180D03*
Y-115540D03*
Y-117900D03*
Y-120260D03*
X-32790Y-70660D03*
Y-73020D03*
Y-75380D03*
Y-77740D03*
Y-80110D03*
Y-82470D03*
Y-84830D03*
Y-87190D03*
Y-89560D03*
Y-91920D03*
Y-94280D03*
X-10350Y-70660D03*
Y-73020D03*
Y-75380D03*
Y-77740D03*
Y-80110D03*
Y-82470D03*
Y-84830D03*
Y-87190D03*
Y-89560D03*
Y-91920D03*
Y-94280D03*
X-32790Y-42310D03*
Y-44670D03*
Y-47040D03*
Y-49400D03*
Y-51760D03*
Y-54120D03*
Y-56480D03*
Y-58850D03*
Y-61210D03*
Y-63570D03*
Y-65930D03*
Y-68300D03*
X-10350Y-42310D03*
Y-44670D03*
Y-47040D03*
Y-49400D03*
Y-51760D03*
Y-54120D03*
Y-56480D03*
Y-58850D03*
Y-61210D03*
Y-63570D03*
Y-65930D03*
Y-68300D03*
X-32790Y-35220D03*
Y-37590D03*
Y-39950D03*
X-10350Y-35220D03*
Y-37590D03*
Y-39950D03*
G54D21*
X10500Y-56150D03*
Y-49450D03*
X28200Y-160450D03*
Y-153750D03*
X116000Y-122350D03*
X123500Y-99850D03*
X116000Y-115650D03*
X123500Y-93150D03*
X131500Y-94850D03*
Y-88150D03*
X179500Y-13150D03*
Y-19850D03*
X186500Y-66350D03*
Y-59650D03*
Y-39350D03*
Y-32650D03*
X259200Y-153150D03*
Y-159850D03*
X281700Y-178750D03*
Y-172050D03*
X281500Y-47350D03*
Y-40650D03*
G54D30*
X37000Y-153000D03*
Y-158000D03*
Y-143000D03*
Y-148000D03*
X58000Y-153000D03*
Y-158000D03*
Y-143000D03*
Y-148000D03*
G54D22*
X18650Y-41300D03*
X33650D03*
X40350D03*
X25350D03*
X115650Y-85500D03*
X122350D03*
X283850Y-130000D03*
X277150D03*
X283850Y-122100D03*
X277150D03*
G54D40*
X73000Y-146150D03*
Y-139850D03*
X232000Y-124250D03*
Y-117950D03*
G54D13*
G01X45000Y-206570D02*
X48530Y-210100D01*
G01X41500Y-210000D02*
X44930Y-206570D01*
X45000D01*
G01X67530Y-200950D02*
X74250D01*
G01D02*
Y-176930D01*
X67530D01*
G01X47500Y-150500D02*
Y-137500D01*
G01X116000Y-122350D02*
X109150D01*
G01X179500Y-19850D02*
X183140D01*
X184790Y-21500D01*
X188250D01*
G01X179500Y-19850D02*
Y-24500D01*
G01X187250Y-49500D02*
X182500D01*
G01X186500Y-59650D02*
X181500D01*
G01X188250Y-21500D02*
Y-26250D01*
G01X186500Y-39350D02*
X182000D01*
G01X226750Y-50000D02*
X231500D01*
G01X224750Y-22000D02*
X228500D01*
G01X236500Y-66750D02*
X242500D01*
G01X237000Y-15250D02*
X237750Y-16000D01*
X242500D01*
X-26100Y-174600D03*
X12000Y-160500D03*
X0Y0D03*
X29500Y-137500D03*
X47500D03*
X67010Y-115000D03*
X51300Y-88300D03*
X179500Y-24500D03*
X169500Y-37000D03*
X181500Y-59650D03*
X182500Y-49500D03*
X182000Y-39350D03*
X188250Y-26250D03*
X181500Y-32650D03*
X232000Y-113500D03*
X231500Y-50000D03*
X228500Y-22000D03*
X242500Y-66750D03*
Y-16000D03*
X248500Y-25000D03*
X261750Y-97500D03*
X334500Y-214500D03*
X335000Y0D03*
G54D31*
X18700Y-153040D03*
Y-160960D03*
X226500Y-59040D03*
Y-66960D03*
Y-40460D03*
Y-32540D03*
X227000Y-6040D03*
Y-13960D03*
G54D32*
X19500Y-136780D03*
G54D23*
X14750Y-65800D03*
X22250D03*
X261750Y-103000D03*
X269250D03*
X275750Y-112500D03*
X283250D03*
G54D41*
X79000Y-116520D03*
Y-113960D03*
Y-111400D03*
Y-108840D03*
Y-106280D03*
Y-103720D03*
Y-101160D03*
Y-98600D03*
Y-96040D03*
Y-93480D03*
X107000Y-96040D03*
Y-98600D03*
Y-101160D03*
Y-103720D03*
Y-106280D03*
Y-108840D03*
Y-111400D03*
Y-113960D03*
Y-116520D03*
Y-93480D03*
G54D50*
X258980Y-144330D03*
X257020D03*
X255050D03*
X253080D03*
X251110D03*
X249140D03*
Y-120670D03*
X251110D03*
X253080D03*
X255050D03*
X257020D03*
X258980D03*
X266860Y-144330D03*
X264890D03*
X262920D03*
X260950D03*
Y-120670D03*
X262920D03*
X264890D03*
X266860D03*
G54D14*
X-28660Y-25780D03*
G54D60*
G01X82500Y145000D02*
X81500Y144670D01*
X80750Y143830D01*
X80250Y142830D01*
X79870Y141500D01*
X79750Y140000D01*
X79870Y138500D01*
X80250Y137170D01*
X80750Y136170D01*
X81500Y135330D01*
X82500Y135000D01*
X83500Y135330D01*
X84250Y136170D01*
X84750Y137170D01*
X85130Y138500D01*
X85250Y140000D01*
X85130Y141500D01*
X84750Y142830D01*
X84250Y143830D01*
X83500Y144670D01*
X82500Y145000D01*
G01X92500Y135000D02*
X93370Y135170D01*
X94370Y135670D01*
X95000Y136500D01*
X95250Y137670D01*
X95000Y138830D01*
X94250Y139830D01*
X93120Y140330D01*
X91880D01*
X91120Y140670D01*
X90500Y141500D01*
X90250Y142670D01*
X90630Y143830D01*
X91500Y144670D01*
X92500Y145000D01*
X93500Y144670D01*
X94370Y143830D01*
X94750Y142670D01*
X94500Y141500D01*
X93880Y140670D01*
X93120Y140330D01*
X91880D01*
X90750Y139830D01*
X90000Y138830D01*
X89750Y137670D01*
X90000Y136500D01*
X90630Y135670D01*
X91630Y135170D01*
X92500Y135000D01*
G01X100880Y138330D02*
X104120D01*
G01X170880D02*
X174120D01*
G01X182500Y145000D02*
X181500Y144670D01*
X180750Y143830D01*
X180250Y142830D01*
X179870Y141500D01*
X179750Y140000D01*
X179870Y138500D01*
X180250Y137170D01*
X180750Y136170D01*
X181500Y135330D01*
X182500Y135000D01*
X183500Y135330D01*
X184250Y136170D01*
X184750Y137170D01*
X185130Y138500D01*
X185250Y140000D01*
X185130Y141500D01*
X184750Y142830D01*
X184250Y143830D01*
X183500Y144670D01*
X182500Y145000D01*
G01X192500Y135000D02*
Y145000D01*
X191000Y143000D01*
G01Y135000D02*
X194000D01*
G01X90000Y165000D02*
Y155000D01*
X95000D01*
G01X102500D02*
Y165000D01*
X101000Y163000D01*
G01Y155000D02*
X104000D01*
G01X120000D02*
Y165000D01*
X123000D01*
X124000Y164500D01*
X124750Y163330D01*
X125000Y162000D01*
X124750Y160670D01*
X124120Y159670D01*
X123000Y159170D01*
X120000D01*
G01X130000Y155000D02*
Y165000D01*
X133120D01*
X134120Y164500D01*
X134750Y163830D01*
X135000Y162500D01*
X134750Y161170D01*
X134000Y160330D01*
X133120Y159830D01*
X130000D01*
G01X133120D02*
X135000Y155000D01*
G01X141000Y165000D02*
X144000D01*
G01X142500D02*
Y155000D01*
G01X141000D02*
X144000D01*
G01X149250D02*
Y165000D01*
X152500Y156670D01*
X155750Y165000D01*
Y155000D01*
G01X159370D02*
X162500Y165000D01*
X165630Y155000D01*
G01X164500Y158500D02*
X160500D01*
G01X170000Y155000D02*
Y165000D01*
X173120D01*
X174120Y164500D01*
X174750Y163830D01*
X175000Y162500D01*
X174750Y161170D01*
X174000Y160330D01*
X173120Y159830D01*
X170000D01*
G01X173120D02*
X175000Y155000D01*
G01X182500D02*
Y159500D01*
X180000Y165000D01*
G01X185000D02*
X182500Y159500D01*
G01X115000Y115000D02*
Y125000D01*
X118120D01*
X119120Y124500D01*
X119750Y123830D01*
X120000Y122500D01*
X119750Y121170D01*
X119000Y120330D01*
X118120Y119830D01*
X115000D01*
G01X118120D02*
X120000Y115000D01*
G01X130000D02*
X125000D01*
Y125000D01*
X130000D01*
G01X128000Y120170D02*
X125000D01*
G01X134370Y125000D02*
X137500Y115000D01*
X140630Y125000D01*
G01X158500Y120330D02*
X159000Y120830D01*
X159370Y121670D01*
X159630Y122830D01*
X159370Y123830D01*
X158880Y124500D01*
X158000Y125000D01*
X154630D01*
Y115000D01*
X158750D01*
X159630Y115670D01*
X160130Y116670D01*
X160370Y117830D01*
X160130Y119000D01*
X159370Y120000D01*
X158500Y120330D01*
X154630D01*
G01X112500Y145000D02*
X111500Y144670D01*
X110750Y143830D01*
X110250Y142830D01*
X109870Y141500D01*
X109750Y140000D01*
X109870Y138500D01*
X110250Y137170D01*
X110750Y136170D01*
X111500Y135330D01*
X112500Y135000D01*
X113500Y135330D01*
X114250Y136170D01*
X114750Y137170D01*
X115130Y138500D01*
X115250Y140000D01*
X115130Y141500D01*
X114750Y142830D01*
X114250Y143830D01*
X113500Y144670D01*
X112500Y145000D01*
G01X119750Y137000D02*
X120500Y135830D01*
X121500Y135170D01*
X122630Y135000D01*
X123630Y135170D01*
X124630Y136000D01*
X125250Y137000D01*
X125370Y138000D01*
X125130Y139170D01*
X124250Y140000D01*
X123370Y140330D01*
X122250D01*
G01X123370D02*
X124120Y140830D01*
X124750Y141670D01*
X125000Y142670D01*
X124750Y143670D01*
X124120Y144500D01*
X123000Y145000D01*
X121880Y144830D01*
X120750Y144170D01*
G01X132250Y135000D02*
X132500Y137170D01*
X132880Y139000D01*
X133370Y140670D01*
X134000Y142500D01*
X135000Y145000D01*
X130000D01*
G01X142500Y135000D02*
Y145000D01*
X141000Y143000D01*
G01Y135000D02*
X144000D01*
G01X149750Y136500D02*
X150500Y135670D01*
X151370Y135170D01*
X152500Y135000D01*
X153630Y135330D01*
X154500Y136000D01*
X155130Y137170D01*
X155250Y138500D01*
X155000Y139830D01*
X154370Y140670D01*
X153500Y141330D01*
X152630Y141500D01*
X151750Y141330D01*
X150630Y140670D01*
X151000Y145000D01*
X154370D01*
G01X162500Y135000D02*
X163370Y135170D01*
X164370Y135670D01*
X165000Y136500D01*
X165250Y137670D01*
X165000Y138830D01*
X164250Y139830D01*
X163120Y140330D01*
X161880D01*
X161120Y140670D01*
X160500Y141500D01*
X160250Y142670D01*
X160630Y143830D01*
X161500Y144670D01*
X162500Y145000D01*
X163500Y144670D01*
X164370Y143830D01*
X164750Y142670D01*
X164500Y141500D01*
X163880Y140670D01*
X163120Y140330D01*
X161880D01*
X160750Y139830D01*
X160000Y138830D01*
X159750Y137670D01*
X160000Y136500D01*
X160630Y135670D01*
X161630Y135170D01*
X162500Y135000D01*
G54D24*
X15000Y-30500D03*
X65000Y-7400D03*
X294100Y-135000D03*
G54D15*
X12000Y-173500D03*
X28000D03*
G54D42*
X125000Y-68950D03*
Y-48950D03*
Y-56050D03*
Y-36050D03*
X136000Y-68950D03*
Y-48950D03*
Y-56050D03*
Y-36050D03*
X248500Y-42950D03*
Y-30050D03*
G54D33*
X33000Y-114180D03*
Y-111620D03*
Y-109060D03*
Y-106500D03*
Y-103940D03*
Y-101380D03*
Y-98820D03*
X56000D03*
Y-101380D03*
Y-103940D03*
Y-106500D03*
Y-109060D03*
Y-111620D03*
Y-114180D03*
G54D51*
X246170Y-141360D03*
Y-139390D03*
Y-137420D03*
Y-135450D03*
Y-133480D03*
Y-131520D03*
Y-129550D03*
Y-127580D03*
Y-125610D03*
Y-123640D03*
X269830D03*
Y-125610D03*
Y-127580D03*
Y-129550D03*
Y-131520D03*
Y-133480D03*
Y-135450D03*
Y-137420D03*
Y-139390D03*
Y-141360D03*
G54D61*
G01X-47500Y-235000D02*
Y-200000D01*
G01X-57500Y-225000D02*
X-22500D01*
G01X-47500Y20000D02*
Y-15000D01*
G01X-57500Y10000D02*
X-22500D01*
G01X72690Y-48850D02*
Y-56750D01*
G01X355000Y-225000D02*
X320000D01*
G01X355000Y10000D02*
X320000D01*
G01X345000Y-235000D02*
Y-200000D01*
G01Y20000D02*
Y-15000D01*
G54D25*
X15000Y-17400D03*
Y-7400D03*
X25000Y-30500D03*
Y-17400D03*
X35000D03*
X45000D03*
X25000Y-7400D03*
X35000D03*
X45000D03*
X53500Y-177000D03*
X73700Y-154500D03*
X55000Y-17400D03*
X65000D03*
X55000Y-7400D03*
X149500Y-77000D03*
X170500Y-12500D03*
X225000Y-157000D03*
Y-168500D03*
Y-133500D03*
Y-144500D03*
X246000Y-59500D03*
X246500Y-8500D03*
X287900Y-93600D03*
X265000Y-43500D03*
X268500Y-27500D03*
X294100Y-125000D03*
G54D52*
X248840Y-91000D03*
Y-86000D03*
Y-81000D03*
Y-76000D03*
X268840Y-91000D03*
Y-86000D03*
Y-81000D03*
Y-76000D03*
G54D34*
X43500Y-49460D03*
Y-52020D03*
Y-54580D03*
Y-57140D03*
X20500D03*
Y-54580D03*
Y-52020D03*
Y-49460D03*
G54D16*
X8200Y-160500D03*
Y-155500D03*
X28500Y-141800D03*
Y-146800D03*
X24000Y-103000D03*
Y-108000D03*
X65700Y-158200D03*
Y-153200D03*
X66500Y-145000D03*
Y-140000D03*
X70900Y-115000D03*
Y-120000D03*
X116100Y-98000D03*
X123500Y-121000D03*
Y-116000D03*
X116100Y-93000D03*
X238500Y-129000D03*
Y-124000D03*
X248000Y-113500D03*
Y-108500D03*
X254500Y-112500D03*
Y-107500D03*
X239900Y-81500D03*
Y-86500D03*
X287500Y-85500D03*
Y-80500D03*
G54D43*
X149500Y-67220D03*
Y-57780D03*
Y-47220D03*
Y-37780D03*
G54D62*
G01X206500Y-12000D02*
Y-21000D01*
X206000Y-21500D01*
G01Y-49500D02*
Y-38000D01*
G01Y-49500D02*
Y-61000D01*
G54D17*
X18700Y-157000D03*
X226500Y-63000D03*
Y-36500D03*
X227000Y-10000D03*
G54D26*
X45000Y-206570D03*
X326580Y-161000D03*
Y-42500D03*
G54D44*
X195000Y-59250D03*
Y-66750D03*
Y-39750D03*
Y-32250D03*
X217000Y-66750D03*
Y-59250D03*
X217500Y-14250D03*
X217000Y-32250D03*
Y-39750D03*
X217500Y-6750D03*
G54D53*
X274450Y-175600D03*
X266550Y-179300D03*
Y-171900D03*
X272950Y-56000D03*
X265050Y-59700D03*
Y-52300D03*
G54D35*
X67530Y-200950D03*
Y-176930D03*
X112470Y-200950D03*
Y-176930D03*
G54D63*
G01X33000Y-114180D02*
X27180D01*
G01X135300Y-122700D02*
Y-128500D01*
G01Y-122700D02*
X139000D01*
G54D54*
X294400Y-183750D03*
Y-165250D03*
X294500Y-59250D03*
Y-40750D03*
G54D27*
X25000Y-206570D03*
X326580Y-181000D03*
Y-62500D03*
G54D18*
X19500Y-146820D03*
G54D36*
X63200Y-68730D03*
Y-76230D03*
X63300Y-39770D03*
Y-32270D03*
X281000Y-55750D03*
Y-63250D03*
G54D45*
X194750Y-49500D03*
X187250D03*
X195750Y-21500D03*
X188250D03*
X195250Y-12500D03*
X187750D03*
X226750Y-50000D03*
X219250D03*
X224750Y-22000D03*
X217250D03*
G54D64*
G01X248500Y-30050D02*
X244200D01*
X241000Y-33250D01*
X237000D01*
G01X248500Y-30050D02*
Y-25000D01*
G54D55*
G01X20500Y-52020D02*
X24780D01*
X25350Y-51450D01*
Y-41300D01*
G01X33650D02*
X25350D01*
G01X79000Y-106280D02*
X69780D01*
X64880Y-101380D01*
X56000D01*
G01Y-103940D02*
X63440D01*
X70900Y-111400D01*
X79000D01*
G01X72000Y-108840D02*
X79000D01*
G01X246170Y-137420D02*
X240660D01*
X232290Y-145790D01*
Y-149710D01*
X225000Y-157000D01*
G01Y-168500D02*
X237000Y-156500D01*
Y-146000D01*
X243610Y-139390D01*
X246170D01*
G01Y-133480D02*
X225020D01*
X225000Y-133500D01*
G01Y-144500D02*
X234000Y-135500D01*
Y-135450D01*
X246170D01*
G01X255050Y-144330D02*
Y-146590D01*
X253950Y-147690D01*
Y-150050D01*
G01X255050Y-144330D02*
Y-135450D01*
X258000Y-132500D01*
G01X246170Y-129550D02*
X242500D01*
G01D02*
X244470Y-131520D01*
X246170D01*
G01X251110Y-144330D02*
Y-147890D01*
G01X253080Y-144330D02*
Y-145920D01*
X251110Y-147890D01*
G01X257020Y-144330D02*
Y-148230D01*
X256500Y-148750D01*
G01X246170Y-127580D02*
X244470D01*
X242500Y-129550D01*
G01X246170Y-125610D02*
X242610D01*
X241000Y-124000D01*
X238500D01*
G01X258980Y-144330D02*
Y-146300D01*
X259200Y-146520D01*
Y-153150D01*
G01X251110Y-120670D02*
Y-116610D01*
X248000Y-113500D01*
G01X257020Y-120670D02*
Y-116480D01*
G01X255050Y-120670D02*
Y-113050D01*
X254500Y-112500D01*
G01X262920Y-144330D02*
Y-147420D01*
X266500Y-151000D01*
G01X274000Y-138500D02*
X272920Y-137420D01*
X269830D01*
G01Y-127580D02*
X274730D01*
X277150Y-130000D01*
G01X269830Y-125610D02*
X273640D01*
X277150Y-122100D01*
G01X269830Y-135450D02*
X275950D01*
X278000Y-137500D01*
G01X269830Y-131520D02*
X272980D01*
G01X260950Y-120670D02*
Y-117100D01*
G01X264890Y-120670D02*
Y-117110D01*
G01X262920Y-120670D02*
Y-119080D01*
X264890Y-117110D01*
G54D28*
X40000Y-179400D03*
Y-167600D03*
G54D37*
X72690Y-40950D03*
Y-48850D03*
Y-56750D03*
Y-64650D03*
X115190D03*
Y-56750D03*
Y-48850D03*
Y-40950D03*
G54D46*
X206000Y-61000D03*
Y-38000D03*
X206500Y-12000D03*
G54D19*
X16550Y-100500D03*
X9050D03*
X16550Y-110500D03*
X12800D03*
X9050D03*
G54D65*
G01X25000Y-206570D02*
Y-201000D01*
G01X194750Y-49500D02*
X206000D01*
G01D02*
X218750D01*
X219250Y-50000D01*
G01X195750Y-21500D02*
X206000D01*
G01D02*
X216750D01*
X217250Y-22000D01*
G54D56*
G01X18700Y-157000D02*
X14000D01*
X12500Y-155500D01*
X8200D01*
G01Y-160500D02*
X12000D01*
G01X18700Y-153040D02*
X15500D01*
G01X19500Y-136780D02*
X15540D01*
G01X19500Y-146820D02*
X15540D01*
G01X10500Y-56150D02*
Y-60300D01*
G01Y-56150D02*
X6150D01*
G01X28200Y-160450D02*
X31760D01*
G01X28200D02*
Y-163810D01*
G01Y-160450D02*
X24640D01*
G01X28200Y-153750D02*
X30250D01*
X31000Y-153000D01*
X37000D01*
G01X32500Y-156500D02*
X34000Y-158000D01*
X37000D01*
G01X18700Y-153040D02*
X21810D01*
G01X18700Y-150580D02*
X19500Y-149780D01*
G01X18700Y-153040D02*
Y-150580D01*
G01X37000Y-143000D02*
Y-140540D01*
G01Y-143000D02*
X32790D01*
G01X19500Y-136780D02*
X23460D01*
G01X19500D02*
Y-131220D01*
G01X28500Y-138500D02*
X29500Y-137500D01*
G01X28500Y-141800D02*
Y-138500D01*
G01Y-141800D02*
X31310D01*
G01X28500D02*
X25690D01*
G01X19500Y-149780D02*
Y-146820D01*
G01X22250Y-61440D02*
Y-65800D01*
G01D02*
X26010D01*
G01X49000Y-48340D02*
Y-43500D01*
X46800Y-41300D01*
X40350D01*
G01X65700Y-158200D02*
X62890D01*
G01X58000Y-158000D02*
X65500D01*
X65700Y-158200D01*
G01D02*
X70000D01*
G01D02*
X73700Y-154500D01*
G01X73000Y-139850D02*
X66650D01*
X66500Y-140000D01*
G01X51300Y-121350D02*
X47650D01*
G01X56300Y-91800D02*
Y-88990D01*
G01Y-91800D02*
X59800D01*
X60000Y-92000D01*
G01X51300Y-91800D02*
Y-88300D01*
G01X61950Y-48700D02*
Y-44340D01*
G01X73700Y-154500D02*
X73000Y-153800D01*
Y-146150D01*
G01X119000Y-98000D02*
X116100D01*
G01X125000Y-68950D02*
X124950Y-69000D01*
X121000D01*
X116650Y-64650D01*
X115190D01*
G01Y-40950D02*
X120100D01*
X125000Y-36050D01*
G01X149500Y-67220D02*
X161720D01*
X163000Y-68500D01*
G01X125000Y-68950D02*
X136000D01*
G01Y-48950D02*
X147770D01*
X149500Y-47220D01*
G01X136000Y-56050D02*
Y-48950D01*
G01X125000Y-36050D02*
X136000D01*
G01X163000Y-68500D02*
X157840D01*
G01X170500Y-12500D02*
X173850Y-15850D01*
G01X170500Y-12500D02*
X167150Y-15850D01*
G01X170500Y-12500D02*
X173850Y-9150D01*
G01X170500Y-12500D02*
X167150Y-9150D01*
G01X179500Y-13150D02*
X175940D01*
G01X203100Y-85810D02*
Y-83000D01*
G01D02*
Y-80190D01*
G01X202040Y-61000D02*
X200290Y-59250D01*
X195000D01*
G01X202040Y-38000D02*
X200290Y-39750D01*
X195000D01*
G01X179500Y-13150D02*
X183060D01*
G01X179500D02*
Y-9790D01*
G01X187750Y-12500D02*
X184290D01*
G01X187750D02*
Y-8790D01*
G01X202540Y-12000D02*
X200000D01*
X199500Y-12500D01*
X195250D01*
G01X226500Y-42870D02*
Y-40460D01*
G01Y-63000D02*
X231500D01*
X235250Y-66750D01*
X236500D01*
G01X209960Y-61000D02*
X215250D01*
X217000Y-59250D01*
G01X226500Y-66960D02*
X217210D01*
X217000Y-66750D01*
G01X223690Y-40460D02*
X226500D01*
G01D02*
X229310D01*
G01X209960Y-38000D02*
X215250D01*
X217000Y-39750D01*
G01X226500Y-32540D02*
X217290D01*
X217000Y-32250D01*
G01X210460Y-12000D02*
Y-9540D01*
X213250Y-6750D01*
X217500D01*
G01X227000Y-13960D02*
X217790D01*
X217500Y-14250D01*
G01X261750Y-103000D02*
Y-106250D01*
X255500Y-112500D01*
X254500D01*
G01X239900Y-81500D02*
X237090D01*
G01X248840Y-81000D02*
X240400D01*
X239900Y-81500D01*
G01X237000Y-44510D02*
Y-40750D01*
G01X244890Y-42950D02*
X248500D01*
G01X237000Y-40750D02*
X241360D01*
G01X232640D02*
X237000D01*
G01Y-7750D02*
X241360D01*
G01X237000D02*
Y-3990D01*
G01X274450Y-175600D02*
X277600Y-178750D01*
X281700D01*
G01X294400Y-183750D02*
X286700D01*
X281700Y-178750D01*
G01X279500Y-86250D02*
X286750D01*
X287500Y-85500D01*
G01X268840Y-86000D02*
X279250D01*
X279500Y-86250D01*
G01X281000Y-55750D02*
X286750D01*
X290250Y-59250D01*
X294500D01*
G01X281000Y-55750D02*
Y-52500D01*
X281500Y-52000D01*
Y-47350D01*
G01X326580Y-181000D02*
X309400D01*
X306650Y-183750D01*
X294400D01*
G01X287500Y-85500D02*
Y-93200D01*
X287900Y-93600D01*
G01X326580Y-62500D02*
X311000D01*
X307750Y-59250D01*
X294500D01*
G01X326580Y-161000D02*
X330110Y-157470D01*
G01X326580Y-161000D02*
X330110Y-164530D01*
G54D38*
X61950Y-48700D03*
Y-59700D03*
X163000Y-68500D03*
Y-57500D03*
Y-48000D03*
Y-37000D03*
G54D47*
X202040Y-61000D03*
Y-38000D03*
X202540Y-12000D03*
X209960Y-61000D03*
Y-38000D03*
X210460Y-12000D03*
G54D29*
X47500Y-150500D03*
G54D57*
G01X15000Y-17400D02*
Y-30500D01*
G01Y-7400D02*
Y-17400D01*
G01X163000Y-37000D02*
X157780D01*
X157000Y-37780D01*
X149500D01*
G01X163000Y-37000D02*
X169500D01*
G01X186500Y-32650D02*
X181500D01*
G54D48*
X232000Y-79250D03*
Y-86750D03*
X240000Y-113250D03*
Y-105750D03*
X236500Y-66750D03*
Y-59250D03*
X237000Y-40750D03*
Y-33250D03*
Y-15250D03*
Y-7750D03*
X279500Y-86250D03*
Y-78750D03*
G54D39*
X90000Y-200950D03*
Y-183230D03*
G54D58*
G01X-32790Y-167510D02*
X-37890D01*
G01X-32790Y-150970D02*
X-37970D01*
G01X-37780Y-162780D02*
X-32790D01*
G01X-37870Y-169870D02*
X-32790D01*
G01Y-136800D02*
X-37800D01*
G01X-32790Y-110820D02*
X-37820D01*
G01X-32790Y-82470D02*
X-37970D01*
G01X-32790Y-91920D02*
X-37920D01*
G01X-38000Y-54000D02*
X-37880Y-54120D01*
G01D02*
X-32790D01*
G01X-15780Y-162780D02*
X-10350D01*
G01X-32790D02*
X-27720D01*
G01X-27000Y-150970D02*
X-32790D01*
G01X-16000Y-169000D02*
X-15130Y-169870D01*
X-10350D01*
G01Y-167510D02*
X-14510D01*
X-16000Y-169000D01*
G01X-32790Y-167510D02*
X-28490D01*
X-27500Y-168500D01*
G01X-32790Y-169870D02*
X-28870D01*
X-27500Y-168500D01*
G01X-32790Y-174600D02*
X-26100D01*
G01X-27000Y-136800D02*
X-32790D01*
G01X-10350D02*
X-15500D01*
G01X-10350Y-148610D02*
X-15500D01*
G01X-32790Y-122630D02*
X-37370D01*
G01X-27630D02*
X-32790D01*
G01X-27500Y-110820D02*
X-32790D01*
G01X-10350D02*
X-16000D01*
G01X-10350Y-122630D02*
X-16000D01*
G01X-27530Y-82470D02*
X-32790D01*
G01X-10350Y-94280D02*
X-15780D01*
G01X-27500Y-91920D02*
X-32790D01*
G01X-16000Y-82500D02*
X-15970Y-82470D01*
X-10350D01*
G01X-32790Y-68300D02*
X-37300D01*
G01X-27500D02*
X-32790D01*
G01X-27500Y-54120D02*
X-32790D01*
G01X-10350D02*
X-16000D01*
G01X-10350Y-68300D02*
X-16000D01*
G01X-27170Y-44670D02*
X-32790D01*
G01Y-39950D02*
X-37450D01*
G01X-32790D02*
X-27000D01*
G01X-10350D02*
X-16000D01*
G01X8200Y-160500D02*
X3000D01*
X-1650Y-165150D01*
X-10350D01*
G01X9050Y-100500D02*
Y-96050D01*
G01Y-100500D02*
Y-102550D01*
X11000Y-104500D01*
X20170D01*
X21670Y-103000D01*
X24000D01*
G01Y-108000D02*
X22000D01*
X20500Y-106500D01*
X10500D01*
X9050Y-107950D01*
Y-110500D01*
G01X-10350Y-91920D02*
X-3080D01*
X4000Y-99000D01*
Y-107500D01*
X7000Y-110500D01*
X9050D01*
G01X12800D02*
Y-114700D01*
G01X43500Y-54580D02*
X37220D01*
X29000Y-62800D01*
Y-72940D01*
X21440Y-80500D01*
X1460D01*
X-1300Y-77740D01*
X-10350D01*
G01Y-80110D02*
X-2300D01*
X90Y-82500D01*
X22800D01*
X31500Y-73800D01*
Y-63300D01*
X37660Y-57140D01*
X43500D01*
G01X21750Y-95250D02*
Y-91750D01*
X14830Y-84830D01*
X-10350D01*
G01Y-89560D02*
X4560D01*
X6500Y-91500D01*
G01X9000Y-88000D02*
X8190Y-87190D01*
X-10350D01*
G01X16550Y-100500D02*
Y-95550D01*
X9000Y-88000D01*
G01X20500Y-49460D02*
X10510D01*
X10500Y-49450D01*
G01X5170D02*
X10500D01*
G01X14750Y-65800D02*
Y-56550D01*
X16720Y-54580D01*
X20500D01*
G01X33000Y-98820D02*
X26000D01*
X24000Y-100820D01*
Y-103000D01*
G01X33000Y-109060D02*
X37060D01*
X40000Y-112000D01*
G01X24000Y-108000D02*
X25060Y-109060D01*
X33000D01*
G01X28000Y-101500D02*
X29000D01*
X29120Y-101380D01*
X33000D01*
G01X39500Y-107000D02*
X37500D01*
X37000Y-106500D01*
X33000D01*
G01X38000Y-104000D02*
X37940Y-103940D01*
X33000D01*
G01X43500Y-49460D02*
X47880D01*
X49000Y-48340D01*
G01X53790Y-153000D02*
X58000D01*
G01D02*
X62210D01*
G01X51300Y-121350D02*
Y-114980D01*
X52100Y-114180D01*
X56000D01*
G01X51300Y-91800D02*
Y-98120D01*
G01X68500Y-97000D02*
X70100Y-98600D01*
G01X51300Y-98120D02*
X52000Y-98820D01*
X56000D01*
G01X70100Y-98600D02*
X79000D01*
G01X56000Y-98820D02*
Y-96760D01*
G01Y-98820D02*
X60710D01*
G01X61500Y-110000D02*
X60560Y-109060D01*
X56000D01*
G01X65000Y-109500D02*
Y-109000D01*
X62500Y-106500D01*
X56000D01*
G01X79000Y-101160D02*
X73690D01*
X73600Y-101070D01*
X71400D01*
X71310Y-101160D01*
X67660D01*
X64000Y-97500D01*
G01X79000Y-96040D02*
X72040D01*
X69500Y-93500D01*
G01X43500Y-52020D02*
X49000D01*
G01X79000Y-116520D02*
Y-119000D01*
G01X70900Y-120000D02*
X71230D01*
X74710Y-116520D01*
X79000D01*
G01X70900Y-115000D02*
X72360D01*
X73400Y-113960D01*
X79000D01*
G01Y-103720D02*
X72500D01*
G01X79000Y-93480D02*
X74480D01*
X72500Y-91500D01*
G01X107000Y-116520D02*
Y-119000D01*
G01X116000Y-122350D02*
X110170Y-116520D01*
X107000D01*
G01Y-98600D02*
X114000D01*
X115600Y-98000D01*
X116100D01*
G01X130300Y-122700D02*
X128500Y-121000D01*
X123500D01*
G01X107000Y-101160D02*
X122190D01*
X123500Y-99850D01*
G01D02*
X126500D01*
X131500Y-94850D01*
G01X107000Y-113960D02*
X114310D01*
X116000Y-115650D01*
G01X123500Y-116000D02*
Y-115000D01*
X119900Y-111400D01*
X107000D01*
G01X131000Y-102000D02*
X129280Y-103720D01*
X107000D01*
G01X131000Y-109000D02*
X130000D01*
X127280Y-106280D01*
X107000D01*
G01X130500Y-116000D02*
X123340Y-108840D01*
X107000D01*
G01Y-96040D02*
X111960D01*
X112000Y-96000D01*
X112300D01*
X112500Y-95800D01*
G01X116100Y-93000D02*
X115300D01*
X112500Y-95800D01*
G01X115650Y-85500D02*
X112000Y-89150D01*
Y-92500D01*
X111020Y-93480D01*
X107000D01*
G01X122350Y-85500D02*
X128850D01*
X131500Y-88150D01*
G01X130300Y-122700D02*
Y-126300D01*
G01X143000Y-101500D02*
Y-97500D01*
G01X136000Y-102000D02*
X142500D01*
X143000Y-101500D01*
G01Y-109000D02*
Y-105500D01*
G01X136000Y-109000D02*
X143000D01*
G01X142500Y-117000D02*
Y-113000D01*
G01Y-117000D02*
X140500D01*
X139500Y-116000D01*
X135500D01*
G01X152850Y-73650D02*
X152430Y-74070D01*
G01X238500Y-129000D02*
X236750D01*
X232000Y-124250D01*
G01X227000Y-6040D02*
Y-3630D01*
G01X224190Y-6040D02*
X227000D01*
G01D02*
X229810D01*
G01X253950Y-150050D02*
X252250Y-151750D01*
Y-165250D01*
X258900Y-171900D01*
X266550D01*
G01D02*
Y-167050D01*
G01X274000Y-168000D02*
Y-175150D01*
X274450Y-175600D01*
G01X266500Y-151000D02*
Y-154500D01*
G01X294100Y-135000D02*
X291500Y-137500D01*
X283000D01*
G01X326580Y-42500D02*
X330110Y-38970D01*
G01X326580Y-42500D02*
X330110Y-46030D01*
G54D49*
X258000Y-132500D03*
G54D59*
G01X20500Y-57140D02*
Y-59690D01*
X22250Y-61440D01*
G01X20500Y-57140D02*
X24960D01*
G01X43500Y-49460D02*
X34340D01*
X29360Y-54440D01*
X23840D01*
X23700Y-54580D01*
X20500D01*
M02*
