G04 ================== begin FILE IDENTIFICATION RECORD ==================*
G04 Layout Name:  C:/tmp/20_037158b_bck/worklib/02_037158b_top/physical/08_037158b.brd*
G04 Film Name:    l3_pwr*
G04 File Format:  Gerber RS274X*
G04 File Origin:  Cadence Allegro 16.5-S031*
G04 Origin Date:  Thu Dec 19 14:20:58 2013*
G04 *
G04 Layer:  VIA CLASS/L3_PWR*
G04 Layer:  PIN/L3_PWR*
G04 Layer:  ETCH/L3_PWR*
G04 Layer:  BOARD GEOMETRY/TOOLING_CORNERS*
G04 Layer:  BOARD GEOMETRY/LYR_3*
G04 Layer:  BOARD GEOMETRY/ROOT_NUMBER*
G04 *
G04 Offset:    (0.0 0.0)*
G04 Mirror:    No*
G04 Mode:      Positive*
G04 Rotation:  0*
G04 FullContactRelief:  No*
G04 UndefLineWidth:     8.0*
G04 ================== end FILE IDENTIFICATION RECORD ====================*
%FSLAX55Y55*MOIN*%
%IR0*IPPOS*OFA0.00000B0.00000*MIA0B0*SFA1.00000B1.00000*%
%ADD11C,.04*%
%ADD12C,.07*%
%ADD10C,.025*%
%ADD13C,.065*%
%ADD14C,.012*%
%ADD15C,.008*%
%ADD16C,.05*%
%ADD17C,.045*%
%ADD21C,.0604*%
%ADD18C,.0454*%
%ADD20C,.0854*%
%ADD19C,.0954*%
G75*
%LPD*%
G75*
G36*
G01X-32010Y-188610D02*
Y-194030D01*
G03X-30020Y-216270I10241J-10293D01*
G02X-30240Y-217000I-224J-331D01*
G01X-38500D01*
X-39000Y-216500D01*
Y1000D01*
X-38000Y2000D01*
X-34890D01*
G02X-34540Y1410I-2J-400D01*
G03X-32010Y-15790I12770J-6908D01*
G01Y-22900D01*
G03Y-28660I3350J-2880D01*
G01Y-179470D01*
G03Y-188610I3350J-4570D01*
G37*
G36*
G01X81000Y2000D02*
X81990Y1010D01*
Y-83630D01*
X82000Y-83640D01*
Y-85860D01*
X81990Y-85870D01*
Y-138630D01*
X82000Y-138640D01*
Y-156500D01*
X83000Y-157500D01*
X119000D01*
X120000Y-158500D01*
Y-216000D01*
X119000Y-217000D01*
X-13300D01*
G02X-13520Y-216270I4J399D01*
G03X-8210Y-209510I-8252J11947D01*
G01X14130D01*
X14140Y-209500D01*
X21560D01*
G03X28440I3440J2930D01*
G01X40920D01*
G03X49080I4080J2930D01*
G01X111500D01*
X112500Y-208500D01*
Y-166500D01*
X75000D01*
X74010Y-165510D01*
Y-158760D01*
X74190Y-158740D01*
G03Y-150260I-490J4240D01*
G01X74010Y-150240D01*
Y-109890D01*
G03Y-107790I-2010J1050D01*
G01Y-105410D01*
G03Y-102030I-1510J1690D01*
G01Y-93190D01*
G03Y-89810I-1510J1690D01*
G01Y-6870D01*
X74000Y-6860D01*
Y-6000D01*
X73500Y-5500D01*
X72640D01*
X72630Y-5490D01*
X68820D01*
G03X61180I-3820J-1910D01*
G01X58820D01*
G03X51180I-3820J-1910D01*
G01X48820D01*
G03X41180I-3820J-1910D01*
G01X38820D01*
G03X31180I-3820J-1910D01*
G01X29370D01*
G03X20630I-4370J-1910D01*
G01X18820D01*
G03X11180I-3820J-1910D01*
G01X-7250D01*
Y-5290D01*
G03X-9000Y1410I-14519J-214D01*
G02X-8650Y2000I352J190D01*
G01X81000D01*
G37*
G36*
G01X20330Y-7000D02*
G02X20730Y-7400I0J-400D01*
G03X29270I4270J0D01*
G02X29670Y-7000I400J0D01*
G01X30330D01*
G02X30730Y-7400I0J-400D01*
G03X39270I4270J0D01*
G02X39670Y-7000I400J0D01*
G01X40330D01*
G02X40730Y-7400I0J-400D01*
G03X49270I4270J0D01*
G02X49670Y-7000I400J0D01*
G01X50330D01*
G02X50730Y-7400I0J-400D01*
G03X59270I4270J0D01*
G02X59670Y-7000I400J0D01*
G01X60330D01*
G02X60730Y-7400I0J-400D01*
G03X69270I4270J0D01*
G02X69670Y-7000I400J0D01*
G01X72000D01*
X72500Y-7500D01*
Y-89230D01*
G03X70300Y-90960I0J-2264D01*
G02X69850Y-91260I-390J98D01*
G03X71700Y-94040I-352J-2240D01*
G02X72150Y-93740I390J-98D01*
G03X72500Y-93770I368J2238D01*
G01Y-101450D01*
G03Y-105990I0J-2270D01*
G01Y-106590D01*
X72160D01*
G03X72090Y-111110I-190J-2258D01*
G02X72500Y-111510I11J-399D01*
G01Y-121520D01*
G02X71920Y-121870I-399J6D01*
G03Y-125930I-1020J-2030D01*
G02X72500Y-126280I181J-356D01*
G01Y-150400D01*
G03Y-158600I1200J-4100D01*
G01Y-165500D01*
X71500Y-166500D01*
X15500D01*
X14500Y-167500D01*
Y-180850D01*
G02X13790Y-181100I-399J0D01*
G03Y-183900I-1790J-1400D01*
G02X14500Y-184150I311J-250D01*
G01Y-207000D01*
X13500Y-208000D01*
X-7220D01*
G02X-7610Y-207510I2J401D01*
G03X-29880Y-192270I-14165J3193D01*
G02X-30500Y-191940I-222J330D01*
G01Y-189940D01*
G02X-30010Y-189550I399J2D01*
G03Y-178530I1350J5510D01*
G02X-30500Y-178140I-91J388D01*
G01Y-30380D01*
G02X-29980Y-30000I399J0D01*
G03Y-21560I1320J4220D01*
G02X-30500Y-21180I-121J380D01*
G01Y-17880D01*
G02X-29880Y-17550I398J0D01*
G03X-7350Y-7180I8106J12047D01*
G01X-7330Y-7000D01*
X10330D01*
G02X10730Y-7400I0J-400D01*
G03X19270I4270J0D01*
G02X19670Y-7000I400J0D01*
G01X20330D01*
G37*
G36*
G01X141500Y-208000D02*
X141000Y-207500D01*
Y-140000D01*
X140000Y-139000D01*
X84500D01*
X83500Y-138000D01*
Y-86500D01*
X84490Y-85510D01*
X137510D01*
X138490Y-86490D01*
Y-114630D01*
X138500Y-114640D01*
Y-116000D01*
X139500Y-117000D01*
X140860D01*
X140870Y-117010D01*
X148720D01*
X148740Y-117190D01*
G03X153260I2260J190D01*
G01X153280Y-117010D01*
X194510D01*
X195500Y-118000D01*
Y-207000D01*
X194500Y-208000D01*
X141500D01*
G37*
G36*
G01X143900Y-114790D02*
G03X140710Y-111600I-1400J1790D01*
G02X140000Y-111350I-311J250D01*
G01Y-85000D01*
X139000Y-84000D01*
X110140D01*
G02X109820Y-83360I-2J399D01*
G03X106180I-1820J1360D01*
G02X105860Y-84000I-318J-241D01*
G01X84500D01*
X83500Y-83000D01*
Y1000D01*
X84500Y2000D01*
X101500D01*
X102500Y1000D01*
Y-6000D01*
X103500Y-7000D01*
X168500D01*
X169000Y-7500D01*
Y-8500D01*
G03Y-16500I1500J-4000D01*
G01Y-22000D01*
X170500Y-23500D01*
X176130D01*
G02X176530Y-23970I5J-401D01*
G03X182470I2970J-530D01*
G02X182870Y-23500I395J69D01*
G01X184000D01*
X185000Y-24500D01*
Y-28500D01*
X183000Y-30500D01*
Y-35980D01*
G02X182530Y-36380I-401J-5D01*
G03X182750Y-42280I-529J-2974D01*
G01X182770Y-42270D01*
X183000D01*
Y-42500D01*
X184000Y-43500D01*
X194500D01*
X195500Y-44500D01*
Y-54500D01*
X194500Y-55500D01*
X184500D01*
X183500Y-56500D01*
Y-56630D01*
G02X182910Y-56980I-400J2D01*
G03Y-62320I-1410J-2670D01*
G02X183500Y-62670I190J-352D01*
G01Y-66500D01*
X185000Y-68000D01*
X194500D01*
X195500Y-69000D01*
Y-114500D01*
X194500Y-115500D01*
X152700D01*
G03X149300I-1700J-1500D01*
G01X144150D01*
G02X143900Y-114790I0J399D01*
G37*
G36*
G01X104010Y1010D02*
X105000Y2000D01*
X203500D01*
X204500Y1000D01*
Y-216000D01*
X203500Y-217000D01*
X133000D01*
X132000Y-216000D01*
Y-210000D01*
X132500Y-209500D01*
X140860D01*
X140870Y-209510D01*
X195130D01*
X195140Y-209500D01*
X196000D01*
X197000Y-208500D01*
Y-207640D01*
X197010Y-207630D01*
Y-117370D01*
X197000Y-117360D01*
Y-115140D01*
X197010Y-115130D01*
Y-68370D01*
X197000Y-68360D01*
Y-55140D01*
X197010Y-55130D01*
Y-43870D01*
X197000Y-43860D01*
Y-6500D01*
X196000Y-5500D01*
X169140D01*
X169130Y-5490D01*
X104490D01*
X104010Y-5010D01*
Y1010D01*
G37*
G36*
G01X208500Y-217000D02*
X207500Y-216000D01*
Y1000D01*
X208500Y2000D01*
X335500D01*
X336500Y1000D01*
Y-216000D01*
X335500Y-217000D01*
X208500D01*
G37*
%LPC*%
G75*
G36*
G01X22210Y-76060D02*
G03X21770Y-76480I-44J-395D01*
G02X19750Y-74350I-2269J-129D01*
G03X20190Y-73930I44J395D01*
G02X22210Y-76060I2269J129D01*
G37*
G36*
G01X58520Y-123680D02*
G02X57520Y-122250I-2217J-485D01*
G03X58130Y-121830I219J336D01*
G02X59130Y-123260I2217J485D01*
G03X58520Y-123680I-219J-336D01*
G37*
G36*
G01X59070Y-89930D02*
G02X57780Y-91510I927J-2073D01*
G03X57230Y-91060I-390J85D01*
G02X54360Y-90170I-931J2070D01*
G03X53700Y-90130I-344J-205D01*
G02X54110Y-87190I-2400J1833D01*
G03X54750Y-87330I369J152D01*
G02X58520Y-89480I1552J-1658D01*
G03X59070Y-89930I390J-85D01*
G37*
G36*
G01X-26040Y-42700D02*
G02X-28160Y-42630I-1126J-1970D01*
G03X-28130Y-41920I-169J363D01*
G02X-26010Y-41990I1126J1970D01*
G03X-26040Y-42700I169J-363D01*
G37*
G36*
G01X68760Y-117460D02*
G03X68770Y-118120I232J-327D01*
G02X65890Y-118400I-1271J-1880D01*
G03X65770Y-117750I-283J284D01*
G02X68760Y-117460I1242J2751D01*
G37*
G36*
G01X14520Y-113220D02*
G03X15080Y-113270I305J258D01*
G02X14830Y-116480I1470J-1729D01*
G03X14270Y-116430I-305J-258D01*
G02X14520Y-113220I-1470J1729D01*
G37*
G36*
G01X63750Y-111400D02*
G03X63230Y-111470I-220J-332D01*
G02X62750Y-108100I-1729J1473D01*
G03X63270Y-108030I220J332D01*
G02X63750Y-111400I1729J-1473D01*
G37*
G36*
G01X37320Y-106370D02*
G03X37200Y-106120I-192J62D01*
G02X40180Y-104630I801J2122D01*
G03X40300Y-104880I192J-62D01*
G02X37320Y-106370I-801J-2122D01*
G37*
G36*
G01X9030Y-90270D02*
G03X8660Y-90790I9J-398D01*
G02X6470Y-89230I-2157J-711D01*
G03X6840Y-88710I-9J398D01*
G02X9030Y-90270I2157J711D01*
G37*
G36*
G01X230500Y-4000D02*
X261500D01*
X262990Y-5490D01*
X327130D01*
X327140Y-5500D01*
X328000D01*
X329000Y-6500D01*
Y-7360D01*
X329010Y-7370D01*
Y-38110D01*
G02Y-46890I-2430J-4390D01*
G01Y-58690D01*
G02Y-66310I-2430J-3810D01*
G01Y-156610D01*
G02Y-165390I-2430J-4390D01*
G01Y-177190D01*
G02Y-184810I-2430J-3810D01*
G01Y-207630D01*
X329000Y-207640D01*
Y-208500D01*
X328000Y-209500D01*
X327140D01*
X327130Y-209510D01*
X216870D01*
X216860Y-209500D01*
X216000D01*
X215000Y-208500D01*
Y-207640D01*
X214990Y-207630D01*
Y-70870D01*
X215000Y-70860D01*
Y-55640D01*
X214990Y-55630D01*
Y-43870D01*
X215000Y-43860D01*
Y-29140D01*
X214990Y-29130D01*
Y-26370D01*
X215000Y-26360D01*
Y-6500D01*
X216000Y-5500D01*
X229000D01*
X230500Y-4000D01*
G37*
G54D21*
X47500Y-137500D03*
X29500D03*
X-26100Y-174600D03*
X182500Y-49500D03*
G54D18*
X24960Y-57140D03*
X26010Y-65800D03*
X6150Y-56150D03*
X10500Y-60300D03*
X5170Y-49450D03*
X49000Y-52020D03*
X14500Y-41300D03*
X57770Y-39770D03*
X55700Y-59700D03*
X61950Y-64060D03*
X58000Y-69500D03*
X64000Y-97500D03*
X65500Y-149000D03*
X21750Y-95250D03*
X28000Y-101500D03*
X40000Y-112000D03*
X27180Y-114180D03*
X25690Y-147000D03*
X6000Y-173500D03*
X8200Y-152200D03*
X-16000Y-39950D03*
X-27500Y-54120D03*
X-16000D03*
X-27500Y-68300D03*
X-27530Y-82470D03*
X-27500Y-91920D03*
X-16000Y-68300D03*
Y-82500D03*
X-15780Y-94280D03*
X-27500Y-110820D03*
X-16000D03*
X-27630Y-122630D03*
X-27000Y-136800D03*
X-16000Y-122630D03*
X-15500Y-136800D03*
Y-148610D03*
X-27000Y-150970D03*
X-27720Y-162780D03*
X-27500Y-168500D03*
X-15780Y-162780D03*
X-16000Y-169000D03*
X32500Y-156500D03*
X108000Y-128000D03*
X112500Y-95800D03*
X135300Y-128500D03*
X139000Y-122700D03*
X130300Y-126300D03*
X147500Y-120500D03*
X126500Y-88500D03*
X108000Y-66000D03*
Y-50000D03*
Y-34000D03*
Y-18000D03*
X152500Y-101500D03*
X151500Y-109000D03*
X143000Y-97500D03*
Y-105500D03*
X141550Y-56050D03*
X130000D03*
X169000Y-48000D03*
Y-57500D03*
G54D20*
X15000Y-30500D03*
X65000Y-17400D03*
X55000D03*
X45000D03*
X35000D03*
X25000D03*
X15000D03*
X149500Y-77000D03*
G54D19*
X25000Y-30500D03*
%LPD*%
G75*
G36*
G01X217500Y-208000D02*
X216500Y-207000D01*
Y-71500D01*
X217500Y-70500D01*
X231500D01*
X232500Y-69500D01*
Y-57000D01*
X231500Y-56000D01*
X217500D01*
X216500Y-55000D01*
Y-44500D01*
X217500Y-43500D01*
X232500D01*
Y-29500D01*
X217500D01*
X216500Y-28500D01*
Y-27000D01*
X217500Y-26000D01*
X228000D01*
Y-25420D01*
G02X228410Y-25020I399J1D01*
G03X230460Y-19700I92J3020D01*
G02X230720Y-19000I262J301D01*
G01X232000D01*
Y-7000D01*
X233000Y-6000D01*
X236500D01*
X237490Y-6990D01*
Y-26130D01*
X237500Y-26140D01*
Y-27000D01*
X238000Y-27500D01*
X238860D01*
X238870Y-27510D01*
X246820D01*
G03X250130Y-27540I1678J2510D01*
G01X250180Y-27510D01*
X250510D01*
X251490Y-28490D01*
Y-75510D01*
X251010Y-75990D01*
X236870D01*
X236860Y-76000D01*
X236000D01*
X235000Y-77000D01*
Y-77860D01*
X234990Y-77870D01*
Y-103280D01*
G02X234790Y-103480I-200J0D01*
G03Y-108020I-40J-2270D01*
G02X234990Y-108220I0J-200D01*
G01Y-109990D01*
X227370D01*
X227320Y-110050D01*
X227310D01*
X225490Y-111870D01*
Y-121630D01*
X225550Y-121680D01*
Y-121690D01*
X227370Y-123510D01*
X249130D01*
X249180Y-123450D01*
X249190D01*
X251510Y-121130D01*
Y-90990D01*
X251990Y-90510D01*
X259630D01*
X259640Y-90500D01*
X260500D01*
X261500Y-89500D01*
Y-88640D01*
X261510Y-88630D01*
Y-47640D01*
G02X262150Y-47320I401J-2D01*
G03Y-39680I2850J3820D01*
G02X261510Y-39360I-239J322D01*
G01Y-7990D01*
X262500Y-7000D01*
X326500D01*
X327500Y-8000D01*
Y-37610D01*
G02X327060Y-38010I-401J-1D01*
G03Y-46990I-480J-4490D01*
G02X327500Y-47390I39J-399D01*
G01Y-57610D01*
G02X327060Y-58010I-401J-1D01*
G03Y-66990I-480J-4490D01*
G02X327500Y-67390I39J-399D01*
G01Y-156110D01*
G02X327060Y-156510I-401J-1D01*
G03Y-165490I-480J-4490D01*
G02X327500Y-165890I39J-399D01*
G01Y-176110D01*
G02X327060Y-176510I-401J-1D01*
G03Y-185490I-480J-4490D01*
G02X327500Y-185890I39J-399D01*
G01Y-207000D01*
X326500Y-208000D01*
X217500D01*
G37*
G36*
G01X236500Y-78500D02*
X237500Y-77500D01*
X252500D01*
X253000Y-77000D01*
Y-27000D01*
X252000Y-26000D01*
X251870D01*
G02X251470Y-25530I-5J401D01*
G03X245530I-2970J530D01*
G02X245130Y-26000I-395J-69D01*
G01X239500D01*
X239000Y-25500D01*
Y-7000D01*
X240000Y-6000D01*
X241780D01*
G02X242140Y-6560I-5J-399D01*
G03X250860I4360J-1940D01*
G02X251220Y-6000I365J161D01*
G01X260000D01*
Y-88000D01*
X259000Y-89000D01*
X250000D01*
Y-102360D01*
G02X249360Y-102680I-399J-2D01*
G03Y-106320I-1360J-1820D01*
G02X250000Y-106640I241J-318D01*
G01Y-120500D01*
X248500Y-122000D01*
X228000D01*
X227000Y-121000D01*
Y-112500D01*
X228000Y-111500D01*
X236500D01*
Y-107200D01*
G03Y-104300I-1750J1450D01*
G01Y-78500D01*
G37*
%LPC*%
G75*
G36*
G01X262630Y-115570D02*
G03X263220I295J268D01*
G02X263210Y-118640I1669J-1540D01*
G03X262620I-295J-268D01*
G02X262630Y-115570I-1669J1540D01*
G37*
G54D21*
X242500Y-66750D03*
X231500Y-50000D03*
X242500Y-16000D03*
G54D18*
X294500Y-33000D03*
X291000Y-80500D03*
X288000Y-112500D03*
X294400Y-157900D03*
X275650Y-40650D03*
X281500Y-36000D03*
X279500Y-74000D03*
X274500Y-103000D03*
X270500Y-117500D03*
X269250Y-97750D03*
X283250Y-107000D03*
X272980Y-131520D03*
X274000Y-138500D03*
X266500Y-154500D03*
X274000Y-168000D03*
X281700Y-165800D03*
X275500Y-151000D03*
X271500Y-155500D03*
X263350Y-159850D03*
X254500Y-104000D03*
X251110Y-147890D03*
X256500Y-148750D03*
X242500Y-129550D03*
X259200Y-164300D03*
X226750Y-86750D03*
X232000Y-91500D03*
X272950Y-47500D03*
X239900Y-91000D03*
X240000Y-101000D03*
G54D20*
X294100Y-135000D03*
Y-125000D03*
X268500Y-27500D03*
X287900Y-93600D03*
X246000Y-59500D03*
X225000Y-144500D03*
Y-133500D03*
Y-168500D03*
Y-157000D03*
%LPD*%
G75*
G54D10*
G01X45000Y-206570D02*
X41120Y-210450D01*
G01X25000Y-30500D02*
X21290Y-34210D01*
G01X25000Y-30500D02*
X21290Y-26790D01*
G01X25000Y-30500D02*
X28710Y-26790D01*
G01X25000Y-30500D02*
X28710Y-34210D01*
G01X45000Y-206570D02*
X48880Y-210450D01*
G01X326580Y-161000D02*
X330460Y-157120D01*
G01X326580Y-161000D02*
X330460Y-164880D01*
X-37000Y-214000D03*
Y-182000D03*
Y-25500D03*
X-9500Y-214500D03*
X-35500Y-193000D03*
Y-15000D03*
X4500Y-214500D03*
X9050Y-96050D03*
X10000Y-73800D03*
X-5000Y-2500D03*
X14000Y-2000D03*
X20500Y-214500D03*
X36500D03*
X30000Y-2000D03*
X52500Y-214500D03*
X68500D03*
X47650Y-121350D03*
X46000Y-2000D03*
X62000D03*
X84500Y-214500D03*
X95000Y-161000D03*
X79000D03*
X78000Y-146000D03*
Y-130000D03*
Y-121000D03*
Y-82000D03*
Y-66000D03*
Y-50000D03*
Y-34000D03*
Y-18000D03*
Y-2000D03*
X100500Y-214500D03*
X116500D03*
X112470Y-209500D03*
X118500Y-198400D03*
X116500Y-184500D03*
X113500Y-185500D03*
X119000Y-176930D03*
X113500Y-193000D03*
X119000Y-200950D03*
X116500Y-168500D03*
X111000Y-161000D03*
X113500Y-169000D03*
X119000Y-98000D03*
X124000Y-2000D03*
X108000D03*
X152000Y-213000D03*
X136000D03*
X140000Y-2000D03*
X168000Y-213000D03*
X172000Y-2000D03*
X156000D03*
X200000Y-213000D03*
X184000D03*
X200500Y-194000D03*
Y-178000D03*
Y-162000D03*
Y-146000D03*
Y-130000D03*
Y-114000D03*
Y-98000D03*
X199500Y-83000D03*
X200500Y-44500D03*
Y-66000D03*
Y-54500D03*
X201000Y-32000D03*
X200500Y-17000D03*
Y-2000D03*
X188000D03*
X227000Y-213000D03*
X211000Y-209500D03*
Y-193500D03*
Y-177500D03*
Y-161500D03*
Y-145500D03*
Y-129500D03*
Y-113500D03*
Y-97500D03*
X212500Y-83000D03*
X211000Y-44500D03*
Y-65500D03*
Y-54000D03*
Y-33500D03*
Y-17000D03*
X227000Y-500D03*
X211000D03*
X259000Y-213000D03*
X243000D03*
X259000Y-500D03*
X243000D03*
X275000Y-213000D03*
X266550Y-167050D03*
X307000Y-213000D03*
X291000D03*
X307000Y-500D03*
X291000D03*
X323000Y-213000D03*
X332500Y-201000D03*
X332000Y-185000D03*
Y-169000D03*
X332500Y-153000D03*
Y-137000D03*
Y-121000D03*
Y-105000D03*
Y-89000D03*
Y-73000D03*
X332000Y-57000D03*
X332500Y-41000D03*
Y-25000D03*
Y-9000D03*
X325000Y-500D03*
G54D11*
X12000Y-160500D03*
X169500Y-37000D03*
X181500Y-32650D03*
X232000Y-113500D03*
X261750Y-97500D03*
G54D12*
X45000Y-206570D03*
X326580Y-161000D03*
Y-42500D03*
G54D13*
X25000Y-30500D03*
X246500Y-8500D03*
X265000Y-43500D03*
G54D14*
G01D02*
X268710Y-39790D01*
G01X265000Y-43500D02*
X268710Y-47210D01*
G01X326580Y-42500D02*
X330460Y-38620D01*
G01X326580Y-42500D02*
X330460Y-46380D01*
G54D15*
G01X82500Y145000D02*
X81500Y144670D01*
X80750Y143830D01*
X80250Y142830D01*
X79870Y141500D01*
X79750Y140000D01*
X79870Y138500D01*
X80250Y137170D01*
X80750Y136170D01*
X81500Y135330D01*
X82500Y135000D01*
X83500Y135330D01*
X84250Y136170D01*
X84750Y137170D01*
X85130Y138500D01*
X85250Y140000D01*
X85130Y141500D01*
X84750Y142830D01*
X84250Y143830D01*
X83500Y144670D01*
X82500Y145000D01*
G01X92500Y135000D02*
X93370Y135170D01*
X94370Y135670D01*
X95000Y136500D01*
X95250Y137670D01*
X95000Y138830D01*
X94250Y139830D01*
X93120Y140330D01*
X91880D01*
X91120Y140670D01*
X90500Y141500D01*
X90250Y142670D01*
X90630Y143830D01*
X91500Y144670D01*
X92500Y145000D01*
X93500Y144670D01*
X94370Y143830D01*
X94750Y142670D01*
X94500Y141500D01*
X93880Y140670D01*
X93120Y140330D01*
X91880D01*
X90750Y139830D01*
X90000Y138830D01*
X89750Y137670D01*
X90000Y136500D01*
X90630Y135670D01*
X91630Y135170D01*
X92500Y135000D01*
G01X100880Y138330D02*
X104120D01*
G01X170880D02*
X174120D01*
G01X182500Y145000D02*
X181500Y144670D01*
X180750Y143830D01*
X180250Y142830D01*
X179870Y141500D01*
X179750Y140000D01*
X179870Y138500D01*
X180250Y137170D01*
X180750Y136170D01*
X181500Y135330D01*
X182500Y135000D01*
X183500Y135330D01*
X184250Y136170D01*
X184750Y137170D01*
X185130Y138500D01*
X185250Y140000D01*
X185130Y141500D01*
X184750Y142830D01*
X184250Y143830D01*
X183500Y144670D01*
X182500Y145000D01*
G01X192500Y135000D02*
X193370Y135170D01*
X194370Y135670D01*
X195000Y136500D01*
X195250Y137670D01*
X195000Y138830D01*
X194250Y139830D01*
X193120Y140330D01*
X191880D01*
X191120Y140670D01*
X190500Y141500D01*
X190250Y142670D01*
X190630Y143830D01*
X191500Y144670D01*
X192500Y145000D01*
X193500Y144670D01*
X194370Y143830D01*
X194750Y142670D01*
X194500Y141500D01*
X193880Y140670D01*
X193120Y140330D01*
X191880D01*
X190750Y139830D01*
X190000Y138830D01*
X189750Y137670D01*
X190000Y136500D01*
X190630Y135670D01*
X191630Y135170D01*
X192500Y135000D01*
G01X115000Y115000D02*
Y125000D01*
X118120D01*
X119120Y124500D01*
X119750Y123830D01*
X120000Y122500D01*
X119750Y121170D01*
X119000Y120330D01*
X118120Y119830D01*
X115000D01*
G01X118120D02*
X120000Y115000D01*
G01X130000D02*
X125000D01*
Y125000D01*
X130000D01*
G01X128000Y120170D02*
X125000D01*
G01X134370Y125000D02*
X137500Y115000D01*
X140630Y125000D01*
G01X158500Y120330D02*
X159000Y120830D01*
X159370Y121670D01*
X159630Y122830D01*
X159370Y123830D01*
X158880Y124500D01*
X158000Y125000D01*
X154630D01*
Y115000D01*
X158750D01*
X159630Y115670D01*
X160130Y116670D01*
X160370Y117830D01*
X160130Y119000D01*
X159370Y120000D01*
X158500Y120330D01*
X154630D01*
G01X112500Y145000D02*
X111500Y144670D01*
X110750Y143830D01*
X110250Y142830D01*
X109870Y141500D01*
X109750Y140000D01*
X109870Y138500D01*
X110250Y137170D01*
X110750Y136170D01*
X111500Y135330D01*
X112500Y135000D01*
X113500Y135330D01*
X114250Y136170D01*
X114750Y137170D01*
X115130Y138500D01*
X115250Y140000D01*
X115130Y141500D01*
X114750Y142830D01*
X114250Y143830D01*
X113500Y144670D01*
X112500Y145000D01*
G01X119750Y137000D02*
X120500Y135830D01*
X121500Y135170D01*
X122630Y135000D01*
X123630Y135170D01*
X124630Y136000D01*
X125250Y137000D01*
X125370Y138000D01*
X125130Y139170D01*
X124250Y140000D01*
X123370Y140330D01*
X122250D01*
G01X123370D02*
X124120Y140830D01*
X124750Y141670D01*
X125000Y142670D01*
X124750Y143670D01*
X124120Y144500D01*
X123000Y145000D01*
X121880Y144830D01*
X120750Y144170D01*
G01X132250Y135000D02*
X132500Y137170D01*
X132880Y139000D01*
X133370Y140670D01*
X134000Y142500D01*
X135000Y145000D01*
X130000D01*
G01X142500Y135000D02*
Y145000D01*
X141000Y143000D01*
G01Y135000D02*
X144000D01*
G01X149750Y136500D02*
X150500Y135670D01*
X151370Y135170D01*
X152500Y135000D01*
X153630Y135330D01*
X154500Y136000D01*
X155130Y137170D01*
X155250Y138500D01*
X155000Y139830D01*
X154370Y140670D01*
X153500Y141330D01*
X152630Y141500D01*
X151750Y141330D01*
X150630Y140670D01*
X151000Y145000D01*
X154370D01*
G01X162500Y135000D02*
X163370Y135170D01*
X164370Y135670D01*
X165000Y136500D01*
X165250Y137670D01*
X165000Y138830D01*
X164250Y139830D01*
X163120Y140330D01*
X161880D01*
X161120Y140670D01*
X160500Y141500D01*
X160250Y142670D01*
X160630Y143830D01*
X161500Y144670D01*
X162500Y145000D01*
X163500Y144670D01*
X164370Y143830D01*
X164750Y142670D01*
X164500Y141500D01*
X163880Y140670D01*
X163120Y140330D01*
X161880D01*
X160750Y139830D01*
X160000Y138830D01*
X159750Y137670D01*
X160000Y136500D01*
X160630Y135670D01*
X161630Y135170D01*
X162500Y135000D01*
G01X110000Y165000D02*
Y155000D01*
X115000D01*
G01X119750Y157000D02*
X120500Y155830D01*
X121500Y155170D01*
X122630Y155000D01*
X123630Y155170D01*
X124630Y156000D01*
X125250Y157000D01*
X125370Y158000D01*
X125130Y159170D01*
X124250Y160000D01*
X123370Y160330D01*
X122250D01*
G01X123370D02*
X124120Y160830D01*
X124750Y161670D01*
X125000Y162670D01*
X124750Y163670D01*
X124120Y164500D01*
X123000Y165000D01*
X121880Y164830D01*
X120750Y164170D01*
G01X140000Y155000D02*
Y165000D01*
X143000D01*
X144000Y164500D01*
X144750Y163330D01*
X145000Y162000D01*
X144750Y160670D01*
X144120Y159670D01*
X143000Y159170D01*
X140000D01*
G01X148750Y165000D02*
X150500Y155000D01*
X152500Y165000D01*
X154500Y155000D01*
X156250Y165000D01*
G01X160000Y155000D02*
Y165000D01*
X163120D01*
X164120Y164500D01*
X164750Y163830D01*
X165000Y162500D01*
X164750Y161170D01*
X164000Y160330D01*
X163120Y159830D01*
X160000D01*
G01X163120D02*
X165000Y155000D01*
G54D16*
G01X-47500Y-235000D02*
Y-200000D01*
G01X-57500Y-225000D02*
X-22500D01*
G01X-47500Y20000D02*
Y-15000D01*
G01X-57500Y10000D02*
X-22500D01*
G01X355000Y-225000D02*
X320000D01*
G01X355000Y10000D02*
X320000D01*
G01X345000Y-235000D02*
Y-200000D01*
G01Y20000D02*
Y-15000D01*
G54D17*
G01X246500Y-8500D02*
X252500D01*
M02*
