*
*
G04 PADS 9.3.1 Build Number: 461647 generated Gerber (RS-274-X) file*
G04 PC Version=2.1*
*
%IN "DEMO-AD5700-D2Z RevC1.p"*%
*
%MOIN*%
*
%FSLAX35Y35*%
*
*
*
*
G04 PC Standard Apertures*
*
*
G04 Thermal Relief Aperture macro.*
%AMTER*
1,1,$1,0,0*
1,0,$1-$2,0,0*
21,0,$3,$4,0,0,45*
21,0,$3,$4,0,0,135*
%
*
*
G04 Annular Aperture macro.*
%AMANN*
1,1,$1,0,0*
1,0,$2,0,0*
%
*
*
G04 Odd Aperture macro.*
%AMODD*
1,1,$1,0,0*
1,0,$1-0.005,0,0*
%
*
*
G04 PC Custom Aperture Macros*
*
*
*
*
*
*
G04 PC Aperture Table*
*
%ADD013C,0.009*%
%ADD016C,0.015*%
%ADD017C,0.007*%
%ADD018C,0.001*%
%ADD021C,0.00787*%
%ADD030C,0.1*%
%ADD033C,0.06*%
%ADD036C,0.02756*%
%ADD040C,0.0315*%
%ADD041C,0.01575*%
%ADD044C,0.01969*%
%ADD063C,0.00984*%
%ADD067C,0.00394*%
%ADD099R,0.09843X0.07874*%
%ADD100O,0.09843X0.07874*%
%ADD101R,0.08268X0.08268*%
%ADD102C,0.08268*%
%ADD103R,0.065X0.065*%
%ADD104C,0.065*%
%ADD109C,0.09843*%
%ADD113R,0.025X0.015*%
%ADD116C,0.04921*%
*
*
*
*
G04 PC Circuitry*
G04 Layer Name DEMO-AD5700-D2Z RevC1.p - circuitry*
%LPD*%
*
*
G04 PC Custom Flashes*
G04 Layer Name DEMO-AD5700-D2Z RevC1.p - flashes*
%LPD*%
*
*
G04 PC Circuitry*
G04 Layer Name DEMO-AD5700-D2Z RevC1.p - circuitry*
%LPD*%
*
G54D13*
G01X1865577Y1550061D02*
Y1544811D01*
Y1550061D02*
X1866849D01*
X1866849D02*
X1867395Y1549811D01*
X1867759Y1549311*
X1867940Y1548811*
X1868122Y1548061*
Y1546811*
X1867940Y1546061*
X1867759Y1545561*
X1867395Y1545061*
X1866849Y1544811*
X1866849D02*
X1865577D01*
X1869759Y1550061D02*
Y1544811D01*
Y1550061D02*
X1872122D01*
X1869759Y1547561D02*
X1871213D01*
X1869759Y1544811D02*
X1872122D01*
X1873759Y1550061D02*
Y1544811D01*
Y1550061D02*
X1875213Y1544811D01*
X1876668Y1550061D02*
X1875213Y1544811D01*
X1876668Y1550061D02*
Y1544811D01*
X1879395Y1550061D02*
X1878849Y1549811D01*
X1878849D02*
X1878486Y1549061D01*
X1878304Y1547811*
Y1547061*
X1878486Y1545811*
X1878849Y1545061*
X1878849D02*
X1879395Y1544811D01*
X1879759*
X1880304Y1545061*
X1880668Y1545811*
X1880849Y1547061*
X1880849D02*
Y1547811D01*
X1880849D02*
X1880668Y1549061D01*
X1880304Y1549811*
X1879759Y1550061*
X1879395*
X1882486Y1547061D02*
X1885759D01*
X1888849Y1550061D02*
X1887395Y1544811D01*
X1888849Y1550061D02*
X1890304Y1544811D01*
X1887940Y1546561D02*
X1889759D01*
X1891940Y1550061D02*
Y1544811D01*
Y1550061D02*
X1893213D01*
X1893759Y1549811*
X1894122Y1549311*
X1894304Y1548811*
X1894486Y1548061*
Y1546811*
X1894304Y1546061*
X1894122Y1545561*
X1893759Y1545061*
X1893213Y1544811*
X1891940*
X1898486Y1550061D02*
X1896668D01*
X1896486Y1547811*
X1896668Y1548061*
X1897213Y1548311*
X1897759*
X1898304Y1548061*
X1898668Y1547561*
X1898849Y1546811*
X1898849D02*
X1898668Y1546311D01*
X1898486Y1545561*
X1898122Y1545061*
X1897577Y1544811*
X1897031*
X1896486Y1545061*
X1896304Y1545311*
X1896122Y1545811*
X1903031Y1550061D02*
X1901213Y1544811D01*
X1900486Y1550061D02*
X1903031D01*
X1905759D02*
X1905213Y1549811D01*
X1904849Y1549061*
X1904849D02*
X1904668Y1547811D01*
Y1547061*
X1904849Y1545811*
X1904849D02*
X1905213Y1545061D01*
X1905759Y1544811*
X1906122*
X1906668Y1545061*
X1907031Y1545811*
X1907213Y1547061*
Y1547811*
X1907031Y1549061*
X1906668Y1549811*
X1906122Y1550061*
X1905759*
X1909940D02*
X1909395Y1549811D01*
X1909031Y1549061*
X1908849Y1547811*
X1908849D02*
Y1547061D01*
X1908849D02*
X1909031Y1545811D01*
X1909395Y1545061*
X1909940Y1544811*
X1910304*
X1910849Y1545061*
X1910849D02*
X1911213Y1545811D01*
X1911395Y1547061*
Y1547811*
X1911213Y1549061*
X1910849Y1549811*
X1910849D02*
X1910304Y1550061D01*
X1909940*
X1913031Y1547061D02*
X1916304D01*
X1917940Y1550061D02*
Y1544811D01*
Y1550061D02*
X1919213D01*
X1919759Y1549811*
X1920122Y1549311*
X1920304Y1548811*
X1920486Y1548061*
Y1546811*
X1920304Y1546061*
X1920122Y1545561*
X1919759Y1545061*
X1919213Y1544811*
X1917940*
X1922304Y1548811D02*
Y1549061D01*
X1922486Y1549561*
X1922668Y1549811*
X1923031Y1550061*
X1923759*
X1924122Y1549811*
X1924304Y1549561*
X1924486Y1549061*
Y1548561*
X1924304Y1548061*
X1923940Y1547311*
X1922122Y1544811*
X1924668*
X1928849Y1550061D02*
X1926304Y1544811D01*
Y1550061D02*
X1928849D01*
X1926304Y1544811D02*
X1928849D01*
X1935940Y1551061D02*
X1935577Y1550561D01*
X1935213Y1549811*
X1934849Y1548811*
X1934849D02*
X1934668Y1547561D01*
Y1546561*
X1934849Y1545311*
X1934849D02*
X1935213Y1544311D01*
X1935577Y1543561*
X1935940Y1543061*
X1937577Y1550061D02*
Y1544811D01*
Y1550061D02*
X1939213D01*
X1939759Y1549811*
X1939940Y1549561*
X1940122Y1549061*
Y1548561*
X1939940Y1548061*
X1939759Y1547811*
X1939213Y1547561*
X1937577*
X1938849D02*
X1940122Y1544811D01*
X1941759Y1546811D02*
X1943940D01*
Y1547311*
X1943759Y1547811*
X1943577Y1548061*
X1943213Y1548311*
X1942668*
X1942304Y1548061*
X1941940Y1547561*
X1941759Y1546811*
Y1546311*
X1941940Y1545561*
X1942304Y1545061*
X1942668Y1544811*
X1943213*
X1943577Y1545061*
X1943940Y1545561*
X1945577Y1548311D02*
X1946668Y1544811D01*
X1947759Y1548311D02*
X1946668Y1544811D01*
X1949577Y1545311D02*
X1949395Y1545061D01*
X1949577Y1544811*
X1949759Y1545061*
X1949577Y1545311*
X1958304Y1548811D02*
X1958122Y1549311D01*
X1957759Y1549811*
X1957395Y1550061*
X1956668*
X1956304Y1549811*
X1955940Y1549311*
X1955759Y1548811*
X1955577Y1548061*
Y1546811*
X1955759Y1546061*
X1955940Y1545561*
X1956304Y1545061*
X1956668Y1544811*
X1957395*
X1957759Y1545061*
X1958122Y1545561*
X1958304Y1546061*
X1959940Y1549061D02*
X1960304Y1549311D01*
X1960849Y1550061*
X1960849D02*
Y1544811D01*
X1962486Y1551061D02*
X1962849Y1550561D01*
X1962849D02*
X1963213Y1549811D01*
X1963577Y1548811*
X1963759Y1547561*
Y1546561*
X1963577Y1545311*
X1963213Y1544311*
X1962849Y1543561*
X1962849D02*
X1962486Y1543061D01*
X1969577Y1547061D02*
X1972849D01*
X1979940Y1550061D02*
Y1544811D01*
X1978668Y1550061D02*
X1981213D01*
X1983759Y1548311D02*
X1983395Y1548061D01*
X1983031Y1547561*
X1982849Y1546811*
X1982849D02*
Y1546311D01*
X1982849D02*
X1983031Y1545561D01*
X1983395Y1545061*
X1983759Y1544811*
X1984304*
X1984668Y1545061*
X1985031Y1545561*
X1985213Y1546311*
Y1546811*
X1985031Y1547561*
X1984668Y1548061*
X1984304Y1548311*
X1983759*
X1986849D02*
Y1543061D01*
Y1547561D02*
X1987213Y1548061D01*
X1987577Y1548311*
X1988122*
X1988486Y1548061*
X1988849Y1547561*
X1988849D02*
X1989031Y1546811D01*
Y1546311*
X1988849Y1545561*
X1988849D02*
X1988486Y1545061D01*
X1988122Y1544811*
X1987577*
X1987213Y1545061*
X1986849Y1545561*
X1997395Y1549311D02*
X1997031Y1549811D01*
X1996486Y1550061*
X1995759*
X1995213Y1549811*
X1994849Y1549311*
X1994849D02*
Y1548811D01*
X1994849D02*
X1995031Y1548311D01*
X1995213Y1548061*
X1995577Y1547811*
X1996668Y1547311*
X1997031Y1547061*
X1997213Y1546811*
X1997395Y1546311*
Y1545561*
X1997031Y1545061*
X1996486Y1544811*
X1995759*
X1995213Y1545061*
X1994849Y1545561*
X1999031Y1550061D02*
X1999213Y1549811D01*
X1999395Y1550061*
X1999213Y1550311*
X1999031Y1550061*
X1999213Y1548311D02*
Y1544811D01*
X2003213Y1550061D02*
Y1544811D01*
Y1547561D02*
X2002849Y1548061D01*
X2002849D02*
X2002486Y1548311D01*
X2001940*
X2001577Y1548061*
X2001213Y1547561*
X2001031Y1546811*
Y1546311*
X2001213Y1545561*
X2001577Y1545061*
X2001940Y1544811*
X2002486*
X2002849Y1545061*
X2002849D02*
X2003213Y1545561D01*
X2004849Y1546811D02*
X2007031D01*
Y1547311*
X2006849Y1547811*
X2006849D02*
X2006668Y1548061D01*
X2006304Y1548311*
X2005759*
X2005395Y1548061*
X2005031Y1547561*
X2004849Y1546811*
X2004849D02*
Y1546311D01*
X2004849D02*
X2005031Y1545561D01*
X2005395Y1545061*
X2005759Y1544811*
X2006304*
X2006668Y1545061*
X2007031Y1545561*
X2012849Y1550061D02*
X2014304Y1544811D01*
X2015759Y1550061D02*
X2014304Y1544811D01*
X2017395Y1550061D02*
X2017577Y1549811D01*
X2017759Y1550061*
X2017577Y1550311*
X2017395Y1550061*
X2017577Y1548311D02*
Y1544811D01*
X2019395Y1546811D02*
X2021577D01*
Y1547311*
X2021395Y1547811*
X2021213Y1548061*
X2020849Y1548311*
X2020849D02*
X2020304D01*
X2019940Y1548061*
X2019577Y1547561*
X2019395Y1546811*
Y1546311*
X2019577Y1545561*
X2019940Y1545061*
X2020304Y1544811*
X2020849*
X2020849D02*
X2021213Y1545061D01*
X2021577Y1545561*
X2023213Y1548311D02*
X2023940Y1544811D01*
X2024668Y1548311D02*
X2023940Y1544811D01*
X2024668Y1548311D02*
X2025395Y1544811D01*
X2026122Y1548311D02*
X2025395Y1544811D01*
X2027940Y1545311D02*
X2027759Y1545061D01*
X2027940Y1544811*
X2028122Y1545061*
X2027940Y1545311*
X1865577Y1533186D02*
Y1527936D01*
Y1533186D02*
X1867213D01*
X1867759Y1532936*
X1867940Y1532686*
X1868122Y1532186*
Y1531686*
X1867940Y1531186*
X1867759Y1530936*
X1867213Y1530686*
X1865577D02*
X1867213D01*
X1867759Y1530436*
X1867940Y1530186*
X1868122Y1529686*
Y1528936*
X1867940Y1528436*
X1867759Y1528186*
X1867213Y1527936*
X1865577*
X1870668Y1531436D02*
X1870304Y1531186D01*
X1869940Y1530686*
X1869759Y1529936*
Y1529436*
X1869940Y1528686*
X1870304Y1528186*
X1870668Y1527936*
X1871213*
X1871577Y1528186*
X1871940Y1528686*
X1872122Y1529436*
Y1529936*
X1871940Y1530686*
X1871577Y1531186*
X1871213Y1531436*
X1870668*
X1874304Y1533186D02*
Y1528936D01*
X1874486Y1528186*
X1874849Y1527936*
X1874849D02*
X1875213D01*
X1873759Y1531436D02*
X1875031D01*
X1877395Y1533186D02*
Y1528936D01*
X1877577Y1528186*
X1877940Y1527936*
X1878304*
X1876849Y1531436D02*
X1878122D01*
X1880849D02*
X1880486Y1531186D01*
X1880122Y1530686*
X1879940Y1529936*
Y1529436*
X1880122Y1528686*
X1880486Y1528186*
X1880849Y1527936*
X1880849D02*
X1881395D01*
X1881759Y1528186*
X1882122Y1528686*
X1882304Y1529436*
Y1529936*
X1882122Y1530686*
X1881759Y1531186*
X1881395Y1531436*
X1880849*
X1883940D02*
Y1527936D01*
Y1530436D02*
X1884486Y1531186D01*
X1884849Y1531436*
X1884849D02*
X1885395D01*
X1885759Y1531186*
X1885940Y1530436*
Y1527936*
Y1530436D02*
X1886486Y1531186D01*
X1886849Y1531436*
X1886849D02*
X1887395D01*
X1887759Y1531186*
X1887940Y1530436*
Y1527936*
X1896304Y1532436D02*
X1895940Y1532936D01*
X1895395Y1533186*
X1894668*
X1894122Y1532936*
X1893759Y1532436*
Y1531936*
X1893940Y1531436*
X1894122Y1531186*
X1894486Y1530936*
X1895577Y1530436*
X1895940Y1530186*
X1896122Y1529936*
X1896304Y1529436*
Y1528686*
X1895940Y1528186*
X1895395Y1527936*
X1894668*
X1894122Y1528186*
X1893759Y1528686*
X1897940Y1533186D02*
X1898122Y1532936D01*
X1898304Y1533186*
X1898122Y1533436*
X1897940Y1533186*
X1898122Y1531436D02*
Y1527936D01*
X1902122Y1533186D02*
Y1527936D01*
Y1530686D02*
X1901759Y1531186D01*
X1901395Y1531436*
X1900849*
X1900849D02*
X1900486Y1531186D01*
X1900122Y1530686*
X1899940Y1529936*
Y1529436*
X1900122Y1528686*
X1900486Y1528186*
X1900849Y1527936*
X1900849D02*
X1901395D01*
X1901759Y1528186*
X1902122Y1528686*
X1903759Y1529936D02*
X1905940D01*
Y1530436*
X1905759Y1530936*
X1905577Y1531186*
X1905213Y1531436*
X1904668*
X1904304Y1531186*
X1903940Y1530686*
X1903759Y1529936*
Y1529436*
X1903940Y1528686*
X1904304Y1528186*
X1904668Y1527936*
X1905213*
X1905577Y1528186*
X1905940Y1528686*
X1911759Y1530186D02*
X1915031D01*
X1920849Y1533186D02*
Y1527936D01*
X1920849D02*
X1923031D01*
X1926849Y1531436D02*
Y1527936D01*
Y1530686D02*
X1926486Y1531186D01*
X1926122Y1531436*
X1925577*
X1925213Y1531186*
X1924849Y1530686*
X1924849D02*
X1924668Y1529936D01*
Y1529436*
X1924849Y1528686*
X1924849D02*
X1925213Y1528186D01*
X1925577Y1527936*
X1926122*
X1926486Y1528186*
X1926849Y1528686*
X1928668Y1531436D02*
X1929759Y1527936D01*
X1930849Y1531436D02*
X1929759Y1527936D01*
X1929395Y1526936*
X1929031Y1526436*
X1928668Y1526186*
X1928486*
X1932486Y1529936D02*
X1934668D01*
Y1530436*
X1934486Y1530936*
X1934304Y1531186*
X1933940Y1531436*
X1933395*
X1933031Y1531186*
X1932668Y1530686*
X1932486Y1529936*
Y1529436*
X1932668Y1528686*
X1933031Y1528186*
X1933395Y1527936*
X1933940*
X1934304Y1528186*
X1934668Y1528686*
X1936304Y1531436D02*
Y1527936D01*
Y1529936D02*
X1936486Y1530686D01*
X1936849Y1531186*
X1936849D02*
X1937213Y1531436D01*
X1937759*
X1943759Y1531936D02*
Y1532186D01*
X1943940Y1532686*
X1944122Y1532936*
X1944486Y1533186*
X1945213*
X1945577Y1532936*
X1945759Y1532686*
X1945940Y1532186*
Y1531686*
X1945759Y1531186*
X1945395Y1530436*
X1943577Y1527936*
X1946122*
G54D16*
X1960523Y1604969D02*
X1959548Y1603994D01*
X1954331Y1604969D02*
X1955306Y1603994D01*
X1954331Y1598777D02*
X1955306Y1599752D01*
X1960523Y1598777D02*
X1959548Y1599752D01*
X1923770Y1578885D02*
X1922796Y1577911D01*
X1917226Y1578885D02*
X1918200Y1577911D01*
X2074155Y1574712D02*
X2075129Y1573738D01*
X2080700Y1574712D02*
X2079725Y1573738D01*
G54D17*
X1846207Y1555928D02*
Y1556428D01*
Y1555928D02*
X1846707D01*
X1846207D02*
Y1555428D01*
Y1555928D02*
X1845707D01*
X1847707D02*
X1852707D01*
X1846207Y1554428D02*
Y1551028D01*
Y1557428D02*
Y1561928D01*
X1840207Y1555928D02*
X1844707D01*
X1849207D02*
G75*
G03X1849207I-3000J0D01*
G01X1848207D02*
G03X1848207I-2000J0D01*
G01X1846207Y1666164D02*
Y1666664D01*
Y1666164D02*
X1846707D01*
X1846207D02*
Y1665664D01*
Y1666164D02*
X1845707D01*
X1847707D02*
X1852707D01*
X1846207Y1664664D02*
Y1661264D01*
Y1667664D02*
Y1672164D01*
X1840207Y1666164D02*
X1844707D01*
X1849207D02*
G03X1849207I-3000J0D01*
G01X1848207D02*
G03X1848207I-2000J0D01*
G01X2153293Y1664196D02*
Y1664696D01*
Y1664196D02*
X2153793D01*
X2153293D02*
Y1663696D01*
Y1664196D02*
X2152793D01*
X2154793D02*
X2159793D01*
X2153293Y1662696D02*
Y1659296D01*
Y1665696D02*
Y1670196D01*
X2147293Y1664196D02*
X2151793D01*
X2156293D02*
G03X2156293I-3000J0D01*
G01X2155293D02*
G03X2155293I-2000J0D01*
G54D18*
G54D21*
G01X1952506Y1613802D02*
X1955065Y1616361D01*
X1959396*
X1961955Y1618920*
Y1624432*
X1967467Y1629944*
X1918254Y1623841D02*
X1911167D01*
X1909199Y1625810*
X1918254Y1623841D02*
X1918451Y1624038D01*
X1930104Y1568723D02*
X1891482D01*
X1890341Y1569865*
Y1575456*
X1890498Y1575613*
X1930104Y1568723D02*
X1930262D01*
X1930852Y1569314*
X1964317Y1617936D02*
Y1623251D01*
X1922585Y1592345D02*
X1921600D01*
X1914120Y1599826*
Y1603172*
X1913136Y1604156*
X1910183*
X1902309Y1612030*
Y1620889*
X1897388Y1625810*
X1928490Y1570692D02*
X1905419D01*
X1900498Y1575613*
X1928490Y1570692D02*
X1933411Y1575613D01*
X1926915Y1626794D02*
Y1627188D01*
X1943254*
X1957427Y1621873D02*
Y1623841D01*
X1963530Y1629944*
X2050931Y1618920D02*
Y1619314D01*
X2051522Y1619904*
Y1638605*
X2049553Y1640574*
X2039120*
X2034199Y1645495*
X2027309*
X2002900Y1624235D02*
X2005262Y1626597D01*
Y1636243*
X2004081Y1637424*
X1996994Y1626794D02*
X1998963Y1628763D01*
Y1637818*
X1996207Y1640574*
Y1642739*
X2053884Y1573644D02*
Y1589393D01*
X1999750Y1587424D02*
X1972191D01*
X1970222Y1589393*
X1999750Y1587424D02*
X2004671Y1592345D01*
X2001325Y1626794D02*
X2000537Y1627581D01*
Y1639589*
X1998963Y1641164*
X1993451Y1627581D02*
X1992663Y1628369D01*
Y1635062*
X1983215Y1644511*
X1977309*
X2027309Y1571676D02*
Y1583487D01*
X2010577Y1645298D02*
X2010774Y1645495D01*
X2027309*
X2002900Y1629353D02*
Y1634274D01*
G54D30*
X2102112Y1631105D03*
Y1646105D03*
X2121797Y1631105D03*
Y1646105D03*
G54D33*
X1957427Y1601873D03*
X2047978Y1649432D03*
X2002703D03*
G54D36*
X1897781Y1606125D03*
X1897388Y1617936D03*
X1897781Y1594314D03*
X1871797Y1574629D03*
X1897781Y1602188D03*
X1905262Y1622857D03*
X1969238Y1594707D03*
X1917073Y1591361D03*
X1947585Y1580534D03*
X1928293Y1588408D03*
X1973175Y1594904D03*
X1947388Y1598251D03*
X1930852Y1580534D03*
X1957427Y1621873D03*
X1928884Y1592345D03*
X1908608Y1619314D03*
X1934789Y1580534D03*
X1970222Y1589393D03*
X1967270Y1610652D03*
X1964120Y1614393D03*
X1938726Y1580534D03*
X1986955Y1613015D03*
X1998766Y1619904D03*
X2053884Y1589393D03*
X2036758Y1620889D03*
X2056837Y1614196D03*
X2053884Y1573644D03*
X1987545Y1609078D03*
X2027309Y1583487D03*
X1982033Y1591361D03*
X2012545Y1605141D03*
Y1609078D03*
Y1601204D03*
X2031246Y1599235D03*
X2046010Y1603172D03*
Y1607109D03*
X2004671Y1592345D03*
X2032033Y1575613D03*
X2027309Y1571676D03*
X2032033D03*
X2046010Y1626991D03*
X2078884Y1614196D03*
X2075341Y1609078D03*
X2071600Y1571676D03*
X1896404Y1635652D03*
X1877703Y1651400D03*
X1910746Y1649432D03*
X1948569Y1648054D03*
X1949947Y1629747D03*
X1936758Y1646873D03*
X1918057Y1637621D03*
X1959396Y1629747D03*
X1983608Y1628763D03*
X2025341Y1641558D03*
X2010577Y1645298D03*
X1991089Y1647660D03*
X2046994Y1637621D03*
X2030262Y1649432D03*
X2036758Y1638605D03*
X1995813Y1630731D03*
G54D40*
X1937742Y1605141D02*
Y1607109D01*
X1964120Y1614393D02*
X1966679D01*
X1968254Y1616164*
Y1624826*
X1972191Y1628763*
X1986955Y1613015D02*
X1983608Y1616361D01*
Y1628763*
X2056837Y1614196D02*
X2054868Y1616164D01*
Y1641558*
X2052900Y1643526*
X2041876*
X2036167Y1649235*
X2030459*
X2030262Y1649432*
X1949947Y1629747D02*
Y1634668D01*
X1948569Y1636046*
Y1648054*
X1972191Y1628763D02*
X1983608D01*
X1995813Y1630731D02*
Y1636637D01*
X1991089Y1641361*
Y1647660*
G54D41*
X2047978Y1620889D02*
X2048963Y1622201D01*
Y1635652*
X2046994Y1637621*
X1989907Y1603172D02*
X1999750D01*
G54D44*
X1870222Y1596046D02*
X1874750D01*
X1884829Y1606125*
X1887545*
X1933805Y1589983D02*
X1940695D01*
X1943057Y1592345*
X1933805Y1589983D02*
X1931443Y1592345D01*
X1928884*
X1934199Y1594314D02*
X1930262Y1598251D01*
X1924947*
X1920321Y1602877*
Y1606420*
X1917073Y1609668*
X1928293Y1588408D02*
X1926915D01*
X1925537Y1589786*
Y1593920*
X1924159Y1595298*
X1922978*
X1917073Y1601204*
Y1604156*
X1914120Y1607109*
X1911167*
X1905262Y1613015*
Y1622857*
X1897388Y1625810D03*
X1917073Y1609668D03*
X1934199Y1594314D03*
X1952506Y1613802D03*
X1943254Y1627188D03*
X1978096Y1618920D03*
X1975144Y1615967D03*
Y1621873D03*
Y1618920D03*
X1972191D03*
Y1615967D03*
X1978096D03*
X1972191Y1621873D03*
X1941679Y1603172D03*
X1929868D03*
X1978096Y1621873D03*
X1933411Y1575613D03*
X1964317Y1617936D03*
Y1623251D03*
X1930852Y1569314D03*
X1922585Y1592345D03*
X1937742Y1603172D03*
X1918451Y1624038D03*
X1925931Y1603172D03*
X1933805D03*
X1926915Y1626794D03*
X1925931Y1607109D03*
X1929868D03*
Y1618920D03*
X1925931D03*
X1941679Y1607109D03*
X1933805Y1618920D03*
X1937742D03*
X1941679D03*
Y1614983D03*
Y1611046D03*
X1937742Y1607109D03*
Y1611046D03*
X1909199Y1625810D03*
X1925931Y1611046D03*
Y1614983D03*
X1937742D03*
X1933805D03*
Y1611046D03*
Y1607109D03*
X1929868Y1611046D03*
Y1614983D03*
X1943057Y1601794D03*
X2050931Y1618920D03*
X2047978Y1620889D03*
X2002900Y1624235D03*
X1989907Y1603172D03*
X1996994Y1626794D03*
X1999750Y1603172D03*
X2001325Y1626794D03*
X1985970Y1603172D03*
X1993451Y1627581D03*
X2012545Y1613999D03*
X2023372Y1615967D03*
X2035380Y1611440D03*
X2036167Y1606125D03*
X2019435Y1623841D03*
X2023372Y1612030D03*
Y1623841D03*
X2015498D03*
X2017467Y1617936D03*
Y1613999D03*
X2015498Y1619904D03*
Y1615967D03*
Y1612030D03*
X2021404Y1613999D03*
X2019435Y1612030D03*
X2021404Y1617936D03*
X2019435Y1615967D03*
X2021404Y1621873D03*
X2017467D03*
X2019435Y1619904D03*
X2023372D03*
X1967467Y1629944D03*
X1977309Y1644511D03*
X1972191Y1628763D03*
X1963530Y1629944D03*
X2004081Y1637424D03*
X1998963Y1641164D03*
X2002900Y1629353D03*
Y1634274D03*
X1996207Y1642739D03*
G54D63*
X2036167Y1606125D02*
Y1610062D01*
X2035380Y1611440*
G54D67*
X2128175Y1631105D02*
G03X2128175I-6378J0D01*
G01Y1646105D02*
G03X2128175I-6378J0D01*
G01X2108490Y1631105D02*
G03X2108490I-6378J0D01*
G01Y1646105D02*
G03X2108490I-6378J0D01*
G01X2092055Y1581440D02*
G03X2092055I-4628J0D01*
G01Y1591440D02*
G03X2092055I-4628J0D01*
G01Y1601440D02*
G03X2092055I-4628J0D01*
G01X2082055Y1581440D02*
G03X2082055I-4628J0D01*
G01Y1591440D02*
G03X2082055I-4628J0D01*
G01Y1601440D02*
G03X2082055I-4628J0D01*
G01X1913502Y1649432D02*
G03X1913502I-2756J0D01*
G01X1961805Y1601873D02*
G03X1961805I-4378J0D01*
G01X1948766Y1568133D02*
Y1605534D01*
G03X1948569Y1605731I-197J0*
G01X1947073*
G03X1946877Y1605515I0J-197*
G01X1946896Y1605141D02*
G03X1946877Y1605515I-3839J-0D01*
G01X1946896Y1605141D02*
Y1603478D01*
X1945279Y1600348D02*
G03X1946896Y1603478I-2222J3130D01*
G01X1945279Y1600348D02*
G03X1945257Y1600330I114J-161D01*
G01X1944904Y1600087D02*
G03X1945257Y1600330I-597J1241D01*
G01X1944904Y1600087D02*
G03X1944829Y1600022I86J-178D01*
G01X1944778*
G03X1944719Y1600013I0J-196*
G01X1944705Y1600009D02*
G03X1944719Y1600013I-398J1319D01*
G01X1944705Y1600009D02*
G03X1944678Y1599999I57J-188D01*
G01X1941436D02*
G03X1944678I1621J3479D01*
G01X1941436D02*
G03X1941409Y1600009I-83J-178D01*
G01X1941395Y1600013D02*
G03X1941409Y1600009I412J1315D01*
G01X1941395Y1600013D02*
G03X1941336Y1600022I-59J-187D01*
G01X1932306*
G03X1932167Y1599686I0J-196*
G01X1935869Y1595984*
X1932528Y1592643D02*
G03X1935869Y1595984I1671J1671D01*
G01X1932528Y1592643D02*
X1929341Y1595831D01*
G03X1929202Y1595889I-139J-139*
G01X1927384*
G03X1927242Y1595555I0J-197*
G01X1927900Y1593920D02*
G03X1927242Y1595555I-2363J0D01*
G01X1927900Y1593920D02*
Y1591354D01*
G03X1928110Y1591158I196J0*
G01X1926915Y1586022D02*
G03X1928110Y1591158I1378J2386D01*
G01X1926915Y1586022D02*
G03X1926824Y1586048I-98J-171D01*
G01X1925245Y1586738D02*
G03X1926824Y1586048I1670J1670D01*
G01X1925245Y1586738D02*
X1923867Y1588116D01*
X1923175Y1589786D02*
G03X1923867Y1588116I2362J0D01*
G01X1923175Y1589786D02*
Y1589817D01*
G03X1922948Y1590011I-197J-0*
G01X1920877Y1590714D02*
G03X1922948Y1590011I1708J1631D01*
G01X1920877Y1590714D02*
G03X1920821Y1590754I-143J-136D01*
G01X1920348Y1591093D02*
G03X1920821Y1590754I1252J1252D01*
G01X1920348Y1591093D02*
X1912867Y1598573D01*
X1912348Y1599826D02*
G03X1912867Y1598573I1772J-0D01*
G01X1912348Y1599826D02*
Y1602188D01*
G03X1912152Y1602385I-196J-0*
G01X1910183*
X1908930Y1602904D02*
G03X1910183Y1602385I1253J1252D01*
G01X1908930Y1602904D02*
X1901056Y1610778D01*
X1900537Y1612030D02*
G03X1901056Y1610778I1772J0D01*
G01X1900537Y1612030D02*
Y1620073D01*
G03X1900480Y1620212I-196J0*
G01X1897291Y1623401*
G03X1897170Y1623458I-139J-139*
G01X1899740Y1626027D02*
G03X1897170Y1623458I-2352J-217D01*
G01X1899740Y1626027D02*
G03X1899797Y1625906I196J19D01*
G01X1901776Y1623927*
G03X1902112Y1624066I139J139*
G01Y1645576*
X1904023Y1647487*
G03X1904081Y1647626I-139J139*
G01Y1653959*
G03X1903884Y1654156I-197J0*
G01X1860380*
G03X1860183Y1653959I-0J-197*
G01Y1568133*
G03X1860380Y1567936I197J-0*
G01X1889289*
G03X1889428Y1568272I-0J197*
G01X1889088Y1568612*
X1888569Y1569865D02*
G03X1889088Y1568612I1772J-0D01*
G01X1888569Y1569865D02*
Y1570788D01*
G03X1888372Y1570985I-197J0*
G01X1887248*
X1885870Y1572363D02*
G03X1887248Y1570985I1378J-0D01*
G01X1885870Y1572363D02*
Y1578863D01*
Y1578883D02*
G03Y1578863I1378J-20D01*
G01Y1578883D02*
G03X1885558Y1579045I-197J3D01*
G01X1875137Y1582887D02*
G03X1885558Y1579045I6503J1584D01*
G01X1875137Y1582887D02*
G03X1874783Y1582951I-191J-47D01*
G01X1867563Y1590874D02*
G03X1874783Y1582951I2659J-4828D01*
G01X1867563Y1590874D02*
G03Y1591218I-95J172D01*
G01Y1600874D02*
G03Y1591218I2659J-4828D01*
G01Y1600874D02*
G03Y1601218I-95J172D01*
G01Y1610874D02*
G03Y1601218I2659J-4828D01*
G01Y1610874D02*
G03Y1611218I-95J172D01*
G01Y1620874D02*
G03Y1611218I2659J-4828D01*
G01Y1620874D02*
G03Y1621218I-95J172D01*
G01X1866587Y1630189D02*
G03X1867563Y1621218I3635J-4143D01*
G01X1866587Y1630189D02*
G03X1866458Y1630534I-129J148D01*
G01X1866089*
X1864711Y1631912D02*
G03X1866089Y1630534I1378J0D01*
G01X1864711Y1631912D02*
Y1640180D01*
X1866089Y1641558D02*
G03X1864711Y1640180I-0J-1378D01*
G01X1866089Y1641558D02*
X1874356D01*
X1875503Y1640945D02*
G03X1874356Y1641558I-1147J-765D01*
G01X1875503Y1640945D02*
G03X1875837Y1640956I163J109D01*
G01X1884351Y1631502D02*
G03X1875837Y1640956I-2711J6119D01*
G01X1884351Y1631502D02*
G03X1884431Y1631125I80J-180D01*
G01X1892467*
X1893845Y1629747D02*
G03X1892467Y1631125I-1378J-0D01*
G01X1893845Y1629747D02*
Y1621873D01*
X1892467Y1620495D02*
G03X1893845Y1621873I-0J1378D01*
G01X1892467Y1620495D02*
X1891939D01*
G03X1891817Y1620143I0J-197*
G01X1890923Y1611222D02*
G03X1891817Y1620143I-2393J4745D01*
G01X1890923Y1611222D02*
G03Y1610870I89J-176D01*
G01Y1601379D02*
G03Y1610870I-2393J4746D01*
G01Y1601379D02*
G03Y1601028I89J-175D01*
G01X1888530Y1590967D02*
G03X1890923Y1601028I-0J5315D01*
G01X1888530Y1590967D02*
X1886561D01*
X1884167Y1601028D02*
G03X1886561Y1590967I2394J-4746D01*
G01X1884167Y1601028D02*
G03Y1601379I-88J176D01*
G01X1883824Y1601569D02*
G03X1884167Y1601379I2737J4556D01*
G01X1883824Y1601569D02*
G03X1883584Y1601539I-101J-169D01*
G01X1876420Y1594376*
X1875315Y1593752D02*
G03X1876420Y1594376I-565J2294D01*
G01X1875315Y1593752D02*
G03X1875185Y1593647I47J-191D01*
G01X1872882Y1591218D02*
G03X1875185Y1593647I-2660J4828D01*
G01X1872882Y1591218D02*
G03Y1590874I95J-172D01*
G01X1875451Y1587791D02*
G03X1872882Y1590874I-5229J-1745D01*
G01X1875451Y1587791D02*
G03X1875809Y1587757I186J63D01*
G01X1887066Y1580553D02*
G03X1875809Y1587757I-5426J3918D01*
G01X1887066Y1580553D02*
G03X1887228Y1580241I159J-115D01*
G01X1887248D02*
G03X1887228I0J-1378D01*
G01X1887248D02*
X1893748D01*
X1895126Y1578863D02*
G03X1893748Y1580241I-1378J-0D01*
G01X1895126Y1578863D02*
Y1572363D01*
X1893748Y1570985D02*
G03X1895126Y1572363I0J1378D01*
G01X1893748Y1570985D02*
X1892309D01*
G03X1892112Y1570788I0J-197*
G01Y1570692*
G03X1892309Y1570495I197J-0*
G01X1902635*
G03X1902775Y1570831I0J197*
G01X1902360Y1571245*
G03X1902151Y1571290I-139J-139*
G01X1904821Y1573960D02*
G03X1902151Y1571290I-4323J1653D01*
G01X1904821Y1573960D02*
G03X1904866Y1573751I184J-70D01*
G01X1906095Y1572521*
G03X1906235Y1572463I140J139*
G01X1906682*
G03X1906838Y1572781I0J197*
G01X1914158D02*
G03X1906838I-3660J2832D01*
G01X1914158D02*
G03X1914314Y1572463I156J-121D01*
G01X1916682*
G03X1916838Y1572781I0J197*
G01X1924158D02*
G03X1916838I-3660J2832D01*
G01X1924158D02*
G03X1924314Y1572463I156J-121D01*
G01X1927675*
G03X1927814Y1572521I-0J197*
G01X1931002Y1575710*
G03X1931059Y1575831I-139J139*
G01X1933629Y1573261D02*
G03X1931059Y1575831I-218J2352D01*
G01X1933629Y1573261D02*
G03X1933508Y1573204I18J-196D01*
G01X1931980Y1571676*
G03X1932022Y1571366I139J-139*
G01X1932948Y1568224D02*
G03X1932022Y1571366I-2096J1090D01*
G01X1932948Y1568224D02*
G03X1933123Y1567936I175J-91D01*
G01X1948569*
G03X1948766Y1568133I-0J197*
G01X2131443D02*
Y1653959D01*
G03X2131246Y1654156I-197J0*
G01X2048634*
G03X2048606Y1653765I0J-197*
G01X2051473Y1646795D02*
G03X2048606Y1653765I-3495J2637D01*
G01X2051473Y1646795D02*
G03X2051630Y1646479I157J-119D01*
G01X2052900*
X2054988Y1645614D02*
G03X2052900Y1646479I-2088J-2088D01*
G01X2054988Y1645614D02*
X2056956Y1643646D01*
X2057821Y1641558D02*
G03X2056956Y1643646I-2953J-0D01*
G01X2057821Y1641558D02*
Y1617469D01*
G03X2057879Y1617330I197J-0*
G01X2058925Y1616284*
X2054749Y1612108D02*
G03X2058925Y1616284I2088J2088D01*
G01X2054749Y1612108D02*
X2052780Y1614076D01*
X2051915Y1616164D02*
G03X2052780Y1614076I2953J0D01*
G01X2051915Y1616164D02*
Y1616485D01*
G03X2051658Y1616672I-197J0*
G01X2048624Y1618412D02*
G03X2051658Y1616672I2307J508D01*
G01X2048624Y1618412D02*
G03X2048397Y1618564I-192J-42D01*
G01X2046706Y1622879D02*
G03X2048397Y1618564I1272J-1990D01*
G01X2046706Y1622879D02*
G03X2046797Y1623045I-106J166D01*
G01Y1634674*
G03X2046740Y1634813I-197J-0*
G01X2046716Y1634837*
G03X2046604Y1634893I-139J-139*
G01X2044396Y1638539D02*
G03X2046604Y1634893I2598J-918D01*
G01X2044396Y1638539D02*
G03X2044210Y1638802I-186J66D01*
G01X2039120*
X2037867Y1639321D02*
G03X2039120Y1638802I1253J1253D01*
G01X2037867Y1639321D02*
X2033523Y1643666D01*
G03X2033383Y1643723I-140J-140*
G01X2027309*
X2012939*
G03X2012782Y1643644I-0J-197*
G01X2012450Y1647319D02*
G03X2012782Y1643644I-1873J-2021D01*
G01X2012450Y1647319D02*
G03X2012584Y1647267I134J144D01*
G01X2027309*
X2027803*
G03X2027957Y1647586I0J196*
G01X2031289Y1652200D02*
G03X2027957Y1647586I-1027J-2768D01*
G01X2031289Y1652200D02*
G03X2031358Y1652188I69J185D01*
G01X2036167*
X2038255Y1651323D02*
G03X2036167Y1652188I-2088J-2088D01*
G01X2038255Y1651323D02*
X2043041Y1646537D01*
G03X2043181Y1646479I140J139*
G01X2044327*
G03X2044484Y1646795I-0J197*
G01X2047351Y1653765D02*
G03X2044484Y1646795I627J-4333D01*
G01X2047351Y1653765D02*
G03X2047322Y1654156I-29J194D01*
G01X2003359*
G03X2003331Y1653765I-0J-197*
G01X2002075D02*
G03X2003331I628J-4333D01*
G01X2002075D02*
G03X2002047Y1654156I-28J194D01*
G01X1907624*
G03X1907427Y1653959I0J-197*
G01Y1647009*
X1904530Y1644015*
G03X1904474Y1643878I141J-137*
G01Y1626957*
G03X1904532Y1626818I197J0*
G01X1905746Y1625604*
G03X1905844Y1625551I139J139*
G01X1906571Y1625282D02*
G03X1905844Y1625551I-1309J-2425D01*
G01X1906571Y1625282D02*
G03X1906859Y1625483I93J173D01*
G01X1911551Y1626027D02*
G03X1906859Y1625483I-2352J-217D01*
G01X1911551Y1626027D02*
G03X1911608Y1625906I196J19D01*
G01X1911844Y1625671*
G03X1911983Y1625613I139J139*
G01X1916604*
G03X1916746Y1625674I0J197*
G01X1917192Y1622039D02*
G03X1916746Y1625674I1259J1999D01*
G01X1917192Y1622039D02*
G03X1917087Y1622070I-105J-166D01*
G01X1911167*
X1909915Y1622589D02*
G03X1911167Y1622070I1252J1252D01*
G01X1909915Y1622589D02*
X1909102Y1623401D01*
G03X1908981Y1623458I-139J-139*
G01X1908230Y1623656D02*
G03X1908981Y1623458I969J2154D01*
G01X1908230Y1623656D02*
G03X1907957Y1623435I-81J-180D01*
G01X1907650Y1621482D02*
G03X1907957Y1623435I-2388J1375D01*
G01X1907650Y1621482D02*
G03X1907624Y1621384I171J-98D01*
G01Y1616918*
G03X1907682Y1616779I197J-0*
G01X1913947Y1610513*
G03X1914086Y1610456I139J139*
G01X1914711*
G03X1914892Y1610577I-0J196*
G01X1918743Y1611338D02*
G03X1914892Y1610577I-1670J-1670D01*
G01X1918743Y1611338D02*
X1919568Y1610513D01*
G03X1919708Y1610456I140J139*
G01X1921913*
X1922634Y1610281D02*
G03X1921913Y1610456I-721J-1400D01*
G01X1922634Y1610281D02*
G03X1922724Y1610259I90J175D01*
G01X1924159*
Y1608823*
G03X1924181Y1608733I197J0*
G01X1924356Y1608012D02*
G03X1924181Y1608733I-1575J-0D01*
G01X1924356Y1608012D02*
Y1602581D01*
G03X1924553Y1602385I197J0*
G01X1939099*
G03X1939292Y1602543I0J196*
G01X1940460Y1604621D02*
G03X1939292Y1602543I2597J-2827D01*
G01X1940460Y1604621D02*
G03X1940512Y1604699I-133J145D01*
G01X1941807Y1605606D02*
G03X1940512Y1604698I0J-1378D01*
G01X1941807Y1605606D02*
X1942596D01*
G03X1942619Y1605608I0J197*
G01X1943057Y1605633D02*
G03X1942619Y1605608I0J-3839D01*
G01X1943057Y1605633D02*
G03X1943254Y1605830I0J197D01*
G01Y1605928*
X1943429Y1606649D02*
G03X1943254Y1605928I1400J-721D01*
G01X1943429Y1606649D02*
G03X1943451Y1606740I-175J91D01*
G01Y1607306*
X1944017*
G03X1944107Y1607328I0J197*
G01X1944829Y1607503D02*
G03X1944107Y1607328I-0J-1575D01*
G01X1944829Y1607503D02*
X1948766D01*
X1949487Y1607328D02*
G03X1948766Y1607503I-721J-1400D01*
G01X1949487Y1607328D02*
G03X1949577Y1607306I90J175D01*
G01X1950931*
Y1568133*
G03X1951128Y1567936I197J-0*
G01X2073914*
G03X2074057Y1568268I0J197*
G01X2080797D02*
G03X2074057I-3370J3172D01*
G01X2080797D02*
G03X2080940Y1567936I143J-135D01*
G01X2082603*
G03X2082800Y1568140I0J197*
G01X2082799Y1568190D02*
G03X2082800Y1568140I1378J-0D01*
G01X2082799Y1568190D02*
Y1574690D01*
X2084177Y1576068D02*
G03X2082799Y1574690I0J-1378D01*
G01X2084177Y1576068D02*
X2090677D01*
X2092055Y1574690D02*
G03X2090677Y1576068I-1378J-0D01*
G01X2092055Y1574690D02*
Y1568190D01*
X2092054Y1568140D02*
G03X2092055Y1568190I-1377J50D01*
G01X2092054Y1568140D02*
G03X2092251Y1567936I197J-7D01*
G01X2131246*
G03X2131443Y1568133I0J197*
G01X2128175Y1631105D02*
G03X2128175I-6378J0D01*
G01Y1646105D02*
G03X2128175I-6378J0D01*
G01X2108490Y1631105D02*
G03X2108490I-6378J0D01*
G01Y1646105D02*
G03X2108490I-6378J0D01*
G01X2092055Y1581440D02*
G03X2092055I-4628J0D01*
G01Y1591440D02*
G03X2092055I-4628J0D01*
G01Y1601440D02*
G03X2092055I-4628J0D01*
G01X2082055Y1581440D02*
G03X2082055I-4628J0D01*
G01Y1591440D02*
G03X2082055I-4628J0D01*
G01Y1601440D02*
G03X2082055I-4628J0D01*
G01X2055721Y1587338D02*
G03X2052047I-1837J2055D01*
G01X2055721D02*
G03X2055656Y1587192I131J-146D01*
G01Y1575845*
G03X2055721Y1575699I196J0*
G01X2052047D02*
G03X2055721I1837J-2055D01*
G01X2052047D02*
G03X2052112Y1575845I-132J146D01*
G01Y1587192*
G03X2052047Y1587338I-197J-0*
G01X2004518Y1589594D02*
G03X2001920Y1592192I153J2751D01*
G01X2004518Y1589594D02*
G03X2004368Y1589536I-11J-197D01*
G01X2001003Y1586171*
X1999750Y1585652D02*
G03X2001003Y1586171I0J1772D01*
G01X1999750Y1585652D02*
X1972191D01*
X1970938Y1586171D02*
G03X1972191Y1585652I1253J1253D01*
G01X1970938Y1586171D02*
X1970526Y1586584D01*
G03X1970376Y1586641I-139J-140*
G01X1972978Y1589393D02*
G03X1970376Y1586641I-2756J-0D01*
G01X1972978Y1589393D02*
G03X1973175Y1589196I197J-0D01*
G01X1998935*
G03X1999074Y1589253I-0J197*
G01X2001862Y1592042*
G03X2001920Y1592192I-139J139*
G01X1998841Y1600992D02*
G03Y1605353I909J2180D01*
G01Y1600992D02*
G03X1998766Y1601007I-75J-182D01*
G01X1990892*
G03X1990816Y1600992I-0J-197*
G01Y1605353D02*
G03Y1600992I-909J-2181D01*
G01Y1605353D02*
G03X1990892Y1605337I76J181D01*
G01X1998766*
G03X1998841Y1605353I-0J197*
G01X2007033Y1636243D02*
Y1626597D01*
X2006515Y1625344D02*
G03X2007033Y1626597I-1253J1253D01*
G01X2006515Y1625344D02*
X2005309Y1624139D01*
G03X2005252Y1624017I139J-140*
G01X2000544Y1624414D02*
G03X2005252Y1624017I2356J-179D01*
G01X2000544Y1624414D02*
G03X2000423Y1624611I-196J15D01*
G01X1999326Y1625535D02*
G03X2000423Y1624611I1999J1259D01*
G01X1999326Y1625535D02*
G03X1998993I-167J-105D01*
G01X1994997Y1625532D02*
G03X1998993Y1625535I1997J1262D01*
G01X1994997Y1625532D02*
G03X1994725Y1625592I-166J-105D01*
G01X1991090Y1627514D02*
G03X1994725Y1625592I2361J67D01*
G01X1991090Y1627514D02*
G03X1991070Y1627595I-197J-5D01*
G01X1990892Y1628369D02*
G03X1991070Y1627595I1771J-0D01*
G01X1990892Y1628369D02*
Y1634246D01*
G03X1990834Y1634386I-197J0*
G01X1982538Y1642681*
G03X1982399Y1642739I-139J-139*
G01X1978944*
G03X1978818Y1642694I0J-197*
G01Y1646328D02*
G03Y1642694I-1509J-1817D01*
G01Y1646328D02*
G03X1978944Y1646282I126J151D01*
G01X1983215*
X1984467Y1645763D02*
G03X1983215Y1646282I-1252J-1252D01*
G01X1984467Y1645763D02*
X1987800Y1642431D01*
G03X1988136Y1642570I139J139*
G01Y1647660*
X1994041D02*
G03X1988136I-2952J0D01*
G01X1994041D02*
Y1644374D01*
G03X1994390Y1644248I197J0*
G01X1998398Y1643621D02*
G03X1994390Y1644248I-2191J-882D01*
G01X1998398Y1643621D02*
G03X1998610Y1643500I183J74D01*
G01X2001315Y1641382D02*
G03X1998610Y1643500I-2352J-218D01*
G01X2001315Y1641382D02*
G03X2001372Y1641261I196J18D01*
G01X2001790Y1640842*
X2002309Y1639589D02*
G03X2001790Y1640842I-1772J0D01*
G01X2002309Y1639589D02*
Y1639441D01*
G03X2002627Y1639286I197J0*
G01X2006433Y1637642D02*
G03X2002627Y1639286I-2352J-218D01*
G01X2006433Y1637642D02*
G03X2006490Y1637521I196J18D01*
G01X2006515Y1637496*
X2007033Y1636243D02*
G03X2006515Y1637496I-1771J-0D01*
G01X1952900Y1634668D02*
Y1629747D01*
X1946994D02*
G03X1952900I2953J-0D01*
G01X1946994D02*
Y1633363D01*
G03X1946936Y1633503I-197J0*
G01X1946481Y1633958*
X1945616Y1636046D02*
G03X1946481Y1633958I2953J0D01*
G01X1945616Y1636046D02*
Y1648054D01*
X1951522D02*
G03X1945616I-2953J-0D01*
G01X1951522D02*
Y1637351D01*
G03X1951579Y1637211I197J-0*
G01X1952035Y1636756*
X1952900Y1634668D02*
G03X1952035Y1636756I-2953J0D01*
G01X1913502Y1649432D02*
G03X1913502I-2756J0D01*
G01X1941745Y1625371D02*
G03Y1629005I1509J1817D01*
G01Y1625371D02*
G03X1941619Y1625416I-126J-152D01*
G01X1928932*
G03X1928777Y1625340I0J-197*
G01X1927824Y1628975D02*
G03X1928777Y1625340I-909J-2181D01*
G01X1927824Y1628975D02*
G03X1927900Y1628959I76J181D01*
G01X1941619*
G03X1941745Y1629005I-0J197*
G01X1961805Y1601873D02*
G03X1961805I-4378J0D01*
G01X1984867Y1610927D02*
G03X1989043Y1615102I2088J2088D01*
G01X1984867Y1610927D02*
X1981520Y1614273D01*
X1980655Y1616361D02*
G03X1981520Y1614273I2953J0D01*
G01X1980655Y1616361D02*
Y1625613D01*
G03X1980459Y1625810I-196J-0*
G01X1973496*
G03X1973356Y1625752I-0J-197*
G01X1971264Y1623660*
G03X1971207Y1623521I140J-139*
G01Y1616164*
X1970461Y1614202D02*
G03X1971207Y1616164I-2207J1962D01*
G01X1970461Y1614202D02*
X1968886Y1612431D01*
X1966679Y1611440D02*
G03X1968886Y1612431I0J2953D01*
G01X1966679Y1611440D02*
X1964120D01*
X1961287Y1615224D02*
G03X1964120Y1611440I2833J-831D01*
G01X1961287Y1615224D02*
G03X1960959Y1615418I-189J55D01*
G01X1960959D02*
X1960648Y1615108D01*
X1959396Y1614589D02*
G03X1960648Y1615108I-0J1772D01*
G01X1959396Y1614589D02*
X1955880D01*
G03X1955741Y1614532I0J-197*
G01X1954915Y1613705*
G03X1954858Y1613584I139J-139*
G01X1952288Y1616154D02*
G03X1954858Y1613584I218J-2352D01*
G01X1952288Y1616154D02*
G03X1952409Y1616211I-18J196D01*
G01X1953812Y1617614*
X1955065Y1618133D02*
G03X1953812Y1617614I-0J-1772D01*
G01X1955065Y1618133D02*
X1958580D01*
G03X1958719Y1618190I0J197*
G01X1960125Y1619596*
G03X1960183Y1619735I-139J139*
G01Y1620400*
G03X1959816Y1620498I-197J-0*
G01X1955604Y1623940D02*
G03X1959816Y1620498I1823J-2067D01*
G01X1955604Y1623940D02*
G03X1955669Y1624063I-130J147D01*
G01X1956174Y1625094D02*
G03X1955669Y1624063I1253J-1253D01*
G01X1956174Y1625094D02*
X1961121Y1630040D01*
G03X1961177Y1630161I-140J139*
G01X1965347Y1631453D02*
G03X1961177Y1630161I-1817J-1509D01*
G01X1965347Y1631453D02*
G03X1965649I151J126D01*
G01X1969667Y1630804D02*
G03X1965649Y1631453I-2200J-860D01*
G01X1969667Y1630804D02*
G03X1969989Y1630737I183J72D01*
G01X1970103Y1630851*
X1972191Y1631715D02*
G03X1970103Y1630851I-0J-2952D01*
G01X1972191Y1631715D02*
X1983608D01*
X1986561Y1628763D02*
G03X1983608Y1631715I-2953J-0D01*
G01X1986561Y1628763D02*
Y1617666D01*
G03X1986619Y1617526I197J-0*
G01X1989043Y1615102*
X2034259Y1607518D02*
G03X2038075I1908J-1393D01*
G01X2034259D02*
G03X2034297Y1607634I-159J116D01*
G01Y1609224*
G03X2034199Y1609394I-197J-0*
G01X2037727Y1611177D02*
G03X2034199Y1609394I-2347J263D01*
G01X2037728Y1611177D02*
G03X2037752Y1611058I195J-22D01*
G01X2037791Y1610990*
X2038037Y1610062D02*
G03X2037791Y1610990I-1870J-0D01*
G01X2038037Y1610062D02*
Y1607634D01*
G03X2038075Y1607518I197J-0*
G01X2029146Y1581433D02*
G03X2025472I-1837J2054D01*
G01X2029146D02*
G03X2029081Y1581286I132J-147D01*
G01Y1573877*
G03X2029146Y1573730I197J-0*
G01X2025472D02*
G03X2029146I1837J-2054D01*
G01X2025472D02*
G03X2025537Y1573877I-131J147D01*
G01Y1581286*
G03X2025472Y1581433I-196J0*
G01X1946879Y1605494D02*
X1948766D01*
X1946896Y1605139D02*
X1948766D01*
X1946896Y1604785D02*
X1948766D01*
X1946896Y1604431D02*
X1948766D01*
X1946896Y1604076D02*
X1948766D01*
X1946896Y1603722D02*
X1948766D01*
X1946894Y1603368D02*
X1948766D01*
X1946867Y1603013D02*
X1948766D01*
X1946807Y1602659D02*
X1948766D01*
X1946712Y1602305D02*
X1948766D01*
X1946578Y1601950D02*
X1948766D01*
X1946402Y1601596D02*
X1948766D01*
X1946177Y1601242D02*
X1948766D01*
X1945889Y1600887D02*
X1948766D01*
X1945519Y1600533D02*
X1948766D01*
X1945067Y1600179D02*
X1948766D01*
X1944233Y1599824D02*
X1948766D01*
X1932383Y1599470D02*
X1948766D01*
X1932738Y1599116D02*
X1948766D01*
X1933092Y1598761D02*
X1948766D01*
X1933446Y1598407D02*
X1948766D01*
X1933801Y1598053D02*
X1948766D01*
X1934155Y1597698D02*
X1948766D01*
X1934509Y1597344D02*
X1948766D01*
X1934864Y1596990D02*
X1948766D01*
X1935218Y1596635D02*
X1948766D01*
X1935572Y1596281D02*
X1948766D01*
X1935925Y1595927D02*
X1948766D01*
X1936198Y1595572D02*
X1948766D01*
X1936381Y1595218D02*
X1948766D01*
X1936496Y1594864D02*
X1948766D01*
X1936553Y1594509D02*
X1948766D01*
X1936556Y1594155D02*
X1948766D01*
X1936505Y1593801D02*
X1948766D01*
X1936396Y1593446D02*
X1948766D01*
X1936221Y1593092D02*
X1948766D01*
X1935958Y1592738D02*
X1948766D01*
X1935560Y1592383D02*
X1948766D01*
X1934799Y1592029D02*
X1948766D01*
X1927900Y1591675D02*
X1948766D01*
X1927903Y1591320D02*
X1948766D01*
X1929320Y1590966D02*
X1948766D01*
X1929949Y1590612D02*
X1948766D01*
X1930337Y1590257D02*
X1948766D01*
X1930609Y1589903D02*
X1948766D01*
X1930802Y1589549D02*
X1948766D01*
X1930935Y1589194D02*
X1948766D01*
X1931015Y1588840D02*
X1948766D01*
X1931048Y1588486D02*
X1948766D01*
X1931035Y1588131D02*
X1948766D01*
X1930976Y1587777D02*
X1948766D01*
X1930867Y1587423D02*
X1948766D01*
X1930702Y1587068D02*
X1948766D01*
X1930467Y1586714D02*
X1948766D01*
X1930137Y1586360D02*
X1948766D01*
X1929643Y1586005D02*
X1948766D01*
X1888228Y1585651D02*
X1948766D01*
X1888282Y1585297D02*
X1948766D01*
X1888316Y1584942D02*
X1948766D01*
X1888332Y1584588D02*
X1948766D01*
X1888328Y1584234D02*
X1948766D01*
X1888306Y1583879D02*
X1948766D01*
X1888265Y1583525D02*
X1948766D01*
X1888205Y1583171D02*
X1948766D01*
X1888125Y1582816D02*
X1948766D01*
X1888024Y1582462D02*
X1948766D01*
X1887901Y1582108D02*
X1948766D01*
X1887756Y1581753D02*
X1948766D01*
X1887586Y1581399D02*
X1948766D01*
X1887389Y1581045D02*
X1948766D01*
X1887163Y1580690D02*
X1948766D01*
X1887057Y1580336D02*
X1948766D01*
X1922025Y1579982D02*
X1948766D01*
X1922801Y1579627D02*
X1948766D01*
X1923330Y1579273D02*
X1948766D01*
X1923737Y1578919D02*
X1948766D01*
X1924063Y1578564D02*
X1948766D01*
X1924329Y1578210D02*
X1948766D01*
X1934153Y1577856D02*
X1948766D01*
X1934831Y1577501D02*
X1948766D01*
X1935208Y1577147D02*
X1948766D01*
X1935458Y1576793D02*
X1948766D01*
X1935625Y1576438D02*
X1948766D01*
X1935726Y1576084D02*
X1948766D01*
X1935771Y1575730D02*
X1948766D01*
X1935762Y1575375D02*
X1948766D01*
X1935698Y1575021D02*
X1948766D01*
X1935576Y1574667D02*
X1948766D01*
X1935383Y1574312D02*
X1948766D01*
X1935097Y1573958D02*
X1948766D01*
X1934654Y1573604D02*
X1948766D01*
X1933579Y1573249D02*
X1948766D01*
X1933199Y1572895D02*
X1948766D01*
X1932845Y1572541D02*
X1948766D01*
X1932490Y1572186D02*
X1948766D01*
X1932136Y1571832D02*
X1948766D01*
X1931932Y1571478D02*
X1948766D01*
X1932371Y1571123D02*
X1948766D01*
X1932713Y1570769D02*
X1948766D01*
X1932942Y1570415D02*
X1948766D01*
X1933093Y1570060D02*
X1948766D01*
X1933182Y1569706D02*
X1948766D01*
X1933214Y1569352D02*
X1948766D01*
X1933193Y1568998D02*
X1948766D01*
X1933117Y1568643D02*
X1948766D01*
X1932981Y1568289D02*
X1948766D01*
X1932109Y1599824D02*
X1941881D01*
X1927900Y1592029D02*
X1933599D01*
X1927900Y1592383D02*
X1932837D01*
X1924546Y1577856D02*
X1932670D01*
X1927900Y1592738D02*
X1932434D01*
X1927900Y1593092D02*
X1932080D01*
X1924723Y1577501D02*
X1931992D01*
X1927900Y1593446D02*
X1931726D01*
X1924864Y1577147D02*
X1931615D01*
X1927900Y1593801D02*
X1931371D01*
X1924973Y1576793D02*
X1931365D01*
X1925052Y1576438D02*
X1931198D01*
X1925102Y1576084D02*
X1931097D01*
X1925125Y1575730D02*
X1931020D01*
X1927888Y1594155D02*
X1931017D01*
X1925120Y1575375D02*
X1930668D01*
X1927825Y1594509D02*
X1930663D01*
X1925088Y1575021D02*
X1930314D01*
X1927703Y1594864D02*
X1930308D01*
X1925028Y1574667D02*
X1929960D01*
X1927511Y1595218D02*
X1929954D01*
X1924940Y1574312D02*
X1929605D01*
X1927228Y1595572D02*
X1929600D01*
X1924820Y1573958D02*
X1929251D01*
X1924667Y1573604D02*
X1928897D01*
X1924477Y1573249D02*
X1928542D01*
X1924244Y1572895D02*
X1928188D01*
X1924157Y1572541D02*
X1927834D01*
X1888155Y1586005D02*
X1926944D01*
X1888061Y1586360D02*
X1925739D01*
X1887946Y1586714D02*
X1925269D01*
X1887808Y1587068D02*
X1924915D01*
X1887647Y1587423D02*
X1924560D01*
X1887459Y1587777D02*
X1924206D01*
X1887243Y1588131D02*
X1923852D01*
X1886995Y1588486D02*
X1923565D01*
X1886710Y1588840D02*
X1923373D01*
X1886382Y1589194D02*
X1923251D01*
X1886000Y1589549D02*
X1923187D01*
X1885550Y1589903D02*
X1923155D01*
X1885004Y1590257D02*
X1921480D01*
X1884303Y1590612D02*
X1920980D01*
X1883256Y1590966D02*
X1920488D01*
X1890434Y1591320D02*
X1920120D01*
X1891179Y1591675D02*
X1919765D01*
X1891717Y1592029D02*
X1919411D01*
X1892142Y1592383D02*
X1919057D01*
X1912025Y1579982D02*
X1918971D01*
X1892490Y1592738D02*
X1918702D01*
X1892781Y1593092D02*
X1918348D01*
X1912801Y1579627D02*
X1918195D01*
X1893025Y1593446D02*
X1917994D01*
X1913330Y1579273D02*
X1917666D01*
X1893230Y1593801D02*
X1917639D01*
X1893400Y1594155D02*
X1917285D01*
X1913737Y1578919D02*
X1917259D01*
X1914063Y1578564D02*
X1916933D01*
X1893540Y1594509D02*
X1916931D01*
X1914157Y1572541D02*
X1916839D01*
X1914244Y1572895D02*
X1916752D01*
X1914329Y1578210D02*
X1916667D01*
X1893652Y1594864D02*
X1916576D01*
X1914477Y1573249D02*
X1916519D01*
X1914546Y1577856D02*
X1916450D01*
X1914667Y1573604D02*
X1916329D01*
X1914723Y1577501D02*
X1916273D01*
X1893737Y1595218D02*
X1916222D01*
X1914820Y1573958D02*
X1916176D01*
X1914864Y1577147D02*
X1916132D01*
X1914940Y1574312D02*
X1916057D01*
X1914973Y1576793D02*
X1916023D01*
X1915028Y1574667D02*
X1915968D01*
X1915052Y1576438D02*
X1915944D01*
X1915088Y1575021D02*
X1915908D01*
X1915102Y1576084D02*
X1915894D01*
X1915120Y1575375D02*
X1915876D01*
X1915125Y1575730D02*
X1915872D01*
X1893797Y1595572D02*
X1915868D01*
X1893833Y1595927D02*
X1915514D01*
X1893845Y1596281D02*
X1915159D01*
X1893833Y1596635D02*
X1914805D01*
X1893797Y1596990D02*
X1914451D01*
X1893737Y1597344D02*
X1914096D01*
X1893652Y1597698D02*
X1913742D01*
X1893541Y1598053D02*
X1913388D01*
X1893401Y1598407D02*
X1913033D01*
X1893231Y1598761D02*
X1912704D01*
X1893026Y1599116D02*
X1912497D01*
X1892783Y1599470D02*
X1912384D01*
X1891819Y1601950D02*
X1912348D01*
X1891311Y1601596D02*
X1912348D01*
X1890819Y1601242D02*
X1912348D01*
X1891183Y1600887D02*
X1912348D01*
X1891720Y1600533D02*
X1912348D01*
X1892144Y1600179D02*
X1912348D01*
X1892492Y1599824D02*
X1912348D01*
X1892225Y1602305D02*
X1912310D01*
X1892559Y1602659D02*
X1909236D01*
X1902025Y1579982D02*
X1908971D01*
X1892839Y1603013D02*
X1908821D01*
X1893073Y1603368D02*
X1908466D01*
X1902801Y1579627D02*
X1908195D01*
X1893270Y1603722D02*
X1908112D01*
X1893434Y1604076D02*
X1907758D01*
X1903330Y1579273D02*
X1907666D01*
X1893567Y1604431D02*
X1907403D01*
X1903737Y1578919D02*
X1907259D01*
X1893673Y1604785D02*
X1907049D01*
X1904063Y1578564D02*
X1906933D01*
X1906076Y1572541D02*
X1906839D01*
X1905721Y1572895D02*
X1906752D01*
X1893752Y1605139D02*
X1906695D01*
X1904329Y1578210D02*
X1906667D01*
X1905367Y1573249D02*
X1906519D01*
X1904546Y1577856D02*
X1906450D01*
X1893807Y1605494D02*
X1906340D01*
X1905013Y1573604D02*
X1906329D01*
X1904723Y1577501D02*
X1906273D01*
X1904820Y1573958D02*
X1906176D01*
X1904864Y1577147D02*
X1906132D01*
X1904940Y1574312D02*
X1906057D01*
X1904973Y1576793D02*
X1906023D01*
X1893837Y1605848D02*
X1905986D01*
X1905028Y1574667D02*
X1905968D01*
X1905052Y1576438D02*
X1905944D01*
X1905088Y1575021D02*
X1905908D01*
X1905102Y1576084D02*
X1905894D01*
X1905120Y1575375D02*
X1905876D01*
X1905125Y1575730D02*
X1905872D01*
X1893844Y1606202D02*
X1905632D01*
X1893827Y1606557D02*
X1905277D01*
X1893786Y1606911D02*
X1904923D01*
X1893721Y1607265D02*
X1904569D01*
X1893630Y1607620D02*
X1904214D01*
X1860183Y1653683D02*
X1904081D01*
X1860183Y1653328D02*
X1904081D01*
X1860183Y1652974D02*
X1904081D01*
X1860183Y1652620D02*
X1904081D01*
X1860183Y1652265D02*
X1904081D01*
X1860183Y1651911D02*
X1904081D01*
X1860183Y1651557D02*
X1904081D01*
X1860183Y1651202D02*
X1904081D01*
X1860183Y1650848D02*
X1904081D01*
X1860183Y1650494D02*
X1904081D01*
X1860183Y1650139D02*
X1904081D01*
X1860183Y1649785D02*
X1904081D01*
X1860183Y1649431D02*
X1904081D01*
X1860183Y1649076D02*
X1904081D01*
X1860183Y1648722D02*
X1904081D01*
X1860183Y1648368D02*
X1904081D01*
X1860183Y1648013D02*
X1904081D01*
X1860183Y1647659D02*
X1904081D01*
X1860199Y1654037D02*
X1904065D01*
X1893512Y1607974D02*
X1903860D01*
X1860183Y1647305D02*
X1903840D01*
X1893366Y1608328D02*
X1903506D01*
X1860183Y1646950D02*
X1903486D01*
X1893189Y1608683D02*
X1903151D01*
X1860183Y1646596D02*
X1903132D01*
X1892112Y1570769D02*
X1902816D01*
X1892976Y1609037D02*
X1902797D01*
X1860183Y1646242D02*
X1902777D01*
X1901622Y1571123D02*
X1902482D01*
X1892722Y1609391D02*
X1902443D01*
X1860183Y1645887D02*
X1902423D01*
X1860183Y1645533D02*
X1902112D01*
X1860183Y1645179D02*
X1902112D01*
X1860183Y1644824D02*
X1902112D01*
X1860183Y1644470D02*
X1902112D01*
X1883256Y1644116D02*
X1902112D01*
X1884303Y1643761D02*
X1902112D01*
X1885004Y1643407D02*
X1902112D01*
X1885550Y1643053D02*
X1902112D01*
X1886000Y1642698D02*
X1902112D01*
X1886382Y1642344D02*
X1902112D01*
X1886710Y1641990D02*
X1902112D01*
X1886995Y1641635D02*
X1902112D01*
X1887243Y1641281D02*
X1902112D01*
X1887459Y1640927D02*
X1902112D01*
X1887647Y1640572D02*
X1902112D01*
X1887808Y1640218D02*
X1902112D01*
X1887946Y1639864D02*
X1902112D01*
X1888061Y1639509D02*
X1902112D01*
X1888155Y1639155D02*
X1902112D01*
X1888228Y1638801D02*
X1902112D01*
X1888282Y1638446D02*
X1902112D01*
X1888316Y1638092D02*
X1902112D01*
X1888332Y1637738D02*
X1902112D01*
X1888328Y1637383D02*
X1902112D01*
X1888306Y1637029D02*
X1902112D01*
X1888265Y1636675D02*
X1902112D01*
X1888205Y1636320D02*
X1902112D01*
X1888125Y1635966D02*
X1902112D01*
X1888024Y1635612D02*
X1902112D01*
X1887901Y1635257D02*
X1902112D01*
X1887756Y1634903D02*
X1902112D01*
X1887586Y1634549D02*
X1902112D01*
X1887389Y1634194D02*
X1902112D01*
X1887163Y1633840D02*
X1902112D01*
X1886902Y1633486D02*
X1902112D01*
X1886604Y1633131D02*
X1902112D01*
X1886258Y1632777D02*
X1902112D01*
X1885856Y1632423D02*
X1902112D01*
X1885377Y1632068D02*
X1902112D01*
X1884787Y1631714D02*
X1902112D01*
X1884238Y1631360D02*
X1902112D01*
X1893028Y1631005D02*
X1902112D01*
X1893506Y1630651D02*
X1902112D01*
X1893730Y1630297D02*
X1902112D01*
X1893831Y1629942D02*
X1902112D01*
X1893845Y1629588D02*
X1902112D01*
X1893845Y1629234D02*
X1902112D01*
X1893845Y1628879D02*
X1902112D01*
X1893845Y1628525D02*
X1902112D01*
X1897467Y1628171D02*
X1902112D01*
X1898634Y1627816D02*
X1902112D01*
X1899076Y1627462D02*
X1902112D01*
X1899362Y1627108D02*
X1902112D01*
X1899553Y1626753D02*
X1902112D01*
X1899675Y1626399D02*
X1902112D01*
X1899738Y1626045D02*
X1902112D01*
X1900013Y1625690D02*
X1902112D01*
X1900367Y1625336D02*
X1902112D01*
X1900721Y1624982D02*
X1902112D01*
X1901076Y1624627D02*
X1902112D01*
X1901430Y1624273D02*
X1902112D01*
X1892420Y1609746D02*
X1902088D01*
X1901785Y1623919D02*
X1902046D01*
X1892058Y1610100D02*
X1901734D01*
X1891613Y1610454D02*
X1901380D01*
X1891042Y1610809D02*
X1901026D01*
X1890853Y1611163D02*
X1900764D01*
X1891436Y1611517D02*
X1900613D01*
X1891917Y1611872D02*
X1900545D01*
X1891967Y1620021D02*
X1900537D01*
X1892346Y1619667D02*
X1900537D01*
X1892660Y1619312D02*
X1900537D01*
X1892923Y1618958D02*
X1900537D01*
X1893145Y1618604D02*
X1900537D01*
X1893330Y1618249D02*
X1900537D01*
X1893483Y1617895D02*
X1900537D01*
X1893606Y1617541D02*
X1900537D01*
X1893703Y1617186D02*
X1900537D01*
X1893774Y1616832D02*
X1900537D01*
X1893820Y1616478D02*
X1900537D01*
X1893842Y1616123D02*
X1900537D01*
X1893841Y1615769D02*
X1900537D01*
X1893816Y1615415D02*
X1900537D01*
X1893767Y1615060D02*
X1900537D01*
X1893693Y1614706D02*
X1900537D01*
X1893593Y1614352D02*
X1900537D01*
X1893466Y1613998D02*
X1900537D01*
X1893309Y1613643D02*
X1900537D01*
X1893120Y1613289D02*
X1900537D01*
X1892894Y1612935D02*
X1900537D01*
X1892625Y1612580D02*
X1900537D01*
X1892305Y1612226D02*
X1900537D01*
X1891758Y1620375D02*
X1900317D01*
X1893236Y1620730D02*
X1899962D01*
X1893596Y1621084D02*
X1899608D01*
X1894350Y1571123D02*
X1899374D01*
X1893774Y1621438D02*
X1899254D01*
X1894553Y1579982D02*
X1898971D01*
X1893842Y1621793D02*
X1898899D01*
X1893845Y1622147D02*
X1898545D01*
X1894804Y1571478D02*
X1898420D01*
X1894895Y1579627D02*
X1898195D01*
X1893845Y1622501D02*
X1898191D01*
X1893845Y1622856D02*
X1897836D01*
X1895020Y1571832D02*
X1897829D01*
X1895064Y1579273D02*
X1897666D01*
X1893845Y1623210D02*
X1897482D01*
X1895115Y1572186D02*
X1897387D01*
X1893845Y1628171D02*
X1897308D01*
X1895125Y1578919D02*
X1897259D01*
X1895126Y1572541D02*
X1897037D01*
X1895126Y1578564D02*
X1896933D01*
X1895126Y1572895D02*
X1896752D01*
X1895126Y1578210D02*
X1896667D01*
X1893845Y1623564D02*
X1896654D01*
X1895126Y1573249D02*
X1896519D01*
X1895126Y1577856D02*
X1896450D01*
X1895126Y1573604D02*
X1896329D01*
X1895126Y1577501D02*
X1896273D01*
X1895126Y1573958D02*
X1896176D01*
X1893845Y1627816D02*
X1896141D01*
X1895126Y1577147D02*
X1896132D01*
X1895126Y1574312D02*
X1896057D01*
X1895126Y1576793D02*
X1896023D01*
X1893845Y1623919D02*
X1895972D01*
X1895126Y1574667D02*
X1895968D01*
X1895126Y1576438D02*
X1895944D01*
X1895126Y1575021D02*
X1895908D01*
X1895126Y1576084D02*
X1895894D01*
X1895126Y1575375D02*
X1895876D01*
X1895126Y1575730D02*
X1895872D01*
X1893845Y1627462D02*
X1895700D01*
X1893845Y1624273D02*
X1895594D01*
X1893845Y1627108D02*
X1895414D01*
X1893845Y1624627D02*
X1895343D01*
X1893845Y1626753D02*
X1895222D01*
X1893845Y1624982D02*
X1895175D01*
X1893845Y1626399D02*
X1895100D01*
X1893845Y1625336D02*
X1895074D01*
X1893845Y1626045D02*
X1895037D01*
X1893845Y1625690D02*
X1895029D01*
X1860183Y1568289D02*
X1889411D01*
X1860183Y1568643D02*
X1889058D01*
X1860183Y1568998D02*
X1888796D01*
X1860183Y1569352D02*
X1888645D01*
X1860183Y1569706D02*
X1888576D01*
X1860183Y1570769D02*
X1888569D01*
X1860183Y1570415D02*
X1888569D01*
X1860183Y1570060D02*
X1888569D01*
X1860183Y1571123D02*
X1886646D01*
X1860183Y1571478D02*
X1886192D01*
X1860183Y1571832D02*
X1885976D01*
X1860183Y1572186D02*
X1885881D01*
X1884787Y1578564D02*
X1885870D01*
X1884005Y1578210D02*
X1885870D01*
X1882655Y1577856D02*
X1885870D01*
X1860183Y1577501D02*
X1885870D01*
X1860183Y1577147D02*
X1885870D01*
X1860183Y1576793D02*
X1885870D01*
X1860183Y1576438D02*
X1885870D01*
X1860183Y1576084D02*
X1885870D01*
X1860183Y1575730D02*
X1885870D01*
X1860183Y1575375D02*
X1885870D01*
X1860183Y1575021D02*
X1885870D01*
X1860183Y1574667D02*
X1885870D01*
X1860183Y1574312D02*
X1885870D01*
X1860183Y1573958D02*
X1885870D01*
X1860183Y1573604D02*
X1885870D01*
X1860183Y1573249D02*
X1885870D01*
X1860183Y1572895D02*
X1885870D01*
X1860183Y1572541D02*
X1885870D01*
X1885377Y1578919D02*
X1885867D01*
X1873059Y1591320D02*
X1884656D01*
X1883286Y1601242D02*
X1884272D01*
X1873580Y1591675D02*
X1883912D01*
X1882932Y1600887D02*
X1883907D01*
X1883705Y1601596D02*
X1883740D01*
X1873996Y1592029D02*
X1883374D01*
X1882578Y1600533D02*
X1883370D01*
X1874341Y1592383D02*
X1882949D01*
X1882223Y1600179D02*
X1882946D01*
X1874631Y1592738D02*
X1882601D01*
X1881869Y1599824D02*
X1882598D01*
X1874876Y1593092D02*
X1882310D01*
X1881515Y1599470D02*
X1882308D01*
X1875083Y1593446D02*
X1882066D01*
X1881160Y1599116D02*
X1882064D01*
X1875484Y1593801D02*
X1881861D01*
X1880806Y1598761D02*
X1881860D01*
X1876166Y1594155D02*
X1881690D01*
X1880452Y1598407D02*
X1881689D01*
X1876554Y1594509D02*
X1881550D01*
X1880097Y1598053D02*
X1881550D01*
X1876908Y1594864D02*
X1881439D01*
X1879743Y1597698D02*
X1881438D01*
X1877263Y1595218D02*
X1881354D01*
X1879389Y1597344D02*
X1881353D01*
X1877617Y1595572D02*
X1881294D01*
X1879034Y1596990D02*
X1881293D01*
X1877971Y1595927D02*
X1881258D01*
X1878680Y1596635D02*
X1881258D01*
X1878326Y1596281D02*
X1881246D01*
X1860183Y1577856D02*
X1880625D01*
X1860183Y1644116D02*
X1880023D01*
X1872797Y1590966D02*
X1880023D01*
X1860183Y1578210D02*
X1879275D01*
X1860183Y1643761D02*
X1878977D01*
X1873310Y1590612D02*
X1878977D01*
X1860183Y1578564D02*
X1878493D01*
X1860183Y1643407D02*
X1878276D01*
X1873778Y1590257D02*
X1878276D01*
X1860183Y1578919D02*
X1877903D01*
X1860183Y1643053D02*
X1877729D01*
X1874160Y1589903D02*
X1877729D01*
X1860183Y1579273D02*
X1877424D01*
X1860183Y1642698D02*
X1877279D01*
X1874478Y1589549D02*
X1877279D01*
X1860183Y1579627D02*
X1877021D01*
X1860183Y1642344D02*
X1876898D01*
X1874747Y1589194D02*
X1876898D01*
X1860183Y1579982D02*
X1876676D01*
X1860183Y1641990D02*
X1876569D01*
X1874974Y1588840D02*
X1876569D01*
X1860183Y1580336D02*
X1876377D01*
X1860183Y1641635D02*
X1876284D01*
X1875165Y1588486D02*
X1876284D01*
X1871525Y1580690D02*
X1876117D01*
X1875185Y1641281D02*
X1876036D01*
X1875325Y1588131D02*
X1876036D01*
X1872539Y1581045D02*
X1875890D01*
X1875456Y1587777D02*
X1875820D01*
X1875516Y1640927D02*
X1875816D01*
X1873187Y1581399D02*
X1875694D01*
X1873680Y1581753D02*
X1875524D01*
X1874079Y1582108D02*
X1875378D01*
X1874410Y1582462D02*
X1875256D01*
X1874689Y1582816D02*
X1875155D01*
X1860183Y1580690D02*
X1868920D01*
X1860183Y1581045D02*
X1867906D01*
X1860183Y1621084D02*
X1867661D01*
X1860183Y1590966D02*
X1867647D01*
X1860183Y1611163D02*
X1867626D01*
X1860183Y1600887D02*
X1867584D01*
X1860183Y1601242D02*
X1867521D01*
X1860183Y1610809D02*
X1867448D01*
X1860183Y1591320D02*
X1867386D01*
X1860183Y1620730D02*
X1867317D01*
X1860183Y1581399D02*
X1867258D01*
X1860183Y1621438D02*
X1867198D01*
X1860183Y1590612D02*
X1867134D01*
X1860183Y1611517D02*
X1867081D01*
X1860183Y1600533D02*
X1867021D01*
X1860183Y1601596D02*
X1866970D01*
X1860183Y1610454D02*
X1866914D01*
X1860183Y1591675D02*
X1866865D01*
X1860183Y1620375D02*
X1866811D01*
X1860183Y1581753D02*
X1866765D01*
X1860183Y1621793D02*
X1866717D01*
X1860183Y1590257D02*
X1866666D01*
X1860183Y1630297D02*
X1866650D01*
X1860183Y1611872D02*
X1866623D01*
X1860183Y1600179D02*
X1866575D01*
X1860183Y1601950D02*
X1866534D01*
X1860183Y1610100D02*
X1866488D01*
X1860183Y1592029D02*
X1866448D01*
X1860183Y1620021D02*
X1866404D01*
X1860183Y1582108D02*
X1866366D01*
X1860183Y1622147D02*
X1866326D01*
X1860183Y1629942D02*
X1866324D01*
X1860183Y1589903D02*
X1866285D01*
X1860183Y1612226D02*
X1866249D01*
X1860183Y1599824D02*
X1866209D01*
X1860183Y1602305D02*
X1866175D01*
X1860183Y1609746D02*
X1866137D01*
X1860183Y1592383D02*
X1866104D01*
X1860183Y1619667D02*
X1866067D01*
X1860183Y1582462D02*
X1866035D01*
X1860183Y1622501D02*
X1866002D01*
X1860183Y1629588D02*
X1865999D01*
X1860183Y1589549D02*
X1865967D01*
X1860183Y1612580D02*
X1865937D01*
X1860183Y1599470D02*
X1865903D01*
X1860183Y1602659D02*
X1865874D01*
X1860183Y1609391D02*
X1865842D01*
X1860183Y1592738D02*
X1865814D01*
X1860183Y1619312D02*
X1865783D01*
X1860183Y1582816D02*
X1865756D01*
X1860183Y1622856D02*
X1865728D01*
X1860183Y1629234D02*
X1865726D01*
X1860183Y1589194D02*
X1865698D01*
X1860183Y1612935D02*
X1865673D01*
X1860183Y1599116D02*
X1865644D01*
X1860183Y1603013D02*
X1865620D01*
X1860183Y1609037D02*
X1865593D01*
X1860183Y1593092D02*
X1865569D01*
X1860183Y1618958D02*
X1865543D01*
X1860183Y1630651D02*
X1865533D01*
X1860183Y1583171D02*
X1865520D01*
X1860183Y1623210D02*
X1865496D01*
X1860183Y1628879D02*
X1865495D01*
X1860183Y1588840D02*
X1865471D01*
X1860183Y1613289D02*
X1865450D01*
X1860183Y1598761D02*
X1865426D01*
X1860183Y1603368D02*
X1865405D01*
X1860183Y1608683D02*
X1865382D01*
X1860183Y1593446D02*
X1865362D01*
X1860183Y1618604D02*
X1865340D01*
X1860183Y1583525D02*
X1865321D01*
X1860183Y1623564D02*
X1865301D01*
X1860183Y1628525D02*
X1865300D01*
X1860183Y1588486D02*
X1865280D01*
X1860183Y1613643D02*
X1865262D01*
X1860183Y1641281D02*
X1865260D01*
X1860183Y1598407D02*
X1865242D01*
X1860183Y1603722D02*
X1865225D01*
X1860183Y1608328D02*
X1865205D01*
X1860183Y1593801D02*
X1865189D01*
X1860183Y1618249D02*
X1865170D01*
X1860183Y1583879D02*
X1865154D01*
X1860183Y1623919D02*
X1865138D01*
X1860183Y1628171D02*
X1865137D01*
X1860183Y1588131D02*
X1865120D01*
X1860183Y1613998D02*
X1865105D01*
X1860183Y1598053D02*
X1865089D01*
X1860183Y1604076D02*
X1865075D01*
X1860183Y1607974D02*
X1865059D01*
X1860183Y1631005D02*
X1865051D01*
X1860183Y1594155D02*
X1865045D01*
X1860183Y1617895D02*
X1865030D01*
X1860183Y1584234D02*
X1865017D01*
X1860183Y1624273D02*
X1865004D01*
X1860183Y1627816D02*
X1865003D01*
X1860183Y1587777D02*
X1864989D01*
X1860183Y1614352D02*
X1864977D01*
X1860183Y1597698D02*
X1864964D01*
X1860183Y1604431D02*
X1864953D01*
X1860183Y1607620D02*
X1864940D01*
X1860183Y1640927D02*
X1864930D01*
X1860183Y1594509D02*
X1864929D01*
X1860183Y1617541D02*
X1864917D01*
X1860183Y1584588D02*
X1864907D01*
X1860183Y1624627D02*
X1864896D01*
X1860183Y1627462D02*
X1864896D01*
X1860183Y1587423D02*
X1864885D01*
X1860183Y1614706D02*
X1864876D01*
X1860183Y1597344D02*
X1864866D01*
X1860183Y1604785D02*
X1864857D01*
X1860183Y1607265D02*
X1864847D01*
X1860183Y1594864D02*
X1864839D01*
X1860183Y1617186D02*
X1864830D01*
X1860183Y1631360D02*
X1864826D01*
X1860183Y1584942D02*
X1864822D01*
X1860183Y1624982D02*
X1864814D01*
X1860183Y1627108D02*
X1864814D01*
X1860183Y1587068D02*
X1864806D01*
X1860183Y1615060D02*
X1864799D01*
X1860183Y1596990D02*
X1864792D01*
X1860183Y1605139D02*
X1864786D01*
X1860183Y1606911D02*
X1864779D01*
X1860183Y1595218D02*
X1864773D01*
X1860183Y1640572D02*
X1864768D01*
X1860183Y1616832D02*
X1864767D01*
X1860183Y1585297D02*
X1864762D01*
X1860183Y1625336D02*
X1864757D01*
X1860183Y1626753D02*
X1864756D01*
X1860183Y1586714D02*
X1864751D01*
X1860183Y1615415D02*
X1864747D01*
X1860183Y1596635D02*
X1864742D01*
X1860183Y1605494D02*
X1864738D01*
X1860183Y1606557D02*
X1864734D01*
X1860183Y1595572D02*
X1864731D01*
X1860183Y1616478D02*
X1864728D01*
X1860183Y1631714D02*
X1864725D01*
X1860183Y1585651D02*
X1864725D01*
X1860183Y1625690D02*
X1864722D01*
X1860183Y1626399D02*
X1864722D01*
X1860183Y1586360D02*
X1864720D01*
X1860183Y1615769D02*
X1864718D01*
X1860183Y1596281D02*
X1864716D01*
X1860183Y1605848D02*
X1864714D01*
X1860183Y1606202D02*
X1864713D01*
X1860183Y1595927D02*
X1864712D01*
X1860183Y1616123D02*
X1864711D01*
X1860183Y1640218D02*
X1864711D01*
X1860183Y1586005D02*
X1864711D01*
X1860183Y1639864D02*
X1864711D01*
X1860183Y1639509D02*
X1864711D01*
X1860183Y1639155D02*
X1864711D01*
X1860183Y1638801D02*
X1864711D01*
X1860183Y1638446D02*
X1864711D01*
X1860183Y1638092D02*
X1864711D01*
X1860183Y1637738D02*
X1864711D01*
X1860183Y1637383D02*
X1864711D01*
X1860183Y1637029D02*
X1864711D01*
X1860183Y1636675D02*
X1864711D01*
X1860183Y1636320D02*
X1864711D01*
X1860183Y1635966D02*
X1864711D01*
X1860183Y1635612D02*
X1864711D01*
X1860183Y1635257D02*
X1864711D01*
X1860183Y1634903D02*
X1864711D01*
X1860183Y1634549D02*
X1864711D01*
X1860183Y1634194D02*
X1864711D01*
X1860183Y1633840D02*
X1864711D01*
X1860183Y1633486D02*
X1864711D01*
X1860183Y1633131D02*
X1864711D01*
X1860183Y1632777D02*
X1864711D01*
X1860183Y1632423D02*
X1864711D01*
X1860183Y1632068D02*
X1864711D01*
X1860183Y1626045D02*
X1864711D01*
X2049026Y1653683D02*
X2131443D01*
X2049975Y1653328D02*
X2131443D01*
X2050551Y1652974D02*
X2131443D01*
X2050979Y1652620D02*
X2131443D01*
X2123450Y1652265D02*
X2131443D01*
X2124438Y1651911D02*
X2131443D01*
X2125108Y1651557D02*
X2131443D01*
X2125631Y1651202D02*
X2131443D01*
X2126062Y1650848D02*
X2131443D01*
X2126425Y1650494D02*
X2131443D01*
X2126737Y1650139D02*
X2131443D01*
X2127007Y1649785D02*
X2131443D01*
X2127240Y1649431D02*
X2131443D01*
X2127441Y1649076D02*
X2131443D01*
X2127614Y1648722D02*
X2131443D01*
X2127760Y1648368D02*
X2131443D01*
X2127883Y1648013D02*
X2131443D01*
X2127983Y1647659D02*
X2131443D01*
X2128061Y1647305D02*
X2131443D01*
X2128119Y1646950D02*
X2131443D01*
X2128156Y1646596D02*
X2131443D01*
X2128174Y1646242D02*
X2131443D01*
X2128171Y1645887D02*
X2131443D01*
X2128150Y1645533D02*
X2131443D01*
X2128108Y1645179D02*
X2131443D01*
X2128045Y1644824D02*
X2131443D01*
X2127962Y1644470D02*
X2131443D01*
X2127857Y1644116D02*
X2131443D01*
X2127729Y1643761D02*
X2131443D01*
X2127576Y1643407D02*
X2131443D01*
X2127397Y1643053D02*
X2131443D01*
X2127189Y1642698D02*
X2131443D01*
X2126948Y1642344D02*
X2131443D01*
X2126670Y1641990D02*
X2131443D01*
X2126347Y1641635D02*
X2131443D01*
X2125969Y1641281D02*
X2131443D01*
X2125520Y1640927D02*
X2131443D01*
X2124970Y1640572D02*
X2131443D01*
X2124251Y1640218D02*
X2131443D01*
X2123110Y1639864D02*
X2131443D01*
X2057821Y1639509D02*
X2131443D01*
X2057821Y1639155D02*
X2131443D01*
X2057821Y1638801D02*
X2131443D01*
X2057821Y1638446D02*
X2131443D01*
X2057821Y1638092D02*
X2131443D01*
X2057821Y1637738D02*
X2131443D01*
X2122921Y1637383D02*
X2131443D01*
X2124161Y1637029D02*
X2131443D01*
X2124905Y1636675D02*
X2131443D01*
X2125469Y1636320D02*
X2131443D01*
X2125926Y1635966D02*
X2131443D01*
X2126310Y1635612D02*
X2131443D01*
X2126638Y1635257D02*
X2131443D01*
X2126921Y1634903D02*
X2131443D01*
X2127166Y1634549D02*
X2131443D01*
X2127377Y1634194D02*
X2131443D01*
X2127559Y1633840D02*
X2131443D01*
X2127714Y1633486D02*
X2131443D01*
X2127845Y1633131D02*
X2131443D01*
X2127952Y1632777D02*
X2131443D01*
X2128038Y1632423D02*
X2131443D01*
X2128102Y1632068D02*
X2131443D01*
X2128146Y1631714D02*
X2131443D01*
X2128170Y1631360D02*
X2131443D01*
X2128174Y1631005D02*
X2131443D01*
X2128159Y1630651D02*
X2131443D01*
X2128124Y1630297D02*
X2131443D01*
X2128068Y1629942D02*
X2131443D01*
X2127992Y1629588D02*
X2131443D01*
X2127894Y1629234D02*
X2131443D01*
X2127774Y1628879D02*
X2131443D01*
X2127630Y1628525D02*
X2131443D01*
X2127460Y1628171D02*
X2131443D01*
X2127262Y1627816D02*
X2131443D01*
X2127032Y1627462D02*
X2131443D01*
X2126767Y1627108D02*
X2131443D01*
X2126460Y1626753D02*
X2131443D01*
X2126102Y1626399D02*
X2131443D01*
X2125679Y1626045D02*
X2131443D01*
X2125168Y1625690D02*
X2131443D01*
X2124517Y1625336D02*
X2131443D01*
X2123581Y1624982D02*
X2131443D01*
X2057821Y1624627D02*
X2131443D01*
X2057821Y1624273D02*
X2131443D01*
X2057821Y1623919D02*
X2131443D01*
X2057821Y1623564D02*
X2131443D01*
X2057821Y1623210D02*
X2131443D01*
X2057821Y1622856D02*
X2131443D01*
X2057821Y1622501D02*
X2131443D01*
X2057821Y1622147D02*
X2131443D01*
X2057821Y1621793D02*
X2131443D01*
X2057821Y1621438D02*
X2131443D01*
X2057821Y1621084D02*
X2131443D01*
X2057821Y1620730D02*
X2131443D01*
X2057821Y1620375D02*
X2131443D01*
X2057821Y1620021D02*
X2131443D01*
X2057821Y1619667D02*
X2131443D01*
X2057821Y1619312D02*
X2131443D01*
X2057821Y1618958D02*
X2131443D01*
X2057821Y1618604D02*
X2131443D01*
X2057821Y1618249D02*
X2131443D01*
X2057821Y1617895D02*
X2131443D01*
X2057821Y1617541D02*
X2131443D01*
X2058022Y1617186D02*
X2131443D01*
X2058376Y1616832D02*
X2131443D01*
X2058730Y1616478D02*
X2131443D01*
X2059073Y1616123D02*
X2131443D01*
X2059335Y1615769D02*
X2131443D01*
X2059526Y1615415D02*
X2131443D01*
X2059660Y1615060D02*
X2131443D01*
X2059745Y1614706D02*
X2131443D01*
X2059785Y1614352D02*
X2131443D01*
X2059783Y1613998D02*
X2131443D01*
X2059737Y1613643D02*
X2131443D01*
X2059647Y1613289D02*
X2131443D01*
X2059507Y1612935D02*
X2131443D01*
X2059308Y1612580D02*
X2131443D01*
X2059036Y1612226D02*
X2131443D01*
X2058658Y1611872D02*
X2131443D01*
X2058079Y1611517D02*
X2131443D01*
X2037726Y1611163D02*
X2131443D01*
X2037882Y1610809D02*
X2131443D01*
X2037996Y1610454D02*
X2131443D01*
X2038037Y1610100D02*
X2131443D01*
X2038037Y1609746D02*
X2131443D01*
X2038037Y1609391D02*
X2131443D01*
X2038037Y1609037D02*
X2131443D01*
X2038037Y1608683D02*
X2131443D01*
X2038037Y1608328D02*
X2131443D01*
X2038037Y1607974D02*
X2131443D01*
X2038038Y1607620D02*
X2131443D01*
X2038236Y1607265D02*
X2131443D01*
X2038395Y1606911D02*
X2131443D01*
X2038490Y1606557D02*
X2131443D01*
X2038528Y1606202D02*
X2131443D01*
X2088837Y1605848D02*
X2131443D01*
X2089660Y1605494D02*
X2131443D01*
X2090208Y1605139D02*
X2131443D01*
X2090625Y1604785D02*
X2131443D01*
X2090959Y1604431D02*
X2131443D01*
X2091231Y1604076D02*
X2131443D01*
X2091453Y1603722D02*
X2131443D01*
X2091634Y1603368D02*
X2131443D01*
X2091779Y1603013D02*
X2131443D01*
X2091892Y1602659D02*
X2131443D01*
X2091974Y1602305D02*
X2131443D01*
X2092027Y1601950D02*
X2131443D01*
X2092053Y1601596D02*
X2131443D01*
X2092051Y1601242D02*
X2131443D01*
X2092022Y1600887D02*
X2131443D01*
X2091965Y1600533D02*
X2131443D01*
X2091880Y1600179D02*
X2131443D01*
X2091764Y1599824D02*
X2131443D01*
X2091615Y1599470D02*
X2131443D01*
X2091429Y1599116D02*
X2131443D01*
X2091201Y1598761D02*
X2131443D01*
X2090923Y1598407D02*
X2131443D01*
X2090581Y1598053D02*
X2131443D01*
X2090151Y1597698D02*
X2131443D01*
X2089582Y1597344D02*
X2131443D01*
X2088698Y1596990D02*
X2131443D01*
X1950931Y1596635D02*
X2131443D01*
X1950931Y1596281D02*
X2131443D01*
X2088561Y1595927D02*
X2131443D01*
X2089510Y1595572D02*
X2131443D01*
X2090100Y1595218D02*
X2131443D01*
X2090541Y1594864D02*
X2131443D01*
X2090891Y1594509D02*
X2131443D01*
X2091175Y1594155D02*
X2131443D01*
X2091408Y1593801D02*
X2131443D01*
X2091598Y1593446D02*
X2131443D01*
X2091750Y1593092D02*
X2131443D01*
X2091869Y1592738D02*
X2131443D01*
X2091958Y1592383D02*
X2131443D01*
X2092017Y1592029D02*
X2131443D01*
X2092049Y1591675D02*
X2131443D01*
X2092054Y1591320D02*
X2131443D01*
X2092031Y1590966D02*
X2131443D01*
X2091980Y1590612D02*
X2131443D01*
X2091902Y1590257D02*
X2131443D01*
X2091793Y1589903D02*
X2131443D01*
X2091651Y1589549D02*
X2131443D01*
X2091474Y1589194D02*
X2131443D01*
X2091256Y1588840D02*
X2131443D01*
X2090990Y1588486D02*
X2131443D01*
X2090663Y1588131D02*
X2131443D01*
X2090256Y1587777D02*
X2131443D01*
X2089725Y1587423D02*
X2131443D01*
X2088947Y1587068D02*
X2131443D01*
X2055656Y1586714D02*
X2131443D01*
X2055656Y1586360D02*
X2131443D01*
X2088184Y1586005D02*
X2131443D01*
X2089346Y1585651D02*
X2131443D01*
X2089985Y1585297D02*
X2131443D01*
X2090452Y1584942D02*
X2131443D01*
X2090819Y1584588D02*
X2131443D01*
X2091117Y1584234D02*
X2131443D01*
X2091360Y1583879D02*
X2131443D01*
X2091559Y1583525D02*
X2131443D01*
X2091719Y1583171D02*
X2131443D01*
X2091846Y1582816D02*
X2131443D01*
X2091941Y1582462D02*
X2131443D01*
X2092007Y1582108D02*
X2131443D01*
X2092044Y1581753D02*
X2131443D01*
X2092055Y1581399D02*
X2131443D01*
X2092038Y1581045D02*
X2131443D01*
X2091994Y1580690D02*
X2131443D01*
X2091922Y1580336D02*
X2131443D01*
X2091819Y1579982D02*
X2131443D01*
X2091686Y1579627D02*
X2131443D01*
X2091517Y1579273D02*
X2131443D01*
X2091308Y1578919D02*
X2131443D01*
X2091054Y1578564D02*
X2131443D01*
X2090742Y1578210D02*
X2131443D01*
X2090355Y1577856D02*
X2131443D01*
X2089858Y1577501D02*
X2131443D01*
X2089157Y1577147D02*
X2131443D01*
X2055656Y1576793D02*
X2131443D01*
X2055656Y1576438D02*
X2131443D01*
X2055656Y1576084D02*
X2131443D01*
X2091581Y1575730D02*
X2131443D01*
X2091872Y1575375D02*
X2131443D01*
X2092015Y1575021D02*
X2131443D01*
X2092055Y1574667D02*
X2131443D01*
X2092055Y1574312D02*
X2131443D01*
X2092055Y1573958D02*
X2131443D01*
X2092055Y1573604D02*
X2131443D01*
X2092055Y1573249D02*
X2131443D01*
X2092055Y1572895D02*
X2131443D01*
X2092055Y1572541D02*
X2131443D01*
X2092055Y1572186D02*
X2131443D01*
X2092055Y1571832D02*
X2131443D01*
X2092055Y1571478D02*
X2131443D01*
X2092055Y1571123D02*
X2131443D01*
X2092055Y1570769D02*
X2131443D01*
X2092055Y1570415D02*
X2131443D01*
X2092055Y1570060D02*
X2131443D01*
X2092055Y1569706D02*
X2131443D01*
X2092055Y1569352D02*
X2131443D01*
X2092055Y1568998D02*
X2131443D01*
X2092055Y1568643D02*
X2131443D01*
X2092055Y1568289D02*
X2131443D01*
X2048453Y1654037D02*
X2131427D01*
X2103236Y1637383D02*
X2120674D01*
X2103425Y1639864D02*
X2120485D01*
X2103765Y1652265D02*
X2120144D01*
X2103896Y1624982D02*
X2120013D01*
X2104476Y1637029D02*
X2119434D01*
X2104566Y1640218D02*
X2119344D01*
X2104753Y1651911D02*
X2119157D01*
X2104832Y1625336D02*
X2119078D01*
X2105220Y1636675D02*
X2118689D01*
X2105285Y1640572D02*
X2118624D01*
X2105423Y1651557D02*
X2118487D01*
X2105483Y1625690D02*
X2118427D01*
X2105784Y1636320D02*
X2118126D01*
X2105835Y1640927D02*
X2118074D01*
X2105946Y1651202D02*
X2117963D01*
X2105994Y1626045D02*
X2117915D01*
X2106241Y1635966D02*
X2117668D01*
X2106284Y1641281D02*
X2117625D01*
X2106377Y1650848D02*
X2117533D01*
X2106417Y1626399D02*
X2117492D01*
X2106625Y1635612D02*
X2117284D01*
X2106662Y1641635D02*
X2117248D01*
X2106740Y1650494D02*
X2117169D01*
X2106775Y1626753D02*
X2117134D01*
X2106953Y1635257D02*
X2116956D01*
X2106985Y1641990D02*
X2116925D01*
X2107052Y1650139D02*
X2116857D01*
X2107082Y1627108D02*
X2116827D01*
X2107236Y1634903D02*
X2116673D01*
X2107263Y1642344D02*
X2116646D01*
X2107322Y1649785D02*
X2116588D01*
X2107347Y1627462D02*
X2116562D01*
X2107481Y1634549D02*
X2116429D01*
X2107504Y1642698D02*
X2116405D01*
X2107555Y1649431D02*
X2116355D01*
X2107577Y1627816D02*
X2116333D01*
X2107692Y1634194D02*
X2116217D01*
X2107712Y1643053D02*
X2116197D01*
X2107756Y1649076D02*
X2116154D01*
X2107775Y1628171D02*
X2116134D01*
X2107874Y1633840D02*
X2116035D01*
X2107891Y1643407D02*
X2116018D01*
X2107929Y1648722D02*
X2115981D01*
X2107945Y1628525D02*
X2115964D01*
X2108029Y1633486D02*
X2115880D01*
X2108044Y1643761D02*
X2115866D01*
X2108075Y1648368D02*
X2115834D01*
X2108089Y1628879D02*
X2115820D01*
X2108160Y1633131D02*
X2115750D01*
X2108172Y1644116D02*
X2115738D01*
X2108198Y1648013D02*
X2115711D01*
X2108209Y1629234D02*
X2115700D01*
X2108267Y1632777D02*
X2115642D01*
X2108277Y1644470D02*
X2115632D01*
X2108298Y1647659D02*
X2115611D01*
X2108307Y1629588D02*
X2115602D01*
X2108353Y1632423D02*
X2115557D01*
X2108360Y1644824D02*
X2115549D01*
X2108376Y1647305D02*
X2115533D01*
X2108383Y1629942D02*
X2115526D01*
X2108417Y1632068D02*
X2115492D01*
X2108423Y1645179D02*
X2115487D01*
X2108434Y1646950D02*
X2115476D01*
X2108439Y1630297D02*
X2115471D01*
X2108461Y1631714D02*
X2115448D01*
X2108464Y1645533D02*
X2115445D01*
X2108471Y1646596D02*
X2115438D01*
X2108474Y1630651D02*
X2115435D01*
X2108485Y1631360D02*
X2115424D01*
X2108486Y1645887D02*
X2115423D01*
X2108489Y1646242D02*
X2115421D01*
X2108489Y1631005D02*
X2115420D01*
X2057821Y1637383D02*
X2100989D01*
X2057821Y1639864D02*
X2100800D01*
X2051316Y1652265D02*
X2100459D01*
X2057821Y1624982D02*
X2100328D01*
X2057821Y1637029D02*
X2099749D01*
X2057821Y1640218D02*
X2099659D01*
X2051587Y1651911D02*
X2099472D01*
X2057821Y1625336D02*
X2099392D01*
X2057821Y1636675D02*
X2099004D01*
X2057821Y1640572D02*
X2098939D01*
X2051806Y1651557D02*
X2098802D01*
X2057821Y1625690D02*
X2098742D01*
X2057821Y1636320D02*
X2098441D01*
X2057821Y1640927D02*
X2098389D01*
X2051982Y1651202D02*
X2098278D01*
X2057821Y1626045D02*
X2098230D01*
X2057821Y1635966D02*
X2097983D01*
X2057821Y1641281D02*
X2097940D01*
X2052121Y1650848D02*
X2097848D01*
X2057821Y1626399D02*
X2097807D01*
X2057821Y1635612D02*
X2097599D01*
X2057820Y1641635D02*
X2097563D01*
X2052226Y1650494D02*
X2097484D01*
X2057821Y1626753D02*
X2097449D01*
X2057821Y1635257D02*
X2097271D01*
X2057789Y1641990D02*
X2097240D01*
X2052299Y1650139D02*
X2097172D01*
X2057821Y1627108D02*
X2097142D01*
X2057821Y1634903D02*
X2096988D01*
X2057714Y1642344D02*
X2096961D01*
X2052342Y1649785D02*
X2096903D01*
X2057821Y1627462D02*
X2096877D01*
X2057821Y1634549D02*
X2096744D01*
X2057592Y1642698D02*
X2096720D01*
X2052356Y1649431D02*
X2096670D01*
X2057821Y1627816D02*
X2096648D01*
X2057821Y1634194D02*
X2096532D01*
X2057415Y1643053D02*
X2096512D01*
X2052342Y1649076D02*
X2096469D01*
X2057821Y1628171D02*
X2096449D01*
X2057821Y1633840D02*
X2096350D01*
X2057170Y1643407D02*
X2096333D01*
X2052298Y1648722D02*
X2096296D01*
X2057821Y1628525D02*
X2096279D01*
X2057821Y1633486D02*
X2096195D01*
X2056841Y1643761D02*
X2096181D01*
X2052225Y1648368D02*
X2096149D01*
X2057821Y1628879D02*
X2096135D01*
X2057821Y1633131D02*
X2096065D01*
X2056486Y1644116D02*
X2096052D01*
X2052120Y1648013D02*
X2096026D01*
X2057821Y1629234D02*
X2096015D01*
X2057821Y1632777D02*
X2095957D01*
X2056132Y1644470D02*
X2095947D01*
X2051981Y1647659D02*
X2095926D01*
X2057821Y1629588D02*
X2095917D01*
X2057821Y1632423D02*
X2095872D01*
X2055778Y1644824D02*
X2095864D01*
X2051805Y1647305D02*
X2095848D01*
X2057821Y1629942D02*
X2095841D01*
X2057821Y1632068D02*
X2095807D01*
X2055423Y1645179D02*
X2095802D01*
X2051585Y1646950D02*
X2095790D01*
X2057821Y1630297D02*
X2095786D01*
X2057821Y1631714D02*
X2095763D01*
X2055069Y1645533D02*
X2095760D01*
X2051450Y1646596D02*
X2095753D01*
X2057821Y1630651D02*
X2095750D01*
X2057821Y1631360D02*
X2095739D01*
X2054673Y1645887D02*
X2095738D01*
X2054060Y1646242D02*
X2095736D01*
X2057821Y1631005D02*
X2095735D01*
X2078184Y1586005D02*
X2086670D01*
X2078561Y1595927D02*
X2086293D01*
X2078698Y1596990D02*
X2086157D01*
X2078837Y1605848D02*
X2086018D01*
X2078947Y1587068D02*
X2085908D01*
X2079157Y1577147D02*
X2085698D01*
X2079346Y1585651D02*
X2085508D01*
X2079510Y1595572D02*
X2085344D01*
X2079582Y1597344D02*
X2085273D01*
X2079660Y1605494D02*
X2085194D01*
X2079725Y1587423D02*
X2085129D01*
X2079858Y1577501D02*
X2084997D01*
X2079985Y1585297D02*
X2084869D01*
X2080100Y1595218D02*
X2084754D01*
X2080151Y1597698D02*
X2084703D01*
X2080208Y1605139D02*
X2084647D01*
X2080256Y1587777D02*
X2084598D01*
X2080355Y1577856D02*
X2084499D01*
X2080452Y1584942D02*
X2084402D01*
X2080541Y1594864D02*
X2084313D01*
X2080581Y1598053D02*
X2084274D01*
X2080625Y1604785D02*
X2084229D01*
X2080663Y1588131D02*
X2084191D01*
X2080742Y1578210D02*
X2084112D01*
X2080819Y1584588D02*
X2084035D01*
X2080891Y1594509D02*
X2083964D01*
X2080923Y1598407D02*
X2083931D01*
X2080959Y1604431D02*
X2083895D01*
X2080990Y1588486D02*
X2083865D01*
X2081054Y1578564D02*
X2083801D01*
X2081117Y1584234D02*
X2083738D01*
X2081175Y1594155D02*
X2083679D01*
X2081201Y1598761D02*
X2083653D01*
X2081231Y1604076D02*
X2083624D01*
X2081256Y1588840D02*
X2083598D01*
X2081308Y1578919D02*
X2083546D01*
X2081360Y1583879D02*
X2083494D01*
X2081408Y1593801D02*
X2083447D01*
X2081429Y1599116D02*
X2083425D01*
X2081453Y1603722D02*
X2083401D01*
X2081474Y1589194D02*
X2083380D01*
X2081517Y1579273D02*
X2083338D01*
X2081559Y1583525D02*
X2083296D01*
X2079163Y1575730D02*
X2083273D01*
X2081598Y1593446D02*
X2083257D01*
X2081615Y1599470D02*
X2083239D01*
X2081634Y1603368D02*
X2083220D01*
X2081651Y1589549D02*
X2083203D01*
X2081686Y1579627D02*
X2083169D01*
X2081719Y1583171D02*
X2083135D01*
X2081750Y1593092D02*
X2083104D01*
X2081764Y1599824D02*
X2083090D01*
X2081779Y1603013D02*
X2083075D01*
X2081793Y1589903D02*
X2083062D01*
X2081819Y1579982D02*
X2083035D01*
X2081846Y1582816D02*
X2083009D01*
X2081869Y1592738D02*
X2082985D01*
X2079862Y1575375D02*
X2082982D01*
X2081880Y1600179D02*
X2082974D01*
X2081892Y1602659D02*
X2082963D01*
X2081902Y1590257D02*
X2082953D01*
X2081922Y1580336D02*
X2082933D01*
X2081941Y1582462D02*
X2082914D01*
X2081958Y1592383D02*
X2082896D01*
X2081965Y1600533D02*
X2082889D01*
X2081974Y1602305D02*
X2082881D01*
X2081980Y1590612D02*
X2082874D01*
X2081994Y1580690D02*
X2082860D01*
X2082007Y1582108D02*
X2082848D01*
X2080358Y1575021D02*
X2082840D01*
X2082017Y1592029D02*
X2082837D01*
X2082022Y1600887D02*
X2082832D01*
X2082027Y1601950D02*
X2082827D01*
X2082031Y1590966D02*
X2082824D01*
X2082038Y1581045D02*
X2082816D01*
X2082044Y1581753D02*
X2082810D01*
X2082049Y1591675D02*
X2082805D01*
X2082051Y1601242D02*
X2082803D01*
X2082053Y1601596D02*
X2082802D01*
X2082054Y1591320D02*
X2082801D01*
X2082055Y1581399D02*
X2082799D01*
X2080744Y1574667D02*
X2082799D01*
X2081056Y1574312D02*
X2082799D01*
X2081310Y1573958D02*
X2082799D01*
X2081518Y1573604D02*
X2082799D01*
X2081687Y1573249D02*
X2082799D01*
X2081820Y1572895D02*
X2082799D01*
X2081922Y1572541D02*
X2082799D01*
X2081995Y1572186D02*
X2082799D01*
X2082038Y1571832D02*
X2082799D01*
X2082055Y1571478D02*
X2082799D01*
X2082044Y1571123D02*
X2082799D01*
X2082006Y1570769D02*
X2082799D01*
X2081940Y1570415D02*
X2082799D01*
X2081845Y1570060D02*
X2082799D01*
X2081718Y1569706D02*
X2082799D01*
X2081557Y1569352D02*
X2082799D01*
X2081358Y1568998D02*
X2082799D01*
X2081115Y1568643D02*
X2082799D01*
X2080817Y1568289D02*
X2082799D01*
X2055656Y1586005D02*
X2076670D01*
X1950931Y1595927D02*
X2076293D01*
X1950931Y1596990D02*
X2076157D01*
X2038513Y1605848D02*
X2076018D01*
X2055656Y1587068D02*
X2075908D01*
X2055656Y1577147D02*
X2075698D01*
X2055693Y1575730D02*
X2075691D01*
X2055656Y1585651D02*
X2075508D01*
X1950931Y1595572D02*
X2075344D01*
X1950931Y1597344D02*
X2075273D01*
X2038444Y1605494D02*
X2075194D01*
X2055811Y1587423D02*
X2075129D01*
X2055656Y1577501D02*
X2074997D01*
X2056028Y1575375D02*
X2074992D01*
X2055656Y1585297D02*
X2074869D01*
X1950931Y1595218D02*
X2074754D01*
X1958746Y1597698D02*
X2074703D01*
X2038314Y1605139D02*
X2074647D01*
X2056117Y1587777D02*
X2074598D01*
X2055656Y1577856D02*
X2074499D01*
X2056271Y1575021D02*
X2074496D01*
X2055656Y1584942D02*
X2074402D01*
X2005791Y1594864D02*
X2074313D01*
X1959566Y1598053D02*
X2074274D01*
X2038113Y1604785D02*
X2074229D01*
X2056334Y1588131D02*
X2074191D01*
X2055656Y1578210D02*
X2074112D01*
X2056443Y1574667D02*
X2074110D01*
X1950931Y1568289D02*
X2074037D01*
X2055656Y1584588D02*
X2074035D01*
X2006378Y1594509D02*
X2073964D01*
X1960102Y1598407D02*
X2073931D01*
X2037813Y1604431D02*
X2073895D01*
X2056486Y1588486D02*
X2073865D01*
X2055656Y1578564D02*
X2073801D01*
X2056558Y1574312D02*
X2073799D01*
X1950931Y1568643D02*
X2073740D01*
X2055656Y1584234D02*
X2073738D01*
X2006750Y1594155D02*
X2073679D01*
X1960507Y1598761D02*
X2073653D01*
X2037344Y1604076D02*
X2073624D01*
X2056584Y1588840D02*
X2073598D01*
X2055656Y1578919D02*
X2073546D01*
X2056622Y1573958D02*
X2073544D01*
X2027958Y1568998D02*
X2073496D01*
X2055656Y1583879D02*
X2073494D01*
X2007012Y1593801D02*
X2073447D01*
X1960828Y1599116D02*
X2073425D01*
X2002047Y1603722D02*
X2073401D01*
X2056633Y1589194D02*
X2073380D01*
X2055656Y1579273D02*
X2073338D01*
X2056639Y1573604D02*
X2073336D01*
X2028790Y1569352D02*
X2073297D01*
X2055656Y1583525D02*
X2073296D01*
X2007198Y1593446D02*
X2073257D01*
X1961087Y1599470D02*
X2073239D01*
X2002104Y1603368D02*
X2073220D01*
X2056635Y1589549D02*
X2073203D01*
X2055656Y1579627D02*
X2073169D01*
X2056611Y1573249D02*
X2073168D01*
X2029236Y1569706D02*
X2073136D01*
X2055656Y1583171D02*
X2073135D01*
X2007324Y1593092D02*
X2073104D01*
X1961296Y1599824D02*
X2073090D01*
X2002107Y1603013D02*
X2073075D01*
X2056592Y1589903D02*
X2073062D01*
X2055656Y1579982D02*
X2073035D01*
X2056536Y1572895D02*
X2073034D01*
X2029542Y1570060D02*
X2073009D01*
X2055656Y1582816D02*
X2073009D01*
X2007399Y1592738D02*
X2072985D01*
X1961464Y1600179D02*
X2072974D01*
X2002056Y1602659D02*
X2072963D01*
X2056501Y1590257D02*
X2072953D01*
X2055656Y1580336D02*
X2072933D01*
X2056409Y1572541D02*
X2072932D01*
X2029759Y1570415D02*
X2072914D01*
X2055656Y1582462D02*
X2072914D01*
X2007427Y1592383D02*
X2072896D01*
X1961595Y1600533D02*
X2072889D01*
X2001947Y1602305D02*
X2072881D01*
X2056355Y1590612D02*
X2072874D01*
X2055656Y1580690D02*
X2072860D01*
X2056223Y1572186D02*
X2072860D01*
X2029912Y1570769D02*
X2072848D01*
X2055656Y1582108D02*
X2072848D01*
X2054686Y1592029D02*
X2072837D01*
X2000350Y1600887D02*
X2072832D01*
X2001772Y1601950D02*
X2072827D01*
X2056146Y1590966D02*
X2072824D01*
X2055656Y1581045D02*
X2072816D01*
X2055960Y1571832D02*
X2072816D01*
X2054997Y1571123D02*
X2072810D01*
X2055656Y1581753D02*
X2072810D01*
X2055429Y1591675D02*
X2072805D01*
X2001111Y1601242D02*
X2072803D01*
X2001510Y1601596D02*
X2072802D01*
X2055853Y1591320D02*
X2072801D01*
X2055656Y1581399D02*
X2072799D01*
X2055587Y1571478D02*
X2072799D01*
X2037741Y1611517D02*
X2055594D01*
X2037702Y1611872D02*
X2055015D01*
X2037608Y1612226D02*
X2054631D01*
X2037449Y1612580D02*
X2054276D01*
X2037209Y1612935D02*
X2053922D01*
X2036850Y1613289D02*
X2053568D01*
X2036231Y1613643D02*
X2053213D01*
X2007409Y1592029D02*
X2053081D01*
X1989739Y1613998D02*
X2052859D01*
X2030009Y1571123D02*
X2052770D01*
X1989587Y1614352D02*
X2052537D01*
X2007344Y1591675D02*
X2052339D01*
X1989375Y1614706D02*
X2052300D01*
X2030058Y1571478D02*
X2052181D01*
X1989084Y1615060D02*
X2052129D01*
X2001900Y1587068D02*
X2052112D01*
X2001546Y1586714D02*
X2052112D01*
X2001191Y1586360D02*
X2052112D01*
X2028428Y1586005D02*
X2052112D01*
X2029016Y1585651D02*
X2052112D01*
X2029388Y1585297D02*
X2052112D01*
X2029649Y1584942D02*
X2052112D01*
X2029835Y1584588D02*
X2052112D01*
X2029962Y1584234D02*
X2052112D01*
X2030037Y1583879D02*
X2052112D01*
X2030065Y1583525D02*
X2052112D01*
X2030047Y1583171D02*
X2052112D01*
X2029982Y1582816D02*
X2052112D01*
X2029867Y1582462D02*
X2052112D01*
X2029695Y1582108D02*
X2052112D01*
X2029451Y1581753D02*
X2052112D01*
X2029116Y1581399D02*
X2052112D01*
X2029081Y1581045D02*
X2052112D01*
X2029081Y1580690D02*
X2052112D01*
X2029081Y1580336D02*
X2052112D01*
X2029081Y1579982D02*
X2052112D01*
X2029081Y1579627D02*
X2052112D01*
X2029081Y1579273D02*
X2052112D01*
X2029081Y1578919D02*
X2052112D01*
X2029081Y1578564D02*
X2052112D01*
X2029081Y1578210D02*
X2052112D01*
X2029081Y1577856D02*
X2052112D01*
X2029081Y1577501D02*
X2052112D01*
X2029081Y1577147D02*
X2052112D01*
X2029081Y1576793D02*
X2052112D01*
X2029081Y1576438D02*
X2052112D01*
X2029081Y1576084D02*
X2052112D01*
X2029081Y1575730D02*
X2052075D01*
X1988730Y1615415D02*
X2052012D01*
X2002254Y1587423D02*
X2051956D01*
X1988376Y1615769D02*
X2051942D01*
X1988022Y1616123D02*
X2051916D01*
X1987667Y1616478D02*
X2051915D01*
X2007230Y1591320D02*
X2051914D01*
X2030061Y1571832D02*
X2051808D01*
X2029081Y1575375D02*
X2051739D01*
X2002609Y1587777D02*
X2051651D01*
X2007057Y1590966D02*
X2051621D01*
X2030017Y1572186D02*
X2051545D01*
X2029081Y1575021D02*
X2051496D01*
X2002963Y1588131D02*
X2051433D01*
X2006814Y1590612D02*
X2051412D01*
X2029926Y1572541D02*
X2051359D01*
X2029081Y1574667D02*
X2051325D01*
X2003317Y1588486D02*
X2051281D01*
X2006470Y1590257D02*
X2051267D01*
X2029781Y1572895D02*
X2051232D01*
X2029081Y1574312D02*
X2051210D01*
X2003672Y1588840D02*
X2051184D01*
X2005948Y1589903D02*
X2051176D01*
X2029572Y1573249D02*
X2051156D01*
X2029081Y1573958D02*
X2051146D01*
X2004026Y1589194D02*
X2051135D01*
X2004381Y1589549D02*
X2051132D01*
X2029278Y1573604D02*
X2051128D01*
X1987313Y1616832D02*
X2049826D01*
X1986959Y1617186D02*
X2049326D01*
X1986606Y1617541D02*
X2049013D01*
X1986561Y1617895D02*
X2048803D01*
X1986561Y1618249D02*
X2048666D01*
X2003178Y1654037D02*
X2047503D01*
X1986561Y1618604D02*
X2047378D01*
X2003751Y1653683D02*
X2046930D01*
X2007033Y1634549D02*
X2046797D01*
X2007033Y1634194D02*
X2046797D01*
X2007033Y1633840D02*
X2046797D01*
X2007033Y1633486D02*
X2046797D01*
X2007033Y1633131D02*
X2046797D01*
X2007033Y1632777D02*
X2046797D01*
X2007033Y1632423D02*
X2046797D01*
X2007033Y1632068D02*
X2046797D01*
X2007033Y1631714D02*
X2046797D01*
X2007033Y1631360D02*
X2046797D01*
X2007033Y1631005D02*
X2046797D01*
X2007033Y1630651D02*
X2046797D01*
X2007033Y1630297D02*
X2046797D01*
X2007033Y1629942D02*
X2046797D01*
X2007033Y1629588D02*
X2046797D01*
X2007033Y1629234D02*
X2046797D01*
X2007033Y1628879D02*
X2046797D01*
X2007033Y1628525D02*
X2046797D01*
X2007033Y1628171D02*
X2046797D01*
X2007033Y1627816D02*
X2046797D01*
X2007033Y1627462D02*
X2046797D01*
X2007033Y1627108D02*
X2046797D01*
X2007033Y1626753D02*
X2046797D01*
X2007022Y1626399D02*
X2046797D01*
X2006945Y1626045D02*
X2046797D01*
X2006784Y1625690D02*
X2046797D01*
X2006506Y1625336D02*
X2046797D01*
X2006152Y1624982D02*
X2046797D01*
X2005798Y1624627D02*
X2046797D01*
X2005443Y1624273D02*
X2046797D01*
X2005241Y1623919D02*
X2046797D01*
X2005165Y1623564D02*
X2046797D01*
X2005028Y1623210D02*
X2046797D01*
X2004817Y1622856D02*
X2046671D01*
X1986561Y1618958D02*
X2046617D01*
X2007033Y1634903D02*
X2046538D01*
X2004504Y1622501D02*
X2046252D01*
X1986561Y1619312D02*
X2046219D01*
X2004699Y1653328D02*
X2045982D01*
X2004004Y1622147D02*
X2045979D01*
X1986561Y1619667D02*
X2045957D01*
X1986561Y1621793D02*
X2045796D01*
X1986561Y1620021D02*
X2045781D01*
X1986561Y1621438D02*
X2045681D01*
X1986561Y1620375D02*
X2045673D01*
X1986561Y1621084D02*
X2045624D01*
X1986561Y1620730D02*
X2045621D01*
X2007033Y1635257D02*
X2045577D01*
X2005276Y1652974D02*
X2045405D01*
X2007033Y1635612D02*
X2045108D01*
X2005704Y1652620D02*
X2044977D01*
X2007033Y1635966D02*
X2044790D01*
X2031093Y1652265D02*
X2044641D01*
X2007032Y1636320D02*
X2044564D01*
X2042982Y1646596D02*
X2044507D01*
X2006980Y1636675D02*
X2044406D01*
X2042628Y1646950D02*
X2044372D01*
X2037416Y1651911D02*
X2044370D01*
X2006210Y1638446D02*
X2044365D01*
X2006850Y1637029D02*
X2044302D01*
X2006347Y1638092D02*
X2044279D01*
X2006618Y1637383D02*
X2044248D01*
X2006422Y1637738D02*
X2044241D01*
X2006000Y1638801D02*
X2044233D01*
X2042274Y1647305D02*
X2044152D01*
X2037992Y1651557D02*
X2044150D01*
X2041919Y1647659D02*
X2043975D01*
X2038376Y1651202D02*
X2043974D01*
X2041565Y1648013D02*
X2043837D01*
X2038730Y1650848D02*
X2043836D01*
X2041211Y1648368D02*
X2043732D01*
X2039085Y1650494D02*
X2043731D01*
X2040856Y1648722D02*
X2043658D01*
X2039439Y1650139D02*
X2043658D01*
X2040502Y1649076D02*
X2043615D01*
X2039793Y1649785D02*
X2043615D01*
X2040148Y1649431D02*
X2043600D01*
X2005688Y1639155D02*
X2038059D01*
X2005190Y1639509D02*
X2037679D01*
X2002288Y1639864D02*
X2037325D01*
X2002194Y1640218D02*
X2036970D01*
X2002011Y1640572D02*
X2036616D01*
X2001706Y1640927D02*
X2036262D01*
X2001354Y1641281D02*
X2035907D01*
X2001277Y1641635D02*
X2035553D01*
X2001176Y1641990D02*
X2035199D01*
X2001932Y1604076D02*
X2034991D01*
X2001009Y1642344D02*
X2034844D01*
X1989840Y1613643D02*
X2034528D01*
X2001749Y1604431D02*
X2034521D01*
X2011491Y1642698D02*
X2034490D01*
X1924159Y1609037D02*
X2034297D01*
X1924206Y1608683D02*
X2034297D01*
X1924324Y1608328D02*
X2034297D01*
X1924356Y1607974D02*
X2034297D01*
X1924356Y1607620D02*
X2034297D01*
X2001476Y1604785D02*
X2034222D01*
X1924159Y1609391D02*
X2034204D01*
X2012175Y1643053D02*
X2034136D01*
X1950931Y1607265D02*
X2034099D01*
X2001058Y1605139D02*
X2034021D01*
X1950931Y1606911D02*
X2033940D01*
X1989895Y1613289D02*
X2033910D01*
X2000187Y1605494D02*
X2033891D01*
X1950931Y1606557D02*
X2033845D01*
X1959262Y1605848D02*
X2033821D01*
X1958078Y1606202D02*
X2033806D01*
X2012582Y1643407D02*
X2033781D01*
X1924159Y1609746D02*
X2033734D01*
X1989906Y1612935D02*
X2033551D01*
X1987427Y1610100D02*
X2033434D01*
X1989875Y1612580D02*
X2033311D01*
X1988426Y1610454D02*
X2033233D01*
X1989800Y1612226D02*
X2033152D01*
X1988917Y1610809D02*
X2033104D01*
X1989677Y1611872D02*
X2033057D01*
X1989255Y1611163D02*
X2033034D01*
X1989500Y1611517D02*
X2033019D01*
X2006040Y1652265D02*
X2029430D01*
X2006311Y1651911D02*
X2028658D01*
X2006531Y1651557D02*
X2028211D01*
X2012468Y1647305D02*
X2027919D01*
X2011999Y1647659D02*
X2027901D01*
X2006707Y1651202D02*
X2027899D01*
X2011049Y1648013D02*
X2027672D01*
X2006845Y1650848D02*
X2027671D01*
X2006949Y1648368D02*
X2027508D01*
X2006950Y1650494D02*
X2027507D01*
X2007023Y1648722D02*
X2027396D01*
X2007023Y1650139D02*
X2027395D01*
X2007066Y1649076D02*
X2027331D01*
X2007066Y1649785D02*
X2027330D01*
X2007081Y1649431D02*
X2027309D01*
X1950931Y1568998D02*
X2026660D01*
X2000811Y1586005D02*
X2026190D01*
X1950931Y1569352D02*
X2025828D01*
X1950931Y1585651D02*
X2025603D01*
X1950931Y1581045D02*
X2025537D01*
X1950931Y1580690D02*
X2025537D01*
X1950931Y1580336D02*
X2025537D01*
X1950931Y1579982D02*
X2025537D01*
X1950931Y1579627D02*
X2025537D01*
X1950931Y1579273D02*
X2025537D01*
X1950931Y1578919D02*
X2025537D01*
X1950931Y1578564D02*
X2025537D01*
X1950931Y1578210D02*
X2025537D01*
X1950931Y1577856D02*
X2025537D01*
X1950931Y1577501D02*
X2025537D01*
X1950931Y1577147D02*
X2025537D01*
X1950931Y1576793D02*
X2025537D01*
X1950931Y1576438D02*
X2025537D01*
X1950931Y1576084D02*
X2025537D01*
X1950931Y1575730D02*
X2025537D01*
X1950931Y1575375D02*
X2025537D01*
X1950931Y1575021D02*
X2025537D01*
X1950931Y1574667D02*
X2025537D01*
X1950931Y1574312D02*
X2025537D01*
X1950931Y1573958D02*
X2025537D01*
X1950931Y1581399D02*
X2025502D01*
X1950931Y1569706D02*
X2025382D01*
X1950931Y1573604D02*
X2025340D01*
X1950931Y1585297D02*
X2025231D01*
X1950931Y1581753D02*
X2025167D01*
X1950931Y1570060D02*
X2025076D01*
X1950931Y1573249D02*
X2025046D01*
X1950931Y1584942D02*
X2024969D01*
X1950931Y1582108D02*
X2024923D01*
X1950931Y1570415D02*
X2024859D01*
X1950931Y1572895D02*
X2024837D01*
X1950931Y1584588D02*
X2024783D01*
X1950931Y1582462D02*
X2024751D01*
X1950931Y1570769D02*
X2024707D01*
X1950931Y1572541D02*
X2024692D01*
X1950931Y1584234D02*
X2024656D01*
X1950931Y1582816D02*
X2024636D01*
X1950931Y1571123D02*
X2024609D01*
X1950931Y1572186D02*
X2024601D01*
X1950931Y1583879D02*
X2024581D01*
X1950931Y1583171D02*
X2024571D01*
X1950931Y1571478D02*
X2024560D01*
X1950931Y1571832D02*
X2024558D01*
X1950931Y1583525D02*
X2024553D01*
X2006845Y1648013D02*
X2010105D01*
X2000759Y1642698D02*
X2009662D01*
X2006706Y1647659D02*
X2009155D01*
X2000382Y1643053D02*
X2008979D01*
X2006529Y1647305D02*
X2008688D01*
X1999704Y1643407D02*
X2008572D01*
X2006309Y1646950D02*
X2008371D01*
X1998336Y1643761D02*
X2008289D01*
X2006038Y1646596D02*
X2008146D01*
X1998126Y1644116D02*
X2008087D01*
X2005701Y1646242D02*
X2007987D01*
X1997814Y1644470D02*
X2007948D01*
X2005272Y1645887D02*
X2007885D01*
X1997316Y1644824D02*
X2007862D01*
X2004694Y1645533D02*
X2007831D01*
X2003740Y1645179D02*
X2007823D01*
X1950931Y1594864D02*
X2003552D01*
X2002309Y1639509D02*
X2002971D01*
X1950931Y1594509D02*
X2002965D01*
X1950931Y1594155D02*
X2002593D01*
X1950931Y1593801D02*
X2002331D01*
X1907443Y1654037D02*
X2002228D01*
X1950931Y1593446D02*
X2002145D01*
X1950931Y1593092D02*
X2002018D01*
X1950931Y1592738D02*
X2001943D01*
X1950931Y1592383D02*
X2001916D01*
X1971025Y1592029D02*
X2001849D01*
X1986561Y1622147D02*
X2001795D01*
X1994041Y1645179D02*
X2001665D01*
X1907427Y1653683D02*
X2001655D01*
X1971767Y1591675D02*
X2001495D01*
X1986561Y1622501D02*
X2001295D01*
X1972192Y1591320D02*
X2001141D01*
X1986561Y1622856D02*
X2000982D01*
X1972485Y1590966D02*
X2000786D01*
X1986561Y1623210D02*
X2000771D01*
X1994041Y1645533D02*
X2000712D01*
X1907427Y1653328D02*
X2000706D01*
X1986561Y1623564D02*
X2000635D01*
X1986561Y1623919D02*
X2000559D01*
X1986561Y1624273D02*
X2000538D01*
X1972694Y1590612D02*
X2000432D01*
X1997935Y1624627D02*
X2000384D01*
X1994041Y1645887D02*
X2000133D01*
X1907427Y1652974D02*
X2000130D01*
X1972839Y1590257D02*
X2000078D01*
X1998509Y1624982D02*
X1999810D01*
X1972931Y1589903D02*
X1999723D01*
X1994041Y1646242D02*
X1999705D01*
X1907427Y1652620D02*
X1999702D01*
X1998853Y1625336D02*
X1999466D01*
X1972974Y1589549D02*
X1999369D01*
X1994041Y1646596D02*
X1999367D01*
X1907427Y1652265D02*
X1999365D01*
X1990344Y1605494D02*
X1999313D01*
X1990507Y1600887D02*
X1999150D01*
X1994041Y1646950D02*
X1999096D01*
X1911950Y1651911D02*
X1999094D01*
X1994041Y1647305D02*
X1998876D01*
X1912501Y1651557D02*
X1998875D01*
X1994041Y1647659D02*
X1998700D01*
X1912858Y1651202D02*
X1998699D01*
X1994020Y1648013D02*
X1998561D01*
X1949524Y1650848D02*
X1998560D01*
X1993955Y1648368D02*
X1998456D01*
X1991920Y1650494D02*
X1998455D01*
X1993844Y1648722D02*
X1998383D01*
X1992693Y1650139D02*
X1998382D01*
X1993680Y1649076D02*
X1998339D01*
X1993139Y1649785D02*
X1998339D01*
X1993452Y1649431D02*
X1998325D01*
X1986561Y1624627D02*
X1996053D01*
X1986561Y1624982D02*
X1995479D01*
X1994184Y1625336D02*
X1995136D01*
X1994041Y1644824D02*
X1995097D01*
X1994041Y1644470D02*
X1994599D01*
X1986561Y1625336D02*
X1992717D01*
X1986561Y1625690D02*
X1992035D01*
X1986561Y1626045D02*
X1991657D01*
X1986561Y1626399D02*
X1991406D01*
X1986561Y1626753D02*
X1991238D01*
X1986561Y1627108D02*
X1991137D01*
X1986561Y1627462D02*
X1991092D01*
X1986561Y1627816D02*
X1990980D01*
X1986561Y1628171D02*
X1990903D01*
X1952900Y1634194D02*
X1990892D01*
X1952900Y1633840D02*
X1990892D01*
X1952900Y1633486D02*
X1990892D01*
X1952900Y1633131D02*
X1990892D01*
X1952900Y1632777D02*
X1990892D01*
X1952900Y1632423D02*
X1990892D01*
X1968499Y1632068D02*
X1990892D01*
X1983697Y1631714D02*
X1990892D01*
X1985013Y1631360D02*
X1990892D01*
X1985529Y1631005D02*
X1990892D01*
X1985878Y1630651D02*
X1990892D01*
X1986131Y1630297D02*
X1990892D01*
X1986315Y1629942D02*
X1990892D01*
X1986443Y1629588D02*
X1990892D01*
X1986523Y1629234D02*
X1990892D01*
X1986559Y1628879D02*
X1990892D01*
X1986561Y1628525D02*
X1990892D01*
X1952900Y1634549D02*
X1990671D01*
X1952890Y1634903D02*
X1990317D01*
X1950232Y1650494D02*
X1990257D01*
X1952840Y1635257D02*
X1989962D01*
X1952745Y1635612D02*
X1989608D01*
X1950659Y1650139D02*
X1989484D01*
X1959888Y1605494D02*
X1989471D01*
X1961693Y1600887D02*
X1989308D01*
X1952599Y1635966D02*
X1989254D01*
X1950961Y1649785D02*
X1989038D01*
X1952394Y1636320D02*
X1988899D01*
X1951181Y1649431D02*
X1988725D01*
X1960342Y1605139D02*
X1988600D01*
X1961759Y1601242D02*
X1988546D01*
X1952113Y1636675D02*
X1988545D01*
X1951339Y1649076D02*
X1988497D01*
X1951445Y1648722D02*
X1988333D01*
X1951505Y1648368D02*
X1988222D01*
X1951762Y1637029D02*
X1988191D01*
X1960696Y1604785D02*
X1988182D01*
X1951522Y1648013D02*
X1988157D01*
X1961796Y1601596D02*
X1988148D01*
X1951522Y1647659D02*
X1988136D01*
X1951522Y1647305D02*
X1988136D01*
X1951522Y1646950D02*
X1988136D01*
X1978419Y1646596D02*
X1988136D01*
X1983592Y1646242D02*
X1988136D01*
X1984330Y1645887D02*
X1988136D01*
X1984698Y1645533D02*
X1988136D01*
X1985052Y1645179D02*
X1988136D01*
X1985406Y1644824D02*
X1988136D01*
X1985761Y1644470D02*
X1988136D01*
X1986115Y1644116D02*
X1988136D01*
X1986469Y1643761D02*
X1988136D01*
X1986824Y1643407D02*
X1988136D01*
X1987178Y1643053D02*
X1988136D01*
X1987532Y1642698D02*
X1988136D01*
X1960980Y1604431D02*
X1987908D01*
X1961804Y1601950D02*
X1987886D01*
X1951522Y1637383D02*
X1987836D01*
X1961210Y1604076D02*
X1987725D01*
X1961784Y1602305D02*
X1987710D01*
X1961395Y1603722D02*
X1987610D01*
X1961734Y1602659D02*
X1987602D01*
X1961542Y1603368D02*
X1987553D01*
X1961654Y1603013D02*
X1987551D01*
X1951522Y1637738D02*
X1987482D01*
X1951522Y1638092D02*
X1987128D01*
X1951522Y1638446D02*
X1986773D01*
X1924159Y1610100D02*
X1986482D01*
X1951522Y1638801D02*
X1986419D01*
X1951522Y1639155D02*
X1986065D01*
X1951522Y1639509D02*
X1985710D01*
X1921977Y1610454D02*
X1985484D01*
X1951522Y1639864D02*
X1985356D01*
X1951522Y1640218D02*
X1985002D01*
X1919273Y1610809D02*
X1984992D01*
X1951522Y1640572D02*
X1984647D01*
X1918919Y1611163D02*
X1984631D01*
X1951522Y1640927D02*
X1984293D01*
X1967351Y1611517D02*
X1984276D01*
X1951522Y1641281D02*
X1983939D01*
X1968216Y1611872D02*
X1983922D01*
X1951522Y1641635D02*
X1983584D01*
X1968685Y1612226D02*
X1983568D01*
X1951522Y1641990D02*
X1983230D01*
X1969019Y1612580D02*
X1983213D01*
X1978250Y1642344D02*
X1982876D01*
X1969334Y1612935D02*
X1982859D01*
X1978824Y1642698D02*
X1982519D01*
X1969649Y1613289D02*
X1982505D01*
X1969964Y1613643D02*
X1982150D01*
X1970279Y1613998D02*
X1981796D01*
X1970585Y1614352D02*
X1981444D01*
X1970822Y1614706D02*
X1981163D01*
X1970993Y1615060D02*
X1980957D01*
X1971110Y1615415D02*
X1980811D01*
X1971180Y1615769D02*
X1980715D01*
X1971206Y1616123D02*
X1980665D01*
X1972940Y1625336D02*
X1980655D01*
X1972586Y1624982D02*
X1980655D01*
X1972232Y1624627D02*
X1980655D01*
X1971877Y1624273D02*
X1980655D01*
X1971523Y1623919D02*
X1980655D01*
X1971212Y1623564D02*
X1980655D01*
X1971207Y1623210D02*
X1980655D01*
X1971207Y1622856D02*
X1980655D01*
X1971207Y1622501D02*
X1980655D01*
X1971207Y1622147D02*
X1980655D01*
X1971207Y1621793D02*
X1980655D01*
X1971207Y1621438D02*
X1980655D01*
X1971207Y1621084D02*
X1980655D01*
X1971207Y1620730D02*
X1980655D01*
X1971207Y1620375D02*
X1980655D01*
X1971207Y1620021D02*
X1980655D01*
X1971207Y1619667D02*
X1980655D01*
X1971207Y1619312D02*
X1980655D01*
X1971207Y1618958D02*
X1980655D01*
X1971207Y1618604D02*
X1980655D01*
X1971207Y1618249D02*
X1980655D01*
X1971207Y1617895D02*
X1980655D01*
X1971207Y1617541D02*
X1980655D01*
X1971207Y1617186D02*
X1980655D01*
X1971207Y1616832D02*
X1980655D01*
X1971207Y1616478D02*
X1980655D01*
X1973295Y1625690D02*
X1980640D01*
X1951522Y1642344D02*
X1976368D01*
X1951522Y1646596D02*
X1976199D01*
X1951522Y1642698D02*
X1975794D01*
X1951522Y1646242D02*
X1975702D01*
X1951522Y1643053D02*
X1975450D01*
X1951522Y1645887D02*
X1975389D01*
X1951522Y1643407D02*
X1975221D01*
X1951522Y1645533D02*
X1975180D01*
X1951522Y1643761D02*
X1975069D01*
X1951522Y1645179D02*
X1975043D01*
X1951522Y1644116D02*
X1974980D01*
X1951522Y1644824D02*
X1974968D01*
X1951522Y1644470D02*
X1974947D01*
X1969031Y1631714D02*
X1972102D01*
X1950931Y1586005D02*
X1971130D01*
X1969357Y1631360D02*
X1970786D01*
X1950931Y1586360D02*
X1970750D01*
X1969577Y1631005D02*
X1970270D01*
X1950931Y1586714D02*
X1969574D01*
X1950931Y1592029D02*
X1969420D01*
X1950931Y1587068D02*
X1968741D01*
X1950931Y1591675D02*
X1968677D01*
X1950931Y1587423D02*
X1968295D01*
X1950931Y1591320D02*
X1968253D01*
X1950931Y1587777D02*
X1967990D01*
X1950931Y1590966D02*
X1967960D01*
X1950931Y1588131D02*
X1967772D01*
X1950931Y1590612D02*
X1967751D01*
X1950931Y1588486D02*
X1967620D01*
X1950931Y1590257D02*
X1967606D01*
X1950931Y1588840D02*
X1967522D01*
X1950931Y1589903D02*
X1967514D01*
X1950931Y1589194D02*
X1967474D01*
X1950931Y1589549D02*
X1967471D01*
X1964562Y1632068D02*
X1966434D01*
X1965093Y1631714D02*
X1965903D01*
X1953106Y1611517D02*
X1963448D01*
X1953867Y1611872D02*
X1962583D01*
X1952900Y1632068D02*
X1962497D01*
X1954265Y1612226D02*
X1962114D01*
X1952900Y1631714D02*
X1961966D01*
X1954528Y1612580D02*
X1961789D01*
X1952900Y1631360D02*
X1961639D01*
X1954703Y1612935D02*
X1961552D01*
X1952900Y1631005D02*
X1961419D01*
X1954812Y1613289D02*
X1961381D01*
X1952900Y1630651D02*
X1961276D01*
X1954873Y1613643D02*
X1961264D01*
X1960599Y1615060D02*
X1961244D01*
X1960955Y1615415D02*
X1961241D01*
X1955207Y1613998D02*
X1961194D01*
X1952900Y1630297D02*
X1961194D01*
X1960028Y1614706D02*
X1961184D01*
X1955561Y1614352D02*
X1961168D01*
X1952900Y1629942D02*
X1961023D01*
X1952895Y1629588D02*
X1960668D01*
X1952855Y1629234D02*
X1960314D01*
X1959741Y1620375D02*
X1960183D01*
X1959468Y1620021D02*
X1960183D01*
X1959079Y1619667D02*
X1960171D01*
X1952769Y1628879D02*
X1959960D01*
X1958447Y1619312D02*
X1959842D01*
X1952635Y1628525D02*
X1959605D01*
X1907624Y1618958D02*
X1959487D01*
X1952444Y1628171D02*
X1959251D01*
X1907624Y1618604D02*
X1959133D01*
X1952181Y1627816D02*
X1958897D01*
X1907624Y1618249D02*
X1958779D01*
X1951817Y1627462D02*
X1958542D01*
X1951271Y1627108D02*
X1958188D01*
X1945576Y1626753D02*
X1957834D01*
X1945481Y1626399D02*
X1957479D01*
X1945321Y1626045D02*
X1957125D01*
X1950931Y1606202D02*
X1956777D01*
X1945081Y1625690D02*
X1956771D01*
X1944721Y1625336D02*
X1956416D01*
X1907624Y1619312D02*
X1956408D01*
X1950931Y1597698D02*
X1956108D01*
X1944099Y1624982D02*
X1956071D01*
X1927856Y1624627D02*
X1955839D01*
X1907624Y1619667D02*
X1955775D01*
X1920801Y1624273D02*
X1955709D01*
X1950931Y1605848D02*
X1955593D01*
X1920810Y1623919D02*
X1955581D01*
X1907624Y1620021D02*
X1955386D01*
X1950931Y1598053D02*
X1955289D01*
X1920765Y1623564D02*
X1955251D01*
X1907624Y1620375D02*
X1955114D01*
X1920663Y1623210D02*
X1955017D01*
X1950931Y1605494D02*
X1954966D01*
X1907624Y1620730D02*
X1954919D01*
X1920496Y1622856D02*
X1954852D01*
X1907624Y1621084D02*
X1954787D01*
X1950931Y1598407D02*
X1954752D01*
X1920245Y1622501D02*
X1954744D01*
X1907632Y1621438D02*
X1954706D01*
X1919866Y1622147D02*
X1954685D01*
X1919184Y1621793D02*
X1954672D01*
X1950931Y1605139D02*
X1954512D01*
X1950931Y1598761D02*
X1954347D01*
X1907624Y1617895D02*
X1954179D01*
X1950931Y1604785D02*
X1954158D01*
X1950931Y1599116D02*
X1954027D01*
X1950931Y1604431D02*
X1953874D01*
X1950931Y1599470D02*
X1953768D01*
X1907624Y1617541D02*
X1953739D01*
X1950931Y1604076D02*
X1953644D01*
X1950931Y1599824D02*
X1953558D01*
X1950931Y1603722D02*
X1953459D01*
X1950931Y1600179D02*
X1953390D01*
X1907624Y1617186D02*
X1953385D01*
X1950931Y1603368D02*
X1953312D01*
X1950931Y1600533D02*
X1953259D01*
X1950931Y1603013D02*
X1953200D01*
X1950931Y1600887D02*
X1953162D01*
X1950931Y1602659D02*
X1953120D01*
X1950931Y1601242D02*
X1953095D01*
X1950931Y1602305D02*
X1953071D01*
X1950931Y1601596D02*
X1953058D01*
X1950931Y1601950D02*
X1953050D01*
X1907644Y1616832D02*
X1953031D01*
X1907982Y1616478D02*
X1952676D01*
X1908337Y1616123D02*
X1952069D01*
X1918543Y1611517D02*
X1951906D01*
X1908691Y1615769D02*
X1951198D01*
X1917924Y1611872D02*
X1951144D01*
X1909045Y1615415D02*
X1950780D01*
X1912234Y1612226D02*
X1950746D01*
X1909400Y1615060D02*
X1950507D01*
X1911880Y1612580D02*
X1950484D01*
X1909754Y1614706D02*
X1950324D01*
X1911526Y1612935D02*
X1950309D01*
X1910108Y1614352D02*
X1950209D01*
X1911171Y1613289D02*
X1950200D01*
X1910463Y1613998D02*
X1950152D01*
X1910817Y1613643D02*
X1950149D01*
X1945615Y1627108D02*
X1948622D01*
X1945600Y1627462D02*
X1948076D01*
X1945531Y1627816D02*
X1947713D01*
X1913110Y1650848D02*
X1947614D01*
X1945402Y1628171D02*
X1947450D01*
X1945201Y1628525D02*
X1947259D01*
X1944903Y1628879D02*
X1947124D01*
X1944435Y1629234D02*
X1947039D01*
X1904474Y1629588D02*
X1946998D01*
X1904474Y1633131D02*
X1946994D01*
X1904474Y1632777D02*
X1946994D01*
X1904474Y1632423D02*
X1946994D01*
X1904474Y1632068D02*
X1946994D01*
X1904474Y1631714D02*
X1946994D01*
X1904474Y1631360D02*
X1946994D01*
X1904474Y1631005D02*
X1946994D01*
X1904474Y1630651D02*
X1946994D01*
X1904474Y1630297D02*
X1946994D01*
X1904474Y1629942D02*
X1946994D01*
X1904474Y1633486D02*
X1946952D01*
X1913289Y1650494D02*
X1946905D01*
X1904474Y1633840D02*
X1946599D01*
X1913410Y1650139D02*
X1946478D01*
X1904474Y1634194D02*
X1946269D01*
X1913479Y1649785D02*
X1946177D01*
X1904474Y1634549D02*
X1946024D01*
X1913502Y1649431D02*
X1945957D01*
X1904474Y1634903D02*
X1945846D01*
X1913479Y1649076D02*
X1945799D01*
X1904474Y1635257D02*
X1945723D01*
X1913409Y1648722D02*
X1945693D01*
X1904474Y1635612D02*
X1945648D01*
X1913288Y1648368D02*
X1945633D01*
X1904474Y1635966D02*
X1945617D01*
X1913109Y1648013D02*
X1945616D01*
X1912856Y1647659D02*
X1945616D01*
X1912498Y1647305D02*
X1945616D01*
X1911945Y1646950D02*
X1945616D01*
X1907027Y1646596D02*
X1945616D01*
X1906684Y1646242D02*
X1945616D01*
X1906341Y1645887D02*
X1945616D01*
X1905999Y1645533D02*
X1945616D01*
X1905656Y1645179D02*
X1945616D01*
X1905313Y1644824D02*
X1945616D01*
X1904970Y1644470D02*
X1945616D01*
X1904627Y1644116D02*
X1945616D01*
X1904474Y1643761D02*
X1945616D01*
X1904474Y1643407D02*
X1945616D01*
X1904474Y1643053D02*
X1945616D01*
X1904474Y1642698D02*
X1945616D01*
X1904474Y1642344D02*
X1945616D01*
X1904474Y1641990D02*
X1945616D01*
X1904474Y1641635D02*
X1945616D01*
X1904474Y1641281D02*
X1945616D01*
X1904474Y1640927D02*
X1945616D01*
X1904474Y1640572D02*
X1945616D01*
X1904474Y1640218D02*
X1945616D01*
X1904474Y1639864D02*
X1945616D01*
X1904474Y1639509D02*
X1945616D01*
X1904474Y1639155D02*
X1945616D01*
X1904474Y1638801D02*
X1945616D01*
X1904474Y1638446D02*
X1945616D01*
X1904474Y1638092D02*
X1945616D01*
X1904474Y1637738D02*
X1945616D01*
X1904474Y1637383D02*
X1945616D01*
X1904474Y1637029D02*
X1945616D01*
X1904474Y1636675D02*
X1945616D01*
X1904474Y1636320D02*
X1945616D01*
X1924356Y1607265D02*
X1943451D01*
X1924356Y1606911D02*
X1943451D01*
X1924356Y1606557D02*
X1943385D01*
X1924356Y1606202D02*
X1943278D01*
X1924356Y1605848D02*
X1943254D01*
X1928430Y1624982D02*
X1942409D01*
X1904474Y1629234D02*
X1942073D01*
X1928774Y1625336D02*
X1941787D01*
X1924356Y1605494D02*
X1941261D01*
X1924356Y1605139D02*
X1940773D01*
X1924356Y1604785D02*
X1940547D01*
X1924356Y1604431D02*
X1940267D01*
X1924356Y1604076D02*
X1939971D01*
X1924356Y1603722D02*
X1939738D01*
X1924356Y1603368D02*
X1939556D01*
X1924356Y1603013D02*
X1939417D01*
X1924356Y1602659D02*
X1939317D01*
X1920738Y1624627D02*
X1925974D01*
X1904474Y1628879D02*
X1925806D01*
X1920616Y1624982D02*
X1925400D01*
X1904474Y1628525D02*
X1925308D01*
X1920425Y1625336D02*
X1925057D01*
X1909278Y1628171D02*
X1924996D01*
X1920139Y1625690D02*
X1924827D01*
X1910445Y1627816D02*
X1924786D01*
X1919697Y1626045D02*
X1924675D01*
X1910887Y1627462D02*
X1924650D01*
X1918530Y1626399D02*
X1924586D01*
X1911173Y1627108D02*
X1924574D01*
X1911364Y1626753D02*
X1924553D01*
X1911486Y1626399D02*
X1918371D01*
X1907804Y1621793D02*
X1917717D01*
X1911549Y1626045D02*
X1917204D01*
X1911824Y1625690D02*
X1916763D01*
X1912589Y1611872D02*
X1916221D01*
X1912943Y1611517D02*
X1915603D01*
X1913297Y1611163D02*
X1915244D01*
X1913652Y1610809D02*
X1915004D01*
X1907925Y1622147D02*
X1910649D01*
X1907995Y1622501D02*
X1910008D01*
X1908018Y1622856D02*
X1909647D01*
X1907370Y1646950D02*
X1909547D01*
X1907427Y1651911D02*
X1909542D01*
X1907995Y1623210D02*
X1909293D01*
X1904474Y1628171D02*
X1909119D01*
X1907427Y1647305D02*
X1908994D01*
X1907427Y1651557D02*
X1908991D01*
X1907427Y1647659D02*
X1908636D01*
X1907427Y1651202D02*
X1908634D01*
X1907973Y1623564D02*
X1908465D01*
X1907427Y1648013D02*
X1908383D01*
X1907427Y1650848D02*
X1908382D01*
X1907427Y1648368D02*
X1908204D01*
X1907427Y1650494D02*
X1908203D01*
X1907427Y1648722D02*
X1908083D01*
X1907427Y1650139D02*
X1908082D01*
X1907427Y1649076D02*
X1908013D01*
X1907427Y1649785D02*
X1908013D01*
X1907427Y1649431D02*
X1907990D01*
X1904474Y1627816D02*
X1907952D01*
X1904474Y1627462D02*
X1907511D01*
X1904474Y1627108D02*
X1907225D01*
X1904597Y1626753D02*
X1907033D01*
X1904951Y1626399D02*
X1906911D01*
X1905305Y1626045D02*
X1906848D01*
X1905660Y1625690D02*
X1906840D01*
X1906466Y1625336D02*
X1906821D01*
G54D99*
X1887545Y1625810D03*
G54D100*
Y1615967D03*
Y1606125D03*
Y1596282D03*
G54D101*
X1870222Y1636046D03*
G54D102*
Y1626046D03*
Y1616046D03*
Y1606046D03*
Y1596046D03*
Y1586046D03*
G54D103*
X2087427Y1571440D03*
X1890498Y1575613D03*
G54D104*
X2077427Y1571440D03*
X2087427Y1581440D03*
X2077427D03*
X2087427Y1591440D03*
X2077427D03*
X2087427Y1601440D03*
X2077427D03*
X1900498Y1575613D03*
X1910498D03*
X1920498D03*
G54D109*
X1881640Y1637621D03*
Y1584471D03*
G54D113*
X1943057Y1602078D03*
Y1603478D03*
G54D116*
Y1605141D01*
X1937742*
X1943057Y1592345D02*
Y1601794D01*
G74*
X0Y0D02*
M02*
