%
T1C.00787F0S0
X005906Y00439
X006043Y005827
X003937Y006004
X005118Y006004
X008524Y006142
X00689Y006102
X007185Y005315
X006791Y005315
X007579Y005315
X007972Y005315
X008366Y005315
X008366Y004921
X006791Y004921
X007972Y004921
X007579Y004921
X007185Y004921
X008366Y004528
X007972Y004528
X006791Y004528
X007579Y004528
X007185Y004528
X007185Y004134
X007972Y004134
X008366Y004134
X007579Y004134
X006791Y004134
X007185Y00374
X006791Y00374
X007579Y00374
X008366Y00374
X007972Y00374
X008504Y003602
X007618Y002854
X006457Y002657
X007539Y000984
X007283Y000354
X009449Y004803
X01063Y005217
X01063Y005748
X010945Y006417
X010551Y006417
X011929Y007874
X011417Y006299
X013543Y006181
X011417Y00561
X011713Y00561
X012008Y00561
X012008Y005315
X011417Y005315
X011713Y005315
X012008Y00502
X011713Y00502
X011417Y00502
X012795Y00374
X013189Y00374
X014173Y00374
X015748Y004626
X016142Y004626
X015945Y004823
X015453Y004823
X015748Y00502
X016142Y00502
X015945Y005217
X015748Y005413
X016142Y005413
X015945Y00561
X015748Y005807
X016142Y005807
X014488Y005846
X013898Y006102
X014331Y006102
X014488Y006358
X014488Y00685
X014606Y007165
X014094Y007539
X013819Y007697
X016535Y005807
X016339Y00561
X016535Y005413
X016339Y005217
X016535Y00502
X016339Y004823
X016535Y004626
X017736Y004567
X017815Y004035
X019291Y005315
X018996Y005512
T2C.01378F095S3
X001378Y000886
X005906Y002559
X003976Y002854
X003976Y003642
X003976Y004035
X003937Y005217
X005059Y005354
X004724Y005709
X003839Y006988
X006004Y007185
X005273Y008366
X001969Y008563
X007874Y00811
X007087Y002657
X007028Y002264
X008071Y001476
X007677Y001476
X007283Y001476
X008957Y001476
X011122Y002894
X008937Y003248
X010925Y004488
X01061Y004862
X009941Y00561
X009193Y006398
X010138Y006398
X009055Y008228
X013307Y008189
X012559Y006299
X012894Y004724
X012953Y004331
X011516Y002913
X012402Y002559
X01122Y002362
X014665Y002657
X015453Y003543
X015453Y003937
X015453Y004331
X014075Y005413
X01378Y006496
X015256Y007953
X017224Y008366
X016732Y007579
X017874Y007283
X017874Y005512
X017323Y003346
X016929Y001772
X017402Y000984
X017402Y000591
X016929Y000591
X019587Y000787
X019587Y002362
X018799Y00374
X018799Y004134
X019882Y004843
X018799Y006122
X018898Y007185
X022087Y004843
X021732Y004331
X021358Y000591
T3C.03937F197S55
X009941Y00361
X014469Y008366
X018996Y008366
X021941Y000567
X022941Y000567
X022941Y001567
X021941Y001567
X022941Y002567
X021941Y002567
X022941Y003567
X021941Y003567
T4C.04F139S55
X003248Y000984
X004248Y000984
X005248Y000984
X006248Y000984
T5C.04331F139S55
X00122Y002028
X00122Y003028
X00122Y004028
X00122Y005028
X00122Y006028
X00122Y007028
T6C.04724F139S55
X002953Y003051
X002953Y004035
X002953Y00502
X002953Y006004
X024409Y008033
X024409Y006533
X026378Y006533
X026378Y008033
T7C.1063F069S658
X002362Y00187
X002362Y007185
M30
