*
*
G04 PADS 9.3.1 Build Number: 461647 generated Gerber (RS-274-X) file*
G04 PC Version=2.1*
*
%IN "DEMO-AD5700-D2Z RevC1.p"*%
*
%MOIN*%
*
%FSLAX35Y35*%
*
*
*
*
G04 PC Standard Apertures*
*
*
G04 Thermal Relief Aperture macro.*
%AMTER*
1,1,$1,0,0*
1,0,$1-$2,0,0*
21,0,$3,$4,0,0,45*
21,0,$3,$4,0,0,135*
%
*
*
G04 Annular Aperture macro.*
%AMANN*
1,1,$1,0,0*
1,0,$2,0,0*
%
*
*
G04 Odd Aperture macro.*
%AMODD*
1,1,$1,0,0*
1,0,$1-0.005,0,0*
%
*
*
G04 PC Custom Aperture Macros*
*
*
*
*
*
*
G04 PC Aperture Table*
*
%ADD013C,0.009*%
%ADD017C,0.007*%
%ADD018C,0.001*%
%ADD021C,0.00787*%
%ADD063C,0.00984*%
%ADD089C,0.00591*%
*
*
*
*
G04 PC Circuitry*
G04 Layer Name DEMO-AD5700-D2Z RevC1.p - circuitry*
%LPD*%
*
*
G04 PC Custom Flashes*
G04 Layer Name DEMO-AD5700-D2Z RevC1.p - flashes*
%LPD*%
*
*
G04 PC Circuitry*
G04 Layer Name DEMO-AD5700-D2Z RevC1.p - circuitry*
%LPD*%
*
G54D13*
G01X1865577Y1550632D02*
Y1545382D01*
Y1550632D02*
X1866849D01*
X1866849D02*
X1867395Y1550382D01*
X1867759Y1549882*
X1867940Y1549382*
X1868122Y1548632*
Y1547382*
X1867940Y1546632*
X1867759Y1546132*
X1867395Y1545632*
X1866849Y1545382*
X1866849D02*
X1865577D01*
X1869759Y1550632D02*
Y1545382D01*
Y1550632D02*
X1872122D01*
X1869759Y1548132D02*
X1871213D01*
X1869759Y1545382D02*
X1872122D01*
X1873759Y1550632D02*
Y1545382D01*
Y1550632D02*
X1875213Y1545382D01*
X1876668Y1550632D02*
X1875213Y1545382D01*
X1876668Y1550632D02*
Y1545382D01*
X1879395Y1550632D02*
X1878849Y1550382D01*
X1878849D02*
X1878486Y1549632D01*
X1878304Y1548382*
Y1547632*
X1878486Y1546382*
X1878849Y1545632*
X1878849D02*
X1879395Y1545382D01*
X1879759*
X1880304Y1545632*
X1880668Y1546382*
X1880849Y1547632*
X1880849D02*
Y1548382D01*
X1880849D02*
X1880668Y1549632D01*
X1880304Y1550382*
X1879759Y1550632*
X1879395*
X1882486Y1547632D02*
X1885759D01*
X1888849Y1550632D02*
X1887395Y1545382D01*
X1888849Y1550632D02*
X1890304Y1545382D01*
X1887940Y1547132D02*
X1889759D01*
X1891940Y1550632D02*
Y1545382D01*
Y1550632D02*
X1893213D01*
X1893759Y1550382*
X1894122Y1549882*
X1894304Y1549382*
X1894486Y1548632*
Y1547382*
X1894304Y1546632*
X1894122Y1546132*
X1893759Y1545632*
X1893213Y1545382*
X1891940*
X1898486Y1550632D02*
X1896668D01*
X1896486Y1548382*
X1896668Y1548632*
X1897213Y1548882*
X1897759*
X1898304Y1548632*
X1898668Y1548132*
X1898849Y1547382*
X1898849D02*
X1898668Y1546882D01*
X1898486Y1546132*
X1898122Y1545632*
X1897577Y1545382*
X1897031*
X1896486Y1545632*
X1896304Y1545882*
X1896122Y1546382*
X1903031Y1550632D02*
X1901213Y1545382D01*
X1900486Y1550632D02*
X1903031D01*
X1905759D02*
X1905213Y1550382D01*
X1904849Y1549632*
X1904849D02*
X1904668Y1548382D01*
Y1547632*
X1904849Y1546382*
X1904849D02*
X1905213Y1545632D01*
X1905759Y1545382*
X1906122*
X1906668Y1545632*
X1907031Y1546382*
X1907213Y1547632*
Y1548382*
X1907031Y1549632*
X1906668Y1550382*
X1906122Y1550632*
X1905759*
X1909940D02*
X1909395Y1550382D01*
X1909031Y1549632*
X1908849Y1548382*
X1908849D02*
Y1547632D01*
X1908849D02*
X1909031Y1546382D01*
X1909395Y1545632*
X1909940Y1545382*
X1910304*
X1910849Y1545632*
X1910849D02*
X1911213Y1546382D01*
X1911395Y1547632*
Y1548382*
X1911213Y1549632*
X1910849Y1550382*
X1910849D02*
X1910304Y1550632D01*
X1909940*
X1913031Y1547632D02*
X1916304D01*
X1917940Y1550632D02*
Y1545382D01*
Y1550632D02*
X1919213D01*
X1919759Y1550382*
X1920122Y1549882*
X1920304Y1549382*
X1920486Y1548632*
Y1547382*
X1920304Y1546632*
X1920122Y1546132*
X1919759Y1545632*
X1919213Y1545382*
X1917940*
X1922304Y1549382D02*
Y1549632D01*
X1922486Y1550132*
X1922668Y1550382*
X1923031Y1550632*
X1923759*
X1924122Y1550382*
X1924304Y1550132*
X1924486Y1549632*
Y1549132*
X1924304Y1548632*
X1923940Y1547882*
X1922122Y1545382*
X1924668*
X1928849Y1550632D02*
X1926304Y1545382D01*
Y1550632D02*
X1928849D01*
X1926304Y1545382D02*
X1928849D01*
X1935940Y1551632D02*
X1935577Y1551132D01*
X1935213Y1550382*
X1934849Y1549382*
X1934849D02*
X1934668Y1548132D01*
Y1547132*
X1934849Y1545882*
X1934849D02*
X1935213Y1544882D01*
X1935577Y1544132*
X1935940Y1543632*
X1937577Y1550632D02*
Y1545382D01*
Y1550632D02*
X1939213D01*
X1939759Y1550382*
X1939940Y1550132*
X1940122Y1549632*
Y1549132*
X1939940Y1548632*
X1939759Y1548382*
X1939213Y1548132*
X1937577*
X1938849D02*
X1940122Y1545382D01*
X1941759Y1547382D02*
X1943940D01*
Y1547882*
X1943759Y1548382*
X1943577Y1548632*
X1943213Y1548882*
X1942668*
X1942304Y1548632*
X1941940Y1548132*
X1941759Y1547382*
Y1546882*
X1941940Y1546132*
X1942304Y1545632*
X1942668Y1545382*
X1943213*
X1943577Y1545632*
X1943940Y1546132*
X1945577Y1548882D02*
X1946668Y1545382D01*
X1947759Y1548882D02*
X1946668Y1545382D01*
X1949577Y1545882D02*
X1949395Y1545632D01*
X1949577Y1545382*
X1949759Y1545632*
X1949577Y1545882*
X1958304Y1549382D02*
X1958122Y1549882D01*
X1957759Y1550382*
X1957395Y1550632*
X1956668*
X1956304Y1550382*
X1955940Y1549882*
X1955759Y1549382*
X1955577Y1548632*
Y1547382*
X1955759Y1546632*
X1955940Y1546132*
X1956304Y1545632*
X1956668Y1545382*
X1957395*
X1957759Y1545632*
X1958122Y1546132*
X1958304Y1546632*
X1959940Y1549632D02*
X1960304Y1549882D01*
X1960849Y1550632*
X1960849D02*
Y1545382D01*
X1962486Y1551632D02*
X1962849Y1551132D01*
X1962849D02*
X1963213Y1550382D01*
X1963577Y1549382*
X1963759Y1548132*
Y1547132*
X1963577Y1545882*
X1963213Y1544882*
X1962849Y1544132*
X1962849D02*
X1962486Y1543632D01*
X1969577Y1547632D02*
X1972849D01*
X1979940Y1550632D02*
Y1545382D01*
X1978668Y1550632D02*
X1981213D01*
X1983759Y1548882D02*
X1983395Y1548632D01*
X1983031Y1548132*
X1982849Y1547382*
X1982849D02*
Y1546882D01*
X1982849D02*
X1983031Y1546132D01*
X1983395Y1545632*
X1983759Y1545382*
X1984304*
X1984668Y1545632*
X1985031Y1546132*
X1985213Y1546882*
Y1547382*
X1985031Y1548132*
X1984668Y1548632*
X1984304Y1548882*
X1983759*
X1986849D02*
Y1543632D01*
Y1548132D02*
X1987213Y1548632D01*
X1987577Y1548882*
X1988122*
X1988486Y1548632*
X1988849Y1548132*
X1988849D02*
X1989031Y1547382D01*
Y1546882*
X1988849Y1546132*
X1988849D02*
X1988486Y1545632D01*
X1988122Y1545382*
X1987577*
X1987213Y1545632*
X1986849Y1546132*
X1997395Y1549882D02*
X1997031Y1550382D01*
X1996486Y1550632*
X1995759*
X1995213Y1550382*
X1994849Y1549882*
X1994849D02*
Y1549382D01*
X1994849D02*
X1995031Y1548882D01*
X1995213Y1548632*
X1995577Y1548382*
X1996668Y1547882*
X1997031Y1547632*
X1997213Y1547382*
X1997395Y1546882*
Y1546132*
X1997031Y1545632*
X1996486Y1545382*
X1995759*
X1995213Y1545632*
X1994849Y1546132*
X1999031Y1550632D02*
X1999213Y1550382D01*
X1999395Y1550632*
X1999213Y1550882*
X1999031Y1550632*
X1999213Y1548882D02*
Y1545382D01*
X2003213Y1550632D02*
Y1545382D01*
Y1548132D02*
X2002849Y1548632D01*
X2002849D02*
X2002486Y1548882D01*
X2001940*
X2001577Y1548632*
X2001213Y1548132*
X2001031Y1547382*
Y1546882*
X2001213Y1546132*
X2001577Y1545632*
X2001940Y1545382*
X2002486*
X2002849Y1545632*
X2002849D02*
X2003213Y1546132D01*
X2004849Y1547382D02*
X2007031D01*
Y1547882*
X2006849Y1548382*
X2006849D02*
X2006668Y1548632D01*
X2006304Y1548882*
X2005759*
X2005395Y1548632*
X2005031Y1548132*
X2004849Y1547382*
X2004849D02*
Y1546882D01*
X2004849D02*
X2005031Y1546132D01*
X2005395Y1545632*
X2005759Y1545382*
X2006304*
X2006668Y1545632*
X2007031Y1546132*
X2012849Y1550632D02*
X2014304Y1545382D01*
X2015759Y1550632D02*
X2014304Y1545382D01*
X2017395Y1550632D02*
X2017577Y1550382D01*
X2017759Y1550632*
X2017577Y1550882*
X2017395Y1550632*
X2017577Y1548882D02*
Y1545382D01*
X2019395Y1547382D02*
X2021577D01*
Y1547882*
X2021395Y1548382*
X2021213Y1548632*
X2020849Y1548882*
X2020849D02*
X2020304D01*
X2019940Y1548632*
X2019577Y1548132*
X2019395Y1547382*
Y1546882*
X2019577Y1546132*
X2019940Y1545632*
X2020304Y1545382*
X2020849*
X2020849D02*
X2021213Y1545632D01*
X2021577Y1546132*
X2023213Y1548882D02*
X2023940Y1545382D01*
X2024668Y1548882D02*
X2023940Y1545382D01*
X2024668Y1548882D02*
X2025395Y1545382D01*
X2026122Y1548882D02*
X2025395Y1545382D01*
X2027940Y1545882D02*
X2027759Y1545632D01*
X2027940Y1545382*
X2028122Y1545632*
X2027940Y1545882*
X1868043Y1531865D02*
X1867680Y1532365D01*
X1867134Y1532615*
X1866407*
X1865862Y1532365*
X1865498Y1531865*
Y1531365*
X1865680Y1530865*
X1865862Y1530615*
X1866225Y1530365*
X1867316Y1529865*
X1867680Y1529615*
X1867862Y1529365*
X1868043Y1528865*
Y1528115*
X1867680Y1527615*
X1867134Y1527365*
X1866407*
X1865862Y1527615*
X1865498Y1528115*
X1869680Y1532615D02*
X1869862Y1532365D01*
X1870043Y1532615*
X1869862Y1532865*
X1869680Y1532615*
X1869862Y1530865D02*
Y1527365D01*
X1871680Y1532615D02*
Y1527365D01*
X1873316Y1532615D02*
Y1527365D01*
X1875134Y1530865D02*
X1873316Y1528365D01*
X1874043Y1529365D02*
X1875316Y1527365D01*
X1878953Y1530115D02*
X1878771Y1530615D01*
X1878225Y1530865*
X1877680*
X1877134Y1530615*
X1876953Y1530115*
X1877134Y1529615*
X1877498Y1529365*
X1878407Y1529115*
X1878771Y1528865*
X1878953Y1528365*
Y1528115*
X1878771Y1527615*
X1878225Y1527365*
X1877680*
X1877134Y1527615*
X1876953Y1528115*
X1882771Y1530115D02*
X1882407Y1530615D01*
X1882043Y1530865*
X1881498*
X1881134Y1530615*
X1880771Y1530115*
X1880589Y1529365*
Y1528865*
X1880771Y1528115*
X1881134Y1527615*
X1881498Y1527365*
X1882043*
X1882407Y1527615*
X1882771Y1528115*
X1884407Y1530865D02*
Y1527365D01*
Y1529365D02*
X1884589Y1530115D01*
X1884953Y1530615*
X1885316Y1530865*
X1885862*
X1887498Y1529365D02*
X1889680D01*
Y1529865*
X1889498Y1530365*
X1889316Y1530615*
X1888953Y1530865*
X1888407*
X1888043Y1530615*
X1887680Y1530115*
X1887498Y1529365*
Y1528865*
X1887680Y1528115*
X1888043Y1527615*
X1888407Y1527365*
X1888953*
X1889316Y1527615*
X1889680Y1528115*
X1891316Y1529365D02*
X1893498D01*
Y1529865*
X1893316Y1530365*
X1893134Y1530615*
X1892771Y1530865*
X1892225*
X1891862Y1530615*
X1891498Y1530115*
X1891316Y1529365*
Y1528865*
X1891498Y1528115*
X1891862Y1527615*
X1892225Y1527365*
X1892771*
X1893134Y1527615*
X1893498Y1528115*
X1895134Y1530865D02*
Y1527365D01*
Y1529865D02*
X1895680Y1530615D01*
X1896043Y1530865*
X1896589*
X1896953Y1530615*
X1897134Y1529865*
Y1527365*
X1904225Y1532615D02*
Y1527365D01*
X1902953Y1532615D02*
X1905498D01*
X1908043Y1530865D02*
X1907680Y1530615D01*
X1907316Y1530115*
X1907134Y1529365*
Y1528865*
X1907316Y1528115*
X1907680Y1527615*
X1908043Y1527365*
X1908589*
X1908953Y1527615*
X1909316Y1528115*
X1909498Y1528865*
Y1529365*
X1909316Y1530115*
X1908953Y1530615*
X1908589Y1530865*
X1908043*
X1911134D02*
Y1525615D01*
Y1530115D02*
X1911498Y1530615D01*
X1911862Y1530865*
X1912407*
X1912771Y1530615*
X1913134Y1530115*
X1913316Y1529365*
Y1528865*
X1913134Y1528115*
X1912771Y1527615*
X1912407Y1527365*
X1911862*
X1911498Y1527615*
X1911134Y1528115*
X2010738Y1652168D02*
X2009593Y1648034D01*
X2010738Y1652168D02*
X2011883Y1648034D01*
X2010022Y1649412D02*
X2011454D01*
X2013172Y1652168D02*
Y1648034D01*
Y1652168D02*
X2014174D01*
X2014603Y1651971*
X2014890Y1651578*
X2015033Y1651184*
X2015176Y1650593*
Y1649609*
X2015033Y1649019*
X2014890Y1648625*
X2014603Y1648231*
X2014174Y1648034*
X2013172*
X2018326Y1652168D02*
X2016894D01*
X2016751Y1650396*
X2016894Y1650593*
X2017323Y1650790*
X2017753*
X2018182Y1650593*
X2018469Y1650200*
X2018612Y1649609*
X2018469Y1649215*
X2018326Y1648625*
X2018039Y1648231*
X2017610Y1648034*
X2017180*
X2016751Y1648231*
X2016608Y1648428*
X2016464Y1648822*
X2021332Y1652168D02*
X2019900Y1649412D01*
X2022048*
X2021332Y1652168D02*
Y1648034D01*
X2023479Y1651184D02*
Y1651381D01*
X2023623Y1651774*
X2023766Y1651971*
X2024052Y1652168*
X2024625*
X2024911Y1651971*
X2025054Y1651774*
X2025197Y1651381*
Y1650987*
X2025054Y1650593*
X2024768Y1650003*
X2023336Y1648034*
X2025341*
X2026629Y1651381D02*
X2026915Y1651578D01*
X2027345Y1652168*
Y1648034*
X1927864Y1632680D02*
X1926719Y1628546D01*
X1927864Y1632680D02*
X1929009Y1628546D01*
X1927148Y1629924D02*
X1928580D01*
X1930298Y1632680D02*
Y1628546D01*
Y1632680D02*
X1931300D01*
X1931729Y1632483*
X1932016Y1632089*
X1932159Y1631696*
X1932302Y1631105*
Y1630121*
X1932159Y1629530*
X1932016Y1629137*
X1931729Y1628743*
X1931300Y1628546*
X1930298*
X1933590Y1631302D02*
Y1629333D01*
X1933734Y1628743*
X1934020Y1628546*
X1934449*
X1934736Y1628743*
X1935165Y1629333*
Y1631302D02*
Y1628546D01*
X1938601Y1631696D02*
X1938458Y1632089D01*
X1938172Y1632483*
X1937885Y1632680*
X1937313*
X1937026Y1632483*
X1936740Y1632089*
X1936597Y1631696*
X1936454Y1631105*
Y1630121*
X1936597Y1629530*
X1936740Y1629137*
X1937026Y1628743*
X1937313Y1628546*
X1937885*
X1938172Y1628743*
X1938458Y1629137*
X1938601Y1629530*
G54D17*
X1846207Y1556499D02*
Y1556999D01*
Y1556499D02*
X1846707D01*
X1846207D02*
Y1555999D01*
Y1556499D02*
X1845707D01*
X1847707D02*
X1852707D01*
X1846207Y1554999D02*
Y1551599D01*
Y1557999D02*
Y1562499D01*
X1840207Y1556499D02*
X1844707D01*
X1849207D02*
G75*
G03X1849207I-3000J0D01*
G01X1848207D02*
G03X1848207I-2000J0D01*
G01X1846207Y1666735D02*
Y1667235D01*
Y1666735D02*
X1846707D01*
X1846207D02*
Y1666235D01*
Y1666735D02*
X1845707D01*
X1847707D02*
X1852707D01*
X1846207Y1665235D02*
Y1661835D01*
Y1668235D02*
Y1672735D01*
X1840207Y1666735D02*
X1844707D01*
X1849207D02*
G03X1849207I-3000J0D01*
G01X1848207D02*
G03X1848207I-2000J0D01*
G01X2153293Y1664767D02*
Y1665267D01*
Y1664767D02*
X2153793D01*
X2153293D02*
Y1664267D01*
Y1664767D02*
X2152793D01*
X2154793D02*
X2159793D01*
X2153293Y1663267D02*
Y1659867D01*
Y1666267D02*
Y1670767D01*
X2147293Y1664767D02*
X2151793D01*
X2156293D02*
G03X2156293I-3000J0D01*
G01X2155293D02*
G03X2155293I-2000J0D01*
G54D18*
G54D21*
G01X2053884Y1640554D02*
X2054868Y1641538D01*
X2063726*
Y1636814*
X2054868*
X2053884Y1637798*
Y1640554*
X2063726Y1631893D02*
X2062742Y1630908D01*
X2053884*
Y1635633*
X2062742*
X2063726Y1634648*
Y1631893*
X1906159Y1608546D02*
X1898459D01*
Y1604846*
X1906159*
Y1608546*
X1907711Y1620791D02*
X1915411D01*
Y1624491*
X1907711*
Y1620791*
X1950624Y1628468D02*
X1958324D01*
Y1632168*
X1950624*
Y1628468*
X1929002Y1589876D02*
Y1582176D01*
X1932702*
Y1589876*
X1929002*
X2037239Y1601893D02*
X2044939D01*
Y1605593*
X2037239*
Y1601893*
Y1605830D02*
X2044939D01*
Y1609530*
X2037239*
Y1605830*
X1906159Y1604609D02*
X1898459D01*
Y1600909*
X1906159*
Y1604609*
Y1596735D02*
X1898459D01*
Y1593035*
X1906159*
Y1596735*
X1924860Y1585908D02*
X1917160D01*
Y1582208*
X1924860*
Y1585908*
X1906159Y1620357D02*
X1898459D01*
Y1616657*
X1906159*
Y1620357*
X1913017Y1596940D02*
Y1604640D01*
X1909317*
Y1596940*
X1913017*
X1876600Y1646153D02*
Y1653853D01*
X1872900*
Y1646153*
X1876600*
X1981727Y1605043D02*
X1989427D01*
Y1608743*
X1981727*
Y1605043*
X2053293Y1637423D02*
Y1642719D01*
X2046600*
Y1637423*
X2053293Y1635023D02*
Y1629727D01*
X2046600*
Y1635023*
X2073569Y1630223D02*
Y1620475D01*
X2089443*
Y1630223*
X2073443Y1640223D02*
Y1649471D01*
X2075943Y1651971*
X2086943*
X2089443Y1649471*
Y1640223*
X1907746Y1645503D02*
X1915746D01*
Y1654503*
X1907746*
X1904746Y1645503D02*
X1896746D01*
Y1654503*
X1904746*
X2062226Y1651550D02*
X2054226D01*
Y1642550*
X2062226*
X2065226Y1651550D02*
X2073226D01*
Y1642550*
X2065226*
X2062226Y1629896D02*
X2054226D01*
Y1620896*
X2062226*
X2065226Y1629896D02*
X2073226D01*
Y1620896*
X2065226*
X1908608Y1640376D02*
Y1645672D01*
X1901915*
Y1640376*
X1908608Y1637976D02*
Y1633861D01*
X1907427Y1632680*
X1903096*
X1901915Y1633861*
Y1637976*
X1898459Y1608783D02*
X1906159D01*
Y1612483*
X1898459*
Y1608783*
X1878774Y1646184D02*
X1886474D01*
Y1649884*
X1878774*
Y1646184*
X1896317Y1651853D02*
X1888617D01*
Y1648153*
X1896317*
Y1651853*
X1911080Y1631183D02*
X1903380D01*
Y1627483*
X1911080*
Y1631183*
X1898459Y1596972D02*
X1906159D01*
Y1600672*
X1898459*
Y1596972*
X1913017Y1589066D02*
Y1596766D01*
X1909317*
Y1589066*
X1913017*
X1905349Y1582208D02*
X1913049D01*
Y1585908*
X1905349*
Y1582208*
X1945498Y1582176D02*
Y1589876D01*
X1941798*
Y1582176*
X1945498*
X1878903Y1571853D02*
X1884199D01*
Y1578546*
X1878903*
X1876503Y1571853D02*
X1871207D01*
Y1578546*
X1876503*
X2037239Y1629452D02*
X2044939D01*
Y1633152*
X2037239*
Y1629452*
Y1625515D02*
X2044939D01*
Y1629215*
X2037239*
Y1625515*
X1953427Y1606444D02*
X1961427D01*
Y1598444*
X1953427*
Y1606444*
X2032427Y1579137D02*
X2051719D01*
Y1569294*
X2032427*
Y1579137*
X2063448Y1619820D02*
X2057448D01*
Y1609320*
X2063448*
X2073848Y1619820D02*
X2078348D01*
X2079848Y1618320*
Y1610820*
X2078348Y1609320*
X2073848*
X1897313Y1583495D02*
X1905313D01*
Y1592495*
X1897313*
X1894313Y1583495D02*
X1886313D01*
Y1592495*
X1894313*
X2041364Y1615641D02*
Y1623341D01*
X2037664*
Y1615641*
X2041364*
X1913017Y1612688D02*
Y1620388D01*
X1909317*
Y1612688*
X1913017*
X1936876Y1589876D02*
Y1582176D01*
X1940576*
Y1589876*
X1936876*
X1932939D02*
Y1582176D01*
X1936639*
Y1589876*
X1932939*
X1936561Y1640160D02*
X1917270D01*
Y1650003*
X1936561*
Y1640160*
X2097388Y1621440D02*
Y1656912D01*
X2133608*
Y1621440*
X2097388*
X2105065D02*
Y1656912D01*
X2133608*
Y1621440*
X2105065*
X1882427Y1642522D02*
Y1580711D01*
X1858018*
Y1642522*
X1882427*
X1862152D02*
Y1580711D01*
X2072427Y1567011D02*
Y1607011D01*
X2133227*
Y1567011*
X2072427*
X2101427D02*
Y1607011D01*
X2092427Y1567011D02*
Y1607011D01*
X1895813Y1640376D02*
Y1645672D01*
X1889120*
Y1640376*
X1895813Y1637976D02*
Y1632680D01*
X1889120*
Y1637976*
X1913904Y1638585D02*
X1908608D01*
Y1631893*
X1913904*
X1916304Y1638585D02*
X1921600D01*
Y1631893*
X1916304*
X1995419Y1613370D02*
Y1608074D01*
X2002112*
Y1613370*
X1995419Y1615770D02*
Y1621066D01*
X2002112*
Y1615770*
X1921502Y1626381D02*
X1920518D01*
X1919041Y1624904*
Y1623920*
X1946108Y1626381D02*
X1948569D01*
Y1623920*
Y1599314D02*
Y1596853D01*
X1946108*
X1921502D02*
X1919041D01*
Y1599314*
X1945735Y1589876D02*
Y1582176D01*
X1949435*
Y1589876*
X1945735*
X2010664Y1594019D02*
X2018364D01*
Y1597719*
X2010664*
Y1594019*
X2020506D02*
X2028206D01*
Y1597719*
X2020506*
Y1594019*
X1983510Y1625889D02*
Y1626381D01*
X1982033Y1627857*
X1981541*
X1983510Y1613093D02*
Y1611125D01*
X1981541*
X1968746D02*
X1966778D01*
Y1613093*
Y1625889D02*
Y1627857D01*
X1968746*
X1962467Y1607593D02*
Y1599893D01*
X1966167*
Y1607593*
X1962467*
X2040191Y1610751D02*
X2047891D01*
Y1614451*
X2040191*
Y1610751*
X1984089Y1590082D02*
X1991789D01*
Y1593782*
X1984089*
Y1590082*
X1972278D02*
X1979978D01*
Y1593782*
X1972278*
Y1590082*
X1984120Y1603656D02*
Y1595956D01*
X1987820*
Y1603656*
X1984120*
X1976246D02*
Y1595956D01*
X1979946*
Y1603656*
X1976246*
X1909317Y1612514D02*
Y1604814D01*
X1913017*
Y1612514*
X1909317*
X2041304Y1638782D02*
X2046600D01*
Y1645475*
X2041304*
X2038904Y1638782D02*
X2033608D01*
Y1645475*
X2038904*
X2018235D02*
X2012939D01*
Y1638782*
X2018235*
X2020635Y1645475D02*
X2025931D01*
Y1638782*
X2020635*
X1898459Y1612720D02*
X1906159D01*
Y1616420*
X1898459*
Y1612720*
X2029396Y1645782D02*
Y1638082D01*
X2033096*
Y1645782*
X2029396*
X2032317Y1648153D02*
X2040017D01*
Y1651853*
X2032317*
Y1648153*
X1979978Y1607561D02*
X1972278D01*
Y1603861*
X1979978*
Y1607561*
X1971325Y1603656D02*
Y1595956D01*
X1975025*
Y1603656*
X1971325*
X1916954Y1582176D02*
Y1589876D01*
X1913254*
Y1582176*
X1916954*
X2044939Y1637089D02*
X2037239D01*
Y1633389*
X2044939*
Y1637089*
X1989789Y1620759D02*
Y1628459D01*
X1986089*
Y1620759*
X1989789*
X1991757Y1595956D02*
Y1603656D01*
X1988057*
Y1595956*
X1991757*
X2043978Y1654003D02*
X2051978D01*
Y1646003*
X2043978*
Y1654003*
X1998703D02*
X2006703D01*
Y1646003*
X1998703*
Y1654003*
X1960380Y1584058D02*
Y1587995D01*
X2007624*
Y1584058*
Y1572247D02*
Y1568310D01*
X1960380*
Y1572247*
X1885498Y1581184D02*
X1925498D01*
Y1571184*
X1885498*
Y1581184*
X1941561Y1570365D02*
Y1578065D01*
X1937861*
Y1570365*
X1941561*
X1933924Y1578065D02*
Y1570365D01*
X1937624*
Y1578065*
X1933924*
X1945498Y1570365D02*
Y1578065D01*
X1941798*
Y1570365*
X1945498*
X1924860Y1590829D02*
X1917160D01*
Y1587129*
X1924860*
Y1590829*
X1929002Y1578065D02*
Y1570365D01*
X1932702*
Y1578065*
X1929002*
X1967388Y1603656D02*
Y1595956D01*
X1971088*
Y1603656*
X1967388*
X1980183D02*
Y1595956D01*
X1983883*
Y1603656*
X1980183*
X1993757Y1633152D02*
X1986057D01*
Y1629452*
X1993757*
Y1633152*
X2010935Y1637507D02*
Y1599507D01*
X2027935*
Y1637507*
X2020435*
Y1636507*
X2018435Y1636508D02*
G03X2020435Y1636506I1000J290D01*
G01X2018435Y1636507D02*
Y1637507D01*
X2010935*
X1950788Y1623908D02*
Y1620291D01*
X1949911Y1623908D02*
X1951665D01*
X1952792Y1623219D02*
X1953043Y1623391D01*
X1953419Y1623908*
Y1620291*
X1950027Y1614065D02*
Y1610448D01*
X1949151Y1614065D02*
X1950904D01*
X1952157Y1613204D02*
Y1613376D01*
X1952282Y1613721*
X1952407Y1613893*
X1952658Y1614065*
X1953159*
X1953410Y1613893*
X1953535Y1613721*
X1953660Y1613376*
Y1613032*
X1953535Y1612687*
X1953284Y1612171*
X1952032Y1610448*
X1953785*
X1961910Y1594233D02*
Y1590357D01*
X1960970Y1594233D02*
X1962849D01*
X1965400D02*
X1964057Y1591649D01*
X1966071*
X1965400Y1594233D02*
Y1590357D01*
X2034789Y1584390D02*
Y1580515D01*
Y1584390D02*
X2035997D01*
X2036400Y1584206*
X2036534Y1584021*
X2036668Y1583652*
Y1583283*
X2036534Y1582914*
X2036400Y1582729*
X2035997Y1582545*
X2034789*
X2035729D02*
X2036668Y1580515D01*
X2037876Y1584390D02*
Y1580515D01*
Y1584390D02*
X2039621D01*
X2037876Y1582545D02*
X2038950D01*
X2037876Y1580515D02*
X2039621D01*
X2042708Y1583836D02*
X2042440Y1584206D01*
X2042037Y1584390*
X2041500*
X2041098Y1584206*
X2040829Y1583836*
Y1583467*
X2040963Y1583098*
X2041098Y1582914*
X2041366Y1582729*
X2042171Y1582360*
X2042440Y1582175*
X2042574Y1581991*
X2042708Y1581622*
Y1581068*
X2042440Y1580699*
X2042037Y1580515*
X2041500*
X2041098Y1580699*
X2040829Y1581068*
X2043916Y1584390D02*
Y1580515D01*
Y1584390D02*
X2045661D01*
X2043916Y1582545D02*
X2044990D01*
X2043916Y1580515D02*
X2045661D01*
X2047808Y1584390D02*
Y1580515D01*
X2046869Y1584390D02*
X2048748D01*
X1917073Y1655908D02*
Y1651774D01*
Y1655908D02*
X1918075D01*
X1918504Y1655711*
X1918791Y1655318*
X1918934Y1654924*
X1919077Y1654333*
Y1653349*
X1918934Y1652759*
X1918791Y1652365*
X1918504Y1651971*
X1918075Y1651774*
X1917073*
X1921225Y1655908D02*
X1920938Y1655711D01*
X1920652Y1655318*
X1920509Y1654924*
X1920366Y1654333*
Y1653349*
X1920509Y1652759*
X1920652Y1652365*
X1920938Y1651971*
X1921225Y1651774*
X1921797*
X1922084Y1651971*
X1922370Y1652365*
X1922513Y1652759*
X1922656Y1653349*
Y1654333*
X1922513Y1654924*
X1922370Y1655318*
X1922084Y1655711*
X1921797Y1655908*
X1921225*
X1923945D02*
X1924661Y1651774D01*
X1925376Y1655908D02*
X1924661Y1651774D01*
X1925376Y1655908D02*
X1926092Y1651774D01*
X1926808Y1655908D02*
X1926092Y1651774D01*
X1928096Y1655908D02*
Y1651774D01*
Y1655908D02*
X1930101Y1651774D01*
Y1655908D02*
Y1651774D01*
X1931389Y1655908D02*
Y1651774D01*
X1933107*
X1935255Y1655908D02*
X1934968Y1655711D01*
X1934682Y1655318*
X1934539Y1654924*
X1934396Y1654333*
Y1653349*
X1934539Y1652759*
X1934682Y1652365*
X1934968Y1651971*
X1935255Y1651774*
X1935827*
X1936114Y1651971*
X1936400Y1652365*
X1936543Y1652759*
X1936686Y1653349*
Y1654333*
X1936543Y1654924*
X1936400Y1655318*
X1936114Y1655711*
X1935827Y1655908*
X1935255*
X1939120D02*
X1937975Y1651774D01*
X1939120Y1655908D02*
X1940265Y1651774D01*
X1938404Y1653152D02*
X1939836D01*
X1941554Y1655908D02*
Y1651774D01*
Y1655908D02*
X1942556D01*
X1942986Y1655711*
X1943272Y1655318*
X1943415Y1654924*
X1943558Y1654333*
Y1653349*
X1943415Y1652759*
X1943272Y1652365*
X1942986Y1651971*
X1942556Y1651774*
X1941554*
X2095419Y1618507D02*
Y1614373D01*
X2097137*
X2099285Y1618507D02*
X2098998Y1618310D01*
X2098712Y1617916*
X2098569Y1617522*
X2098426Y1616932*
Y1615948*
X2098569Y1615357*
X2098712Y1614963*
X2098998Y1614570*
X2099285Y1614373*
X2099857*
X2100144Y1614570*
X2100430Y1614963*
X2100573Y1615357*
X2100716Y1615948*
Y1616932*
X2100573Y1617522*
X2100430Y1617916*
X2100144Y1618310*
X2099857Y1618507*
X2099285*
X2102864D02*
X2102577Y1618310D01*
X2102291Y1617916*
X2102148Y1617522*
X2102005Y1616932*
Y1615948*
X2102148Y1615357*
X2102291Y1614963*
X2102577Y1614570*
X2102864Y1614373*
X2103436*
X2103723Y1614570*
X2104009Y1614963*
X2104152Y1615357*
X2104295Y1615948*
Y1616932*
X2104152Y1617522*
X2104009Y1617916*
X2103723Y1618310*
X2103436Y1618507*
X2102864*
X2105584D02*
Y1614373D01*
Y1618507D02*
X2106872D01*
X2107302Y1618310*
X2107445Y1618113*
X2107588Y1617719*
Y1617129*
X2107445Y1616735*
X2107302Y1616538*
X2106872Y1616341*
X2105584*
X2113601Y1618507D02*
X2112169Y1615751D01*
X2114317*
X2113601Y1618507D02*
Y1614373D01*
X2115605Y1616144D02*
X2118182D01*
X2119614Y1617522D02*
Y1617719D01*
X2119757Y1618113*
X2119900Y1618310*
X2120187Y1618507*
X2120759*
X2121046Y1618310*
X2121189Y1618113*
X2121332Y1617719*
Y1617326*
X2121189Y1616932*
X2120902Y1616341*
X2119471Y1614373*
X2121475*
X2123623Y1618507D02*
X2123193Y1618310D01*
X2122907Y1617719*
X2122764Y1616735*
Y1616144*
X2122907Y1615160*
X2123193Y1614570*
X2123623Y1614373*
X2123909*
X2124338Y1614570*
X2124625Y1615160*
X2124768Y1616144*
Y1616735*
X2124625Y1617719*
X2124338Y1618310*
X2123909Y1618507*
X2123623*
X2126056Y1617129D02*
Y1614373D01*
Y1616341D02*
X2126486Y1616932D01*
X2126772Y1617129*
X2127202*
X2127488Y1616932*
X2127631Y1616341*
Y1614373*
Y1616341D02*
X2128061Y1616932D01*
X2128347Y1617129*
X2128776*
X2129063Y1616932*
X2129206Y1616341*
Y1614373*
X2131640Y1618507D02*
X2130494Y1614373D01*
X2131640Y1618507D02*
X2132785Y1614373D01*
X2130924Y1615751D02*
X2132356D01*
X1964675Y1634648D02*
X1963530Y1630515D01*
X1964675Y1634648D02*
X1965820Y1630515D01*
X1963959Y1631893D02*
X1965391D01*
X1967109Y1634648D02*
Y1630515D01*
Y1634648D02*
X1968111D01*
X1968540Y1634452*
X1968827Y1634058*
X1968970Y1633664*
X1969113Y1633074*
Y1632089*
X1968970Y1631499*
X1968827Y1631105*
X1968540Y1630711*
X1968111Y1630515*
X1967109*
X1972263Y1634648D02*
X1970831D01*
X1970688Y1632877*
X1970831Y1633074*
X1971260Y1633270*
X1971690*
X1972119Y1633074*
X1972406Y1632680*
X1972549Y1632089*
X1972406Y1631696*
X1972263Y1631105*
X1971976Y1630711*
X1971547Y1630515*
X1971117*
X1970688Y1630711*
X1970545Y1630908*
X1970401Y1631302*
X1975842Y1634648D02*
X1974410Y1630515D01*
X1973837Y1634648D02*
X1975842D01*
X1977989D02*
X1977560Y1634452D01*
X1977273Y1633861*
X1977130Y1632877*
Y1632286*
X1977273Y1631302*
X1977560Y1630711*
X1977989Y1630515*
X1978275*
X1978705Y1630711*
X1978991Y1631302*
X1979134Y1632286*
Y1632877*
X1978991Y1633861*
X1978705Y1634452*
X1978275Y1634648*
X1977989*
X1981282D02*
X1980852Y1634452D01*
X1980566Y1633861*
X1980423Y1632877*
Y1632286*
X1980566Y1631302*
X1980852Y1630711*
X1981282Y1630515*
X1981568*
X1981998Y1630711*
X1982284Y1631302*
X1982427Y1632286*
Y1632877*
X1982284Y1633861*
X1981998Y1634452*
X1981568Y1634648*
X1981282*
X1996797Y1643581D02*
Y1639963D01*
Y1643581D02*
X1997925D01*
X1998300Y1643408*
X1998426Y1643236*
X1998551Y1642892*
Y1642547*
X1998426Y1642203*
X1998300Y1642030*
X1997925Y1641858*
X1996797*
X1997674D02*
X1998551Y1639963D01*
X1999678Y1641341D02*
X2001182D01*
Y1641686*
X2001056Y1642030*
X2000931Y1642203*
X2000681Y1642375*
X2000305*
X2000054Y1642203*
X1999804Y1641858*
X1999678Y1641341*
Y1640997*
X1999804Y1640480*
X2000054Y1640136*
X2000305Y1639963*
X2000681*
X2000931Y1640136*
X2001182Y1640480*
X2002309Y1642375D02*
X2003061Y1639963D01*
X2003812Y1642375D02*
X2003061Y1639963D01*
X2009700Y1642719D02*
X2009575Y1643064D01*
X2009324Y1643408*
X2009074Y1643581*
X2008572*
X2008322Y1643408*
X2008071Y1643064*
X2007946Y1642719*
X2007821Y1642203*
Y1641341*
X2007946Y1640825*
X2008071Y1640480*
X2008322Y1640136*
X2008572Y1639963*
X2009074*
X2009324Y1640136*
X2009575Y1640480*
X2009700Y1640825*
X2010827Y1642892D02*
X2011078Y1643064D01*
X2011454Y1643581*
Y1639963*
X1871022Y1644097D02*
X1870838Y1644366D01*
X1870284Y1644768*
X1874159*
X1888936Y1568704D02*
X1888751Y1568972D01*
X1888197Y1569375*
X1892073*
X1961955Y1647444D02*
X1963391D01*
X1962707Y1649701*
X1961955Y1647444*
X1961955*
X1963391*
X1962707Y1649701*
X1961955Y1647444*
X1962023Y1651001D02*
X1963391D01*
X1965443Y1645254*
X1964144*
X1963733Y1646418*
X1961613*
X1961202Y1645254*
X1959971*
X1962023Y1651001*
X1966128D02*
X1967359D01*
X1969685Y1647034*
Y1651001*
X1970779*
Y1645254*
X1969548*
X1967223Y1649359*
Y1645254*
X1966128*
Y1651001*
X1973447Y1647444D02*
X1974952D01*
X1974200Y1649701*
X1973447Y1647444*
X1973447*
X1974952*
X1974200Y1649701*
X1973447Y1647444*
X1973516Y1651001D02*
X1974884D01*
X1976936Y1645254*
X1975636*
X1975226Y1646418*
X1973174*
X1972763Y1645254*
X1971463*
X1973516Y1651001*
X1977620D02*
X1978852D01*
Y1646281*
X1981725*
Y1645254*
X1977620*
Y1651001*
X1961407Y1643202D02*
Y1639440D01*
X1962502*
X1962913Y1639509*
X1963049*
X1963186Y1639645*
X1963323Y1639782*
X1963460Y1639919*
X1963597Y1640056*
X1963665Y1640261*
X1963733Y1640535*
X1963802Y1640740*
X1963870Y1641082*
Y1641355*
Y1641766*
X1963802Y1642108*
X1963733Y1642450*
X1963597Y1642724*
X1963528Y1642792*
X1963391Y1642929*
X1963186Y1643066*
X1962844Y1643134*
X1962502Y1643202*
X1961407*
X1963597Y1644023D02*
X1963870Y1643886D01*
X1964144Y1643750*
X1964349Y1643544*
X1964554Y1643339*
X1964691Y1643066*
X1964828Y1642860*
X1964897Y1642655*
X1964965Y1642382*
X1965033Y1641903*
X1965101Y1641424*
X1965033Y1640877*
X1964965Y1640398*
X1964828Y1639919*
X1964759Y1639713*
X1964623Y1639509*
X1964486Y1639235*
X1964281Y1639029*
X1964075Y1638825*
X1963802Y1638687*
X1963597Y1638551*
X1963323Y1638482*
X1962981Y1638414*
X1962707*
X1960245*
Y1644160*
X1962707*
X1963186*
X1963597Y1644023*
X1970232Y1643134D02*
X1967154D01*
Y1641971*
X1969959*
Y1640945*
X1967154*
Y1639440*
X1970369*
Y1638414*
X1965991*
Y1644160*
X1970232*
Y1643134*
X1974678Y1644160D02*
X1975910D01*
X1973926Y1638414*
X1972832*
X1970848Y1644160*
X1972148*
X1973379Y1639851*
X1974678Y1644160*
X1977688Y1638414D02*
X1976526D01*
Y1644160*
X1977688*
Y1638414*
X1976526*
Y1644160*
X1977688*
Y1638414*
X1979201Y1643359D02*
X1979536Y1643750D01*
X1979741Y1643886*
X1980152Y1644092*
X1980630Y1644228*
X1981178Y1644297*
X1981603Y1644304*
X1981862Y1644228*
X1982135Y1644160*
X1982409Y1644023*
X1982682Y1643886*
X1982888Y1643750*
X1983093Y1643544*
X1983298Y1643339*
X1983435Y1643066*
X1983572Y1642792*
X1983640Y1642518*
X1983709Y1642245*
X1982478*
X1982340Y1642587*
X1982204Y1642860*
X1981998Y1643066*
X1981793Y1643134*
X1981520Y1643202*
X1981246Y1643271*
X1980933Y1643241*
X1980767Y1643202*
X1980630Y1643134*
X1980357Y1642929*
X1980152Y1642724*
X1980014Y1642450*
X1979878Y1642108*
X1979809Y1641697*
Y1640808*
X1979878Y1640398*
X1980014Y1640056*
X1980220Y1639782*
X1980288Y1639645*
X1980425Y1639577*
X1980630Y1639440*
X1980951Y1639280*
X1981487Y1639246*
X1981760Y1639343*
X1981998Y1639509*
X1982204Y1639713*
X1982272Y1639851*
X1982340Y1639987*
X1982478Y1640398*
X1983640*
X1983572Y1639919*
X1983367Y1639509*
X1983162Y1639167*
X1983024Y1639029*
X1982888Y1638825*
X1982682Y1638687*
X1982546Y1638619*
X1982135Y1638414*
X1981930Y1638345*
X1981725Y1638277*
X1981246*
X1980630Y1638345*
X1980357Y1638414*
X1980152Y1638482*
X1979672Y1638687*
X1979262Y1639029*
X1979126Y1639303*
X1978988Y1639509*
X1978783Y1639987*
X1978646Y1640603*
X1978578Y1640945*
Y1641629*
X1978646Y1641971*
X1978715Y1642313*
X1978783Y1642587*
X1978920Y1642860*
X1979057Y1643134*
X1979194Y1643339*
X1979399Y1643544*
X1988839Y1643134D02*
X1985761D01*
Y1641971*
X1988565*
Y1640945*
X1985761*
Y1639440*
X1988976*
Y1638414*
X1984598*
Y1644160*
X1988839*
Y1643134*
X1986035Y1646623D02*
X1986240Y1646965D01*
X1986377Y1647307*
X1986445Y1647649*
Y1648606*
X1986377Y1649017*
X1986240Y1649359*
X1986035Y1649633*
X1985829Y1649838*
X1985556Y1650043*
X1985419Y1650112*
X1985147Y1650170*
X1984940Y1650180*
X1984598Y1650112*
X1984256Y1650043*
X1983982Y1649838*
X1983777Y1649633*
X1983572Y1649359*
X1983435Y1649017*
X1983367Y1648606*
Y1647649*
X1983435Y1647307*
X1983572Y1646965*
X1983777Y1646623*
X1983982Y1646418*
X1984256Y1646281*
X1984598Y1646144*
X1985282*
X1985556Y1646281*
X1985829Y1646418*
X1986035Y1646623*
X1986918Y1645879D02*
X1986650Y1645597D01*
X1986445Y1645460*
X1986288Y1645367*
X1986035Y1645254*
X1985761Y1645186*
X1985487Y1645118*
X1984324*
X1983846Y1645254*
X1983611Y1645328*
X1983435Y1645460*
X1983230Y1645597*
X1983024Y1645802*
X1982820Y1646007*
X1982682Y1646212*
X1982478Y1646486*
X1982409Y1646760*
X1982204Y1647375*
X1982154Y1647886*
X1982135Y1648128*
X1982154Y1648556*
X1982204Y1648880*
X1982272Y1649222*
X1982409Y1649496*
X1982478Y1649770*
X1982705Y1650170*
X1982820Y1650317*
X1983024Y1650522*
X1983230Y1650659*
X1983435Y1650796*
X1983640Y1650932*
X1983846Y1651001*
X1984051Y1651070*
X1984324Y1651138*
X1984595Y1651233*
X1984940Y1651206*
X1985487Y1651138*
X1986035Y1651001*
X1986240Y1650932*
X1986445Y1650796*
X1986650Y1650659*
X1986787Y1650522*
X1986992Y1650317*
X1987197Y1650043*
X1987334Y1649770*
X1987471Y1649496*
X1987608Y1648880*
X1987676Y1648538*
Y1647786*
X1987608Y1647375*
X1987539Y1647102*
X1987471Y1646760*
X1987334Y1646486*
X1987197Y1646212*
X1986800Y1645761*
X1986761Y1645721*
X1948410Y1649496D02*
X1956208Y1644776D01*
X1948410Y1640124*
Y1649496*
X1948410*
X1956208Y1644776*
X1948410Y1640124*
Y1649496*
X1945742Y1651138D02*
X1958397D01*
Y1638482*
X1945742*
Y1651138*
X1958397*
Y1638482*
X1945742*
Y1651138*
X1990755Y1640193D02*
X1990823Y1639851D01*
X1990891Y1639713*
X1990960Y1639645*
X1991165Y1639440*
X1991371Y1639371*
X1991644Y1639303*
X1991986Y1639235*
X1992397Y1639303*
X1992670Y1639371*
X1992875Y1639440*
X1993012Y1639509*
X1993081Y1639577*
X1993149Y1639782*
Y1640124*
X1993081Y1640261*
X1993012Y1640398*
X1992944Y1640466*
X1992807Y1640535*
X1992602Y1640603*
X1992123Y1640740*
X1991507Y1640877*
X1990755Y1641082*
X1990481Y1641150*
X1990276Y1641287*
X1990139Y1641424*
X1989990Y1641548*
X1989934Y1641629*
X1989832Y1641863*
X1989797Y1641971*
X1989729Y1642176*
Y1642929*
X1989865Y1643271*
X1990002Y1643544*
X1990276Y1643818*
X1990580Y1644068*
X1990755Y1644160*
X1990960Y1644228*
X1991447Y1644343*
X1991918Y1644365*
X1992397Y1644297*
X1992739Y1644228*
X1992944Y1644160*
X1993149Y1644092*
X1993455Y1643949*
X1993765Y1643613*
X1993902Y1643408*
X1993970Y1643271*
X1994107Y1642860*
X1994163Y1642689*
X1994175Y1642450*
X1993012*
X1992944Y1642724*
X1992875Y1642929*
X1992739Y1643066*
X1992533Y1643202*
X1992397Y1643271*
X1992195Y1643319*
X1991849Y1643339*
X1991644*
X1991439Y1643271*
X1991097Y1643134*
X1990960Y1643066*
X1990891Y1642929*
X1990823Y1642792*
Y1642450*
X1990856Y1642335*
X1990960Y1642245*
X1991097Y1642176*
X1991371Y1642039*
X1991849Y1641903*
X1992807Y1641697*
X1993149Y1641629*
X1993415Y1641548*
X1993628Y1641424*
X1993833Y1641287*
X1994039Y1641082*
X1994107Y1640945*
X1994175Y1640808*
X1994312Y1640466*
Y1639713*
X1994282Y1639579*
X1994175Y1639371*
X1994085Y1639185*
X1993902Y1638961*
X1993730Y1638752*
X1993423Y1638551*
X1993217Y1638482*
X1993012Y1638414*
X1992807Y1638345*
X1992510Y1638279*
X1992055Y1638277*
X1991525Y1638279*
X1991233Y1638345*
X1991028Y1638414*
X1990823Y1638482*
X1990618Y1638551*
X1990276Y1638756*
X1990139Y1638893*
X1990002Y1639098*
X1989865Y1639235*
X1989797Y1639371*
X1989660Y1639782*
Y1640193*
X1990755*
X1945811Y1650819D02*
X1958186D01*
Y1649919D02*
X1945811D01*
X1958186Y1650369D02*
X1945811D01*
X1958186Y1649469D02*
X1945811D01*
X1958186Y1638894D02*
X1945811D01*
X1958186Y1639344D02*
X1945811D01*
X1958186Y1639794D02*
X1945811D01*
X1958186Y1640244D02*
X1945811D01*
X1946036D02*
Y1649469D01*
X1946486Y1640469D02*
Y1649694D01*
X1946936Y1640244D02*
Y1649469D01*
X1947386Y1640244D02*
Y1649469D01*
X1947836Y1640244D02*
Y1649469D01*
X1948061Y1640244D02*
Y1649469D01*
X1958186Y1640244D02*
Y1649469D01*
X1957736Y1640244D02*
Y1649469D01*
X1957286Y1640244D02*
Y1649469D01*
X1956836Y1640244D02*
Y1649469D01*
X1956386Y1640244D02*
Y1649469D01*
X1956161Y1640244D02*
Y1649469D01*
Y1645194D02*
X1949186Y1649469D01*
X1956161Y1645644D02*
X1949861Y1649469D01*
X1950761D02*
X1956161Y1646094D01*
X1950311Y1649469D02*
X1956161Y1645869D01*
Y1646544D02*
X1951436Y1649469D01*
X1952111D02*
X1956161Y1646994D01*
Y1647444D02*
X1952786Y1649469D01*
X1953461D02*
X1956161Y1647894D01*
Y1648344D02*
X1954361Y1649469D01*
X1953911D02*
X1956386Y1647894D01*
X1955036Y1649469D02*
X1956386Y1648569D01*
X1956161Y1648794D02*
X1955711Y1649469D01*
X1956161Y1644294D02*
X1948961Y1640019D01*
X1956161Y1643844D02*
X1949636Y1640019D01*
X1956161Y1643394D02*
X1950086Y1639794D01*
X1956161Y1642944D02*
X1950761Y1639794D01*
X1956161Y1642494D02*
X1951886Y1640019D01*
X1956161Y1642044D02*
X1952561Y1640019D01*
X1956161Y1641594D02*
X1953686Y1640244D01*
X1956161Y1641144D02*
X1954361Y1640244D01*
X1956161Y1640694D02*
X1954811Y1640244D01*
X1962348Y1650931D02*
X1960380Y1645306D01*
X1962686Y1650819D02*
X1960773Y1645362D01*
X1963080Y1650819D02*
X1964992Y1645306D01*
X1964655D02*
X1962742Y1650650D01*
X1962630Y1650369D02*
X1964317Y1645306D01*
X1963642Y1647162D02*
X1961505D01*
X1961448Y1646881D02*
X1963698D01*
X1963867Y1646656D02*
X1961280D01*
X1961617Y1647500D02*
X1961842Y1647331D01*
X1966455Y1650875D02*
Y1645306D01*
X1966792D02*
Y1650875D01*
X1969886Y1645362D02*
X1966680Y1650875D01*
X1967017D02*
X1970280Y1645362D01*
X1966961Y1649975D02*
X1967186Y1649300D01*
X1969998Y1650875D02*
Y1645306D01*
X1970336Y1645362D02*
Y1650819D01*
X1969548Y1647106D02*
X1969886Y1646544D01*
X1974498Y1650931D02*
X1976523Y1645362D01*
X1976130D02*
X1974105Y1650875D01*
X1973823Y1650819D02*
X1975848Y1645306D01*
X1973823Y1650762D02*
X1971855Y1645362D01*
X1972980Y1647219D02*
X1975117D01*
X1975173Y1646881D02*
X1972811D01*
Y1646656D02*
X1975286D01*
X1973036Y1646544D02*
X1972530Y1645362D01*
X1977930Y1650875D02*
Y1645306D01*
X1978267D02*
Y1650819D01*
X1978548Y1650875D02*
Y1645306D01*
X1978605Y1645981D02*
X1981586D01*
Y1645700D02*
X1978548D01*
X1978605Y1645475D02*
X1981586D01*
X1962798Y1650256D02*
X1960998Y1645362D01*
X1984005Y1650875D02*
X1985917D01*
X1983442Y1650650D02*
X1986423D01*
X1982992Y1650369D02*
X1986817Y1650312D01*
X1982767Y1649975D02*
X1983948D01*
X1983386Y1649919D02*
X1983330Y1645644D01*
X1982992Y1649862D02*
Y1645981D01*
X1982655Y1649806D02*
X1982598Y1646431D01*
X1982430Y1649019D02*
X1982373Y1647556D01*
X1986536Y1650200D02*
Y1645531D01*
X1985917Y1650087D02*
X1986423Y1649581D01*
X1986142Y1650200D02*
X1986367Y1649919D01*
X1986873Y1650200D02*
Y1645925D01*
X1987211Y1649694D02*
Y1646487D01*
X1987436Y1648794D02*
Y1647612D01*
X1983611Y1645419D02*
X1986198D01*
X1986423Y1645756D02*
X1983442D01*
Y1646094D02*
X1986423D01*
X1983442Y1646656D02*
X1983780Y1646206D01*
X1986367Y1646656D02*
X1986142Y1646262D01*
X1992330Y1650819D02*
X1990080D01*
X1989517Y1650537D02*
X1992723D01*
X1993117Y1650200D02*
X1989180D01*
X1992217Y1649862D02*
X1993286D01*
X1993455Y1649581D02*
X1992386D01*
X1992498Y1649412D02*
X1993398D01*
X1989461Y1650144D02*
Y1645644D01*
X1989067Y1645981D02*
Y1650087D01*
X1988730Y1649412D02*
Y1646656D01*
X1988561Y1648569D02*
Y1647612D01*
X1990136Y1650087D02*
X1989630Y1649637D01*
X1989855Y1650087D02*
X1989630Y1649750D01*
X1989686Y1645531D02*
X1991936Y1645475D01*
X1989517Y1645869D02*
X1993455D01*
X1989573Y1646319D02*
X1989967Y1646037D01*
X1989630Y1646712D02*
X1990248Y1646037D01*
X1991992Y1646206D02*
X1993511D01*
X1993286Y1645419D02*
Y1648119D01*
X1992948Y1648175D02*
Y1645531D01*
X1992667Y1646150D02*
Y1648119D01*
X1992836Y1646994D02*
X1992330Y1646319D01*
X1991430Y1647725D02*
X1992555D01*
Y1648006D02*
X1991373D01*
X1960661Y1644012D02*
Y1638556D01*
X1961055D02*
Y1643956D01*
Y1643506D02*
X1964205D01*
X1961111Y1643844D02*
X1963642D01*
X1961167Y1639175D02*
X1964205D01*
X1961167Y1638781D02*
X1963642D01*
X1963530Y1638837D02*
X1964486Y1639681D01*
X1963305Y1639512D02*
X1964148D01*
X1963980Y1643394D02*
Y1639512D01*
X1964261Y1639569D02*
Y1643337D01*
X1964598Y1643000D02*
X1964542Y1639737D01*
X1964767Y1640187D02*
Y1642044D01*
X1963530Y1639569D02*
X1963867Y1640019D01*
X1963811Y1642831D02*
X1963248Y1643394D01*
X1963417D02*
X1963923Y1643169D01*
X1966398Y1644012D02*
Y1638500D01*
X1966792Y1638556D02*
Y1644012D01*
Y1643787D02*
X1970055D01*
X1970111Y1643450D02*
X1966905D01*
X1966848Y1641650D02*
X1969830D01*
Y1641312D02*
X1966680D01*
X1966792Y1639062D02*
X1970223D01*
X1970280Y1638725D02*
X1966905D01*
X1973148Y1638556D02*
X1971236Y1644012D01*
X1971573D02*
X1973486Y1638500D01*
X1971911Y1644069D02*
X1973486Y1638556D01*
X1975005Y1643956D02*
X1973261Y1638781D01*
X1975398Y1644012D02*
X1973542Y1638612D01*
X1975680Y1644012D02*
X1973823Y1638612D01*
X1976861Y1644012D02*
Y1638556D01*
X1977198D02*
Y1644012D01*
X1977423D02*
Y1638556D01*
X1980405Y1643956D02*
X1982205D01*
X1982767Y1643675D02*
X1979673D01*
X1979336Y1643394D02*
X1983105D01*
X1982148Y1643056D02*
X1983330D01*
X1982430Y1642775D02*
X1983442D01*
X1983555Y1642494D02*
X1982598D01*
X1980292Y1643225D02*
X1979786Y1642775D01*
X1979673Y1643225D02*
X1979617Y1638894D01*
X1979280Y1639119D02*
X1979336Y1643281D01*
X1978942Y1642775D02*
Y1639962D01*
X1979617Y1640075D02*
X1980292Y1639175D01*
X1979730D02*
X1982992Y1639119D01*
X1982711Y1638725D02*
X1979786Y1638837D01*
X1980461Y1638612D02*
X1981923Y1638556D01*
X1982655Y1640300D02*
X1982261Y1639175D01*
X1983048Y1640244D02*
X1982486Y1639175D01*
X1983442Y1640244D02*
X1982823Y1639231D01*
X1984961Y1644012D02*
Y1638556D01*
X1985355D02*
Y1644069D01*
X1985580D02*
Y1638444D01*
X1988730Y1643787D02*
X1985636D01*
X1985580Y1643450D02*
X1988730D01*
X1988448Y1641594D02*
X1985580D01*
X1985523Y1641256D02*
X1988448D01*
X1988842Y1639062D02*
X1985580D01*
X1988898Y1638725D02*
X1985636D01*
X1993117Y1643956D02*
X1990586D01*
X1990136Y1643619D02*
X1993567D01*
X1993792Y1643394D02*
X1990023D01*
X1993905Y1643112D02*
X1992892D01*
X1993061Y1642775D02*
X1993961D01*
X1990080Y1643225D02*
Y1641706D01*
X1990417Y1643281D02*
Y1641312D01*
X1990698Y1643337D02*
Y1641144D01*
Y1641931D02*
X1993792Y1641087D01*
X1990755Y1641537D02*
X1994073Y1640637D01*
X1992667Y1640750D02*
X1994186Y1640300D01*
X1993905D02*
X1994017Y1639344D01*
X1993623Y1640356D02*
X1993680Y1638894D01*
X1993398Y1640469D02*
X1993342Y1638669D01*
X1993230Y1639119D02*
X1990080D01*
X1990473Y1638781D02*
X1993173D01*
X1993061Y1638556D02*
X1991205D01*
X1989855Y1640019D02*
X1990192Y1639344D01*
Y1640019D02*
X1990586Y1639287D01*
X1990473Y1640019D02*
X1990867Y1639287D01*
X1992611Y1640862D02*
X1990811Y1641312D01*
X1992442Y1646037D02*
X1991880Y1645587D01*
X1983780Y1650200D02*
X1983442Y1649581D01*
X1945923Y1650256D02*
X1958073Y1650144D01*
X1957117Y1649525D02*
X1957061Y1639906D01*
X1957905Y1639794D02*
X1957961Y1649412D01*
X1957680Y1640019D02*
X1945923D01*
X1953348Y1642044D02*
X1950311Y1640187D01*
X1947555Y1639906D02*
X1947611Y1649750D01*
X1946767Y1649694D02*
X1946655Y1640131D01*
X1973992Y1650144D02*
X1972248Y1645419D01*
G54D63*
X2093093Y1654038D02*
Y1649609D01*
X2091482Y1651824D02*
X2094703D01*
X2091679Y1626430D02*
X2094900D01*
G54D89*
X2066384Y1598526D02*
Y1571558D01*
X2058116*
Y1598526*
X2066384*
X2064810Y1589499D02*
X2059559D01*
G03X2059604Y1588137I119J-678*
G01X2061687Y1588102*
Y1586982*
X2059609Y1586999*
G03X2059606Y1585613I67J-693*
G01X2064983Y1585577*
G03X2064984Y1586959I-207J692*
G01X2063055*
X2063079Y1588147*
X2064854Y1588117*
G03X2064810Y1589499I-49J690*
G01X2063641Y1582637D02*
G03X2064356Y1581545I446J-488D01*
G01X2065134Y1582077*
X2065464Y1582800*
X2065553Y1583093*
Y1583843*
X2065233Y1584651*
X2064658Y1585123*
X2064303Y1585357*
X2063431*
X2063077Y1585250*
X2062749Y1585084*
X2062401Y1584846*
X2062167Y1584510*
X2061979Y1584223*
X2061724Y1583739*
X2061602Y1583354*
X2061479Y1583161*
X2061377Y1583059*
X2061110Y1582933*
X2060776Y1582857*
X2060588*
X2060481Y1582940*
X2060335Y1583196*
X2060347Y1583615*
X2060459Y1583896*
X2060847Y1584162*
G03X2060005Y1585214I-431J518*
G01X2059471Y1584851*
X2059205Y1584511*
X2058967Y1583936*
Y1582884*
X2059351Y1582138*
X2059458Y1582017*
X2060070Y1581592*
X2060223Y1581493*
X2061268Y1581470*
X2061965Y1581746*
X2062320Y1582006*
X2062473Y1582204*
X2062629Y1582453*
X2062843Y1582827*
X2063117Y1583411*
X2063203Y1583637*
X2063331Y1583826*
X2063419Y1583895*
X2063724Y1584008*
X2063847Y1584012*
X2064027Y1583893*
X2064168Y1583622*
X2064150Y1583220*
X2064046Y1582983*
X2063641Y1582637*
X2065498Y1597601D02*
X2059622D01*
G03Y1596164I77J-718*
G01X2061667*
Y1596055*
X2059260Y1594953*
G03X2059853Y1593734I380J-569*
G01X2061866Y1594604*
X2062019Y1594321*
X2062532Y1593915*
X2063183Y1593644*
X2063995*
X2064628Y1593876*
X2065157Y1594294*
X2065498Y1595083*
Y1597601*
X2061882Y1579078D02*
X2058714Y1576137D01*
X2064892Y1572303*
X2066268Y1572990*
X2061385Y1576449*
X2063021Y1578699*
X2061882Y1579078*
X2058116Y1598131D02*
X2066384D01*
X2065498Y1597600D02*
X2066384D01*
X2065498Y1597068D02*
X2066384D01*
X2065498Y1596537D02*
X2066384D01*
X2065498Y1596005D02*
X2066384D01*
X2065498Y1595474D02*
X2066384D01*
X2065437Y1594942D02*
X2066384D01*
X2065208Y1594411D02*
X2066384D01*
X2064633Y1593879D02*
X2066384D01*
X2058116Y1593348D02*
X2066384D01*
X2058116Y1592816D02*
X2066384D01*
X2058116Y1592285D02*
X2066384D01*
X2058116Y1591753D02*
X2066384D01*
X2058116Y1591222D02*
X2066384D01*
X2058116Y1590690D02*
X2066384D01*
X2058116Y1590159D02*
X2066384D01*
X2058116Y1589627D02*
X2066384D01*
X2065434Y1589096D02*
X2066384D01*
X2065453Y1588564D02*
X2066384D01*
X2063076Y1588033D02*
X2066384D01*
X2063066Y1587501D02*
X2066384D01*
X2063055Y1586970D02*
X2066384D01*
X2065477Y1586438D02*
X2066384D01*
X2065401Y1585907D02*
X2066384D01*
X2058116Y1585375D02*
X2066384D01*
X2064997Y1584844D02*
X2066384D01*
X2065367Y1584312D02*
X2066384D01*
X2065553Y1583781D02*
X2066384D01*
X2065553Y1583249D02*
X2066384D01*
X2065427Y1582718D02*
X2066384D01*
X2065184Y1582186D02*
X2066384D01*
X2064517Y1581655D02*
X2066384D01*
X2058116Y1581123D02*
X2066384D01*
X2058116Y1580592D02*
X2066384D01*
X2058116Y1580060D02*
X2066384D01*
X2058116Y1579529D02*
X2066384D01*
X2062125Y1578998D02*
X2066384D01*
X2062852Y1578466D02*
X2066384D01*
X2062466Y1577935D02*
X2066384D01*
X2062079Y1577403D02*
X2066384D01*
X2061693Y1576872D02*
X2066384D01*
X2061539Y1576340D02*
X2066384D01*
X2062289Y1575809D02*
X2066384D01*
X2063039Y1575277D02*
X2066384D01*
X2063790Y1574746D02*
X2066384D01*
X2064540Y1574214D02*
X2066384D01*
X2065290Y1573683D02*
X2066384D01*
X2066041Y1573151D02*
X2066384D01*
X2065526Y1572620D02*
X2066384D01*
X2058116Y1572088D02*
X2066384D01*
X2058116Y1572620D02*
X2064381D01*
X2063041Y1583249D02*
X2064152D01*
X2063300Y1583781D02*
X2064085D01*
X2062781Y1582718D02*
X2063736D01*
X2061735Y1581655D02*
X2063647D01*
X2058116Y1573151D02*
X2063525D01*
X2062459Y1582186D02*
X2063427D01*
X2058116Y1573683D02*
X2062669D01*
X2060190Y1593879D02*
X2062618D01*
X2061070Y1584844D02*
X2062400D01*
X2060981Y1584312D02*
X2062037D01*
X2061419Y1594411D02*
X2061970D01*
X2058116Y1574214D02*
X2061813D01*
X2058116Y1578998D02*
X2061795D01*
X2060413Y1583781D02*
X2061747D01*
X2058116Y1588033D02*
X2061687D01*
X2058116Y1587501D02*
X2061687D01*
X2058116Y1596005D02*
X2061560D01*
X2060336Y1583249D02*
X2061536D01*
X2058116Y1578466D02*
X2061223D01*
X2058116Y1574746D02*
X2060956D01*
X2058116Y1577935D02*
X2060650D01*
X2058116Y1595474D02*
X2060398D01*
X2058116Y1575277D02*
X2060100D01*
X2058116Y1577403D02*
X2060078D01*
X2058116Y1581655D02*
X2059979D01*
X2058116Y1597600D02*
X2059610D01*
X2058116Y1576872D02*
X2059505D01*
X2058116Y1586970D02*
X2059467D01*
X2058116Y1584844D02*
X2059466D01*
X2058116Y1582186D02*
X2059326D01*
X2058116Y1594942D02*
X2059245D01*
X2058116Y1575809D02*
X2059244D01*
X2058116Y1593879D02*
X2059177D01*
X2058116Y1584312D02*
X2059123D01*
X2058116Y1585907D02*
X2059106D01*
X2058116Y1596537D02*
X2059065D01*
X2058116Y1582718D02*
X2059052D01*
X2058116Y1589096D02*
X2059047D01*
X2058116Y1588564D02*
X2059039D01*
X2058116Y1597068D02*
X2059001D01*
X2058116Y1586438D02*
X2058993D01*
X2058116Y1583781D02*
X2058967D01*
X2058116Y1583249D02*
X2058967D01*
X2058116Y1594411D02*
X2058956D01*
X2058116Y1576340D02*
X2058933D01*
X1992465Y1649222D02*
X1992328Y1649496D01*
X1992191Y1649701*
X1991986Y1649906*
X1991781Y1650043*
X1991439Y1650112*
X1991097Y1650180*
X1990755Y1650112*
X1990481Y1650043*
X1990207Y1649838*
X1990002Y1649633*
X1989797Y1649359*
X1989660Y1648949*
X1989592Y1648538*
X1989523Y1648060*
X1989592Y1647580*
X1989660Y1647170*
X1989729Y1646965*
X1989797Y1646828*
X1990002Y1646554*
X1990276Y1646349*
X1990549Y1646212*
X1990823Y1646144*
X1991371*
X1991644Y1646212*
X1991918Y1646349*
X1992123Y1646486*
X1992260Y1646623*
X1992397Y1646896*
X1992533Y1647102*
X1992602Y1647375*
X1991233*
Y1648333*
X1993628*
Y1645254*
X1992875*
X1992739Y1646007*
X1992397Y1645597*
X1992123Y1645392*
X1991849Y1645254*
X1991576Y1645186*
X1991233Y1645118*
X1990960*
X1990413Y1645186*
X1990139*
X1989865Y1645323*
X1989455Y1645528*
X1989045Y1645870*
X1988907Y1646076*
X1988702Y1646349*
X1988634Y1646554*
X1988497Y1646828*
X1988429Y1647102*
X1988361Y1647444*
X1988292Y1647718*
Y1648402*
X1988361Y1648744*
X1988612Y1649501*
X1988634Y1649564*
X1988771Y1649838*
X1988907Y1650112*
X1989045Y1650317*
X1989250Y1650522*
X1989455Y1650659*
X1989729Y1650796*
X1989934Y1650932*
X1990207Y1651001*
X1990481Y1651070*
X1991097Y1651138*
X1991644*
X1991849Y1651070*
X1992055Y1651001*
X1992533Y1650864*
X1992875Y1650590*
X1993149Y1650317*
X1993286Y1650112*
X1993354Y1649975*
X1993559Y1649633*
X1993628Y1649222*
X1992465*
G74*
X0Y0D02*
M02*
